<?xml version="1.0" encoding="UTF-8"?>
<!-- Generator: visioncortex VTracer 0.6.5 -->
<svg version="1.1" xmlns="http://www.w3.org/2000/svg" width="1024" height="318">
<path d="M0 0 C337.92 0 675.84 0 1024 0 C1024 104.94 1024 209.88 1024 318 C686.08 318 348.16 318 0 318 C0 213.06 0 108.12 0 0 Z " fill="#FEFEFE" transform="translate(0,0)"/>
<path d="M0 0 C17.407 10.227 36.071 17.747 56.531 13.461 C59.475 12.528 62.244 11.448 65.062 10.188 C65.492 10.006 65.492 10.006 67.664 9.09 C77.209 4.731 84.632 -1.883 91.371 -9.832 C92.866 -11.583 94.411 -13.211 96.062 -14.812 C95.256 8.726 86.81 27.968 72.062 46.188 C71.435 47.01 70.807 47.832 70.16 48.68 C55.84 65.8 32.148 76.556 10.266 78.993 C-16.916 81.396 -41.298 74.808 -62.75 57.688 C-70.748 50.897 -77.234 44.018 -82.938 35.188 C-83.475 34.36 -84.013 33.532 -84.566 32.68 C-90.459 23.257 -94.661 14.559 -92.938 3.188 C-89.931 -5.992 -82.188 -12.314 -73.875 -16.688 C-47.092 -28.832 -22.859 -13.46 0 0 Z " fill="#529B45" transform="translate(276.9375,206.8125)"/>
<path d="M0 0 C3.123 1.386 5.242 2.995 7.645 5.414 C7.983 5.754 7.983 5.754 9.697 7.473 C10.046 7.828 10.046 7.828 11.812 9.625 C12.499 10.312 13.185 10.999 13.893 11.707 C17.872 15.72 21.671 19.842 25.363 24.12 C27.798 26.916 30.339 29.608 32.875 32.312 C38.172 38.014 43.163 43.9 48 50 C48.883 51.102 49.766 52.203 50.648 53.305 C70.891 78.679 95.414 112.459 97.5 146.188 C96.259 155.654 92.75 163.454 87 171 C86.629 171.516 86.629 171.516 84.75 174.125 C75.539 183.755 62.67 190.464 49.336 191.203 C26.504 191.473 8.507 180.477 -10.52 168.863 C-26.93 159.017 -45.18 153.006 -64.426 156.648 C-76.227 160.306 -86.484 167.157 -95 176 C-92.329 164.722 -82.767 154.81 -73.208 148.799 C-57.546 139.516 -40.32 137.563 -22.734 141.84 C-10.125 145.757 1.827 151.712 13.619 157.586 C19.28 160.361 24.906 162.389 31 164 C31.692 164.186 32.383 164.373 33.095 164.564 C42.912 166.809 52.337 165.053 60.805 159.902 C66.01 156.083 68.738 150.203 70 144 C73.202 117.422 49.159 87.408 33.926 67.922 C25.128 56.822 15.731 46.288 6 36 C5.309 35.198 4.618 34.396 3.906 33.57 C2 32 2 32 0.02 31.961 C-2.748 33.385 -4.298 35.257 -6.312 37.625 C-8.957 40.675 -11.585 43.645 -14.5 46.438 C-18.582 50.464 -22.122 54.899 -25.696 59.375 C-27.107 61.133 -28.533 62.877 -29.961 64.621 C-36.098 72.149 -41.809 79.777 -47 88 C-47.655 89.013 -48.31 90.026 -48.984 91.07 C-56.817 103.427 -63.792 116.494 -67.738 130.648 C-69.911 137.508 -73.261 140.159 -79.441 143.723 C-82 145 -82 145 -85 146 C-85 146.66 -85 147.32 -85 148 C-86.147 149.181 -87.301 150.356 -88.492 151.492 C-90.743 153.743 -92.738 156.194 -94.766 158.645 C-95.173 159.092 -95.58 159.539 -96 160 C-96.33 160 -96.66 160 -97 160 C-96.256 119.738 -73.912 83.857 -49.252 53.541 C-48.05 52.061 -46.858 50.572 -45.668 49.082 C-41.076 43.381 -36.276 37.919 -31.316 32.535 C-29.433 30.474 -27.614 28.383 -25.812 26.25 C-21.536 21.302 -16.817 16.769 -12.154 12.19 C-11.519 11.564 -10.884 10.938 -10.23 10.293 C-9.944 10.012 -9.944 10.012 -8.493 8.591 C-7 7 -7 7 -5 4 C-4.34 4 -3.68 4 -3 4 C-3 3.34 -3 2.68 -3 2 C-2.01 1.34 -1.02 0.68 0 0 Z " fill="#76B84A" transform="translate(275,21)"/>
<path d="M0 0 C5.94 0 11.88 0 18 0 C19 1 19 1 19.123 3.091 C19.122 4.019 19.121 4.947 19.12 5.904 C19.121 6.434 19.121 6.434 19.124 9.121 C19.123 9.708 19.123 9.708 19.114 12.68 C19.114 13.909 19.114 15.138 19.114 16.404 C19.113 19.784 19.108 23.164 19.101 26.544 C19.095 30.073 19.095 33.602 19.093 37.131 C19.09 43.817 19.082 50.504 19.072 57.19 C19.061 64.801 19.055 72.411 19.05 80.022 C19.04 95.681 19.022 111.341 19 127 C13.06 127 7.12 127 1 127 C1 123.04 1 119.08 1 115 C0.361 115.701 -0.279 116.403 -0.938 117.125 C-8.618 124.762 -17.076 129.095 -27.875 129.375 C-39.833 129.056 -48.263 125.318 -57.008 117.117 C-68.343 104.997 -69.58 91.692 -69.309 75.859 C-68.795 62.369 -63.215 53.828 -53.688 44.688 C-49.214 40.836 -44.582 38.784 -39 37 C-38.505 36.835 -38.505 36.835 -36 36 C-26.976 35.267 -18.074 35.56 -10 40 C-8.515 41.32 -8.515 41.32 -1 48 C-0.67 32.16 -0.34 16.32 0 0 Z " fill="#5BA241" transform="translate(835,100)"/>
<path d="M0 0 C3.565 2.787 6.826 5.778 10 9 C10.33 5.37 10.66 1.74 11 -2 C16.94 -2 22.88 -2 29 -2 C29 27.37 29 56.74 29 87 C23.06 87 17.12 87 11 87 C10.67 83.04 10.34 79.08 10 75 C9.196 76.052 8.391 77.104 7.562 78.188 C1.479 85.259 -6.64 88.412 -15.746 89.254 C-26.38 89.683 -35.758 87.009 -43.906 80.027 C-54.204 70.057 -59.075 59.696 -59.539 45.417 C-59.662 29.764 -56.462 17.97 -45.75 6.25 C-33.964 -4.989 -14.28 -8.108 0 0 Z " fill="#59A042" transform="translate(723,140)"/>
<path d="M0 0 C2.901 2.093 4.492 3.489 6.5 6.5 C6.83 2.87 7.16 -0.76 7.5 -4.5 C13.44 -4.5 19.38 -4.5 25.5 -4.5 C25.5 24.87 25.5 54.24 25.5 84.5 C19.56 84.5 13.62 84.5 7.5 84.5 C7.17 80.54 6.84 76.58 6.5 72.5 C5.757 73.531 5.015 74.562 4.25 75.625 C-1.355 82.206 -10.007 85.841 -18.5 86.703 C-29.98 86.972 -39.835 84.128 -48.5 76.5 C-53.401 71.788 -57.013 66.832 -59.5 60.5 C-59.799 59.77 -60.098 59.041 -60.406 58.289 C-62.581 51.906 -62.812 45.618 -62.875 38.938 C-62.889 38.063 -62.903 37.189 -62.917 36.288 C-62.831 24.166 -58.489 13.51 -50.125 4.688 C-36.11 -8.346 -16.099 -10.894 0 0 Z " fill="#5AA142" transform="translate(587.5,142.5)"/>
<path d="M0 0 C8.411 5.875 12.275 13.472 14.177 23.408 C14.638 26.575 14.769 29.543 14.762 32.742 C14.762 33.332 14.762 33.332 14.762 36.32 C14.757 37.579 14.751 38.839 14.746 40.137 C14.745 41.438 14.743 42.739 14.742 44.079 C14.738 47.522 14.728 50.964 14.717 54.407 C14.707 57.926 14.702 61.445 14.697 64.965 C14.687 71.858 14.669 78.751 14.648 85.645 C8.378 85.645 2.108 85.645 -4.352 85.645 C-4.361 83.899 -4.37 82.154 -4.38 80.355 C-4.416 74.564 -4.469 68.772 -4.535 62.981 C-4.575 59.473 -4.607 55.964 -4.623 52.456 C-4.641 48.414 -4.691 44.373 -4.742 40.332 C-4.743 39.083 -4.745 37.834 -4.746 36.546 C-4.885 28.244 -5.936 22.832 -11.289 16.27 C-17.018 11.756 -23.385 12.079 -30.352 12.645 C-36.754 14.324 -40.751 18.22 -44.352 23.645 C-45.918 27.698 -46.612 31.131 -46.67 35.466 C-46.69 36.587 -46.71 37.708 -46.731 38.862 C-46.742 40.056 -46.754 41.25 -46.766 42.48 C-46.785 43.715 -46.804 44.949 -46.824 46.221 C-46.884 50.154 -46.93 54.087 -46.977 58.02 C-47.014 60.69 -47.054 63.361 -47.094 66.031 C-47.19 72.569 -47.274 79.107 -47.352 85.645 C-53.622 85.645 -59.892 85.645 -66.352 85.645 C-66.352 56.275 -66.352 26.905 -66.352 -3.355 C-60.412 -3.355 -54.472 -3.355 -48.352 -3.355 C-48.022 0.275 -47.692 3.905 -47.352 7.645 C-46.836 6.923 -46.32 6.201 -45.789 5.457 C-34.059 -8.078 -15.046 -8.672 0 0 Z " fill="#5EA246" transform="translate(496.3515625,141.35546875)"/>
<path d="M0 0 C0.393 -0.013 0.393 -0.013 2.379 -0.078 C11.391 0.889 19.179 4.881 27.125 9 C29.252 10.079 31.38 11.157 33.508 12.234 C34.528 12.753 35.548 13.272 36.599 13.807 C57.091 24.225 78.203 31.045 101.141 24.051 C101.899 23.787 102.657 23.522 103.438 23.25 C104.056 23.054 104.056 23.054 107.188 22.062 C107.93 21.794 108.673 21.526 109.438 21.25 C98.933 38.675 83.452 48.301 64.438 54.25 C44.584 58.842 24.272 54.714 7.106 44.31 C-2.763 38.041 -13.564 29.041 -16.562 17.25 C-16.983 13.924 -16.843 11.365 -15.562 8.25 C-11.184 3.054 -6.876 0.132 0 0 Z " fill="#FAFDF9" transform="translate(228.5625,209.75)"/>
<path d="M0 0 C0.887 0.396 1.773 0.792 2.687 1.201 C5.34 2.39 7.984 3.597 10.625 4.812 C11.449 5.185 12.273 5.558 13.122 5.942 C13.878 6.298 14.635 6.653 15.414 7.02 C16.084 7.33 16.754 7.64 17.444 7.96 C19 9 19 9 20 12 C22.75 13.062 22.75 13.062 26 14 C26.783 14.339 27.565 14.679 28.371 15.028 C32.923 16.711 37.628 16.563 42.438 16.75 C43.462 16.805 44.486 16.861 45.541 16.918 C53.307 17.25 58.373 16.142 65 12 C66.072 11.484 67.145 10.969 68.25 10.438 C71 9 71 9 72 7 C74.626 5.825 77.27 4.91 80 4 C81.616 8.848 80.056 11.493 78 16 C77.602 17.988 77.245 19.987 77 22 C78.65 21.34 80.3 20.68 82 20 C82.33 20.99 82.66 21.98 83 23 C82.34 23 81.68 23 81 23 C80.951 23.3 80.951 23.3 80.703 24.82 C79.075 29.866 73.217 32.362 68.789 34.684 C55.984 40.793 41.87 42.144 28.109 38.164 C14.602 33.107 1.763 25.36 -10.52 17.863 C-26.93 8.017 -45.18 2.006 -64.426 5.648 C-76.227 9.306 -86.484 16.157 -95 25 C-92.329 13.722 -82.767 3.81 -73.208 -2.201 C-48.611 -16.78 -24.552 -11.139 0 0 Z " fill="#71B449" transform="translate(275,172)"/>
<path d="M0 0 C7.627 4.016 11.889 10.504 14.465 18.578 C16.775 28.803 14.923 37.735 9.84 46.789 C6.332 52.007 2.163 55.587 -3.875 57.5 C-11.538 58.582 -18.415 58.408 -24.98 54.035 C-32.378 48.041 -36.212 40.761 -37.223 31.219 C-37.476 21.802 -35.847 13.965 -29.875 6.5 C-21.587 -1.749 -11.292 -4.385 0 0 Z " fill="#FCFDFB" transform="translate(718.875,154.5)"/>
<path d="M0 0 C7.834 5.218 11.819 11.807 14 20.938 C15.082 29.656 13.442 37.622 9.125 45.25 C4.319 51.328 -0.34 56.332 -8.246 57.359 C-17.215 57.707 -22.972 56.287 -29.738 50.434 C-36.095 43.888 -38.218 35.676 -38.438 26.75 C-38.159 17.948 -35.758 10.685 -29.363 4.305 C-21.309 -2.928 -9.997 -5.169 0 0 Z " fill="#FAFDF9" transform="translate(581,155.0625)"/>
<path d="M0 0 C6.287 4.889 12.018 11.319 13.16 19.469 C13.28 21.601 13.296 23.701 13.254 25.836 C13.242 26.586 13.231 27.336 13.219 28.109 C12.938 37.606 10.734 43.567 4.035 50.508 C-2.161 56.12 -7.675 57.149 -16.008 56.832 C-23.888 55.893 -28.458 51.886 -33.422 45.859 C-39.192 37.715 -39.025 28.078 -38.121 18.461 C-37.194 15.137 -35.895 12.405 -34.121 9.461 C-33.729 8.574 -33.337 7.687 -32.934 6.773 C-25.42 -2.813 -10.721 -6.312 0 0 Z " fill="#FBFDFA" transform="translate(822.12109375,155.5390625)"/>
<path d="M0 0 C5.94 0 11.88 0 18 0 C18 29.37 18 58.74 18 89 C12.06 89 6.12 89 0 89 C0 59.63 0 30.26 0 0 Z " fill="#58A240" transform="translate(631,138)"/>
<path d="M0 0 C0.99 0 1.98 0 3 0 C3.165 0.33 3.165 0.33 4 2 C5.32 1.67 6.64 1.34 8 1 C10.29 4.435 10.178 5.985 10 10 C10.99 10.33 11.98 10.66 13 11 C12.299 18.294 9.58 24.165 6.157 30.533 C3.826 34.989 2.239 39.295 0.905 44.139 C-1.123 51.451 -2.745 55.739 -9.188 60.062 C-12.121 61.69 -14.82 62.94 -18 64 C-18 64.66 -18 65.32 -18 66 C-19.147 67.181 -20.301 68.356 -21.492 69.492 C-23.743 71.743 -25.738 74.194 -27.766 76.645 C-28.173 77.092 -28.58 77.539 -29 78 C-29.33 78 -29.66 78 -30 78 C-29.713 62.475 -25.967 47.481 -20.5 33 C-20.228 32.265 -19.956 31.53 -19.675 30.772 C-17.854 26.206 -15.734 23.325 -12 20 C-10.167 17.828 -9.063 16.167 -8.062 13.5 C-7 11 -7 11 -5.062 9.125 C-2.342 6.322 -1.398 3.634 0 0 Z " fill="#59A145" transform="translate(208,103)"/>
<path d="M0 0 C0.592 0.133 1.183 0.266 1.793 0.402 C2.583 0.579 3.373 0.756 4.188 0.938 C5.009 1.123 5.83 1.309 6.676 1.5 C8.397 1.87 10.134 2.173 11.875 2.438 C14 3 14 3 15.309 4.398 C17.428 6.405 19.466 7.162 22.188 8.188 C23.089 8.532 23.99 8.876 24.918 9.23 C25.605 9.484 26.292 9.738 27 10 C27 10.66 27 11.32 27 12 C27.66 12 28.32 12 29 12 C29 12.66 29 13.32 29 14 C29.302 14.085 29.302 14.085 30.828 14.516 C35.638 15.974 38.578 17.184 42 21 C42.99 21 43.98 21 45 21 C45 20.34 45 19.68 45 19 C45.66 19 46.32 19 47 19 C46.835 18.505 46.835 18.505 46 16 C46.99 15.34 47.98 14.68 49 14 C51.605 14.951 53.959 15.974 56.438 17.188 C71.489 24.137 86.869 27.435 103 22 C105.23 20.871 105.23 20.871 107.062 19.75 C110 18 110 18 112.438 18.25 C112.953 18.498 113.469 18.745 114 19 C114 22 114 22 112.707 23.395 C98.967 33.678 84.694 36.699 67.852 34.609 C51.995 31.221 37.127 20.969 23.305 12.828 C16.779 9.004 10.317 5.685 3.23 3.008 C1 2 1 2 0 0 Z " fill="#63A645" transform="translate(241,177)"/>
<path d="M0 0 C3.469 3.246 5.468 6.999 7.75 11.125 C8.191 11.922 8.632 12.719 9.086 13.54 C13.377 21.449 16.858 29.577 20 38 C20.446 39.185 20.892 40.369 21.352 41.59 C24.186 49.542 24.186 49.542 23 54 C22.794 56.081 22.589 58.163 22.405 60.246 C20.945 76.224 20.945 76.224 17 82 C14.867 83.25 14.867 83.25 13 84 C10.007 79.888 9.724 77.325 10.25 72.312 C10.358 71.174 10.467 70.036 10.578 68.863 C11 66 11 66 12 64 C12.069 62.627 12.085 61.25 12.062 59.875 C12.042 58.596 12.021 57.317 12 56 C11.34 56.99 10.68 57.98 10 59 C9.996 58.387 9.992 57.774 9.988 57.143 C9.802 41.271 8.192 28.374 1.125 14.062 C-1.382 8.908 -1.184 5.558 0 0 Z " fill="#8EC85F" transform="translate(346,104)"/>
<path d="M0 0 C0.66 0 1.32 0 2 0 C3.205 1.589 3.205 1.589 4.531 3.797 C5.012 4.591 5.493 5.385 5.988 6.203 C6.487 7.044 6.986 7.884 7.5 8.75 C7.999 9.575 8.498 10.4 9.012 11.25 C15.688 22.348 15.688 22.348 15 29 C12.946 32.814 10.895 36 7 38 C2.554 39.097 -0.923 39.345 -5.312 37.938 C-9.195 35.138 -11.247 32.6 -12.594 27.949 C-13.641 19.291 -7.851 12.512 -3.145 5.764 C-1.937 3.904 -0.957 1.999 0 0 Z " fill="#88C157" transform="translate(639,88)"/>
<path d="M0 0 C3.123 1.386 5.242 2.995 7.645 5.414 C7.983 5.754 7.983 5.754 9.697 7.473 C10.046 7.828 10.046 7.828 11.812 9.625 C12.499 10.312 13.185 10.999 13.893 11.707 C17.888 15.737 21.716 19.869 25.415 24.172 C27.565 26.652 29.795 29.055 32.031 31.457 C32.191 31.712 32.191 31.712 33 33 C32.67 33.99 32.34 34.98 32 36 C31.01 36 30.02 36 29 36 C28.835 35.175 28.835 35.175 28 31 C27.34 31 26.68 31 26 31 C26 30.01 26 29.02 26 28 C25.505 28.165 25.505 28.165 23 29 C22.918 28.258 22.835 27.515 22.75 26.75 C21.846 23.434 20.629 22.165 18 20 C17.505 19.835 17.505 19.835 15 19 C15 18.01 15 17.02 15 16 C13.68 15.34 12.36 14.68 11 14 C11 13.34 11 12.68 11 12 C10.01 11.67 9.02 11.34 8 11 C8 10.34 8 9.68 8 9 C7.402 8.711 6.804 8.422 6.188 8.125 C4 7 4 7 1 5 C0.67 6.32 0.34 7.64 0 9 C-0.697 9.036 -1.395 9.072 -2.113 9.109 C-6.294 10.399 -8.337 13.031 -11.188 16.25 C-11.753 16.873 -12.318 17.496 -12.9 18.138 C-18.293 24.164 -23.164 30.525 -28 37 C-28.731 37.886 -29.462 38.771 -30.215 39.684 C-32 42 -32 42 -33 45 C-33.66 45 -34.32 45 -35 45 C-35.277 45.572 -35.554 46.144 -35.839 46.733 C-36.992 48.985 -38.249 51.119 -39.574 53.273 C-45.508 62.995 -51.151 72.688 -56 83 C-59.875 81.25 -59.875 81.25 -61 79 C-58.689 70.031 -53.013 61.084 -47.316 53.867 C-46 52 -46 52 -45.562 50.035 C-44.757 47.121 -43.07 45.619 -41 43.438 C-37.893 40.099 -34.976 36.732 -32.188 33.125 C-26.606 26.183 -20.179 20.052 -13.831 13.817 C-13.406 13.399 -13.406 13.399 -11.254 11.281 C-10.484 10.529 -9.714 9.777 -8.92 9.002 C-7 7 -7 7 -5 4 C-4.34 4 -3.68 4 -3 4 C-3 3.34 -3 2.68 -3 2 C-2.01 1.34 -1.02 0.68 0 0 Z " fill="#A0CD78" transform="translate(275,21)"/>
<path d="M0 0 C3.798 4.789 4.688 8.95 4 15 C1.441 25.762 -3.831 33.777 -11 42 C-11.165 41.505 -11.165 41.505 -12 39 C-11.34 39 -10.68 39 -10 39 C-10.33 38.34 -10.66 37.68 -11 37 C-11.825 37.165 -11.825 37.165 -16 38 C-16.383 32.768 -15.219 29.622 -13 25 C-11.494 26.964 -10.109 28.783 -9 31 C-6 30 -6 30 -4.867 27.891 C-4.54 27.019 -4.212 26.148 -3.875 25.25 C-3.709 24.819 -3.709 24.819 -2.867 22.641 C-1.191 17.537 -0.749 12.528 -0.438 7.188 C-0.394 6.495 -0.351 5.802 -0.307 5.088 C-0.201 3.392 -0.1 1.696 0 0 Z M-9 2 C-8.973 3.625 -8.954 5.25 -8.938 6.875 C-8.926 7.78 -8.914 8.685 -8.902 9.617 C-9 12 -9 12 -10 14 C-10.228 15.871 -10.41 17.747 -10.562 19.625 C-10.646 20.628 -10.73 21.631 -10.816 22.664 C-10.847 23.049 -10.847 23.049 -11 25 C-11.66 24.34 -12.32 23.68 -13 23 C-13 22.01 -13 21.02 -13 20 C-17.875 21.75 -17.875 21.75 -19 24 C-19.33 24.165 -19.33 24.165 -21 25 C-21.66 25.66 -22.32 26.32 -23 27 C-24.664 27.674 -26.331 28.34 -28 29 C-28.804 29.495 -29.609 29.99 -30.438 30.5 C-36.246 33.9 -41.399 34.291 -48 34 C-49.296 33.959 -50.591 33.917 -51.926 33.875 C-53.346 33.814 -54.767 33.752 -56.188 33.688 C-56.526 33.676 -56.526 33.676 -58.24 33.62 C-64.21 33.296 -68.11 31.26 -73 28 C-72.67 27.34 -72.34 26.68 -72 26 C-71.325 26.205 -70.649 26.41 -69.953 26.621 C-69.061 26.891 -68.169 27.16 -67.25 27.438 C-66.368 27.704 -65.487 27.971 -64.578 28.246 C-53.928 31.36 -40.307 32.308 -30.125 27.438 C-27.379 25.754 -27.379 25.754 -25 24 C-24.308 23.493 -23.616 22.987 -22.902 22.465 C-18.18 18.385 -16.228 13.464 -14.141 7.672 C-11.719 2 -11.719 2 -9 2 Z " fill="#8AC75D" transform="translate(368,156)"/>
<path d="M0 0 C5.94 0 11.88 0 18 0 C19 1 19 1 19.123 3.091 C19.122 4.019 19.121 4.947 19.12 5.904 C19.122 6.965 19.123 8.027 19.124 9.121 C19.121 10.295 19.117 11.47 19.114 12.68 C19.114 13.909 19.114 15.138 19.114 16.404 C19.113 19.784 19.108 23.164 19.101 26.544 C19.095 30.073 19.095 33.602 19.093 37.131 C19.09 43.817 19.082 50.504 19.072 57.19 C19.061 64.801 19.055 72.411 19.05 80.022 C19.04 95.681 19.022 111.341 19 127 C13.06 127 7.12 127 1 127 C1 126.67 1 126.34 1 126 C6.61 126 12.22 126 18 126 C17.67 101.25 17.34 76.5 17 51 C16.67 51 16.34 51 16 51 C16 35.16 16 19.32 16 3 C15.01 3.33 14.02 3.66 13 4 C11.027 3.879 11.027 3.879 8.938 3.562 C5 3 5 3 3 3 C3.012 3.886 3.023 4.773 3.035 5.686 C3.106 15.478 2.666 25.17 2 34.938 C1.903 36.411 1.807 37.884 1.711 39.357 C1.479 42.905 1.241 46.453 1 50 C0.34 49.67 -0.32 49.34 -1 49 C-0.67 32.83 -0.34 16.66 0 0 Z " fill="#8AB673" transform="translate(835,100)"/>
<path d="M0 0 C0.66 0.66 1.32 1.32 2 2 C2.66 1.67 3.32 1.34 4 1 C4.66 2.98 5.32 4.96 6 7 C6.66 7 7.32 7 8 7 C8.33 8.98 8.66 10.96 9 13 C8.67 13 8.34 13 8 13 C7.902 14.183 7.804 15.367 7.703 16.586 C6.013 35.125 6.013 35.125 2 41 C-0.133 42.25 -0.133 42.25 -2 43 C-4.858 39.012 -5.31 36.601 -4.812 31.75 C-4.695 30.598 -4.578 29.445 -4.457 28.258 C-3.992 24.94 -3.292 21.781 -2.473 18.539 C-1.585 13.77 -1.481 8.9 -1.246 4.062 C-1 1 -1 1 0 0 Z " fill="#A3D177" transform="translate(361,145)"/>
<path d="M0 0 C5.94 0 11.88 0 18 0 C18 29.37 18 58.74 18 89 C12.06 89 6.12 89 0 89 C0 59.63 0 30.26 0 0 Z M4 3 C1.603 5.397 1.738 5.96 1.681 9.233 C1.661 10.115 1.641 10.997 1.621 11.905 C1.609 12.869 1.598 13.832 1.586 14.824 C1.566 15.826 1.547 16.829 1.527 17.861 C1.466 21.136 1.42 24.412 1.375 27.688 C1.338 29.924 1.3 32.16 1.262 34.397 C1.056 47.076 0.905 59.757 0.875 72.438 C0.87 73.707 0.866 74.977 0.861 76.286 C0.863 77.428 0.865 78.57 0.867 79.746 C0.868 80.722 0.869 81.699 0.871 82.705 C1 85 1 85 2 87 C6.62 87 11.24 87 16 87 C17.532 83.936 17.139 80.731 17.129 77.369 C17.131 76.582 17.133 75.795 17.135 74.984 C17.139 72.375 17.136 69.766 17.133 67.156 C17.133 65.348 17.134 63.539 17.136 61.731 C17.137 57.938 17.135 54.145 17.13 50.352 C17.125 45.483 17.128 40.613 17.134 35.744 C17.138 32.009 17.136 28.274 17.134 24.539 C17.133 22.743 17.134 20.947 17.136 19.151 C17.139 16.644 17.135 14.138 17.129 11.631 C17.131 10.884 17.133 10.137 17.136 9.367 C17.114 4.229 17.114 4.229 16 2 C11.379 0.711 8.38 1.109 4 3 Z " fill="#5C904C" transform="translate(631,138)"/>
<path d="M0 0 C-0.33 2.64 -0.66 5.28 -1 8 C1.31 8.33 3.62 8.66 6 9 C5.691 11.884 4.984 13.018 3 15.188 C-0.979 17.592 -4.375 18.196 -9 18 C-12.974 16.725 -14.65 15.405 -17.375 12.25 C-19.231 8.539 -19.328 6.096 -19 2 C-17.188 1.312 -17.188 1.312 -15 1 C-13.25 2.438 -13.25 2.438 -12 4 C-11.67 3.67 -11.34 3.34 -11 3 C-10.443 2.928 -10.443 2.928 -7.625 2.562 C-4.918 2.143 -2.358 0 0 0 Z " fill="#63A647" transform="translate(646,109)"/>
<path d="M0 0 C3.123 1.386 5.242 2.995 7.645 5.414 C8.322 6.093 8.999 6.773 9.697 7.473 C10.046 7.828 10.046 7.828 11.812 9.625 C12.499 10.312 13.185 10.999 13.893 11.707 C17.888 15.737 21.716 19.869 25.415 24.172 C27.565 26.652 29.795 29.055 32.031 31.457 C32.191 31.712 32.191 31.712 33 33 C32.67 33.99 32.34 34.98 32 36 C31.01 36 30.02 36 29 36 C28.835 35.175 28.835 35.175 28 31 C27.34 31 26.68 31 26 31 C26 30.01 26 29.02 26 28 C25.01 28.33 24.02 28.66 23 29 C22.918 28.258 22.835 27.515 22.75 26.75 C21.846 23.434 20.629 22.165 18 20 C17.01 19.67 16.02 19.34 15 19 C15 18.01 15 17.02 15 16 C13.68 15.34 12.36 14.68 11 14 C11 13.34 11 12.68 11 12 C10.01 11.67 9.02 11.34 8 11 C8 10.34 8 9.68 8 9 C7.701 8.856 7.701 8.856 6.188 8.125 C4 7 4 7 1 5 C0.67 6.32 0.34 7.64 0 9 C-0.345 9.014 -0.345 9.014 -2.094 9.082 C-6.408 10.445 -8.567 13.35 -11.5 16.688 C-12.056 17.3 -12.611 17.913 -13.184 18.545 C-16.554 22.284 -19.801 26.114 -23 30 C-23.688 28.312 -23.688 28.312 -24 26 C-21.665 21.058 -17.809 17.617 -13.938 13.875 C-12.674 12.646 -11.412 11.414 -10.152 10.18 C-9.595 9.641 -9.038 9.102 -8.465 8.546 C-7 7 -7 7 -5 4 C-4.34 4 -3.68 4 -3 4 C-3 3.34 -3 2.68 -3 2 C-2.01 1.34 -1.02 0.68 0 0 Z " fill="#93C664" transform="translate(275,21)"/>
<path d="M0 0 C0.66 0 1.32 0 2 0 C3 2 4 4 5 6 C5.351 6.639 5.701 7.279 6.062 7.938 C7.638 11.404 9 15.167 9 19 C9.66 19.33 10.32 19.66 11 20 C14.533 26.859 14.457 35.44 14 43 C13.67 43.99 13.34 44.98 13 46 C13.495 45.835 13.495 45.835 16 45 C12.408 52.855 6.348 56.722 -1.352 60.152 C-4.066 61.021 -6.171 61.169 -9 61 C-7.112 59.505 -5.24 58.132 -3.129 56.969 C3.441 53.292 6.185 48.888 9.312 42.188 C12.26 28.524 6.815 16.213 0.918 4.074 C0 2 0 2 0 0 Z " fill="#448844" transform="translate(335,126)"/>
<path d="M0 0 C0 3.225 -0.334 3.87 -2.047 6.441 C-2.478 7.103 -2.91 7.765 -3.354 8.447 C-3.815 9.145 -4.275 9.843 -4.75 10.562 C-8.574 16.491 -11.824 22.245 -14 29 C-12.68 30.65 -11.36 32.3 -10 34 C-10.99 34 -11.98 34 -13 34 C-13.846 34.206 -14.691 34.412 -15.562 34.625 C-16.367 34.749 -17.171 34.873 -18 35 C-18.66 34.34 -19.32 33.68 -20 33 C-22 35 -22 35 -22.812 37.25 C-24 40 -24 40 -26.562 43.062 C-28.828 45.792 -29.326 46.744 -30 50 C-31.562 51.75 -31.562 51.75 -33 53 C-33.66 52.67 -34.32 52.34 -35 52 C-25.906 33.647 -14.591 14.591 0 0 Z " fill="#7EB657" transform="translate(229,71)"/>
<path d="M0 0 C0.99 0.33 1.98 0.66 3 1 C-6.575 13.858 -22.705 22.142 -38 26 C-38 24 -38 24 -36 22 C-36 21.34 -36 20.68 -36 20 C-34.84 19.527 -33.68 19.054 -32.484 18.566 C-23.553 14.821 -15.789 10.938 -8.285 4.785 C-6 3 -6 3 -3 2 C-2.34 2.33 -1.68 2.66 -1 3 C-0.67 2.01 -0.34 1.02 0 0 Z " fill="#468B45" transform="translate(341,256)"/>
<path d="M0 0 C-0.33 0.66 -0.66 1.32 -1 2 C-1.724 1.844 -2.449 1.688 -3.195 1.527 C-8.449 0.47 -12.708 -0.323 -18 1 C-18.99 1 -19.98 1 -21 1 C-22.543 1.103 -24.085 1.23 -25.625 1.375 C-26.422 1.445 -27.218 1.514 -28.039 1.586 C-28.686 1.723 -29.333 1.859 -30 2 C-30.33 2.66 -30.66 3.32 -31 4 C-31.804 4.144 -32.609 4.289 -33.438 4.438 C-36 5 -36 5 -38 8 C-36.68 8.33 -35.36 8.66 -34 9 C-34.797 9.352 -35.593 9.704 -36.414 10.066 C-44.56 13.862 -50.356 17.592 -54 26 C-54.414 28.141 -54.414 28.141 -54.625 30.25 C-54.749 31.488 -54.873 32.725 -55 34 C-55.33 34 -55.66 34 -56 34 C-56.632 25.704 -56.301 19.639 -51 13 C-38.003 -1.123 -18.264 -6.088 0 0 Z " fill="#A6C590" transform="translate(240,188)"/>
<path d="M0 0 C0.66 0 1.32 0 2 0 C2.154 11.439 2.302 22.878 2.443 34.318 C2.509 39.629 2.576 44.94 2.648 50.251 C2.717 55.374 2.782 60.496 2.843 65.618 C2.867 67.576 2.893 69.534 2.921 71.491 C2.959 74.226 2.991 76.96 3.022 79.695 C3.035 80.51 3.048 81.326 3.061 82.167 C3.114 87.772 3.114 87.772 2 90 C-4.6 90 -11.2 90 -18 90 C-18 89.67 -18 89.34 -18 89 C-12.06 89 -6.12 89 0 89 C0 59.63 0 30.26 0 0 Z " fill="#D1EAC8" transform="translate(649,138)"/>
<path d="M0 0 C0.165 0.33 0.165 0.33 1 2 C-9.093 16.019 -20.258 28.064 -37 34 C-39.438 33.688 -39.438 33.688 -41 33 C-23.167 18 -23.167 18 -18 18 C-18 17.34 -18 16.68 -18 16 C-16.461 14.668 -16.461 14.668 -14.375 13.188 C-8.934 9.227 -4.058 5.462 0 0 Z " fill="#7BB471" transform="translate(349,240)"/>
<path d="M0 0 C-4.625 4 -4.625 4 -8 4 C-9.03 5.648 -10.031 7.315 -11 9 C-11.66 9 -12.32 9 -13 9 C-13.66 9.66 -14.32 10.32 -15 11 C-15 11.33 -15 11.66 -15 12 C-12.03 11.34 -9.06 10.68 -6 10 C-5.67 8.68 -5.34 7.36 -5 6 C-4.072 6.165 -3.144 6.33 -2.188 6.5 C1 7 1 7 4 7 C4.33 6.34 4.66 5.68 5 5 C5 5.66 5 6.32 5 7 C5.577 6.907 5.577 6.907 8.5 6.438 C12.864 5.876 16.667 6.304 21 7 C21 7.33 21 7.66 21 8 C20.42 8.013 20.42 8.013 17.484 8.078 C-1.865 8.697 -17.378 14.854 -31 29 C-28.276 17.497 -18.434 7.623 -8.75 1.438 C-5.402 -0.615 -3.751 -1.437 0 0 Z " fill="#5B954B" transform="translate(211,168)"/>
<path d="M0 0 C0.66 0 1.32 0 2 0 C3.205 1.589 3.205 1.589 4.531 3.797 C5.012 4.591 5.493 5.385 5.988 6.203 C6.487 7.044 6.986 7.884 7.5 8.75 C7.999 9.575 8.498 10.4 9.012 11.25 C15.514 22.058 15.514 22.058 15 29 C14.34 29.66 13.68 30.32 13 31 C10.384 30.673 8.359 30.18 6 29 C6.165 28.34 6.33 27.68 6.5 27 C7.33 22.021 7.619 16.856 6 12 C5.01 12.33 4.02 12.66 3 13 C2.34 10.69 1.68 8.38 1 6 C-1.64 9.3 -4.28 12.6 -7 16 C-7.66 15.67 -8.32 15.34 -9 15 C-8.434 14.169 -7.868 13.337 -7.285 12.48 C-6.552 11.394 -5.818 10.307 -5.062 9.188 C-4.332 8.109 -3.601 7.03 -2.848 5.918 C-1 3 -1 3 0 0 Z " fill="#91C560" transform="translate(639,88)"/>
<path d="M0 0 C0.99 0.66 1.98 1.32 3 2 C2.447 7.355 0.572 11.366 -1.875 16.062 C-2.227 16.757 -2.579 17.451 -2.941 18.166 C-4.831 21.864 -6.811 25.468 -9 29 C-12.875 27.25 -12.875 27.25 -14 25 C-11.809 16.494 -6.199 6.199 0 0 Z " fill="#B2D892" transform="translate(228,75)"/>
<path d="M0 0 C2.305 2.141 2.305 2.141 4 4 C1.029 3.563 -1.082 2.955 -3.738 1.504 C-7.356 -0.164 -10.101 -0.526 -14.062 -0.75 C-15.25 -0.827 -16.437 -0.905 -17.66 -0.984 C-22.459 -1.007 -26.563 0.105 -31.125 1.5 C-31.973 1.758 -32.821 2.016 -33.695 2.281 C-38.955 3.921 -38.955 3.921 -40.188 6.062 C-40.456 6.702 -40.724 7.341 -41 8 C-41.99 8 -42.98 8 -44 8 C-44.289 8.969 -44.577 9.939 -44.875 10.938 C-46 14 -46 14 -48 15 C-48.99 14.01 -49.98 13.02 -51 12 C-45.276 5.653 -39.962 1.19 -32 -2 C-31.464 -2.217 -31.464 -2.217 -28.75 -3.312 C-18.865 -5.125 -8.968 -4.925 0 0 Z " fill="#77A85C" transform="translate(723,140)"/>
<path d="M0 0 C0.33 0 0.66 0 1 0 C0.575 8.958 -0.742 17.322 -3 26 C-3.66 26 -4.32 26 -5 26 C-4.125 18.25 -4.125 18.25 -3 16 C-3.99 15.67 -4.98 15.34 -6 15 C-6 14.01 -6 13.02 -6 12 C-6.592 12.626 -7.183 13.253 -7.793 13.898 C-8.583 14.716 -9.373 15.533 -10.188 16.375 C-10.965 17.187 -11.742 17.999 -12.543 18.836 C-15.04 21.035 -16.797 22.152 -20 23 C-22.312 22.625 -22.312 22.625 -24 22 C-23.299 21.588 -22.598 21.175 -21.875 20.75 C-12.62 15.116 -6.109 8.885 0 0 Z " fill="#659C50" transform="translate(372,192)"/>
<path d="M0 0 C0.891 2.673 1.114 4.433 1.25 7.188 C2.239 16.327 8.977 22.543 15 29 C14.01 29.33 13.02 29.66 12 30 C12 29.34 12 28.68 12 28 C11.34 28 10.68 28 10 28 C10 27.34 10 26.68 10 26 C8.02 25.67 6.04 25.34 4 25 C3.67 24.01 3.34 23.02 3 22 C2.34 22.33 2.34 22.33 -1 24 C-3.556 15.214 -4.239 8.302 0 0 Z " fill="#3D8640" transform="translate(212,218)"/>
<path d="M0 0 C0.592 0.133 1.183 0.266 1.793 0.402 C2.583 0.579 3.373 0.756 4.188 0.938 C5.009 1.123 5.83 1.309 6.676 1.5 C8.397 1.87 10.134 2.173 11.875 2.438 C14 3 14 3 15.309 4.398 C17.428 6.405 19.466 7.162 22.188 8.188 C23.089 8.532 23.99 8.876 24.918 9.23 C25.605 9.484 26.292 9.738 27 10 C27 10.66 27 11.32 27 12 C27.66 12 28.32 12 29 12 C29 12.66 29 13.32 29 14 C29.302 14.085 29.302 14.085 30.828 14.516 C31.627 14.758 32.427 15 33.25 15.25 C34.039 15.482 34.828 15.714 35.641 15.953 C38.428 17.19 39.852 18.852 42 21 C44.045 22.155 46.132 23.237 48.25 24.25 C48.789 24.51 48.789 24.51 51.516 25.828 C52.335 26.215 53.155 26.602 54 27 C53.34 27.66 52.68 28.32 52 29 C48.976 27.359 45.956 25.712 42.938 24.062 C42.025 23.564 41.113 23.065 40.173 22.552 C34.775 19.583 29.481 16.502 24.25 13.25 C18.406 9.628 12.382 6.788 6.013 4.206 C1.096 2.191 1.096 2.191 0 0 Z " fill="#6A9E53" transform="translate(241,177)"/>
<path d="M0 0 C0.99 0 1.98 0 3 0 C3.411 7.877 2.436 14.503 0 22 C-0.99 22 -1.98 22 -3 22 C-3 21.34 -3 20.68 -3 20 C-3.66 19.67 -4.32 19.34 -5 19 C-5.403 12.551 -4.691 7.899 -2 2 C-1.34 1.34 -0.68 0.68 0 0 Z " fill="#B3DB8E" transform="translate(365,160)"/>
<path d="M0 0 C1.875 0.312 1.875 0.312 4 1 C4.66 1.99 5.32 2.98 6 4 C5.121 4.228 4.241 4.456 3.335 4.691 C-0.52 6.204 -2.468 7.994 -5.363 10.938 C-5.602 11.178 -5.602 11.178 -6.81 12.394 C-7.81 13.405 -8.806 14.421 -9.797 15.44 C-11.317 17.004 -12.849 18.554 -14.385 20.102 C-21.819 27.639 -21.819 27.639 -23 30 C-23.99 29.67 -24.98 29.34 -26 29 C-19.65 21.427 -13.286 14.04 -6.156 7.184 C-3.914 4.913 -1.951 2.523 0 0 Z " fill="#F0FCE5" transform="translate(274,52)"/>
<path d="M0 0 C0 0.66 0 1.32 0 2 C0.99 2 1.98 2 3 2 C8.701 6.736 11.987 12.96 14 20 C14 20.99 14 21.98 14 23 C13.34 23 12.68 23 12 23 C11.781 22.287 11.562 21.574 11.336 20.84 C8.643 12.706 5.727 6.671 -2.062 2.562 C-8.492 0.054 -15.977 -0.38 -22.539 1.871 C-24.688 2.938 -24.688 2.938 -28 5 C-28.33 5.165 -28.33 5.165 -30 6 C-29.403 2.357 -29.126 2.091 -25.875 -0.25 C-17.985 -3.881 -7.929 -3.05 0 0 Z " fill="#659A4E" transform="translate(721,153)"/>
<path d="M0 0 C5.61 0 11.22 0 17 0 C17 14.85 17 29.7 17 45 C16.67 45 16.34 45 16 45 C16 31.14 16 17.28 16 3 C13.69 2.835 13.69 2.835 2 2 C2.33 4.97 2.66 7.94 3 11 C1.02 11.33 -0.96 11.66 -3 12 C-2.67 11.01 -2.34 10.02 -2 9 C-1.67 9.33 -1.34 9.66 -1 10 C-0.67 6.7 -0.34 3.4 0 0 Z " fill="#66A24B" transform="translate(595,139)"/>
<path d="M0 0 C5.94 0 11.88 0 18 0 C18 0.33 18 0.66 18 1 C17.085 1.121 16.17 1.242 15.227 1.367 C14.632 1.451 14.632 1.451 11.625 1.875 C10.442 2.037 9.258 2.2 8.039 2.367 C5 3 5 3 3 5 C2.754 7.864 2.626 10.639 2.586 13.508 C2.567 14.348 2.547 15.189 2.527 16.055 C2.467 18.745 2.421 21.435 2.375 24.125 C2.337 25.947 2.298 27.768 2.258 29.59 C2.162 34.06 2.078 38.53 2 43 C1.67 43 1.34 43 1 43 C0.089 33.38 -0.125 23.846 -0.062 14.188 C-0.057 12.801 -0.053 11.415 -0.049 10.029 C-0.037 6.686 -0.019 3.343 0 0 Z " fill="#63984C" transform="translate(631,138)"/>
<path d="M0 0 C0.33 0 0.66 0 1 0 C1.185 10.558 1.185 10.558 0 15 C2.8 13.9 4.01 12.987 5.875 10.562 C8.3 7.638 10.544 6.492 14 5 C14 5.99 14 6.98 14 8 C10.667 11 10.667 11 8 11 C8 11.66 8 12.32 8 13 C6.853 14.181 5.699 15.356 4.508 16.492 C2.257 18.743 0.262 21.194 -1.766 23.645 C-2.173 24.092 -2.58 24.539 -3 25 C-3.33 25 -3.66 25 -4 25 C-2.784 2.784 -2.784 2.784 0 0 Z " fill="#48834B" transform="translate(182,156)"/>
<path d="M0 0 C1.375 2.125 1.375 2.125 2 4 C1.134 3.505 0.268 3.01 -0.625 2.5 C-6.992 -0.21 -14.852 -0.101 -21.473 1.656 C-28.619 4.851 -32.924 10.994 -36 18 C-36.66 18 -37.32 18 -38 18 C-38 16.68 -38 15.36 -38 14 C-37.34 14 -36.68 14 -36 14 C-35.67 12.02 -35.34 10.04 -35 8 C-34.34 8 -33.68 8 -33 8 C-33 7.34 -33 6.68 -33 6 C-30.938 4.125 -30.938 4.125 -28 2 C-27.051 1.257 -26.102 0.515 -25.125 -0.25 C-18.06 -4.212 -7.206 -3.05 0 0 Z " fill="#6B9F53" transform="translate(581,153)"/>
<path d="M0 0 C2.729 2.451 4.4 5.122 6.188 8.312 C6.717 9.237 7.247 10.161 7.793 11.113 C9.145 14.346 9.377 16.53 9 20 C8.34 20.66 7.68 21.32 7 22 C6.34 22 5.68 22 5 22 C-2.073 8.736 -2.073 8.736 0 0 Z " fill="#8BC261" transform="translate(346,104)"/>
<path d="M0 0 C5.94 0 11.88 0 18 0 C18 0.33 18 0.66 18 1 C12.39 1 6.78 1 1 1 C1 3.31 1 5.62 1 8 C1.66 8.33 2.32 8.66 3 9 C2.88 13.071 2.756 17.142 2.628 21.213 C2.585 22.593 2.543 23.973 2.503 25.353 C2.26 33.602 1.881 41.792 1 50 C0.34 49.67 -0.32 49.34 -1 49 C-0.67 32.83 -0.34 16.66 0 0 Z " fill="#84B16A" transform="translate(835,100)"/>
<path d="M0 0 C5.502 1.487 10.198 4.134 15.117 6.931 C16.529 7.733 17.943 8.529 19.359 9.323 C21.974 10.79 24.581 12.269 27.188 13.75 C28.05 14.234 28.913 14.718 29.802 15.217 C30.202 15.446 30.202 15.446 32.23 16.609 C32.956 17.022 33.682 17.434 34.43 17.858 C34.948 18.235 35.466 18.612 36 19 C36 19.66 36 20.32 36 21 C34.02 21.66 32.04 22.32 30 23 C30 21.35 30 19.7 30 18 C27.36 17.67 24.72 17.34 22 17 C21.67 16.01 21.34 15.02 21 14 C20.629 13.856 20.629 13.856 18.75 13.125 C16 12 16 12 13.5 9.438 C10.806 6.811 9.605 6.501 6 6 C5.67 5.34 5.34 4.68 5 4 C3.356 3.278 1.689 2.606 0 2 C0 1.34 0 0.68 0 0 Z " fill="#6EA554" transform="translate(250,193)"/>
<path d="M0 0 C0.93 -0.021 1.86 -0.041 2.818 -0.062 C8.911 -0.097 13.37 0.758 18.938 3.25 C18.938 3.91 18.938 4.57 18.938 5.25 C18.306 5.033 17.674 4.817 17.023 4.594 C5.062 0.871 -6.616 0.808 -18.062 6.25 C-20.353 7.713 -22.452 9.241 -24.539 10.98 C-26.062 12.25 -26.062 12.25 -28.062 13.25 C-28.062 12.26 -28.062 11.27 -28.062 10.25 C-27.403 10.25 -26.742 10.25 -26.062 10.25 C-25.815 9.652 -25.567 9.054 -25.312 8.438 C-23.781 5.758 -22.766 4.775 -20.062 3.25 C-17.716 2.624 -15.376 2.125 -12.988 1.68 C-8.543 0.688 -4.992 0.027 0 0 Z " fill="#EBFADF" transform="translate(704.0625,134.75)"/>
<path d="M0 0 C3.804 4.797 4.607 8.943 4 15 C3.169 18.395 2.137 21.696 1 25 C-0.32 24.67 -1.64 24.34 -3 24 C-2.691 22.824 -2.381 21.649 -2.062 20.438 C-0.544 13.718 -0.343 6.86 0 0 Z " fill="#91BC6A" transform="translate(368,156)"/>
<path d="M0 0 C7.078 6.635 12.732 14.523 18.375 22.375 C18.589 22.672 18.589 22.672 19.675 24.177 C21.698 27.023 23.569 29.808 25 33 C23.125 32.312 23.125 32.312 21 31 C20.312 29.342 19.644 27.675 19 26 C18.01 25.67 17.02 25.34 16 25 C14.967 23.017 13.966 21.017 13 19 C12.34 18.67 11.68 18.34 11 18 C10.67 17.01 10.34 16.02 10 15 C9.01 14.34 8.02 13.68 7 13 C5.89 11.27 4.994 9.488 4.062 7.656 C3 6 3 6 0 4 C0 2.68 0 1.36 0 0 Z " fill="#81B161" transform="translate(321,70)"/>
<path d="M0 0 C0.66 0 1.32 0 2 0 C1.691 2.884 0.984 4.018 -1 6.188 C-4.872 8.527 -8.481 9.243 -13 9 C-15.277 8.008 -15.277 8.008 -17 7 C-17 6.01 -17 5.02 -17 4 C-14.03 4 -11.06 4 -8 4 C-8 3.67 -8 3.34 -8 3 C-6.866 2.691 -5.731 2.381 -4.562 2.062 C-1 1 -1 1 0 0 Z " fill="#468F42" transform="translate(650,118)"/>
<path d="M0 0 C0.33 0 0.66 0 1 0 C1 15.84 1 31.68 1 48 C-6 42 -6 42 -9 39 C-6.237 39.523 -3.674 40.109 -1 41 C-0.67 27.47 -0.34 13.94 0 0 Z " fill="#E2FAD4" transform="translate(834,101)"/>
<path d="M0 0 C7.068 -0.563 12.606 0.557 19.238 3.027 C24.878 5.014 30.389 5.277 36.312 5.562 C37.148 5.606 37.984 5.649 38.846 5.693 C40.897 5.799 42.948 5.9 45 6 C45 6.33 45 6.66 45 7 C29.418 7.462 14.722 6.621 0 1 C0 0.67 0 0.34 0 0 Z " fill="#76AA6C" transform="translate(240,279)"/>
<path d="M0 0 C1.32 0 2.64 0 4 0 C2.726 2.747 1.359 4.94 -0.645 7.207 C-1.157 7.794 -1.669 8.381 -2.197 8.986 C-2.73 9.589 -3.263 10.192 -3.812 10.812 C-6.994 14.419 -10.064 18.006 -12.824 21.949 C-13.542 22.956 -14.26 23.963 -15 25 C-15.33 25 -15.66 25 -16 25 C-16.28 21.964 -16.295 20.442 -14.574 17.867 C-13.952 17.21 -13.329 16.552 -12.688 15.875 C-12.073 15.212 -11.458 14.55 -10.824 13.867 C-10.222 13.251 -9.62 12.635 -9 12 C-8.47 11.425 -7.94 10.85 -7.395 10.258 C-6 9 -6 9 -4 9 C-3.34 7.02 -2.68 5.04 -2 3 C-1.34 3 -0.68 3 0 3 C0 2.01 0 1.02 0 0 Z " fill="#87B561" transform="translate(252,71)"/>
<path d="M0 0 C1.333 2.667 0.671 4.167 0 7 C-0.99 7.33 -1.98 7.66 -3 8 C-4.535 9.848 -4.535 9.848 -6.062 12.062 C-7.598 14.285 -7.598 14.285 -9 16 C-9.66 16 -10.32 16 -11 16 C-11.134 16.402 -11.134 16.402 -11.812 18.438 C-12.204 19.283 -12.596 20.129 -13 21 C-13.99 21.33 -14.98 21.66 -16 22 C-15.547 17.184 -13.543 14.997 -10.25 11.562 C-9.35 10.609 -8.45 9.655 -7.523 8.672 C-6.691 7.79 -5.858 6.908 -5 6 C-3.292 4.029 -1.643 2.026 0 0 Z " fill="#A0C77B" transform="translate(251,45)"/>
<path d="M0 0 C1.32 0.66 2.64 1.32 4 2 C2.35 2.66 0.7 3.32 -1 4 C-1 4.66 -1 5.32 -1 6 C-2.625 7.729 -4.288 9.36 -6 11 C-7.405 12.4 -8.807 13.802 -10.207 15.207 C-14.471 19.471 -18.736 23.736 -23 28 C-23.66 27.67 -24.32 27.34 -25 27 C-25 26.34 -25 25.68 -25 25 C-24.01 24.67 -23.02 24.34 -22 24 C-21.67 23.34 -21.34 22.68 -21 22 C-20.34 22 -19.68 22 -19 22 C-18.67 21.01 -18.34 20.02 -18 19 C-17.34 19 -16.68 19 -16 19 C-16 18.01 -16 17.02 -16 16 C-15.01 16 -14.02 16 -13 16 C-13 15.34 -13 14.68 -13 14 C-12.34 14 -11.68 14 -11 14 C-11 13.34 -11 12.68 -11 12 C-10.34 12 -9.68 12 -9 12 C-8.67 10.68 -8.34 9.36 -8 8 C-7.01 8 -6.02 8 -5 8 C-5 7.01 -5 6.02 -5 5 C-4.01 5 -3.02 5 -2 5 C-1.34 3.35 -0.68 1.7 0 0 Z " fill="#EAF8D8" transform="translate(273,19)"/>
<path d="M0 0 C-4.604 6.347 -9.487 9.627 -17 12 C-19.84 12.129 -19.84 12.129 -22 12 C-18.799 9.466 -15.399 7.375 -11.902 5.281 C-10.016 4.011 -8.578 2.627 -7 1 C-3.522 -1.174 -3.522 -1.174 0 0 Z " fill="#377E34" transform="translate(348,175)"/>
<path d="M0 0 C0.33 0 0.66 0 1 0 C1 9.57 1 19.14 1 29 C-4.61 29 -10.22 29 -16 29 C-16 25.04 -16 21.08 -16 17 C-15.67 17 -15.34 17 -15 17 C-15 19.97 -15 22.94 -15 26 C-11.985 27.005 -9.958 27.103 -6.812 27.062 C-5.911 27.053 -5.01 27.044 -4.082 27.035 C-3.738 27.029 -3.738 27.029 -2 27 C-1.234 23.539 -0.829 20.239 -0.684 16.699 C-0.642 15.723 -0.6 14.746 -0.557 13.74 C-0.517 12.733 -0.478 11.725 -0.438 10.688 C-0.394 9.661 -0.351 8.634 -0.307 7.576 C-0.201 5.051 -0.099 2.526 0 0 Z " fill="#508844" transform="translate(852,197)"/>
<path d="M0 0 C-1.625 2 -1.625 2 -4 4 C-7.25 4.25 -7.25 4.25 -10 4 C-10 4.66 -10 5.32 -10 6 C-10.66 6 -11.32 6 -12 6 C-12.255 6.593 -12.51 7.186 -12.773 7.797 C-14.118 10.212 -15.492 11.512 -17.625 13.25 C-18.257 13.771 -18.888 14.292 -19.539 14.828 C-20.021 15.215 -20.503 15.602 -21 16 C-21.66 15.67 -22.32 15.34 -23 15 C-18.152 8.82 -8.695 -2.898 0 0 Z " fill="#6C9E51" transform="translate(555,139)"/>
<path d="M0 0 C7.629 2.258 13.69 4.916 19 11 C20.5 13.938 20.5 13.938 21 16 C17.032 14.321 14.131 11.917 11 9 C11 8.01 11 7.02 11 6 C10.072 6.062 9.144 6.124 8.188 6.188 C5 6 5 6 3.25 4.562 C2.837 4.047 2.425 3.531 2 3 C1.34 2.67 0.68 2.34 0 2 C0 1.34 0 0.68 0 0 Z " fill="#6BA44D" transform="translate(485,137)"/>
<path d="M0 0 C0.66 0.33 1.32 0.66 2 1 C-0.31 5.62 -2.62 10.24 -5 15 C-9 13 -9 13 -10 11 C-9.312 8.438 -9.312 8.438 -8 6 C-6.672 5.646 -5.338 5.315 -4 5 C-1.75 2.437 -1.75 2.437 0 0 Z " fill="#A1CF7E" transform="translate(224,89)"/>
<path d="M0 0 C0.449 0.144 0.449 0.144 2.719 0.875 C12.384 3.75 20.95 4.475 31 4 C31 4.66 31 5.32 31 6 C26.323 6.906 21.753 7.214 17 7.25 C16.657 7.26 16.657 7.26 14.922 7.312 C8.747 7.36 5.02 5.347 0 2 C0 1.34 0 0.68 0 0 Z " fill="#80B45C" transform="translate(295,182)"/>
<path d="M0 0 C4.133 0.495 5.837 1.395 8.438 4.625 C9.024 5.343 9.611 6.061 10.215 6.801 C10.804 7.527 11.393 8.252 12 9 C13.672 10.823 15.345 12.646 17.031 14.457 C17.351 14.966 17.671 15.475 18 16 C17.67 16.99 17.34 17.98 17 19 C16.01 19 15.02 19 14 19 C13.835 18.175 13.835 18.175 13 14 C12.34 14 11.68 14 11 14 C11 13.01 11 12.02 11 11 C10.01 11.33 9.02 11.66 8 12 C7.918 11.258 7.835 10.515 7.75 9.75 C6.846 6.434 5.629 5.165 3 3 C2.01 2.67 1.02 2.34 0 2 C0 1.34 0 0.68 0 0 Z " fill="#90C165" transform="translate(290,38)"/>
<path d="M0 0 C0.33 0 0.66 0 1 0 C1 5.94 1 11.88 1 18 C-4.61 18 -10.22 18 -16 18 C-16 15.03 -16 12.06 -16 9 C-15.34 9.33 -15.34 9.33 -12 11 C-12 12.32 -12 13.64 -12 15 C-9.475 16.262 -7.688 16.099 -4.875 16.062 C-3.266 16.042 -1.658 16.021 0 16 C0 10.72 0 5.44 0 0 Z " fill="#508E45" transform="translate(611,208)"/>
<path d="M0 0 C0.423 0.33 0.423 0.33 2.562 2 C6.434 4.253 8.603 4.352 13 4 C13.33 4.99 13.66 5.98 14 7 C18.29 7 22.58 7 27 7 C25 9 25 9 21.188 9.312 C13.273 9.133 4.518 7.695 -2 3 C-2 2.34 -2 1.68 -2 1 C-1.34 0.67 -0.68 0.34 0 0 Z " fill="#599252" transform="translate(546,220)"/>
<path d="M0 0 C0 0.33 0 0.66 0 1 C-0.302 1.03 -0.302 1.03 -1.828 1.184 C-2.228 1.225 -2.228 1.225 -4.25 1.438 C-5.039 1.519 -5.828 1.6 -6.641 1.684 C-11.03 2.272 -11.03 2.272 -13 3 C-13.33 3.99 -13.66 4.98 -14 6 C-15.523 7.605 -15.523 7.605 -17.375 9.188 C-17.981 9.717 -18.587 10.247 -19.211 10.793 C-21 12 -21 12 -24 12 C-23.631 9.254 -23.135 8.135 -21.145 6.148 C-13.761 0.533 -9.219 -1.589 0 0 Z " fill="#6BA24E" transform="translate(474,138)"/>
<path d="M0 0 C0.33 0.66 0.66 1.32 1 2 C-0.236 3.822 -1.49 5.632 -2.75 7.438 C-3.446 8.447 -4.142 9.456 -4.859 10.496 C-7.062 13.073 -7.77 13.574 -11 14 C-12.625 15.438 -12.625 15.438 -14 17 C-16.262 19.262 -17.97 20.039 -21 21 C-21.99 20.67 -22.98 20.34 -24 20 C-21 18 -21 18 -18 18 C-18 17.34 -18 16.68 -18 16 C-16.461 14.668 -16.461 14.668 -14.375 13.188 C-8.934 9.227 -4.058 5.462 0 0 Z " fill="#6AAB5E" transform="translate(349,240)"/>
<path d="M0 0 C-7.596 5.064 -20.269 3.183 -29.125 3.188 C-29.733 3.194 -29.733 3.194 -32.812 3.225 C-33.391 3.226 -33.391 3.226 -36.32 3.23 C-37.365 3.235 -38.409 3.239 -39.485 3.243 C-42 3 -42 3 -44 1 C-43.625 1.005 -43.625 1.005 -41.728 1.032 C-38.256 1.074 -34.784 1.1 -31.312 1.125 C-30.134 1.142 -28.955 1.159 -27.74 1.176 C-20.548 1.215 -13.802 0.68 -6.731 -0.665 C-4.102 -0.987 -2.48 -0.847 0 0 Z " fill="#ECFBE7" transform="translate(302,284)"/>
<path d="M0 0 C0.66 0.66 1.32 1.32 2 2 C-2 10 -6 18 -10 26 C-11.498 21.505 -9.821 18.172 -8 14 C-5.514 9.231 -2.762 4.612 0 0 Z " fill="#71A755" transform="translate(218,120)"/>
<path d="M0 0 C0.33 0 0.66 0 1 0 C0.984 0.625 0.969 1.249 0.952 1.893 C0.889 4.762 0.851 7.631 0.812 10.5 C0.787 11.482 0.762 12.465 0.736 13.477 C0.673 19.782 1.573 24.201 4 30 C3.67 30.66 3.34 31.32 3 32 C2.349 30.753 1.704 29.502 1.062 28.25 C0.703 27.554 0.343 26.858 -0.027 26.141 C-3.637 18.195 -2.995 8.049 0 0 Z " fill="#DFF3D7" transform="translate(684,169)"/>
<path d="M0 0 C0.33 0.99 0.66 1.98 1 3 C0.01 3.66 -0.98 4.32 -2 5 C-2 5.66 -2 6.32 -2 7 C-2.355 7.024 -2.355 7.024 -4.152 7.148 C-5.071 7.223 -5.991 7.298 -6.938 7.375 C-7.854 7.445 -8.771 7.514 -9.715 7.586 C-10.469 7.723 -11.223 7.859 -12 8 C-12.33 8.66 -12.66 9.32 -13 10 C-14.32 9.34 -15.64 8.68 -17 8 C-17 7.34 -17 6.68 -17 6 C-16.192 5.734 -15.384 5.469 -14.551 5.195 C-13.482 4.842 -12.414 4.489 -11.312 4.125 C-10.785 3.951 -10.785 3.951 -8.113 3.07 C-5.369 2.127 -2.683 1.105 0 0 Z " fill="#68A24F" transform="translate(347,215)"/>
<path d="M0 0 C3.63 3.55 5.113 5.972 5.188 11.125 C5 15 5 15 4 17 C3.175 16.67 3.175 16.67 -1 15 C-0.835 14.381 -0.67 13.763 -0.5 13.125 C0.201 8.745 0.077 4.426 0 0 Z " fill="#95C784" transform="translate(646,102)"/>
<path d="M0 0 C0 4.817 -1.474 7.371 -4.562 11.062 C-6.828 13.792 -7.326 14.744 -8 18 C-9.562 19.75 -9.562 19.75 -11 21 C-11.66 20.67 -12.32 20.34 -13 20 C-11.599 17.221 -10.177 14.453 -8.75 11.688 C-8.354 10.902 -7.959 10.116 -7.551 9.307 C-3.839 2.157 -3.839 2.157 0 0 Z " fill="#74A955" transform="translate(207,103)"/>
<path d="M0 0 C-0.779 13.633 -0.779 13.633 -3 20 C-3.66 20 -4.32 20 -5 20 C-4.125 12.25 -4.125 12.25 -3 10 C-3.99 9.67 -4.98 9.34 -6 9 C-6 5 -6 5 -3.562 2.25 C-1 0 -1 0 0 0 Z " fill="#5C9C43" transform="translate(372,198)"/>
<path d="M0 0 C0.99 0 1.98 0 3 0 C7 4.343 7 4.343 7 7 C7.619 7.041 8.238 7.082 8.875 7.125 C9.576 7.414 10.277 7.703 11 8 C11.667 10 12.333 12 13 14 C13.634 14.143 14.268 14.286 14.922 14.434 C17 15 17 15 18.266 16.848 C18.59 17.579 18.915 18.309 19.25 19.062 C19.418 19.429 19.418 19.429 20.266 21.285 C20.508 21.851 20.75 22.417 21 23 C20.34 23.33 19.68 23.66 19 24 C18.383 23.178 17.765 22.355 17.129 21.508 C12.211 15.009 7.179 8.794 1.617 2.828 C0 1 0 1 0 0 Z " fill="#82B35F" transform="translate(292,68)"/>
<path d="M0 0 C0 0.66 0 1.32 0 2 C-0.797 2.098 -1.593 2.196 -2.414 2.297 C-8.707 3.185 -13.017 4.04 -18 8 C-18.99 8.33 -19.98 8.66 -21 9 C-21 7.35 -21 5.7 -21 4 C-20.515 3.938 -20.515 3.938 -18.062 3.625 C-17.557 3.522 -17.557 3.522 -15 3 C-14.67 2.34 -14.34 1.68 -14 1 C-9.459 -0.419 -4.706 -0.092 0 0 Z " fill="#6BA052" transform="translate(812,151)"/>
<path d="M0 0 C1.65 0.99 3.3 1.98 5 3 C3.333 4.667 1.667 6.333 0 8 C-0.866 8.887 -1.732 9.774 -2.625 10.688 C-5 13 -5 13 -8 15 C-6.512 9.197 -3.409 4.824 0 0 Z " fill="#629854" transform="translate(188,182)"/>
<path d="M0 0 C0.33 0.99 0.66 1.98 1 3 C-0.293 4.762 -0.293 4.762 -2.188 6.688 C-5.305 10.04 -7.211 13.161 -9.09 17.301 C-10.292 19.546 -11.807 20.747 -14 22 C-14.66 21.67 -15.32 21.34 -16 21 C-14.085 18.436 -12.168 15.874 -10.25 13.312 C-9.711 12.591 -9.172 11.87 -8.617 11.127 C-5.803 7.369 -2.962 3.645 0 0 Z " fill="#E7F7D9" transform="translate(247,82)"/>
<path d="M0 0 C0.776 0.289 1.552 0.577 2.352 0.875 C14.26 4.968 25.151 5.587 37 1 C36.67 1.99 36.34 2.98 36 4 C30.883 5.964 26.13 6.353 20.688 6.312 C19.945 6.31 19.202 6.308 18.437 6.306 C11.826 6.186 5.942 4.971 0 2 C0 1.34 0 0.68 0 0 Z " fill="#E7F9E3" transform="translate(787,224)"/>
<path d="M0 0 C-4.408 5.29 -9.076 10.188 -14 15 C-14.33 14.34 -14.66 13.68 -15 13 C-13.75 10.375 -13.75 10.375 -12 8 C-11.01 8 -10.02 8 -9 8 C-8.752 6.886 -8.505 5.773 -8.25 4.625 C-7 1 -7 1 -5.062 -0.5 C-3 -1 -3 -1 0 0 Z " fill="#87B75D" transform="translate(271,56)"/>
<path d="M0 0 C3.935 3.935 3.62 10.656 4 16 C3.619 21.905 2.396 24.963 -2 29 C-1.783 28.227 -1.567 27.453 -1.344 26.656 C1.171 17.251 1.246 9.609 0 0 Z " fill="#EAF9DD" transform="translate(370,154)"/>
<path d="M0 0 C0.99 0.33 1.98 0.66 3 1 C2.492 1.389 1.984 1.779 1.461 2.18 C-5.592 7.912 -9.78 14.543 -13 23 C-14.467 19.185 -13.433 16.71 -12 13 C-11.34 13 -10.68 13 -10 13 C-9.918 12.257 -9.835 11.515 -9.75 10.75 C-8.852 7.457 -7.616 6.14 -5 4 C-4.34 4 -3.68 4 -3 4 C-2.67 3.01 -2.34 2.02 -2 1 C-1.34 0.67 -0.68 0.34 0 0 Z " fill="#E9F9DF" transform="translate(540,143)"/>
<path d="M0 0 C0.66 0.33 1.32 0.66 2 1 C1.361 1.433 0.721 1.866 0.062 2.312 C-2 4 -2 4 -3 7 C-3.66 7 -4.32 7 -5 7 C-4.67 7.99 -4.34 8.98 -4 10 C-10.964 13.348 -10.964 13.348 -15 12 C-13.251 10.561 -11.501 9.124 -9.75 7.688 C-8.775 6.887 -7.801 6.086 -6.797 5.262 C-4.563 3.456 -2.313 1.702 0 0 Z " fill="#6DAA67" transform="translate(323,261)"/>
<path d="M0 0 C2.312 1.625 2.312 1.625 3.312 3.625 C-1.562 2.75 -1.562 2.75 -2.688 1.625 C-5.116 1.524 -7.509 1.486 -9.938 1.5 C-10.607 1.496 -11.276 1.492 -11.965 1.488 C-15.666 1.496 -19.09 1.747 -22.688 2.625 C-17.405 -3.45 -6.961 -2.596 0 0 Z " fill="#E4F7D9" transform="translate(481.6875,154.375)"/>
<path d="M0 0 C7.732 1.755 12.438 5.464 18 11 C17.34 11.66 16.68 12.32 16 13 C15.01 12.34 14.02 11.68 13 11 C13 10.34 13 9.68 13 9 C10.063 7.477 7.083 6.199 4 5 C4 4.34 4 3.68 4 3 C2.68 2.67 1.36 2.34 0 2 C0 1.34 0 0.68 0 0 Z " fill="#6CA154" transform="translate(816,137)"/>
<path d="M0 0 C4.469 4.007 6.808 7.699 7.312 13.75 C7 17 7 17 5 19 C4.34 18.34 3.68 17.68 3 17 C3.033 15.032 3.068 13.065 3.129 11.098 C2.937 7.978 1.503 5.692 0 3 C0 2.01 0 1.02 0 0 Z " fill="#74A068" transform="translate(647,100)"/>
<path d="M0 0 C6.039 2.372 8.244 7.488 11 13 C11.495 13.495 11.99 13.99 12.5 14.5 C14.669 16.669 15.713 19.243 17 22 C16.01 22 15.02 22 14 22 C12.805 20.626 12.805 20.626 11.66 18.711 C11.237 18.016 10.813 17.321 10.377 16.605 C9.943 15.869 9.509 15.133 9.062 14.375 C8.2 12.945 7.337 11.515 6.473 10.086 C6.059 9.396 5.645 8.706 5.219 7.995 C3.557 5.275 1.792 2.636 0 0 Z " fill="#77A85B" transform="translate(315,96)"/>
<path d="M0 0 C0.714 0.009 1.428 0.018 2.164 0.027 C2.886 0.031 3.608 0.035 4.352 0.039 C9.357 0.12 13.766 0.686 18.539 2.277 C18.209 2.937 17.879 3.597 17.539 4.277 C16.815 4.121 16.09 3.965 15.344 3.805 C10.09 2.747 5.832 1.954 0.539 3.277 C-2.301 3.277 -4.698 2.875 -7.461 2.277 C-4.958 -0.226 -3.42 0.02 0 0 Z " fill="#93BA7C" transform="translate(221.4609375,185.72265625)"/>
<path d="M0 0 C0.33 0 0.66 0 1 0 C1 4.29 1 8.58 1 13 C0.34 13 -0.32 13 -1 13 C-1 11.35 -1 9.7 -1 8 C-3.64 8.66 -6.28 9.32 -9 10 C-8.258 9.278 -7.515 8.556 -6.75 7.812 C-4 5 -4 5 -1.75 2.188 C-1.173 1.466 -0.595 0.744 0 0 Z " fill="#D2EDCB" transform="translate(594,214)"/>
<path d="M0 0 C-4.625 4 -4.625 4 -8 4 C-9.03 5.648 -10.031 7.315 -11 9 C-11.66 9 -12.32 9 -13 9 C-13.66 9.66 -14.32 10.32 -15 11 C-15.33 9.68 -15.66 8.36 -16 7 C-14.376 5.853 -12.751 4.707 -11.125 3.562 C-10.22 2.924 -9.315 2.286 -8.383 1.629 C-4.967 -0.706 -3.932 -1.179 0 0 Z " fill="#5F9A4E" transform="translate(211,168)"/>
<path d="M0 0 C5.94 0 11.88 0 18 0 C18 0.33 18 0.66 18 1 C17.085 1.121 16.17 1.242 15.227 1.367 C14.632 1.451 14.632 1.451 11.625 1.875 C10.442 2.037 9.258 2.2 8.039 2.367 C5 3 5 3 3 5 C2.586 7.164 2.586 7.164 2.375 9.625 C2.3 10.442 2.225 11.26 2.148 12.102 C2.099 12.728 2.05 13.355 2 14 C1.67 14 1.34 14 1 14 C0.67 9.38 0.34 4.76 0 0 Z " fill="#70A656" transform="translate(631,138)"/>
<path d="M0 0 C0.66 0 1.32 0 2 0 C4.152 3.228 4.201 4.284 4 8 C4.66 8 5.32 8 6 8 C6.7 10.246 7.384 12.497 8.062 14.75 C8.445 16.003 8.828 17.256 9.223 18.547 C9.965 21.845 9.943 22.933 9 26 C7.874 22.792 6.75 19.583 5.625 16.375 C5.308 15.471 4.991 14.568 4.664 13.637 C3.075 9.102 1.501 4.565 0 0 Z " fill="#EBFADB" transform="translate(360,128)"/>
<path d="M0 0 C8.25 0 16.5 0 25 0 C25 0.33 25 0.66 25 1 C18.817 2.799 12.259 4.305 5.922 2.363 C4 2 4 2 1 4 C0.67 2.68 0.34 1.36 0 0 Z " fill="#4D894E" transform="translate(263,265)"/>
<path d="M0 0 C-1.311 2.623 -2.435 2.741 -5.125 3.812 C-9.595 5.708 -13.153 8.053 -17 11 C-16.048 6.084 -13.174 3.521 -9.125 0.688 C-6.063 -0.303 -3.19 -0.123 0 0 Z " fill="#97CD7D" transform="translate(206,196)"/>
<path d="M0 0 C0.99 0 1.98 0 3 0 C1.636 5.593 -1.154 8.912 -5 13 C-5.66 11.68 -6.32 10.36 -7 9 C-5.763 7.535 -4.526 6.07 -3.289 4.605 C-2.108 3.134 -1.046 1.57 0 0 Z " fill="#71A852" transform="translate(365,181)"/>
<path d="M0 0 C1.11 -0.014 2.22 -0.028 3.363 -0.043 C6.784 0.194 9.497 0.966 12.688 2.188 C12.688 2.518 12.688 2.847 12.688 3.188 C11.386 3.176 10.084 3.164 8.742 3.152 C7.016 3.143 5.289 3.134 3.562 3.125 C2.707 3.117 1.851 3.108 0.969 3.1 C-3.579 3.082 -7.836 3.256 -12.312 4.188 C-8.613 0.136 -5.331 0.031 0 0 Z " fill="#E3F7D8" transform="translate(707.3125,152.8125)"/>
<path d="M0 0 C0.99 0.66 1.98 1.32 3 2 C2.547 6.874 1.291 9.39 -2 13 C-1.67 11.02 -1.34 9.04 -1 7 C-1.99 7 -2.98 7 -4 7 C-2.926 4.085 -2.222 2.222 0 0 Z " fill="#ACD689" transform="translate(228,75)"/>
<path d="M0 0 C1.32 0.66 2.64 1.32 4 2 C3.773 2.598 3.546 3.196 3.312 3.812 C3.261 4.173 3.261 4.173 3 6 C4.438 7.75 4.438 7.75 6 9 C5.67 9.165 5.67 9.165 4 10 C1.836 9.004 1.836 9.004 -0.625 7.562 C-1.442 7.089 -2.26 6.616 -3.102 6.129 C-3.728 5.756 -4.355 5.384 -5 5 C-3.35 3.35 -1.7 1.7 0 0 Z " fill="#5EA151" transform="translate(229,267)"/>
<path d="M0 0 C0.668 0.268 1.335 0.536 2.023 0.812 C4.234 1.694 6.448 2.568 8.664 3.438 C9.984 3.958 11.305 4.479 12.625 5 C13.293 5.26 13.96 5.521 14.648 5.789 C17.678 6.989 20.277 8.185 23 10 C17.925 10.521 14.657 9.154 10.191 7.023 C7.529 5.78 4.807 4.864 2 4 C2 3.34 2 2.68 2 2 C1.34 2 0.68 2 0 2 C0 1.34 0 0.68 0 0 Z " fill="#E7FAE1" transform="translate(226,273)"/>
<path d="M0 0 C0.66 0 1.32 0 2 0 C1.426 3.532 0.206 5.129 -2.375 7.562 C-2.981 8.141 -3.587 8.72 -4.211 9.316 C-4.801 9.872 -5.392 10.428 -6 11 C-7.003 11.997 -8.005 12.995 -9 14 C-9.66 13.67 -10.32 13.34 -11 13 C-9.549 11.161 -8.089 9.329 -6.625 7.5 C-5.813 6.479 -5.001 5.458 -4.164 4.406 C-3.45 3.612 -2.736 2.818 -2 2 C-1.34 2 -0.68 2 0 2 C0 1.34 0 0.68 0 0 Z " fill="#E3F4E3" transform="translate(190,167)"/>
<path d="M0 0 C-0.66 1.32 -1.32 2.64 -2 4 C-2.99 4 -3.98 4 -5 4 C-5.289 4.969 -5.577 5.939 -5.875 6.938 C-7 10 -7 10 -9 11 C-9.99 10.01 -10.98 9.02 -12 8 C-10.763 6.655 -9.51 5.324 -8.25 4 C-7.902 3.629 -7.902 3.629 -6.141 1.75 C-4 0 -4 0 0 0 Z " fill="#6AA150" transform="translate(684,144)"/>
<path d="M0 0 C1.688 1.062 1.688 1.062 3 3 C2.688 6.688 2.688 6.688 2 10 C1.01 10 0.02 10 -1 10 C-1.99 7.03 -2.98 4.06 -4 1 C-2 0 -2 0 0 0 Z " fill="#87C657" transform="translate(352,116)"/>
<path d="M0 0 C4.252 4.123 8.136 8.513 12 13 C11.01 13.33 10.02 13.66 9 14 C9 13.34 9 12.68 9 12 C8.34 12 7.68 12 7 12 C7 11.34 7 10.68 7 10 C6.01 9.835 6.01 9.835 1 9 C0.67 6.03 0.34 3.06 0 0 Z " fill="#45854A" transform="translate(215,234)"/>
<path d="M0 0 C6.27 0.66 12.54 1.32 19 2 C19 2.66 19 3.32 19 4 C16.771 4.054 14.542 4.093 12.312 4.125 C11.692 4.137 11.692 4.137 8.551 4.195 C5.188 4.01 3.001 3.458 0 2 C0 1.34 0 0.68 0 0 Z " fill="#639A59" transform="translate(795,225)"/>
<path d="M0 0 C5.362 -0.322 8.333 0.428 13 3 C15.646 4.066 18.317 5.029 21 6 C14.132 8.337 6.256 3.856 0 1 C0 0.67 0 0.34 0 0 Z " fill="#E8F8D8" transform="translate(289,179)"/>
<path d="M0 0 C0.97 0.014 1.94 0.027 2.939 0.041 C5.314 0.076 7.688 0.125 10.062 0.188 C10.062 0.518 10.062 0.847 10.062 1.188 C9.214 1.225 8.366 1.262 7.492 1.301 C-1.293 1.793 -9.376 3.119 -17.938 5.188 C-17.938 4.528 -17.938 3.868 -17.938 3.188 C-11.857 -0.026 -6.799 -0.181 0 0 Z " fill="#EAFADE" transform="translate(229.9375,159.8125)"/>
<path d="M0 0 C0.33 0 0.66 0 1 0 C1 3.96 1 7.92 1 12 C-2.806 8.779 -6.541 5.598 -10 2 C-9.175 2.165 -9.175 2.165 -5 3 C-5 3.66 -5 4.32 -5 5 C-2 4 -2 4 -0.812 1.938 C-0.544 1.298 -0.276 0.659 0 0 Z " fill="#D8F0C8" transform="translate(594,138)"/>
<path d="M0 0 C0.33 0.99 0.66 1.98 1 3 C0.67 3.495 0.67 3.495 -1 6 C-1.66 6 -2.32 6 -3 6 C-3.062 6.722 -3.124 7.444 -3.188 8.188 C-4.267 11.924 -6.046 13.527 -9 16 C-11.168 16.641 -11.168 16.641 -13 17 C-12.154 16.051 -11.309 15.102 -10.438 14.125 C-6.601 9.666 -3.304 4.859 0 0 Z " fill="#DEF2D9" transform="translate(358,240)"/>
<path d="M0 0 C-1.43 3.582 -3.034 4.999 -6.375 6.875 C-7.146 7.326 -7.917 7.777 -8.711 8.242 C-11 9 -11 9 -13.289 8.133 C-13.854 7.759 -14.418 7.385 -15 7 C-14.258 6.752 -13.515 6.505 -12.75 6.25 C-9.782 4.901 -8.245 3.319 -6 1 C-3 0 -3 0 0 0 Z " fill="#57904C" transform="translate(590,218)"/>
<path d="M0 0 C0.66 0 1.32 0 2 0 C1.691 0.743 1.381 1.485 1.062 2.25 C0.191 4.507 -0.477 6.645 -1 9 C-0.546 8.34 -0.093 7.68 0.375 7 C0.911 6.34 1.447 5.68 2 5 C2.66 5 3.32 5 4 5 C2.417 9.274 -0.506 11.265 -4 14 C-5 12 -5 12 -4.512 9.941 C-4.376 9.549 -4.376 9.549 -3.688 7.562 C-3.423 6.78 -3.159 5.998 -2.887 5.191 C-2 3 -2 3 0 0 Z " fill="#DEEFDA" transform="translate(183,186)"/>
<path d="M0 0 C0.99 0 1.98 0 3 0 C1.576 3.563 0.034 4.928 -3.312 6.75 C-4.072 7.178 -4.831 7.606 -5.613 8.047 C-8.249 9.099 -10.188 9.179 -13 9 C-12.67 8.01 -12.34 7.02 -12 6 C-9.36 5.67 -6.72 5.34 -4 5 C-4 4.34 -4 3.68 -4 3 C-3.01 3 -2.02 3 -1 3 C-0.67 2.01 -0.34 1.02 0 0 Z " fill="#5A924E" transform="translate(828,218)"/>
<path d="M0 0 C0.33 0.99 0.66 1.98 1 3 C-2.518 4.592 -5.227 5.243 -9.082 5.195 C-10.013 5.189 -10.945 5.182 -11.904 5.176 C-12.864 5.159 -13.824 5.142 -14.812 5.125 C-15.792 5.116 -16.771 5.107 -17.779 5.098 C-20.186 5.074 -22.593 5.041 -25 5 C-25 4.67 -25 4.34 -25 4 C-21.7 3.835 -21.7 3.835 -5 3 C-5 2.34 -5 1.68 -5 1 C-3.35 0.67 -1.7 0.34 0 0 Z " fill="#3B8041" transform="translate(296,280)"/>
<path d="M0 0 C-1.387 1.157 -2.785 2.3 -4.188 3.438 C-4.965 4.076 -5.742 4.714 -6.543 5.371 C-9.108 7.072 -10.973 7.618 -14 8 C-14 7.34 -14 6.68 -14 6 C-11.439 3.704 -10.52 3 -7 3 C-6.67 2.01 -6.34 1.02 -6 0 C-3 -1 -3 -1 0 0 Z " fill="#8BC086" transform="translate(332,262)"/>
<path d="M0 0 C2.805 1.32 2.805 1.32 17 8 C11.838 9.29 8.759 8.148 4 6 C1.438 3.938 1.438 3.938 0 2 C0 1.34 0 0.68 0 0 Z " fill="#E1F5DB" transform="translate(261,222)"/>
<path d="M0 0 C2.062 2.25 2.062 2.25 4 5 C3.688 7.125 3.688 7.125 3 9 C3.33 9.99 3.66 10.98 4 12 C2.68 12.99 1.36 13.98 0 15 C0 14.01 0 13.02 0 12 C0.66 12 1.32 12 2 12 C1.299 11.319 0.598 10.639 -0.125 9.938 C-2 7 -2 7 -1.25 3.188 C-0.837 2.136 -0.425 1.084 0 0 Z " fill="#8DC168" transform="translate(356,183)"/>
<path d="M0 0 C4.95 2.31 9.9 4.62 15 7 C14.67 7.66 14.34 8.32 14 9 C9.641 8.34 5.902 7.061 2 5 C1.34 3.35 0.68 1.7 0 0 Z " fill="#80B15C" transform="translate(272,171)"/>
<path d="M0 0 C-0.309 2.884 -1.016 4.018 -3 6.188 C-6.95 8.574 -10.457 8.802 -15 9 C-13.68 8.67 -12.36 8.34 -11 8 C-11 7.34 -11 6.68 -11 6 C-9.35 6 -7.7 6 -6 6 C-6 5.01 -6 4.02 -6 3 C-2.667 0 -2.667 0 0 0 Z " fill="#50864B" transform="translate(652,118)"/>
<path d="M0 0 C0.99 0.33 1.98 0.66 3 1 C-0.073 5.214 -0.073 5.214 -2 7 C-4.688 7.312 -4.688 7.312 -7 7 C-7.33 7.165 -7.33 7.165 -9 8 C-7.985 5.464 -7.315 4.206 -5 2.688 C-4.34 2.461 -3.68 2.234 -3 2 C-2.34 2.33 -1.68 2.66 -1 3 C-0.67 2.01 -0.34 1.02 0 0 Z " fill="#45873F" transform="translate(341,256)"/>
<path d="M0 0 C0.516 0.268 1.031 0.536 1.562 0.812 C2.367 1.204 3.171 1.596 4 2 C4.526 2.258 4.526 2.258 7.188 3.562 C11.339 5.35 15.525 5.706 20 6 C20 6.33 20 6.66 20 7 C15.05 7 10.1 7 5 7 C5 6.01 5 5.02 5 4 C4.381 3.876 3.763 3.752 3.125 3.625 C1 3 1 3 -1 1 C-0.67 0.67 -0.34 0.34 0 0 Z " fill="#5C954F" transform="translate(792,206)"/>
<path d="M0 0 C0 0.99 0 1.98 0 3 C-0.433 3.175 -0.433 3.175 -2.625 4.062 C-6.731 6.419 -9.138 9.296 -12 13 C-12 9.241 -11.229 8.019 -9 5 C-3.114 0 -3.114 0 0 0 Z " fill="#E7F9DC" transform="translate(800,155)"/>
<path d="M0 0 C0.66 0 1.32 0 2 0 C3 2 4 4 5 6 C5.371 6.681 5.743 7.361 6.125 8.062 C7.154 10.341 7.59 12.541 8 15 C7.34 15 6.68 15 6 15 C4.995 12.877 3.996 10.752 3 8.625 C2.443 7.442 1.886 6.258 1.312 5.039 C0 2 0 2 0 0 Z " fill="#5F9951" transform="translate(335,126)"/>
<path d="M0 0 C0.99 0.33 1.98 0.66 3 1 C1.59 2.465 0.172 3.921 -1.25 5.375 C-2.039 6.187 -2.828 6.999 -3.641 7.836 C-5.734 9.756 -7.404 10.916 -10 12 C-10 9 -10 9 -8.574 7.5 C-7.952 7.005 -7.329 6.51 -6.688 6 C-4.325 4.098 -2.11 2.181 0 0 Z " fill="#E1F5D8" transform="translate(365,198)"/>
<path d="M0 0 C6.164 1.666 11.483 4.878 17 8 C17 8.99 17 9.98 17 11 C16.113 10.361 15.226 9.721 14.312 9.062 C11.262 7.163 9.439 6.59 6 6 C5.67 5.34 5.34 4.68 5 4 C3.356 3.278 1.689 2.606 0 2 C0 1.34 0 0.68 0 0 Z " fill="#7EA967" transform="translate(250,193)"/>
<path d="M0 0 C0.99 0 1.98 0 3 0 C3 0.99 3 1.98 3 3 C3.99 3.33 4.98 3.66 6 4 C5.34 4.99 5.34 4.99 2 10 C1.34 9.67 0.68 9.34 0 9 C-1.286 2.571 -1.286 2.571 0 0 Z " fill="#6BA64E" transform="translate(451,154)"/>
<path d="M0 0 C4.204 6.306 6.675 13.411 6 21 C3.797 17.695 2.956 14.877 1.875 11.062 C1.698 10.45 1.698 10.45 0.805 7.348 C0 4 0 4 0 0 Z " fill="#95BF6D" transform="translate(362,134)"/>
<path d="M0 0 C2.31 0.66 4.62 1.32 7 2 C7.33 3.98 7.66 5.96 8 8 C7.01 8.66 6.02 9.32 5 10 C4.161 8.712 3.329 7.419 2.5 6.125 C2.036 5.406 1.572 4.686 1.094 3.945 C0 2 0 2 0 0 Z " fill="#82C051" transform="translate(339,101)"/>
<path d="M0 0 C0.66 0 1.32 0 2 0 C0.636 5.154 -2.726 8.066 -7 11 C-7.66 11 -8.32 11 -9 11 C-9.33 9.68 -9.66 8.36 -10 7 C-8.02 7 -6.04 7 -4 7 C-4 6.01 -4 5.02 -4 4 C-3.01 4 -2.02 4 -1 4 C-0.67 2.68 -0.34 1.36 0 0 Z " fill="#5A934D" transform="translate(731,213)"/>
<path d="M0 0 C0.474 0.598 0.949 1.196 1.438 1.812 C-1.526 1.377 -3.614 0.784 -6.25 -0.688 C-10.639 -2.675 -14.795 -2.914 -19.562 -3.188 C-19.562 -3.518 -19.562 -3.847 -19.562 -4.188 C-12.135 -5.673 -5.934 -5.066 0 0 Z " fill="#71A653" transform="translate(725.5625,142.1875)"/>
<path d="M0 0 C0.66 0 1.32 0 2 0 C1.836 0.531 1.673 1.062 1.504 1.609 C0.886 4.539 0.905 7.258 0.938 10.25 C0.942 10.789 0.942 10.789 0.965 13.516 C0.976 14.335 0.988 15.155 1 16 C0.01 15.67 -0.98 15.34 -2 15 C-3.388 8.945 -2.491 5.68 0 0 Z " fill="#EAF9E2" transform="translate(627,104)"/>
<path d="M0 0 C4.873 4.3 7.82 9.372 11 15 C7.133 13.32 7.133 13.32 5.938 10.438 C5.628 9.633 5.319 8.829 5 8 C4.01 7.67 3.02 7.34 2 7 C0.352 4.398 0 3.138 0 0 Z " fill="#8DB86C" transform="translate(335,88)"/>
<path d="M0 0 C0.33 0 0.66 0 1 0 C1.061 1.218 1.121 2.436 1.184 3.691 C1.268 5.315 1.353 6.939 1.438 8.562 C1.477 9.362 1.516 10.162 1.557 10.986 C1.807 15.714 2.253 20.325 3 25 C1 24 1 24 -0.148 22.051 C-1.367 17.686 -0.959 13.673 -0.625 9.188 C-0.568 8.304 -0.512 7.42 -0.453 6.51 C-0.312 4.339 -0.158 2.169 0 0 Z " fill="#D6EBCD" transform="translate(663,176)"/>
<path d="M0 0 C3.437 -0.087 6.874 -0.14 10.312 -0.188 C11.289 -0.213 12.265 -0.238 13.271 -0.264 C14.209 -0.273 15.147 -0.283 16.113 -0.293 C16.977 -0.309 17.841 -0.324 18.732 -0.341 C21.45 0.068 22.304 0.896 24 3 C23.01 2.835 22.02 2.67 21 2.5 C14.051 1.606 6.991 1.924 0 2 C0 1.34 0 0.68 0 0 Z " fill="#E7F8DC" transform="translate(556,135)"/>
<path d="M0 0 C0 3.883 -1.379 5.468 -3.5 8.688 C-4.15 9.681 -4.799 10.675 -5.469 11.699 C-5.974 12.458 -6.479 13.218 -7 14 C-8.32 13.67 -9.64 13.34 -11 13 C-7.37 8.71 -3.74 4.42 0 0 Z " fill="#8AAF6C" transform="translate(229,71)"/>
<path d="M0 0 C0.33 0.66 0.66 1.32 1 2 C0.691 2.846 0.381 3.691 0.062 4.562 C-1.252 8.817 -1.176 12.589 -1 17 C-3.742 14.258 -3.686 12.023 -4.043 8.262 C-3.975 4.703 -2.46 2.46 0 0 Z " fill="#D4EED4" transform="translate(216,215)"/>
<path d="M0 0 C0.66 0.66 1.32 1.32 2 2 C1.662 2.496 1.325 2.993 0.977 3.504 C-1.946 7.955 -3.81 11.808 -5 17 C-5.33 17 -5.66 17 -6 17 C-6.125 9.375 -6.125 9.375 -5 6 C-4.34 6 -3.68 6 -3 6 C-2.691 5.196 -2.381 4.391 -2.062 3.562 C-1 1 -1 1 0 0 Z " fill="#6A9D57" transform="translate(688,159)"/>
<path d="M0 0 C0.66 0 1.32 0 2 0 C2.33 1.32 2.66 2.64 3 4 C2.01 4.33 1.02 4.66 0 5 C-1.316 6.742 -1.316 6.742 -2.562 8.875 C-2.976 9.574 -3.39 10.272 -3.816 10.992 C-4.012 11.323 -4.012 11.323 -5 13 C-5.33 13.495 -5.33 13.495 -7 16 C-7.66 15.67 -8.32 15.34 -9 15 C-8.434 14.169 -7.868 13.337 -7.285 12.48 C-6.552 11.394 -5.818 10.307 -5.062 9.188 C-4.332 8.109 -3.601 7.03 -2.848 5.918 C-1 3 -1 3 0 0 Z " fill="#93B872" transform="translate(639,88)"/>
<path d="M0 0 C0.66 0 1.32 0 2 0 C-0.343 5.077 -3.601 9.581 -7 14 C-7 13.34 -7 12.68 -7 12 C-7.66 11.67 -8.32 11.34 -9 11 C-8.518 10.457 -8.036 9.915 -7.539 9.355 C-6.907 8.64 -6.276 7.925 -5.625 7.188 C-5.312 6.834 -5.312 6.834 -3.727 5.043 C-2 3 -2 3 0 0 Z " fill="#93CB65" transform="translate(248,52)"/>
<path d="M0 0 C0.66 0 1.32 0 2 0 C1.586 2.485 1.224 4.593 0 6.812 C-1.513 10.122 -1.639 13.388 -2 17 C-2.33 17 -2.66 17 -3 17 C-3.082 15.105 -3.139 13.209 -3.188 11.312 C-3.222 10.257 -3.257 9.201 -3.293 8.113 C-2.964 4.618 -2.123 2.771 0 0 Z " fill="#9AC387" transform="translate(187,205)"/>
<path d="M0 0 C4.255 4.255 4.125 9.726 4.125 15.438 C4.093 17.292 4.055 19.146 4 21 C3.67 21 3.34 21 3 21 C2.867 20.085 2.734 19.17 2.598 18.227 C2.509 17.632 2.509 17.632 2.062 14.625 C1.888 13.442 1.714 12.258 1.535 11.039 C1 8 1 8 0 6 C-0.04 4 -0.043 2 0 0 Z " fill="#CEE9C2" transform="translate(730,167)"/>
<path d="M0 0 C1.044 3.133 0.934 3.99 0 7 C0.66 7.33 1.32 7.66 2 8 C1.34 8 0.68 8 0 8 C-0.33 8.99 -0.66 9.98 -1 11 C-2.32 10.34 -3.64 9.68 -5 9 C-4.357 7.686 -3.71 6.374 -3.062 5.062 C-2.703 4.332 -2.343 3.601 -1.973 2.848 C-1 1 -1 1 0 0 Z " fill="#6EA456" transform="translate(773,154)"/>
<path d="M0 0 C4.035 1.59 8.018 3.282 12 5 C12 6.32 12 7.64 12 9 C7.092 7.513 3.595 4.554 0 1 C0 0.67 0 0.34 0 0 Z " fill="#5E9452" transform="translate(676,216)"/>
<path d="M0 0 C-1.747 0.985 -3.498 1.963 -5.25 2.938 C-5.737 3.21 -5.737 3.21 -8.203 4.59 C-10.536 5.766 -12.454 6.521 -15 7 C-14.67 6.01 -14.34 5.02 -14 4 C-12.35 4 -10.7 4 -9 4 C-8.752 3.361 -8.505 2.721 -8.25 2.062 C-7 0 -7 0 -5.062 -0.812 C-3 -1 -3 -1 0 0 Z " fill="#E5F8DE" transform="translate(355,211)"/>
<path d="M0 0 C-1.37 3.161 -1.989 3.993 -5 6 C-7.043 6.195 -7.043 6.195 -9.188 6.125 C-9.817 6.104 -9.817 6.104 -13 6 C-10.659 4.439 -8.437 3.136 -5.938 1.875 C-5.245 1.522 -4.553 1.169 -3.84 0.805 C-2 0 -2 0 0 0 Z " fill="#E4F3D9" transform="translate(349,204)"/>
<path d="M0 0 C0.33 0 0.66 0 1 0 C1.125 7.75 1.125 7.75 0 10 C-0.229 12.037 -0.41 14.08 -0.562 16.125 C-0.646 17.221 -0.73 18.316 -0.816 19.445 C-0.877 20.288 -0.938 21.131 -1 22 C-1.33 22 -1.66 22 -2 22 C-2.054 19.458 -2.094 16.917 -2.125 14.375 C-2.142 13.662 -2.159 12.949 -2.176 12.215 C-2.217 7.739 -1.691 4.221 0 0 Z " fill="#DEF4D4" transform="translate(786,168)"/>
<path d="M0 0 C0 0.66 0 1.32 0 2 C-1.258 2.289 -2.516 2.577 -3.812 2.875 C-6.854 3.573 -8.307 4.204 -11 6 C-11.99 5.01 -12.98 4.02 -14 3 C-4.59 -0.444 -4.59 -0.444 0 0 Z " fill="#6FA557" transform="translate(223,163)"/>
<path d="M0 0 C1.32 0.33 2.64 0.66 4 1 C2.877 2.46 1.751 3.918 0.625 5.375 C-0.001 6.187 -0.628 6.999 -1.273 7.836 C-3 10 -3 10 -5 12 C-4.67 9.69 -4.34 7.38 -4 5 C-3.34 5 -2.68 5 -2 5 C-1.34 3.35 -0.68 1.7 0 0 Z " fill="#E6F6DD" transform="translate(774,148)"/>
<path d="M0 0 C0.99 0 1.98 0 3 0 C3 0.66 3 1.32 3 2 C4.65 2 6.3 2 8 2 C6.68 4.64 5.36 7.28 4 10 C3 7 3 7 4 4 C2.68 3.67 1.36 3.34 0 3 C0 2.01 0 1.02 0 0 Z " fill="#77B058" transform="translate(217,110)"/>
<path d="M0 0 C2.262 0.68 2.262 0.68 4.688 1.875 C5.496 2.264 6.304 2.654 7.137 3.055 C7.752 3.367 8.366 3.679 9 4 C9 4.33 9 4.66 9 5 C7.375 5.027 5.75 5.046 4.125 5.062 C3.673 5.068 3.673 5.068 1.383 5.098 C-1 5 -1 5 -3 4 C-3 3.34 -3 2.68 -3 2 C-2.01 1.34 -1.02 0.68 0 0 Z " fill="#60A44D" transform="translate(239,274)"/>
<path d="M0 0 C0.66 0.33 1.32 0.66 2 1 C1.423 1.482 0.845 1.964 0.25 2.461 C-0.493 3.093 -1.235 3.724 -2 4.375 C-2.743 5.001 -3.485 5.628 -4.25 6.273 C-4.827 6.843 -5.405 7.413 -6 8 C-6 8.66 -6 9.32 -6 10 C-7.98 10 -9.96 10 -12 10 C-11.34 9.67 -10.68 9.34 -10 9 C-10 8.34 -10 7.68 -10 7 C-7.812 5.273 -7.812 5.273 -5 3.375 C-4.072 2.743 -3.144 2.112 -2.188 1.461 C-1.827 1.22 -1.827 1.22 0 0 Z " fill="#5A9C55" transform="translate(316,265)"/>
<path d="M0 0 C0.99 0.66 1.98 1.32 3 2 C-0.245 4.04 -3.406 5.665 -7 7 C-7 6.34 -7 5.68 -7 5 C-7.99 4.67 -8.98 4.34 -10 4 C-8.403 3.275 -6.797 2.57 -5.188 1.875 C-4.294 1.481 -3.401 1.086 -2.48 0.68 C-1.662 0.455 -0.843 0.231 0 0 Z " fill="#578F50" transform="translate(309,257)"/>
<path d="M0 0 C-1.621 1.172 -3.247 2.338 -4.875 3.5 C-5.78 4.15 -6.685 4.799 -7.617 5.469 C-10 7 -10 7 -12 7 C-12 6.34 -12 5.68 -12 5 C-11.01 5 -10.02 5 -9 5 C-8.752 4.196 -8.505 3.391 -8.25 2.562 C-7 0 -7 0 -5.062 -0.875 C-3 -1 -3 -1 0 0 Z " fill="#E3F6DF" transform="translate(321,250)"/>
<path d="M0 0 C0.66 0 1.32 0 2 0 C0.639 5.198 -1.467 8.095 -5 12 C-5.66 11.67 -6.32 11.34 -7 11 C-6.67 9.68 -6.34 8.36 -6 7 C-4.68 7 -3.36 7 -2 7 C-1.928 6.608 -1.928 6.608 -1.562 4.625 C-1 2 -1 2 0 0 Z " fill="#DFF4E0" transform="translate(342,169)"/>
<path d="M0 0 C0.66 0.33 1.32 0.66 2 1 C0.716 2.672 -0.578 4.338 -1.875 6 C-2.594 6.928 -3.314 7.856 -4.055 8.812 C-4.697 9.534 -5.339 10.256 -6 11 C-6.66 11 -7.32 11 -8 11 C-6.527 5.991 -3.725 3.482 0 0 Z " fill="#E8F9DF" transform="translate(555,156)"/>
<path d="M0 0 C4.62 0 9.24 0 14 0 C13.67 0.66 13.34 1.32 13 2 C12.01 2 11.02 2 10 2 C9.67 2.66 9.34 3.32 9 4 C6.03 3.01 3.06 2.02 0 1 C0 0.67 0 0.34 0 0 Z " fill="#7BAD61" transform="translate(799,136)"/>
<path d="M0 0 C0.33 0 0.66 0 1 0 C0.67 3.96 0.34 7.92 0 12 C-0.99 12.33 -1.98 12.66 -3 13 C-3.383 7.768 -2.219 4.622 0 0 Z " fill="#87C35A" transform="translate(355,181)"/>
<path d="M0 0 C0.99 0.33 1.98 0.66 3 1 C1.35 4.96 -0.3 8.92 -2 13 C-2.33 13 -2.66 13 -3 13 C-3.274 7.606 -3.361 4.481 0 0 Z " fill="#6AA255" transform="translate(787,161)"/>
<path d="M0 0 C0.33 0 0.66 0 1 0 C1 3.96 1 7.92 1 12 C-1.31 10.02 -3.62 8.04 -6 6 C-3.509 4.755 -2.589 5.223 0 6 C0 4.02 0 2.04 0 0 Z " fill="#CFE9BF" transform="translate(733,138)"/>
<path d="M0 0 C2.763 0.523 5.326 1.109 8 2 C8.33 1.34 8.66 0.68 9 0 C9 2.31 9 4.62 9 7 C5.183 5.445 2.808 2.964 0 0 Z " fill="#ECFAE3" transform="translate(825,140)"/>
<path d="M0 0 C4.29 0 8.58 0 13 0 C13 0.99 13 1.98 13 3 C11.397 3.081 9.792 3.139 8.188 3.188 C7.294 3.222 6.401 3.257 5.48 3.293 C3 3 3 3 0 0 Z " fill="#7BAD63" transform="translate(559,136)"/>
<path d="M0 0 C3.982 3.982 3.982 3.982 4.062 8.625 C4.042 9.739 4.021 10.852 4 12 C3.01 12 2.02 12 1 12 C0.67 8.04 0.34 4.08 0 0 Z " fill="#B6DD98" transform="translate(646,102)"/>
<path d="M0 0 C1.959 0.476 3.917 0.956 5.875 1.438 C6.966 1.704 8.056 1.971 9.18 2.246 C12 3 12 3 14 4 C14 4.66 14 5.32 14 6 C13.66 5.928 13.66 5.928 11.938 5.562 C9 5 9 5 5.312 4.688 C4.219 4.461 3.126 4.234 2 4 C0.793 1.957 0.793 1.957 0 0 Z " fill="#448644" transform="translate(247,260)"/>
<path d="M0 0 C0.33 0 0.66 0 1 0 C1 4.29 1 8.58 1 13 C0.01 12.67 -0.98 12.34 -2 12 C-2.054 10.563 -2.093 9.125 -2.125 7.688 C-2.148 6.887 -2.171 6.086 -2.195 5.262 C-2 3 -2 3 0 0 Z " fill="#D2ECCA" transform="translate(733,214)"/>
<path d="M0 0 C0.99 0.33 1.98 0.66 3 1 C3 1.99 3 2.98 3 4 C3.66 4 4.32 4 5 4 C3.935 6.131 2.708 7.366 1 9 C-0.619 6.428 -1.044 5.323 -0.625 2.25 C-0.419 1.507 -0.212 0.765 0 0 Z " fill="#50953F" transform="translate(769,196)"/>
<path d="M0 0 C0.66 0.33 1.32 0.66 2 1 C1.618 1.443 1.618 1.443 -0.312 3.688 C-2.019 5.717 -3.332 7.566 -4.688 9.875 C-5.121 10.576 -5.554 11.278 -6 12 C-6.66 12 -7.32 12 -8 12 C-6.65 6.33 -4.184 3.82 0 0 Z " fill="#E7F8DC" transform="translate(693,157)"/>
<path d="M0 0 C0.33 0.99 0.66 1.98 1 3 C-1.094 6.515 -3.507 9.759 -6 13 C-6.66 12.67 -7.32 12.34 -8 12 C-6.856 10.187 -5.71 8.374 -4.562 6.562 C-4.243 6.058 -4.243 6.058 -2.629 3.504 C-1 1 -1 1 0 0 Z " fill="#E8F6DD" transform="translate(230,105)"/>
<path d="M0 0 C0.66 0.33 1.32 0.66 2 1 C0.839 5.355 -0.077 7.646 -4 10 C-4.66 9.67 -5.32 9.34 -6 9 C-4.02 6.03 -2.04 3.06 0 0 Z " fill="#81B362" transform="translate(211,94)"/>
<path d="M0 0 C-3.737 2.491 -5.745 2.207 -10.188 2.125 C-11.46 2.107 -12.732 2.089 -14.043 2.07 C-14.531 2.059 -14.531 2.059 -17 2 C-17 1.67 -17 1.34 -17 1 C-14.918 0.636 -12.835 0.284 -10.75 -0.062 C-10.17 -0.161 -10.17 -0.161 -7.234 -0.66 C-4.375 -0.961 -2.667 -0.944 0 0 Z " fill="#DAF3DE" transform="translate(302,284)"/>
<path d="M0 0 C3.659 1.432 7.24 2.989 10.812 4.625 C11.3 4.848 11.3 4.848 13.77 5.977 C14.506 6.314 15.242 6.652 16 7 C13.049 8.253 12.026 8.01 8.984 6.785 C7.917 6.217 6.85 5.648 5.75 5.062 C4.672 4.497 3.595 3.931 2.484 3.348 C1.665 2.903 0.845 2.458 0 2 C0 1.34 0 0.68 0 0 Z " fill="#E2F6D9" transform="translate(282,200)"/>
<path d="M0 0 C0.865 2.421 1.142 3.609 0.25 6.062 C-0.994 7.991 -2.305 9.46 -4 11 C-4.99 10.67 -5.98 10.34 -7 10 C-6.578 9.446 -6.157 8.891 -5.723 8.32 C-5.175 7.596 -4.627 6.871 -4.062 6.125 C-3.517 5.406 -2.972 4.686 -2.41 3.945 C-1 2 -1 2 0 0 Z " fill="#E3F3D8" transform="translate(367,183)"/>
<path d="M0 0 C0 0.66 0 1.32 0 2 C-6.6 1.67 -13.2 1.34 -20 1 C-20 0.67 -20 0.34 -20 0 C-17.792 -0.197 -15.584 -0.382 -13.375 -0.562 C-12.145 -0.667 -10.915 -0.771 -9.648 -0.879 C-6.244 -0.992 -3.324 -0.69 0 0 Z " fill="#E9F7DB" transform="translate(236,185)"/>
<path d="M0 0 C1 3 1 3 0 6 C0 6.99 0 7.98 0 9 C-0.825 8.67 -0.825 8.67 -5 7 C-3.707 4.116 -2.341 2.128 0 0 Z " fill="#539045" transform="translate(194,176)"/>
<path d="M0 0 C0.33 0 0.66 0 1 0 C1.027 1.604 1.046 3.208 1.062 4.812 C1.074 5.706 1.086 6.599 1.098 7.52 C1 10 1 10 0 13 C-0.66 13 -1.32 13 -2 13 C-2.193 8.176 -1.757 4.504 0 0 Z " fill="#408244" transform="translate(182,156)"/>
<path d="M0 0 C1.017 2.655 1.13 3.692 0.004 6.359 C-0.472 7.148 -0.947 7.937 -1.438 8.75 C-1.911 9.549 -2.384 10.348 -2.871 11.172 C-3.244 11.775 -3.616 12.378 -4 13 C-4.66 12.67 -5.32 12.34 -6 12 C-4.434 7.692 -2.317 3.938 0 0 Z " fill="#EDFAE3" transform="translate(221,119)"/>
<path d="M0 0 C1.71 2.565 2.904 4.88 4.125 7.688 C4.478 8.496 4.831 9.304 5.195 10.137 C5.461 10.752 5.726 11.366 6 12 C4.68 12.33 3.36 12.66 2 13 C0.548 8.463 -0.235 4.819 0 0 Z " fill="#699D5C" transform="translate(544,192)"/>
<path d="M0 0 C0.66 0.33 1.32 0.66 2 1 C-3.002 8.667 -3.002 8.667 -7 10 C-6.67 8.68 -6.34 7.36 -6 6 C-5.34 6 -4.68 6 -4 6 C-3.711 5.196 -3.423 4.391 -3.125 3.562 C-2 1 -2 1 0 0 Z " fill="#E7F9E1" transform="translate(589,198)"/>
<path d="M0 0 C0.553 2.076 1 3.844 1 6 C-3.318 10.659 -3.318 10.659 -6 12 C-4.681 7.385 -2.786 3.901 0 0 Z " fill="#5E8858" transform="translate(186,185)"/>
<path d="M0 0 C0 0.66 0 1.32 0 2 C-7.286 5.429 -7.286 5.429 -12 5 C-7.867 1.753 -5.361 0 0 0 Z " fill="#4F8543" transform="translate(338,182)"/>
<path d="M0 0 C-1.271 2.543 -2.401 2.856 -4.938 4.062 C-5.648 4.404 -6.358 4.746 -7.09 5.098 C-7.72 5.395 -8.351 5.693 -9 6 C-9.33 6.165 -9.33 6.165 -11 7 C-10.812 5.188 -10.812 5.188 -10 3 C-6.627 0.377 -4.243 -0.364 0 0 Z " fill="#6BA152" transform="translate(702,152)"/>
<path d="M0 0 C2.125 2.125 2.125 2.125 4 5 C3.25 8.312 3.25 8.312 2 11 C0 9 0 9 -0.195 6.836 C-0.172 6.024 -0.149 5.212 -0.125 4.375 C-0.116 3.966 -0.116 3.966 -0.07 1.898 C-0.047 1.272 -0.024 0.645 0 0 Z " fill="#6EA95B" transform="translate(204,144)"/>
<path d="M0 0 C0.99 0 1.98 0 3 0 C2.732 0.516 2.464 1.031 2.188 1.562 C0.677 4.664 -0.656 7.823 -2 11 C-2.66 10.67 -3.32 10.34 -4 10 C-2.998 6.207 -2.19 3.285 0 0 Z " fill="#699F57" transform="translate(193,125)"/>
<path d="M0 0 C3.487 2.79 6.502 5.252 9 9 C8.67 9.66 8.34 10.32 8 11 C4.832 8.603 2.091 6.411 0 3 C0 2.01 0 1.02 0 0 Z " fill="#7BA959" transform="translate(308,55)"/>
<path d="M0 0 C0.33 0.99 0.66 1.98 1 3 C0.529 3.398 0.059 3.797 -0.426 4.207 C-1.048 4.737 -1.671 5.267 -2.312 5.812 C-2.927 6.335 -3.542 6.857 -4.176 7.395 C-5.854 8.872 -7.439 10.4 -9 12 C-9.66 11.67 -10.32 11.34 -11 11 C-7.37 7.37 -3.74 3.74 0 0 Z " fill="#9EC378" transform="translate(263,33)"/>
<path d="M0 0 C0.99 0 1.98 0 3 0 C8 5.349 8 5.349 8 8 C8.99 8 9.98 8 11 8 C10.67 9.32 10.34 10.64 10 12 C8.33 10.19 6.664 8.377 5 6.562 C4.762 6.304 4.762 6.304 3.555 4.998 C0 1.113 0 1.113 0 0 Z " fill="#EDFADD" transform="translate(288,32)"/>
<path d="M0 0 C2.938 0.75 2.938 0.75 6 2 C6.688 4.062 6.688 4.062 7 6 C7.99 6.33 8.98 6.66 10 7 C9.67 7.66 9.34 8.32 9 9 C7.684 7.879 6.372 6.753 5.062 5.625 C4.332 4.999 3.601 4.372 2.848 3.727 C1 2 1 2 0 0 Z " fill="#538B4B" transform="translate(205,255)"/>
<path d="M0 0 C-1.91 0.868 -3.829 1.719 -5.75 2.562 C-6.817 3.038 -7.885 3.514 -8.984 4.004 C-11.984 4.995 -13.134 5.162 -16 4 C-14.09 3.132 -12.171 2.281 -10.25 1.438 C-9.183 0.962 -8.115 0.486 -7.016 -0.004 C-4.016 -0.995 -2.866 -1.162 0 0 Z " fill="#D9EFD0" transform="translate(214,178)"/>
<path d="M0 0 C4.29 1.65 8.58 3.3 13 5 C12.67 5.66 12.34 6.32 12 7 C8.988 6.356 6.483 5.35 3.75 3.938 C3.044 3.575 2.337 3.213 1.609 2.84 C1.078 2.563 0.547 2.286 0 2 C0 1.34 0 0.68 0 0 Z " fill="#81AE63" transform="translate(258,165)"/>
<path d="M0 0 C0.33 0 0.66 0 1 0 C1.33 3.63 1.66 7.26 2 11 C1.01 11.33 0.02 11.66 -1 12 C-0.67 10.35 -0.34 8.7 0 7 C-0.99 6.67 -1.98 6.34 -3 6 C-2.34 5.67 -1.68 5.34 -1 5 C-0.375 2.438 -0.375 2.438 0 0 Z " fill="#46893E" transform="translate(203,147)"/>
<path d="M0 0 C0.66 0 1.32 0 2 0 C2 2.97 2 5.94 2 9 C1.34 9 0.68 9 0 9 C0 7.35 0 5.7 0 4 C-1.32 4.33 -2.64 4.66 -4 5 C-2.719 3.293 -1.382 1.626 0 0 Z " fill="#EDFEE8" transform="translate(833,217)"/>
<path d="M0 0 C4.95 1.32 9.9 2.64 15 4 C15 4.33 15 4.66 15 5 C13.251 5.081 11.5 5.139 9.75 5.188 C8.775 5.222 7.801 5.257 6.797 5.293 C3.603 4.958 2.271 4.233 0 2 C0 1.34 0 0.68 0 0 Z " fill="#90B96D" transform="translate(295,182)"/>
<path d="M0 0 C0.66 0 1.32 0 2 0 C2.66 1.32 3.32 2.64 4 4 C3.01 5.32 2.02 6.64 1 8 C0.01 7.67 -0.98 7.34 -2 7 C-1.34 4.69 -0.68 2.38 0 0 Z " fill="#A1D17B" transform="translate(360,180)"/>
<path d="M0 0 C1.581 4.744 -1.086 8.123 -3.188 12.438 C-3.456 12.953 -3.724 13.469 -4 14 C-5.065 11.27 -5.08 10.207 -4.004 7.422 C-3.528 6.54 -3.053 5.658 -2.562 4.75 C-2.089 3.858 -1.616 2.966 -1.129 2.047 C-0.756 1.371 -0.384 0.696 0 0 Z " fill="#6FA25B" transform="translate(671,154)"/>
<path d="M0 0 C3.96 0 7.92 0 12 0 C12 0.99 12 1.98 12 3 C10.187 2.886 8.374 2.759 6.562 2.625 C6.058 2.59 6.058 2.59 3.504 2.414 C2.678 2.277 1.851 2.141 1 2 C0.67 1.34 0.34 0.68 0 0 Z " fill="#6B9E51" transform="translate(468,151)"/>
<path d="M0 0 C5.288 0.415 8.117 1.352 12 5 C8.785 5 7.766 4.465 5 3 C3.339 2.32 1.673 1.651 0 1 C0 0.67 0 0.34 0 0 Z " fill="#72A759" transform="translate(575,138)"/>
<path d="M0 0 C2.335 2.257 4.187 4.281 6 7 C6 7.99 6 8.98 6 10 C3 9 3 9 1.312 6.125 C0 3 0 3 0 0 Z " fill="#82A863" transform="translate(647,100)"/>
<path d="M0 0 C0.99 0.33 1.98 0.66 3 1 C0.36 3.97 -2.28 6.94 -5 10 C-5.33 9.34 -5.66 8.68 -6 8 C-5.062 5.875 -5.062 5.875 -4 4 C-3.01 4 -2.02 4 -1 4 C-0.67 2.68 -0.34 1.36 0 0 Z " fill="#EEFBE1" transform="translate(240,54)"/>
<path d="M0 0 C2.915 1.074 4.778 1.778 7 4 C6.67 4.99 6.34 5.98 6 7 C5.804 6.742 5.804 6.742 4.812 5.438 C4.513 5.2 4.513 5.2 3 4 C0.312 4.312 0.312 4.312 -2 5 C-2 4.01 -2 3.02 -2 2 C-1.34 2 -0.68 2 0 2 C0 1.34 0 0.68 0 0 Z " fill="#87BC59" transform="translate(274,49)"/>
<path d="M0 0 C0.66 0.33 1.32 0.66 2 1 C2 3.31 2 5.62 2 8 C1.67 8.165 1.67 8.165 0 9 C-2 6 -2 6 -2 3 C-1.34 2.01 -0.68 1.02 0 0 Z " fill="#4A8F41" transform="translate(346,246)"/>
<path d="M0 0 C0.598 0.206 1.196 0.412 1.812 0.625 C0.163 2.275 -1.487 3.925 -3.188 5.625 C-4.178 5.295 -5.168 4.965 -6.188 4.625 C-5.031 1.155 -3.913 -0.671 0 0 Z " fill="#5D9A4C" transform="translate(724.1875,207.375)"/>
<path d="M0 0 C0.33 0.99 0.66 1.98 1 3 C0.67 3.495 0.67 3.495 -1 6 C-1.99 6 -2.98 6 -4 6 C-4.33 6.99 -4.66 7.98 -5 9 C-5.66 9 -6.32 9 -7 9 C-7 8.01 -7 7.02 -7 6 C-3.667 3 -3.667 3 -1 3 C-0.67 2.01 -0.34 1.02 0 0 Z " fill="#639955" transform="translate(587,203)"/>
<path d="M0 0 C3.459 1.249 6.147 2.675 9 5 C5.234 6.255 3.628 5.371 0 4 C0 2.68 0 1.36 0 0 Z " fill="#E9F8DE" transform="translate(263,189)"/>
<path d="M0 0 C-2.31 2.31 -4.62 4.62 -7 7 C-7.33 6.01 -7.66 5.02 -8 4 C-7.34 4 -6.68 4 -6 4 C-6 2.68 -6 1.36 -6 0 C-3 -1 -3 -1 0 0 Z " fill="#E3F5DB" transform="translate(196,175)"/>
<path d="M0 0 C0.33 0.99 0.66 1.98 1 3 C3.062 3.688 3.062 3.688 5 4 C4.216 4.144 3.433 4.289 2.625 4.438 C0 5 0 5 -2 6 C-2.99 5.34 -3.98 4.68 -5 4 C-3.35 2.68 -1.7 1.36 0 0 Z " fill="#579A47" transform="translate(643,117)"/>
<path d="M0 0 C0.66 0.33 1.32 0.66 2 1 C1.175 2.155 1.175 2.155 -3 8 C-3.33 6.68 -3.66 5.36 -4 4 C-4.66 3.67 -5.32 3.34 -6 3 C-4.035 1.932 -2.031 0.934 0 0 Z " fill="#D4F3CB" transform="translate(336,231)"/>
<path d="M0 0 C0.66 0 1.32 0 2 0 C1.34 3.3 0.68 6.6 0 10 C-0.66 10 -1.32 10 -2 10 C-1.125 2.25 -1.125 2.25 0 0 Z " fill="#69A158" transform="translate(369,208)"/>
<path d="M0 0 C3.465 0.272 4.682 0.937 7.188 3.25 C-0.241 3.536 -0.241 3.536 -3.812 1.25 C-2.812 0.25 -2.812 0.25 0 0 Z " fill="#609B50" transform="translate(237.8125,208.75)"/>
<path d="M0 0 C3.242 0.35 4.615 0.562 6.812 3.062 C7.204 3.702 7.596 4.341 8 5 C7.67 5.165 7.67 5.165 6 6 C3.525 4.886 1.321 3.418 -1 2 C-0.67 1.34 -0.34 0.68 0 0 Z " fill="#71A65C" transform="translate(274,193)"/>
<path d="M0 0 C2 1 2 1 2.812 2.875 C3 5 3 5 1.562 6.75 C1.047 7.162 0.531 7.575 0 8 C-0.99 7.67 -1.98 7.34 -3 7 C-2.01 4.69 -1.02 2.38 0 0 Z " fill="#6CA554" transform="translate(531,155)"/>
<path d="M0 0 C0.33 0 0.66 0 1 0 C0.67 2.64 0.34 5.28 0 8 C1.32 8.66 2.64 9.32 4 10 C4 10.33 4 10.66 4 11 C2.35 11 0.7 11 -1 11 C-1.125 3.375 -1.125 3.375 0 0 Z " fill="#71AB59" transform="translate(645,109)"/>
<path d="M0 0 C2.932 2.853 5.643 5.651 8 9 C6.68 8.67 5.36 8.34 4 8 C4 7.34 4 6.68 4 6 C2.68 5.67 1.36 5.34 0 5 C0 3.35 0 1.7 0 0 Z " fill="#E8F8D9" transform="translate(288,64)"/>
<path d="M0 0 C0.99 0.33 1.98 0.66 3 1 C1.35 2.98 -0.3 4.96 -2 7 C-2.66 5.68 -3.32 4.36 -4 3 C-2.188 1.438 -2.188 1.438 0 0 Z " fill="#94C36E" transform="translate(268,55)"/>
<path d="M0 0 C0.66 0 1.32 0 2 0 C0.417 4.274 -2.506 6.265 -6 9 C-6.33 8.01 -6.66 7.02 -7 6 C-6.01 5.67 -5.02 5.34 -4 5 C-3.67 4.34 -3.34 3.68 -3 3 C-2.34 3 -1.68 3 -1 3 C-0.67 2.01 -0.34 1.02 0 0 Z " fill="#F1FDE3" transform="translate(255,38)"/>
<path d="M0 0 C1.625 -0.054 3.25 -0.093 4.875 -0.125 C5.78 -0.148 6.685 -0.171 7.617 -0.195 C10 0 10 0 12 2 C7.31 3.117 4.462 2.806 0 1 C0 0.67 0 0.34 0 0 Z " fill="#74AE61" transform="translate(240,279)"/>
<path d="M0 0 C0 0.33 0 0.66 0 1 C-5.838 2.698 -10.931 3.253 -17 3 C-17 2.34 -17 1.68 -17 1 C-11.29 0.26 -5.758 -0.105 0 0 Z " fill="#3E8142" transform="translate(288,265)"/>
<path d="M0 0 C0.34 0.144 0.34 0.144 2.062 0.875 C5.329 2.126 8.628 3.074 12 4 C12 4.33 12 4.66 12 5 C7.042 5.292 3.972 5.129 0 2 C0 1.34 0 0.68 0 0 Z " fill="#E0F5DA" transform="translate(544,223)"/>
<path d="M0 0 C1.75 0.062 1.75 0.062 4 1 C5.595 3.242 6.745 5.536 8 8 C4.206 6.51 2.352 4.276 0 1 C0 0.67 0 0.34 0 0 Z " fill="#548E49" transform="translate(773,210)"/>
<path d="M0 0 C0.825 0.165 0.825 0.165 5 1 C5 1.66 5 2.32 5 3 C5.66 3 6.32 3 7 3 C7.66 4.32 8.32 5.64 9 7 C4.581 5.65 2.657 3.739 0 0 Z " fill="#E0F8DB" transform="translate(791,203)"/>
<path d="M0 0 C0.66 0 1.32 0 2 0 C1.688 3.375 1.688 3.375 1 7 C0.01 7.66 -0.98 8.32 -2 9 C-2.33 8.34 -2.66 7.68 -3 7 C-2.064 4.64 -1.067 2.304 0 0 Z " fill="#569044" transform="translate(834,192)"/>
<path d="M0 0 C2.25 0.25 2.25 0.25 4 1 C1.688 3.062 1.688 3.062 -1 5 C-1.99 4.67 -2.98 4.34 -4 4 C-2.25 1.938 -2.25 1.938 0 0 Z " fill="#9DC185" transform="translate(200,192)"/>
<path d="M0 0 C0.66 0 1.32 0 2 0 C2.144 0.464 2.144 0.464 2.875 2.812 C4 6 4 6 6 9 C5.67 9.99 5.34 10.98 5 12 C2.032 7.978 0.476 4.999 0 0 Z " fill="#E1F7DA" transform="translate(785,191)"/>
<path d="M0 0 C0 2.621 -0.313 4.509 -1 7 C-2.65 7.33 -4.3 7.66 -6 8 C-4.557 4.634 -2.667 2.49 0 0 Z " fill="#7EBF57" transform="translate(348,175)"/>
<path d="M0 0 C0.66 0 1.32 0 2 0 C1.718 1.46 1.424 2.918 1.125 4.375 C0.963 5.187 0.8 5.999 0.633 6.836 C0 9 0 9 -2 11 C-1.859 9.541 -1.712 8.083 -1.562 6.625 C-1.481 5.813 -1.4 5.001 -1.316 4.164 C-1 2 -1 2 0 0 Z " fill="#73A160" transform="translate(527,164)"/>
<path d="M0 0 C0 0.33 0 0.66 0 1 C-0.302 1.03 -0.302 1.03 -1.828 1.184 C-2.228 1.225 -2.228 1.225 -4.25 1.438 C-5.039 1.519 -5.828 1.6 -6.641 1.684 C-8.824 1.976 -10.877 2.421 -13 3 C-13.33 2.34 -13.66 1.68 -14 1 C-8.805 -1.208 -5.417 -0.934 0 0 Z " fill="#72A854" transform="translate(474,138)"/>
<path d="M0 0 C2.098 2.098 2.651 3.38 3.625 6.125 C3.885 6.849 4.146 7.574 4.414 8.32 C4.607 8.875 4.801 9.429 5 10 C3.68 9.67 2.36 9.34 1 9 C0.67 6.03 0.34 3.06 0 0 Z " fill="#A0C67C" transform="translate(357,123)"/>
<path d="M0 0 C2.969 2.545 4.362 5.49 6 9 C5.01 9.33 4.02 9.66 3 10 C3 8.68 3 7.36 3 6 C2.34 6 1.68 6 1 6 C0.67 4.02 0.34 2.04 0 0 Z " fill="#93BE6E" transform="translate(346,104)"/>
<path d="M0 0 C2.327 2.116 3.858 4.05 5 7 C4.67 7.66 4.34 8.32 4 9 C3.34 9 2.68 9 2 9 C0.502 5.629 0 3.796 0 0 Z " fill="#9FC879" transform="translate(643,93)"/>
<path d="M0 0 C2 2 2 2 2.125 5.125 C2.084 6.074 2.042 7.022 2 8 C1.01 8 0.02 8 -1 8 C-1.931 5.394 -2.149 4.358 -1.062 1.75 C-0.712 1.172 -0.361 0.595 0 0 Z " fill="#ADD987" transform="translate(219,88)"/>
<path d="M0 0 C-3.334 2.191 -6.042 3.435 -10 4 C-4.75 -1.425 -4.75 -1.425 0 0 Z " fill="#4A8643" transform="translate(320,254)"/>
<path d="M0 0 C0.33 0.99 0.66 1.98 1 3 C-3.395 7.004 -3.395 7.004 -5 8 C-5.99 7.67 -6.98 7.34 -8 7 C-5.36 4.69 -2.72 2.38 0 0 Z " fill="#5C9250" transform="translate(328,243)"/>
<path d="M0 0 C3.775 1.091 6.47 1.908 9 5 C5.265 4.502 3.188 4.125 0 2 C0 1.34 0 0.68 0 0 Z " fill="#589050" transform="translate(785,221)"/>
<path d="M0 0 C0.33 0 0.66 0 1 0 C1.201 3.716 1.152 4.772 -1 8 C-1.66 8 -2.32 8 -3 8 C-3.33 7.01 -3.66 6.02 -4 5 C-2.125 2.312 -2.125 2.312 0 0 Z " fill="#759F65" transform="translate(372,192)"/>
<path d="M0 0 C2.97 0.99 5.94 1.98 9 3 C8.67 3.66 8.34 4.32 8 5 C6.68 5 5.36 5 4 5 C4 4.34 4 3.68 4 3 C2.68 2.67 1.36 2.34 0 2 C0 1.34 0 0.68 0 0 Z " fill="#74A85B" transform="translate(816,137)"/>
<path d="M0 0 C-0.33 1.32 -0.66 2.64 -1 4 C-1.66 4 -2.32 4 -3 4 C-3.33 4.99 -3.66 5.98 -4 7 C-5 4 -5 4 -5 1 C-3 0 -3 0 0 0 Z " fill="#B9DA9C" transform="translate(227,82)"/>
<path d="M0 0 C1.32 0.33 2.64 0.66 4 1 C3.67 2.32 3.34 3.64 3 5 C1.35 5.33 -0.3 5.66 -2 6 C-2 5.34 -2 4.68 -2 4 C-1.01 4 -0.02 4 1 4 C0.67 2.68 0.34 1.36 0 0 Z " fill="#458D44" transform="translate(242,258)"/>
<path d="M0 0 C0.99 1.32 1.98 2.64 3 4 C2.188 7.25 2.188 7.25 1 10 C0.67 10 0.34 10 0 10 C0 6.7 0 3.4 0 0 Z " fill="#95C36C" transform="translate(368,156)"/>
<path d="M0 0 C-1.32 1.32 -2.64 2.64 -4 4 C-4.33 3.34 -4.66 2.68 -5 2 C-5.99 1.67 -6.98 1.34 -8 1 C-3.375 -1.125 -3.375 -1.125 0 0 Z " fill="#78A859" transform="translate(555,139)"/>
<path d="M0 0 C0.66 0.66 1.32 1.32 2 2 C0.68 4.31 -0.64 6.62 -2 9 C-2.688 7.312 -2.688 7.312 -3 5 C-1.562 2.25 -1.562 2.25 0 0 Z " fill="#7FAE65" transform="translate(218,120)"/>
<path d="M0 0 C1.875 0.312 1.875 0.312 4 1 C4.66 1.99 5.32 2.98 6 4 C3.03 4 0.06 4 -3 4 C-2.01 2.68 -1.02 1.36 0 0 Z " fill="#DCF4C0" transform="translate(274,52)"/>
<path d="M0 0 C3.312 -0.25 3.312 -0.25 7 0 C7.99 1.32 8.98 2.64 10 4 C6.7 3.01 3.4 2.02 0 1 C0 0.67 0 0.34 0 0 Z " fill="#DAF0D2" transform="translate(292,215)"/>
<path d="M0 0 C2.886 0.398 3.822 0.79 5.75 3.062 C6.163 3.702 6.575 4.341 7 5 C4.614 4.424 2.333 3.778 0 3 C0 2.01 0 1.02 0 0 Z " fill="#589448" transform="translate(686,203)"/>
<path d="M0 0 C2.625 0.938 2.625 0.938 5 2 C5 2.99 5 3.98 5 5 C2.085 3.926 0.222 3.222 -2 1 C-1.34 0.67 -0.68 0.34 0 0 Z " fill="#E8F9DE" transform="translate(274,203)"/>
<path d="M0 0 C0.66 0.33 1.32 0.66 2 1 C1.375 2.938 1.375 2.938 0 5 C-3.125 5.75 -3.125 5.75 -6 6 C-4 4 -2 2 0 0 Z " fill="#E7F6DD" transform="translate(355,198)"/>
<path d="M0 0 C1.155 0.495 1.155 0.495 7 3 C6.67 3.66 6.34 4.32 6 5 C4.35 4.67 2.7 4.34 1 4 C0.67 2.68 0.34 1.36 0 0 Z " fill="#89B667" transform="translate(280,175)"/>
<path d="M0 0 C0.33 0 0.66 0 1 0 C0.67 3.3 0.34 6.6 0 10 C-2 8 -2 8 -2.25 5.562 C-2 3 -2 3 0 0 Z " fill="#EBFAE3" transform="translate(525,166)"/>
<path d="M0 0 C4.875 4.625 4.875 4.625 6 8 C4.125 7.375 4.125 7.375 2 6 C0.75 2.875 0.75 2.875 0 0 Z " fill="#75A55D" transform="translate(500,145)"/>
<path d="M0 0 C0.99 0.33 1.98 0.66 3 1 C0.36 2.98 -2.28 4.96 -5 7 C-5 6.01 -5 5.02 -5 4 C-4.34 4 -3.68 4 -3 4 C-2.67 3.01 -2.34 2.02 -2 1 C-1.34 0.67 -0.68 0.34 0 0 Z " fill="#E3F4D7" transform="translate(540,143)"/>
<path d="M0 0 C3.3 0.33 6.6 0.66 10 1 C10 1.99 10 2.98 10 4 C6.7 3.01 3.4 2.02 0 1 C0 0.67 0 0.34 0 0 Z " fill="#D4EECA" transform="translate(486,137)"/>
<path d="M0 0 C0.99 0.33 1.98 0.66 3 1 C2.175 2.155 2.175 2.155 -2 8 C-2.33 6.68 -2.66 5.36 -3 4 C-1.562 1.75 -1.562 1.75 0 0 Z " fill="#EBF9DC" transform="translate(632,96)"/>
<path d="M0 0 C0.75 1.75 0.75 1.75 1 4 C-0.938 6.25 -0.938 6.25 -3 8 C-3.369 3.446 -3.369 3.446 -1.5 1.188 C-1.005 0.796 -0.51 0.404 0 0 Z " fill="#7FB159" transform="translate(239,88)"/>
<path d="M0 0 C0.763 0.206 1.526 0.413 2.312 0.625 C0.177 2.761 -0.753 3.258 -3.688 3.625 C-4.348 2.965 -5.007 2.305 -5.688 1.625 C-2.688 -0.375 -2.688 -0.375 0 0 Z " fill="#48894E" transform="translate(317.6875,274.375)"/>
<path d="M0 0 C0.33 0.66 0.66 1.32 1 2 C2.32 2 3.64 2 5 2 C4.67 2.99 4.34 3.98 4 5 C1.938 5.688 1.938 5.688 0 6 C-1.125 2.25 -1.125 2.25 0 0 Z " fill="#338237" transform="translate(210,231)"/>
<path d="M0 0 C-0.33 0.99 -0.66 1.98 -1 3 C-2.485 3.165 -2.485 3.165 -10 4 C-7.253 1.253 -3.914 0 0 0 Z " fill="#DAF2D5" transform="translate(824,225)"/>
<path d="M0 0 C-2.571 2.112 -4.631 3.663 -8 4 C-8.66 3.34 -9.32 2.68 -10 2 C-6.492 0.396 -3.856 -0.22 0 0 Z " fill="#5F9453" transform="translate(585,223)"/>
<path d="M0 0 C0.33 1.32 0.66 2.64 1 4 C-1.31 4.66 -3.62 5.32 -6 6 C-4 4 -2 2 0 0 Z " fill="#E3F7DF" transform="translate(591,218)"/>
<path d="M0 0 C0.99 0.33 1.98 0.66 3 1 C2.01 3.64 1.02 6.28 0 9 C-0.33 9 -0.66 9 -1 9 C-1.125 2.25 -1.125 2.25 0 0 Z " fill="#619653" transform="translate(365,220)"/>
<path d="M0 0 C1.65 0 3.3 0 5 0 C5.33 0.66 5.66 1.32 6 2 C5.67 2.66 5.34 3.32 5 4 C3.02 3.34 1.04 2.68 -1 2 C-0.67 1.34 -0.34 0.68 0 0 Z " fill="#639B56" transform="translate(259,219)"/>
<path d="M0 0 C0.825 0.165 0.825 0.165 5 1 C5.33 2.65 5.66 4.3 6 6 C3.979 4.358 1.98 2.691 0 1 C0 0.67 0 0.34 0 0 Z " fill="#E0F5D9" transform="translate(688,202)"/>
<path d="M0 0 C1.98 0 3.96 0 6 0 C6.66 1.32 7.32 2.64 8 4 C4.092 4 2.884 2.494 0 0 Z " fill="#6EA259" transform="translate(819,154)"/>
<path d="M0 0 C2.31 0 4.62 0 7 0 C7.33 1.32 7.66 2.64 8 4 C4.092 4 2.884 2.494 0 0 Z " fill="#71A558" transform="translate(480,154)"/>
<path d="M0 0 C0.99 0.165 0.99 0.165 6 1 C6.33 2.32 6.66 3.64 7 5 C4.36 4.01 1.72 3.02 -1 2 C-0.67 1.34 -0.34 0.68 0 0 Z " fill="#72AA5B" transform="translate(715,152)"/>
<path d="M0 0 C4.75 0.75 4.75 0.75 7 3 C6.67 3.99 6.34 4.98 6 6 C3.979 4.358 1.98 2.691 0 1 C0 0.67 0 0.34 0 0 Z " fill="#E7F8DA" transform="translate(496,141)"/>
<path d="M0 0 C2.19 3.285 2.998 6.207 4 10 C3.01 9.67 2.02 9.34 1 9 C0.67 6.03 0.34 3.06 0 0 Z " fill="#9CC578" transform="translate(362,134)"/>
<path d="M0 0 C0.33 0.66 0.66 1.32 1 2 C1.66 2 2.32 2 3 2 C4.625 4 4.625 4 6 6 C5.01 6.33 4.02 6.66 3 7 C1.68 5.35 0.36 3.7 -1 2 C-0.67 1.34 -0.34 0.68 0 0 Z " fill="#5D9255" transform="translate(629,118)"/>
<path d="M0 0 C0.99 0.66 1.98 1.32 3 2 C2.67 2.99 2.34 3.98 2 5 C1.01 5 0.02 5 -1 5 C-1.33 3.68 -1.66 2.36 -2 1 C-1.34 0.67 -0.68 0.34 0 0 Z " fill="#84BE59" transform="translate(305,52)"/>
</svg>
