<?xml version="1.0" encoding="UTF-8"?>
<!-- Generator: visioncortex VTracer 0.6.5 -->
<svg version="1.1" xmlns="http://www.w3.org/2000/svg" width="1024" height="318">
<path d="M0 0 C337.92 0 675.84 0 1024 0 C1024 104.94 1024 209.88 1024 318 C686.08 318 348.16 318 0 318 C0 213.06 0 108.12 0 0 Z " fill="#FEFEFD" transform="translate(0,0)"/>
<path d="M0 0 C2.47 1.51 4.93 3.03 7.4 4.56 C11.53 7.08 15.81 9.34 20.1 11.6 C20.44 11.78 20.44 11.78 22.16 12.71 C27.6 15.56 33.27 17.67 39.1 19.6 C40.18 19.96 41.27 20.33 42.38 20.7 C59.03 24.73 74.74 20.53 89.04 11.94 C96.74 6.91 103.12 0.31 108.1 -7.4 C108.43 -7.4 108.76 -7.4 109.1 -7.4 C108.16 19.8 96.48 44.32 76.63 62.91 C74.19 64.94 71.7 66.79 69.1 68.6 C68.12 69.28 67.15 69.95 66.14 70.65 C44.9 84.54 18.96 89.7 -6.03 85.47 C-33.53 79.56 -56.35 64.24 -71.74 40.49 C-77.37 31.39 -81.7 22.59 -79.9 11.6 C-77.45 3.29 -71.8 -2.47 -64.58 -6.98 C-42.31 -18.83 -20.45 -12.18 0 0 Z " fill="#569C49" transform="translate(263.904541015625,199.401123046875)"/>
<path d="M0 0 C3.29 0.93 4.98 2.88 7.06 5.5 C9.01 7.94 10.33 9.22 13 11 C13 11.66 13 12.32 13 13 C13.54 13.25 14.09 13.49 14.64 13.75 C17.99 15.52 20.2 18.21 22.69 21 C22.95 21.29 22.95 21.29 24.3 22.78 C25.37 23.96 26.44 25.15 27.51 26.34 C28.79 27.77 30.08 29.18 31.36 30.59 C33.6 33.04 35.8 35.52 38 38 C38.22 38.24 38.22 38.24 39.31 39.47 C48.52 49.83 56.82 60.82 65 72 C65.48 72.65 65.95 73.29 66.44 73.96 C68.93 77.37 71.11 80.82 73.06 84.56 C74.58 87.46 76.11 90.16 77.96 92.86 C80.24 96.37 81.88 99.91 83.5 103.75 C83.8 104.46 84.11 105.17 84.42 105.9 C85.29 107.93 86.14 109.96 87 112 C87.4 112.93 87.79 113.85 88.2 114.81 C93.93 128.61 99.4 144.16 94.25 158.94 C92.57 162.99 90.71 166.52 88 170 C87.57 170.6 87.13 171.2 86.68 171.82 C79.75 180.69 67.96 188.21 56.94 190.69 C30.25 192.81 11.51 182.7 -10.25 168.95 C-26.5 159.01 -45.33 153.01 -64.41 156.65 C-76.31 160.31 -86.32 167.25 -95 176 C-92.18 165.01 -83.54 155.41 -74.3 149.18 C-59.13 140.58 -42.28 137.31 -25.08 141.05 C-11.86 145.11 0.73 151.12 13.16 157.12 C15.82 158.4 18.5 159.64 21.19 160.88 C21.99 161.24 22.78 161.61 23.61 161.99 C29.23 164.36 34.14 165.39 40.25 165.38 C40.62 165.37 40.62 165.37 42.52 165.37 C49.99 165.21 55.45 163.13 61.81 159.31 C68.26 152.5 69.78 146.27 69.66 137.07 C68.15 107.04 42.27 77.97 24 56 C21.71 53.17 19.42 50.34 17.14 47.51 C14.88 44.86 12.48 42.44 10 40 C9.65 39.62 9.65 39.62 7.9 37.73 C7.25 37.03 6.61 36.34 5.94 35.62 C5.29 34.92 4.64 34.21 3.96 33.48 C2 32 2 32 -0.04 32.08 C-2.29 33.13 -3.6 34.27 -5.31 36.06 C-5.92 36.7 -6.53 37.34 -7.16 38 C-10.18 41.28 -13.1 44.62 -16 48 C-16.88 49.01 -17.77 50.02 -18.65 51.02 C-65.11 104.2 -65.11 104.2 -67.5 132.94 C-68.12 136.34 -69.04 137.03 -71.88 139.19 C-73.69 140.35 -75.53 141.46 -77.4 142.55 C-83.62 146.19 -88.11 150.7 -93 156 C-94.33 157.34 -95.66 158.67 -97 160 C-96.05 127.44 -81.28 95.86 -62 70 C-61.32 69.07 -60.65 68.14 -59.95 67.18 C-55.51 61.14 -50.85 55.36 -45.97 49.67 C-42.59 45.74 -39.41 41.69 -36.34 37.51 C-35.9 37.01 -35.46 36.51 -35 36 C-34.34 36 -33.68 36 -33 36 C-32.32 34.67 -31.65 33.34 -31 32 C-29.85 30.64 -28.65 29.32 -27.41 28.03 C-26.71 27.3 -26.01 26.56 -25.28 25.8 C-24.55 25.04 -23.82 24.28 -23.06 23.5 C-21.61 21.99 -20.17 20.48 -18.72 18.97 C-18.4 18.64 -18.4 18.64 -16.78 16.95 C-15 15 -15 15 -13.39 12.75 C-12.93 12.17 -12.47 11.6 -12 11 C-11.34 11 -10.68 11 -10 11 C-9.33 9.67 -8.66 8.33 -8 7 C-6.2 5.01 -6.2 5.01 -4.12 3.12 C-3.45 2.49 -2.77 1.85 -2.07 1.2 C-1.39 0.8 -0.7 0.41 0 0 Z " fill="#75B351" transform="translate(275,21)"/>
<path d="M0 0 C6.27 0 12.54 0 19 0 C19 41.91 19 83.82 19 127 C12.73 127 6.46 127 0 127 C-1.52 122.51 -1.88 121.29 -1 117 C-1.48 117.46 -1.97 117.92 -2.47 118.39 C-10.95 126.15 -18.21 129.35 -29.71 129.21 C-39.13 128.61 -46.69 125.96 -54 120 C-54.31 119.75 -54.31 119.75 -55.9 118.48 C-63.29 111.86 -68.39 101.26 -69.22 91.39 C-69.85 75.8 -69.97 62.13 -59 50 C-58.38 49.3 -57.76 48.6 -57.12 47.88 C-50.07 40.36 -42.25 36.52 -31.92 35.78 C-21.92 35.51 -14.35 37.54 -6 43 C-4.31 44.64 -2.64 46.31 -1 48 C-1.03 47.4 -1.06 46.8 -1.09 46.18 C-1.38 39.95 -1.54 33.73 -1.62 27.49 C-1.66 25.16 -1.75 22.83 -1.86 20.51 C-2.02 17.17 -2.06 13.84 -2.07 10.5 C-2.15 9.45 -2.23 8.4 -2.31 7.32 C-2.25 4.41 -2.25 4.41 0 0 Z " fill="#5FA346" transform="translate(835,100)"/>
<path d="M0 0 C3.78 2.65 5.46 4.01 6.51 8.54 C7.17 8.54 7.83 8.54 8.51 8.54 C8.51 4.58 8.51 0.62 8.51 -3.46 C14.45 -3.46 20.39 -3.46 26.51 -3.46 C26.51 25.91 26.51 55.28 26.51 85.54 C20.24 85.54 13.97 85.54 7.51 85.54 C5.99 81.05 5.63 79.83 6.51 75.54 C6.27 75.77 6.27 75.77 5.07 76.93 C-3.36 84.75 -11.91 87.97 -23.39 87.81 C-33.31 86.94 -41.33 83.39 -48.49 76.54 C-48.82 76.23 -48.82 76.23 -50.46 74.66 C-58.93 65.79 -61.89 53.74 -61.74 41.73 C-61.73 40.94 -61.73 40.15 -61.72 39.34 C-61.47 26.36 -58.83 15.83 -49.62 6.16 C-35.72 -6.71 -16.78 -9.83 0 0 Z " fill="#5CA145" transform="translate(586.4921875,141.4609375)"/>
<path d="M0 0 C3.43 2.58 6.06 4.76 8.46 8.35 C8.32 7.55 8.18 6.76 8.04 5.94 C7.83 2.85 7.83 2.85 9.46 -2.65 C15.4 -2.65 21.34 -2.65 27.46 -2.65 C27.46 26.72 27.46 56.09 27.46 86.35 C21.52 86.35 15.58 86.35 9.46 86.35 C8.08 81.28 7.69 79.22 8.46 74.35 C8.08 74.86 8.08 74.86 6.14 77.47 C1.55 82.86 -5.5 87.14 -12.54 88.35 C-25.13 89.34 -35.82 87.53 -45.59 79.18 C-53.14 72.1 -60.02 62.52 -60.7 51.85 C-60.75 48.81 -60.78 45.77 -60.79 42.72 C-60.81 41.68 -60.83 40.64 -60.86 39.56 C-60.92 26.34 -56.8 15.59 -47.61 5.97 C-35.32 -5.57 -14.69 -9.55 0 0 Z " fill="#5BA044" transform="translate(724.54296875,140.65234375)"/>
<path d="M0 0 C7.05 5.78 11.37 13.78 12.43 22.78 C12.85 28.18 12.75 33.59 12.72 39 C12.72 40.3 12.72 41.6 12.72 42.93 C12.71 46.36 12.7 49.79 12.69 53.21 C12.68 56.72 12.68 60.22 12.67 63.73 C12.66 70.59 12.65 77.45 12.62 84.31 C6.98 85.74 1.32 86.78 -4.43 85.49 C-6.38 84.31 -6.38 84.31 -7.44 82.07 C-8.94 74.43 -8.41 66.56 -8.03 58.82 C-7.82 54.24 -7.78 49.66 -7.71 45.08 C-7.66 42.64 -7.58 40.2 -7.48 37.76 C-6.94 23.16 -6.94 23.16 -11.62 17 C-16.32 12.41 -19.82 11.13 -26.31 10.94 C-32.9 11.13 -36.82 12.29 -42.06 16.44 C-48.45 24.38 -48.81 31.52 -48.32 41.44 C-48.26 43.96 -48.2 46.49 -48.15 49.01 C-48.06 52.97 -47.94 56.93 -47.73 60.88 C-47.55 64.72 -47.49 68.54 -47.44 72.38 C-47.35 73.58 -47.26 74.77 -47.17 76.01 C-47.19 79.31 -47.19 79.31 -49.38 84.31 C-55.64 84.31 -61.92 84.31 -68.38 84.31 C-68.38 54.94 -68.38 25.57 -68.38 -4.69 C-62.44 -4.69 -56.5 -4.69 -50.38 -4.69 C-50.38 -1.06 -50.38 2.57 -50.38 6.31 C-49.71 6.31 -49.06 6.31 -48.38 6.31 C-48.08 5.72 -47.78 5.12 -47.47 4.5 C-44.96 -0.51 -39.28 -3.58 -34.19 -5.56 C-22.51 -8.91 -10.01 -6.82 0 0 Z " fill="#5FA247" transform="translate(498.375,142.6875)"/>
<path d="M0 0 C3.25 1.68 6.48 3.41 9.71 5.14 C30.04 16.07 51.5 23.08 74.65 17.46 C76.32 16.94 77.99 16.41 79.65 15.83 C80.27 15.64 80.27 15.64 83.4 14.64 C84.14 14.38 84.88 14.11 85.65 13.83 C75.46 30.74 59.37 41.39 40.52 46.71 C19.73 50.73 -0.85 46.94 -18.46 35.27 C-27.33 29.2 -34.47 22.6 -39.35 12.83 C-40.1 7.77 -40.79 2.82 -37.67 -1.48 C-25.86 -11.87 -12.55 -6.23 0 0 Z " fill="#FAFDF9" transform="translate(252.35302734375,217.1689453125)"/>
<path d="M0 0 C7.17 4.34 11.46 10.69 13.96 18.59 C16.27 28.72 14.31 37.32 9.62 46.5 C7.29 49.78 5.12 52.16 1.69 54.25 C1.04 54.66 0.39 55.06 -0.28 55.48 C-5.81 58.16 -12.37 58.22 -18.38 57.5 C-25.81 54.91 -31.06 49.99 -34.63 43.06 C-38.48 33.82 -38.98 23.81 -35.28 14.42 C-32.13 7.75 -27.47 2.16 -20.55 -0.65 C-13.99 -2.41 -6.32 -2.79 0 0 Z " fill="#FAFDF9" transform="translate(719.375,154.5)"/>
<path d="M0 0 C5.77 4.63 10.2 10.32 11.25 17.83 C11.41 20.35 11.45 22.84 11.43 25.36 C11.43 26.25 11.42 27.14 11.42 28.05 C11.17 37.11 8.63 42.86 2.5 49.49 C-3.59 54.99 -8.58 56.17 -16.74 55.96 C-23.42 55.14 -28.78 52.25 -33.44 47.43 C-39.93 38.86 -41.25 29.03 -40.07 18.55 C-38.11 10.17 -33.33 3.62 -26.38 -1.39 C-18.04 -5.22 -7.71 -5.02 0 0 Z " fill="#FBFDF9" transform="translate(583.06640625,156.44921875)"/>
<path d="M0 0 C6.84 3.01 11.9 9.2 15.29 15.69 C16.75 19.93 17.04 23.36 16.95 27.8 C16.94 28.55 16.93 29.3 16.92 30.07 C16.64 39.57 14.44 45.53 7.73 52.47 C1.37 58.24 -4.44 59.2 -13.01 58.93 C-18.29 58.14 -21.57 56.01 -25.42 52.42 C-25.71 52.15 -25.71 52.15 -27.2 50.78 C-33.94 43.74 -34.89 35.76 -34.85 26.31 C-34.66 20.54 -33.37 16.31 -30.42 11.42 C-30.03 10.53 -29.64 9.65 -29.23 8.73 C-22.03 -0.45 -11.02 -2.63 0 0 Z " fill="#FAFDF9" transform="translate(818.421875,153.578125)"/>
<path d="M0 0 C5.94 0 11.88 0 18 0 C18 29.37 18 58.74 18 89 C12.06 89 6.12 89 0 89 C0 59.63 0 30.26 0 0 Z " fill="#5A9F43" transform="translate(631,138)"/>
<path d="M0 0 C1.83 2.75 3.61 5.52 5.38 8.31 C7.34 11.4 9.31 14.48 11.38 17.5 C14.12 21.72 14.34 25.04 14 30 C12.4 34.79 10.29 37.09 5.9 39.31 C1.93 40.75 -1.6 40.33 -5.62 39.38 C-8.97 37.44 -11.29 35.45 -13 32 C-14.14 27.01 -13.89 22.82 -11.63 18.2 C-9.84 15.39 -7.94 12.7 -6 10 C-4.84 8.12 -3.69 6.22 -2.56 4.31 C-2.07 3.48 -1.58 2.65 -1.07 1.8 C-0.71 1.21 -0.36 0.61 0 0 Z " fill="#7AB25A" transform="translate(640,87)"/>
</svg>
