<?xml version="1.0" encoding="UTF-8"?>
<!-- Generator: visioncortex VTracer 0.6.5 -->
<svg version="1.1" xmlns="http://www.w3.org/2000/svg" width="1024" height="318">
<path d="M0 0 C18.97 11.21 38.85 20.95 61.47 16.21 C64.41 15.28 67.18 14.2 70 12.94 C70.43 12.76 70.43 12.76 72.6 11.84 C82.15 7.48 89.57 0.87 96.31 -7.08 C97.8 -8.83 99.36 -10.45 101 -12.06 C101.23 -5.45 100.55 0.23 98.88 6.62 C98.76 7.06 98.76 7.06 98.19 9.26 C93.93 25.17 86.38 39.88 75 51.94 C74.34 51.94 73.68 51.94 73 51.94 C72.72 52.52 72.44 53.1 72.14 53.7 C66.08 65.54 45.83 73.78 34 77.94 C7.64 85.03 -20.09 83.37 -44.31 70.25 C-51.53 65.88 -57.79 60.62 -64 54.94 C-64.75 54.27 -65.5 53.6 -66.27 52.91 C-77.07 42.8 -87.95 26.8 -88.81 11.56 C-88.29 3.89 -84.37 -2.1 -78.88 -7.31 C-52.35 -27.92 -25.12 -14.85 0 0 Z " fill="#2F79B7" transform="translate(272,204.0625)"/>
<path d="M0 0 C4.46 0.41 6.88 3.51 9.81 6.56 C10.35 7.11 10.88 7.65 11.43 8.21 C14.87 11.75 18.16 15.38 21.36 19.14 C23.16 21.18 25.06 23.09 27 25 C30.22 28.18 33.23 31.47 36.18 34.9 C37.42 36.33 38.69 37.74 39.98 39.13 C46.66 46.32 52.54 54.04 58.41 61.88 C59.86 63.81 61.33 65.72 62.82 67.62 C78.34 87.74 100.89 123.02 98 150 C95.21 163.32 88.58 173.36 77.45 181.44 C63.69 190.21 50.03 192.96 33.91 190.54 C19.65 187 6.85 178.73 -5.62 171.22 C-14.87 165.69 -23.6 161.05 -34 158 C-35.12 157.64 -36.24 157.28 -37.39 156.9 C-50.72 153.57 -65.35 156.04 -77.25 162.69 C-81.91 165.7 -85.94 169.34 -89.97 173.14 C-92 175 -92 175 -94 176 C-91.33 164.73 -81.71 154.75 -72.12 148.75 C-55.24 139.23 -37.8 137.6 -19.2 142.68 C-9.35 145.63 -0.24 150.4 8.99 154.86 C23.34 161.76 36.78 168.19 53.03 164.27 C59.65 161.83 64.91 158.51 68.38 152.19 C72.69 141.22 70.42 128.63 65.95 118.13 C53.77 91 35.86 66.86 15.36 45.45 C13.5 43.47 11.71 41.43 9.94 39.38 C9.41 38.78 8.89 38.18 8.35 37.56 C7.17 36.19 5.99 34.81 4.81 33.44 C3 32 3 32 1.09 32.22 C-1.35 33.13 -2.52 34.18 -4.31 36.06 C-4.92 36.7 -5.52 37.33 -6.14 37.98 C-11.26 43.54 -16.03 49.23 -20.52 55.31 C-21.01 55.87 -21.5 56.43 -22 57 C-22.66 57 -23.32 57 -24 57 C-24.71 58.31 -25.37 59.65 -26 61 C-26.86 62.22 -27.76 63.41 -28.69 64.58 C-29.22 65.26 -29.75 65.94 -30.29 66.63 C-30.85 67.35 -31.42 68.07 -32 68.81 C-47.35 88.66 -61.71 110.51 -67.78 135.16 C-69.35 138.81 -70.83 139.42 -74.38 141.12 C-81.91 145.18 -87.2 150.79 -93 157 C-93.99 158.01 -94.99 159.01 -96 160 C-96.21 153.54 -96 148.2 -94 142 C-93.62 139.96 -93.25 137.92 -92.88 135.88 C-88.23 114.17 -77.34 94.26 -65 76 C-64.3 74.96 -63.61 73.91 -62.89 72.84 C-57.98 65.56 -52.64 58.73 -47 52 C-45.54 50.19 -44.08 48.38 -42.62 46.56 C-38.45 41.45 -34.03 36.59 -29.54 31.76 C-27.56 29.6 -25.64 27.42 -23.75 25.19 C-19.52 20.29 -14.85 15.81 -10.24 11.28 C-9.61 10.66 -8.98 10.03 -8.33 9.39 C-7.76 8.83 -7.19 8.28 -6.61 7.7 C-5 6 -5 6 -3.42 3.79 C-3.18 3.49 -3.18 3.49 -2 2 C-1.34 2 -0.68 2 0 2 C0 1.34 0 0.68 0 0 Z " fill="#3DAAD0" transform="translate(274,21)"/>
<path d="M0 0 C6.27 0 12.54 0 19 0 C19 41.91 19 83.82 19 127 C12.73 127 6.46 127 0 127 C-1.52 122.51 -1.88 121.29 -1 117 C-1.48 117.46 -1.97 117.92 -2.47 118.39 C-11.69 126.83 -19.65 129.38 -32.17 129.21 C-42.99 128.41 -51.96 122.84 -59.37 115.12 C-62.66 110.84 -64.83 105.92 -67 101 C-67.35 100.23 -67.7 99.47 -68.06 98.68 C-69.79 93.75 -69.37 88.61 -69.38 83.44 C-69.4 82.32 -69.42 81.2 -69.45 80.05 C-69.49 67.7 -66.33 58.15 -58 49 C-57.72 48.68 -57.72 48.68 -56.31 47.03 C-52.12 42.44 -47.82 40.08 -42 38 C-41.46 37.79 -41.46 37.79 -38.75 36.75 C-29.01 34.8 -18.86 35.18 -10 40 C-6.89 42.55 -3.93 45.24 -1 48 C-1.03 47.4 -1.06 46.8 -1.09 46.18 C-1.38 39.95 -1.54 33.73 -1.62 27.49 C-1.66 25.16 -1.75 22.83 -1.86 20.51 C-2.02 17.17 -2.06 13.84 -2.07 10.5 C-2.15 9.45 -2.23 8.4 -2.31 7.32 C-2.25 4.41 -2.25 4.41 0 0 Z " fill="#2B89BE" transform="translate(835,100)"/>
<path d="M0 0 C2.45 1.92 3.67 3.28 5.44 5.94 C5.3 5.14 5.16 4.35 5.02 3.53 C4.81 0.44 4.81 0.44 6.44 -5.06 C12.38 -5.06 18.32 -5.06 24.44 -5.06 C24.44 24.31 24.44 53.68 24.44 83.94 C18.5 83.94 12.56 83.94 6.44 83.94 C6.44 79.98 6.44 76.02 6.44 71.94 C5.78 71.94 5.12 71.94 4.44 71.94 C4.19 72.49 3.94 73.05 3.69 73.62 C0.35 79.8 -6.01 82.54 -12.29 84.98 C-22.28 87.89 -32.15 85.96 -41.56 81.94 C-52.23 76.01 -59.66 65.7 -63.1 54.12 C-66.11 39.85 -64.82 23.67 -56.92 11.38 C-50.72 2.86 -42.56 -4 -32.17 -6.68 C-20.3 -8.42 -9.83 -7.08 0 0 Z " fill="#2B83BA" transform="translate(588.5625,143.0625)"/>
<path d="M0 0 C3.56 2.79 6.83 5.78 10 9 C9.86 8.21 9.73 7.41 9.59 6.59 C9.38 3.5 9.38 3.5 11 -2 C16.94 -2 22.88 -2 29 -2 C29 27.37 29 56.74 29 87 C23.06 87 17.12 87 11 87 C9.63 81.93 9.23 79.87 10 75 C9.62 75.52 9.62 75.52 7.69 78.12 C1.53 85.33 -6.59 88.46 -15.82 89.24 C-28.17 89.56 -38.01 85.24 -47.16 77.07 C-56.73 67.3 -59.18 54.99 -59.25 41.81 C-59.27 40.92 -59.29 40.02 -59.31 39.1 C-59.38 26.89 -55.09 16.46 -47 7.31 C-34.8 -4.23 -14.92 -8.47 0 0 Z " fill="#2982B9" transform="translate(723,140)"/>
<path d="M0 0 C8.81 6.34 12.48 13.94 14.5 24.46 C14.87 29.27 14.85 34.05 14.79 38.88 C14.78 40.23 14.78 41.58 14.78 42.93 C14.76 46.45 14.74 49.97 14.7 53.49 C14.67 57.1 14.66 60.7 14.64 64.31 C14.61 71.36 14.56 78.41 14.5 85.46 C8.86 86.92 3.2 87.98 -2.56 86.66 C-4.5 85.46 -4.5 85.46 -5.57 83.17 C-7.07 75.36 -6.54 67.34 -6.16 59.44 C-6.01 56.07 -5.96 52.7 -5.9 49.33 C-5.84 45.53 -5.76 41.74 -5.61 37.94 C-5.09 23.57 -5.09 23.57 -10.25 17.64 C-14.72 12.88 -19.03 12.34 -25.38 12.02 C-32.71 12.15 -36.81 14.69 -41.82 19.83 C-46.8 27.58 -46.75 33.32 -46.35 42.39 C-46.29 44.92 -46.24 47.45 -46.2 49.98 C-46.11 53.96 -46.01 57.94 -45.81 61.92 C-45.63 65.76 -45.57 69.6 -45.54 73.45 C-45.45 74.66 -45.36 75.86 -45.28 77.1 C-45.3 80.43 -45.3 80.43 -47.5 85.46 C-53.77 85.46 -60.04 85.46 -66.5 85.46 C-66.5 56.09 -66.5 26.72 -66.5 -3.54 C-60.56 -3.54 -54.62 -3.54 -48.5 -3.54 C-47.1 1.21 -46.72 2.9 -47.5 7.46 C-46.91 6.59 -46.31 5.72 -45.69 4.83 C-34.52 -8.68 -13.96 -8.6 0 0 Z " fill="#2B87BC" transform="translate(496.50390625,141.54296875)"/>
<path d="M0 0 C4.73 2.38 9.44 4.79 14.13 7.25 C27.19 14.01 39.25 17.37 53.88 17.44 C54.91 17.46 55.95 17.48 57.02 17.5 C63.94 17.53 69.69 16.54 76.19 14.19 C77.38 13.8 78.58 13.4 79.81 13 C80.6 12.73 81.38 12.46 82.19 12.19 C73.38 27.02 60.82 36.52 44.88 42.62 C44.23 42.87 43.58 43.12 42.92 43.37 C26.04 49.43 5.43 47.66 -10.71 40.33 C-23.25 34.21 -34.85 25.47 -41.81 13.19 C-43.38 8.5 -43.78 4.06 -42.81 -0.81 C-31.34 -16.13 -13.57 -6.78 0 0 Z " fill="#F8FCFC" transform="translate(255.8125,218.8125)"/>
<path d="M0 0 C0.59 -0.01 0.59 -0.01 3.59 -0.05 C10.38 0.66 15.44 4.5 20.06 9.31 C26.06 17.56 27.1 26.39 26.06 36.31 C23.76 44.29 20.36 51.69 13 56.06 C12.33 56.47 11.66 56.88 10.96 57.3 C5.62 60.15 -0.04 59.94 -5.94 59.31 C-12.78 57.18 -18.2 53.47 -21.94 47.31 C-26.6 38.36 -27.55 28.83 -25.12 19.04 C-22.19 10.95 -17.33 5.05 -9.59 1.12 C-6.31 0.12 -3.43 0.01 0 0 Z " fill="#F8FCFC" transform="translate(707.9375,152.6875)"/>
<path d="M0 0 C6.32 4.17 10.81 9.62 13 16.94 C13.46 20.22 13.52 23.44 13.5 26.75 C13.5 27.64 13.49 28.52 13.49 29.43 C13.26 37.98 11.05 43.44 5.44 49.88 C-1.42 55.68 -6.55 57.52 -15.63 57.39 C-22.13 56.52 -26.77 53.11 -31.38 48.62 C-37.27 38.88 -39.79 29.28 -37.35 17.92 C-34.79 10.1 -30.52 3.79 -23.44 -0.56 C-16.22 -3.69 -6.99 -3.57 0 0 Z " fill="#F8FCFD" transform="translate(581,155.0625)"/>
<path d="M0 0 C6.2 3.72 12.13 10.08 14.29 17.07 C15.91 27.18 16.08 38.37 9.99 46.96 C5.02 52.99 0.47 56.93 -7.39 57.97 C-15.96 58.37 -21.64 56.69 -28.05 51.02 C-35.02 43.71 -36.92 35.27 -36.78 25.39 C-36.39 16.6 -33.2 10.62 -27.21 4.29 C-19.85 -2.42 -9.28 -3.97 0 0 Z " fill="#F8FCFC" transform="translate(820.3125,154.4375)"/>
<path d="M0 0 C6.27 0 12.54 0 19 0 C19 29.37 19 58.74 19 89 C12.73 89 6.46 89 0 89 C0 59.63 0 30.26 0 0 Z " fill="#2D84BA" transform="translate(631,138)"/>
<path d="M0 0 C3.03 3.93 5.65 8.06 8.28 12.26 C9.27 13.84 10.29 15.42 11.34 16.96 C13.9 20.85 14.73 24.21 14.52 28.79 C13.58 32.76 11.09 35.44 8 38 C4.22 40.23 1.4 40.38 -3 40 C-8.14 38.19 -10.63 35.92 -13 31 C-15.16 19.12 -6.2 9.29 0 0 Z " fill="#3D9EC8" transform="translate(640,87)"/>
</svg>
