<?xml version="1.0" encoding="UTF-8"?>
<!-- Generator: visioncortex VTracer 0.6.5 -->
<svg version="1.1" xmlns="http://www.w3.org/2000/svg" width="1024" height="565">
<path d="M0 0 C337.92 0 675.84 0 1024 0 C1024 186.45 1024 372.9 1024 565 C686.08 565 348.16 565 0 565 C0 378.55 0 192.1 0 0 Z " fill="#FBFCFC" transform="translate(0,0)"/>
<path d="M0 0 C337.92 0 675.84 0 1024 0 C1024 62.04 1024 124.08 1024 188 C686.08 188 348.16 188 0 188 C0 125.96 0 63.92 0 0 Z " fill="#032A55" transform="translate(0,377)"/>
<path d="M0 0 C337.92 0 675.84 0 1024 0 C1024 62.04 1024 124.08 1024 188 C686.08 188 348.16 188 0 188 C0 125.96 0 63.92 0 0 Z " fill="#FBFCFC" transform="translate(0,0)"/>
<path d="M0 0 C168.96 0 337.92 0 512 0 C512 61.71 512 123.42 512 187 C343.04 187 174.08 187 0 187 C0 125.29 0 63.58 0 0 Z " fill="#FBFBFB" transform="translate(0,378)"/>
<path d="M0 0 C127.05 0 254.1 0 385 0 C385 62.04 385 124.08 385 188 C47.08 188 -290.84 188 -639 188 C-639 187.67 -639 187.34 -639 187 C-428.13 187 -217.26 187 0 187 C0 125.29 0 63.58 0 0 Z " fill="#012A56" transform="translate(639,0)"/>
<path d="M0 0 C18.62 -0.81 18.62 -0.81 24 4 C29.89 10.32 32.82 19.05 36.17 26.89 C37.55 30.1 39.19 33.01 41 36 C41 38.97 40 40 38.06 42.25 C26.6 53 26.6 53 23 53 C21.68 49.7 20.36 46.4 19 43 C18.48 44.05 17.96 45.1 17.43 46.18 C16.72 47.56 16.02 48.93 15.31 50.31 C14.97 51 14.63 51.69 14.28 52.4 C10.69 59.36 5.98 61.13 -1.19 63.81 C-8.75 66.74 -16.38 69.97 -22 76 C-22.66 75.67 -23.32 75.34 -24 75 C-23.72 74.45 -23.45 73.9 -23.16 73.33 C-20.25 67.56 -17.35 61.78 -14.45 56.01 C-13.37 53.86 -12.29 51.71 -11.2 49.56 C-9.64 46.45 -8.08 43.34 -6.52 40.23 C-6.28 39.76 -6.28 39.76 -5.07 37.37 C5.17 16.9 5.17 16.9 4 9 C2.86 5.89 1.52 2.94 0 0 Z " fill="#BBE3E4" transform="translate(814,43)"/>
<path d="M0 0 C17.04 -1.01 17.04 -1.01 24 5 C27.15 8.46 28.8 11.59 30.31 16 C32.56 22.19 35.4 27.56 38.74 33.22 C40 36 40 36 39.86 38.16 C37.03 44.25 31.25 49.57 25 52 C22.86 51.84 22.86 51.84 21 51 C19.93 48.7 18.93 46.36 18 44 C17.67 43.84 17.67 43.84 16 43 C15.84 43.56 15.68 44.11 15.52 44.69 C14.76 47.16 13.9 49.58 13 52 C12.75 52.72 12.5 53.43 12.25 54.17 C10.07 58.87 7.37 60.53 2.54 62.33 C1.13 62.82 -0.28 63.3 -1.69 63.78 C-9.92 66.53 -17.12 70.68 -24 76 C-22.58 71.35 -20.66 67.12 -18.44 62.81 C-14.88 55.82 -11.49 48.77 -8.16 41.67 C-6.21 37.53 -4.22 33.44 -2.12 29.38 C1.41 22.32 3.78 15.96 3 8 C1.5 4.63 1.5 4.63 0 2 C0 1.34 0 0.68 0 0 Z " fill="#49B1BD" transform="translate(166,40)"/>
<path d="M0 0 C2.6 3.16 4.14 6.34 5.69 10.12 C6.12 11.18 6.56 12.23 7.01 13.32 C8 16 8 16 8 18 C8.66 18 9.32 18 10 18 C10 18.99 10 19.98 10 21 C-1.25 31.8 -16.57 37.7 -30.91 43.12 C-41.44 47.16 -48.42 51.5 -54.94 60.75 C-58.02 64.12 -61.66 65.74 -66.16 66.24 C-68.43 66.29 -70.67 66.26 -72.94 66.19 C-73.72 66.17 -74.5 66.16 -75.3 66.15 C-77.2 66.11 -79.1 66.06 -81 66 C-79.28 54.56 -72.08 44.85 -64 37 C-63.46 36.44 -62.92 35.88 -62.36 35.3 C-55.09 28.32 -44.96 24.5 -35.5 21.5 C-21.43 16.98 -10.41 10.41 0 0 Z " fill="#3474A8" transform="translate(208,82)"/>
<path d="M0 0 C3.1 2.63 4.53 5.73 6.25 9.38 C6.79 10.5 7.33 11.62 7.89 12.77 C9.08 16.23 9.35 17.64 8 21 C-2.32 32.46 -19.69 37.88 -33.89 43.05 C-43.45 46.61 -49.38 52.06 -55.92 59.83 C-58.51 62.54 -60.52 63.85 -64.29 64.23 C-65.11 64.22 -65.92 64.21 -66.77 64.2 C-67.66 64.19 -68.54 64.18 -69.46 64.18 C-69.92 64.17 -69.92 64.17 -72.25 64.12 C-72.72 64.12 -72.72 64.12 -75.09 64.1 C-77.39 64.07 -79.7 64.04 -82 64 C-77.56 53.58 -73.29 44.97 -65 37 C-64.22 36.11 -63.43 35.23 -62.62 34.31 C-55.17 27.74 -47.47 24.26 -38.19 21 C-23.76 15.94 -11.8 9.74 0 0 Z " fill="#C5E5E6" transform="translate(857,86)"/>
<path d="M0 0 C4.56 3.46 7.25 7.84 9 13.25 C9.08 14.13 9.17 15.02 9.25 15.93 C9.32 16.68 9.4 17.42 9.48 18.18 C9.86 24.81 8.58 28.9 4.25 33.93 C-0.43 38.71 -4.69 42.55 -11.58 43.2 C-22.08 43.14 -29.61 41.92 -37.3 34.43 C-42.17 28.32 -41.82 20.31 -41.08 12.88 C-40.13 7.29 -37.03 3.77 -32.75 0.32 C-23.18 -6.14 -9.84 -5.99 0 0 Z " fill="#0C2A4C" transform="translate(490.75,64.06640625)"/>
<path d="M0 0 C0.66 0 1.32 0 2 0 C2.65 1.25 3.3 2.5 3.94 3.75 C4.12 4.1 4.12 4.1 5.03 5.86 C7.23 10.7 7.88 15.75 7 21 C5.46 24.13 3.39 26.49 1 29 C0.7 29.33 0.7 29.33 -0.84 31 C-10.3 40.31 -23.45 45.02 -35.7 49.58 C-41.01 51.86 -45.04 54.65 -48.69 59.12 C-50.76 61.65 -52.23 63.15 -55 65 C-57.77 65.14 -60.43 65.19 -63.19 65.12 C-63.94 65.12 -64.69 65.11 -65.46 65.1 C-67.31 65.07 -69.15 65.04 -71 65 C-69.35 54.38 -61.05 44.92 -52.94 38.32 C-46.46 34.04 -39.02 31.58 -31.75 28.98 C-16.8 23.57 -8.02 16.43 -1 2 C-0.67 1.34 -0.34 0.68 0 0 Z " fill="#F3F7F8" transform="translate(700,448)"/>
<path d="M0 0 C4.18 5.22 7 11 7 17.75 C4.23 26.74 -3.94 34.42 -12 39 C-18.86 42.24 -25.9 44.98 -33 47.62 C-41.41 50.87 -46.06 54.93 -51.75 61.86 C-55.85 65.76 -60.39 65.12 -65.81 65.06 C-66.97 65.05 -68.14 65.04 -69.33 65.04 C-69.77 65.03 -69.77 65.03 -72 65 C-67.6 51.64 -59.61 41.5 -47.19 34.81 C-43.99 33.31 -40.74 32.25 -37.38 31.19 C-21.53 26.07 -10.14 18.77 -1.89 4.02 C-1.23 2.7 -0.61 1.35 0 0 Z " fill="#070707" transform="translate(168,448)"/>
<path d="M0 0 C11.68 -0.62 11.68 -0.62 16.56 1.69 C21.96 6.81 24.84 12.37 27.88 19.06 C28.3 19.96 28.73 20.86 29.17 21.78 C29.37 22.22 29.37 22.22 30.37 24.41 C30.73 25.2 31.09 25.98 31.46 26.79 C32 29 32 29 31.25 31.13 C28.42 35.37 24.69 38.95 20 41 C17.81 40.44 17.81 40.44 16 39 C15.3 37.68 14.63 36.35 14 35 C13.64 35.76 13.27 36.52 12.9 37.3 C8.77 45.45 8.77 45.45 5.25 47.94 C4.18 48.29 3.11 48.64 2 49 C-4.4 51.37 -9.54 53.9 -15 58 C-15.66 58 -16.32 58 -17 58 C-16.42 54.55 -15.55 51.74 -13.96 48.63 C-13.75 48.22 -13.75 48.22 -12.71 46.16 C-12.27 45.3 -11.83 44.44 -11.38 43.56 C-11.15 43.12 -11.15 43.12 -10.02 40.89 C-9.11 39.1 -8.2 37.32 -7.29 35.53 C-5.49 32.01 -3.71 28.47 -1.94 24.94 C-1.66 24.4 -1.66 24.4 -0.28 21.65 C1.58 17.79 2.16 14.87 2.19 10.62 C2.2 9.69 2.22 8.75 2.23 7.79 C1.99 4.84 1.23 2.68 0 0 Z " fill="#F3F6F8" transform="translate(659,429)"/>
<path d="M0 0 C14.67 -0.59 14.67 -0.59 19 3 C23.27 8.54 26.09 15.05 29 21.38 C29.33 22.06 29.65 22.75 29.99 23.47 C32.17 28.39 32.17 28.39 31.34 31.3 C29.4 33.76 27.33 35.91 25 38 C24.34 38 23.68 38 23 38 C23 38.66 23 39.32 23 40 C22.18 40.17 22.18 40.17 18 41 C17.01 39.02 16.02 37.04 15 35 C12.23 36.38 12.06 37.99 10.88 40.81 C8.2 46.3 5.64 48.03 0 50 C-6.86 52.53 -12.36 55.28 -18 60 C-16.25 53.99 -13.47 48.49 -10.75 42.88 C-10.26 41.85 -9.76 40.83 -9.26 39.77 C-6.24 33.52 -3.19 27.29 -0.02 21.11 C1.73 17.49 2.16 14.61 2.19 10.62 C2.2 9.69 2.22 8.75 2.23 7.79 C1.99 4.84 1.23 2.68 0 0 Z " fill="#4FB0BC" transform="translate(119,240)"/>
<path d="M0 0 C0.54 0.03 0.54 0.03 3.27 0.18 C4.36 0.22 5.44 0.27 6.56 0.31 C7.39 0.37 8.23 0.43 9.08 0.49 C14.37 11.49 19.61 22.52 24.71 33.61 C24.93 34.08 24.93 34.08 26.03 36.47 C26.43 37.34 26.83 38.22 27.25 39.12 C27.6 39.89 27.96 40.67 28.32 41.46 C29.08 43.49 29.08 43.49 29.08 46.49 C25.45 46.49 21.82 46.49 18.08 46.49 C16.76 43.52 15.44 40.55 14.08 37.49 C6.49 37.16 -1.1 36.83 -8.92 36.49 C-9.91 39.79 -10.9 43.09 -11.92 46.49 C-15.88 46.49 -19.84 46.49 -23.92 46.49 C-22.28 41.13 -20.05 36.14 -17.73 31.05 C-17.33 30.17 -16.93 29.3 -16.52 28.39 C-15.33 25.76 -14.12 23.12 -12.92 20.49 C-12.57 19.73 -12.22 18.96 -11.86 18.18 C-7.9 9.52 -7.9 9.52 -5.92 5.49 C-5.49 4.53 -5.05 3.58 -4.61 2.6 C-2.92 0.49 -2.92 0.49 0 0 Z " fill="#0D2C4E" transform="translate(279.91796875,60.51171875)"/>
<path d="M0 0 C0.16 0.33 0.16 0.33 1 2 C1.66 2 2.32 2 3 2 C3.68 3.56 4.34 5.12 5 6.69 C5.37 7.56 5.74 8.43 6.12 9.32 C7.05 12.15 7.43 14.05 7 17 C-0.11 25.78 -14.68 30.88 -25 34.62 C-32.59 37.43 -38.09 40.77 -42 48 C-46.71 52.26 -51.06 52.12 -57.25 52.06 C-58.51 52.05 -59.78 52.04 -61.08 52.04 C-62.04 52.02 -63.01 52.01 -64 52 C-62.76 49.43 -61.51 46.87 -60.25 44.31 C-59.9 43.59 -59.55 42.87 -59.2 42.13 C-56.26 36.18 -53.05 31.54 -47.75 27.44 C-47.04 26.88 -46.34 26.32 -45.61 25.75 C-38.42 20.93 -30.29 18.06 -22.25 15 C-15.23 12.27 -9.72 8.84 -4.12 3.75 C-3.34 3.04 -2.56 2.34 -1.76 1.61 C-1.18 1.08 -0.6 0.55 0 0 Z " fill="#3873A4" transform="translate(152,273)"/>
<path d="M0 0 C12.9 -0.69 12.9 -0.69 16.62 1.81 C17.41 2.53 18.19 3.26 19 4 C19.49 4.44 19.98 4.88 20.49 5.33 C23.7 8.88 25.33 13.62 27.31 17.94 C27.79 18.94 28.27 19.94 28.77 20.97 C29.21 21.94 29.66 22.91 30.11 23.9 C30.52 24.78 30.93 25.67 31.36 26.57 C32 29 32 29 31.25 31.18 C29.61 33.56 27.72 35.34 25.56 37.25 C24.78 37.96 24 38.66 23.19 39.39 C21 41 21 41 18 41 C17.55 40.03 17.09 39.06 16.62 38.06 C15 35 15 35 13 34 C12.87 34.58 12.73 35.15 12.59 35.75 C11.43 40.16 10.14 44.61 6.16 47.2 C4.67 47.84 3.17 48.44 1.65 49 C-1.46 50.17 -4.4 51.59 -7.38 53.06 C-7.87 53.31 -7.87 53.31 -10.4 54.54 C-12.72 55.84 -14.27 57.01 -16 59 C-16.66 58.67 -17.32 58.34 -18 58 C-2.03 24.41 -2.03 24.41 2.2 16.86 C3.16 14.62 3.23 12.93 3.19 10.5 C3.18 9.75 3.17 8.99 3.17 8.22 C3 6.04 2.6 4.1 2 2 C1.34 2 0.68 2 0 2 C0 1.34 0 0.68 0 0 Z " fill="#070707" transform="translate(126,429)"/>
<path d="M0 0 C4.68 2.94 8.69 7.01 11.19 12 C11.71 18.21 11.95 23.78 8.19 29 C3.9 33.4 -0.22 36.6 -6.5 37.3 C-13.69 37.33 -17.97 36.51 -23.5 31.62 C-28.53 25.91 -29.48 21.78 -29.29 14.23 C-28.43 8.42 -25.52 5.42 -21.28 1.63 C-15.09 -2.76 -6.97 -1.83 0 0 Z " fill="#ECF2F5" transform="translate(908.8125,444)"/>
<path d="M0 0 C5.62 2.55 9.15 6.57 11.53 12.26 C12.2 17.74 12.44 23.39 9.84 28.39 C7.48 31.32 6.14 32.36 2.53 33.26 C2.53 33.92 2.53 34.58 2.53 35.26 C-1.26 36.46 -4.95 36.46 -8.91 36.51 C-10.2 36.54 -11.5 36.56 -12.84 36.59 C-19 36.03 -22.47 32.8 -26.47 28.26 C-29.21 22.57 -29.61 16.3 -27.89 10.2 C-22.63 -0.58 -10.87 -3.25 0 0 Z " fill="#102A4A" transform="translate(370.46875,255.73828125)"/>
<path d="M0 0 C4.36 2.81 7.45 6.43 9.08 11.34 C9.82 18.23 9.22 22.75 5.08 28.34 C-1.22 34.33 -7.17 34.81 -15.6 34.65 C-19.87 34.26 -21.88 33.38 -24.92 30.34 C-25.47 29.81 -26.03 29.27 -26.6 28.72 C-30.13 24.81 -31.37 21.62 -31.61 16.34 C-31.29 10.62 -29.93 6.5 -25.92 2.34 C-17.81 -3.74 -9 -4.41 0 0 Z " fill="#090909" transform="translate(377.91796875,445.65625)"/>
<path d="M0 0 C3.63 0 7.26 0 11 0 C11.33 6.6 11.66 13.2 12 20 C17.62 13.88 17.62 13.88 19.36 11.98 C20.37 10.89 21.38 9.8 22.4 8.71 C23.46 7.58 24.5 6.42 25.51 5.24 C28 2.48 29.5 1.09 33.21 0.41 C34.26 0.48 35.3 0.55 36.38 0.62 C37.43 0.68 38.49 0.73 39.59 0.79 C40.38 0.86 41.18 0.93 42 1 C37.91 6.96 33.25 11.77 27.88 16.61 C26 19 26 19 25.82 21.3 C27.62 25.43 30.41 28.59 33.31 32 C34.48 33.4 35.64 34.79 36.8 36.19 C38.67 38.42 40.54 40.65 42.42 42.88 C44 45 44 45 44 47 C39.52 47.61 35.46 47.84 31 47 C27.53 44.16 25.38 40.76 23 37 C22.02 35.82 21.03 34.64 20 33.5 C18 31 18 31 18 29 C14.18 31.36 11.4 33.35 10.31 37.85 C10.09 40.58 9.97 43.26 10 46 C6.7 46 3.4 46 0 46 C0 30.82 0 15.64 0 0 Z " fill="#0E2C4D" transform="translate(315,60)"/>
<path d="M0 0 C11.88 0 23.76 0 36 0 C36 2.64 36 5.28 36 8 C27.75 8 19.5 8 11 8 C11 11.3 11 14.6 11 18 C18.26 18 25.52 18 33 18 C33 20.64 33 23.28 33 26 C25.74 26 18.48 26 11 26 C11 29.63 11 33.26 11 37 C19.58 37 28.16 37 37 37 C37 39.97 37 42.94 37 46 C24.79 46 12.58 46 0 46 C0 30.82 0 15.64 0 0 Z " fill="#112B4D" transform="translate(364,61)"/>
<path d="M0 0 C0.7 0.01 1.41 0.01 2.13 0.02 C7.43 0.15 11.42 1.02 16.12 3.38 C15.64 6.5 15.13 9.37 14.12 12.38 C13.48 12.16 12.84 11.94 12.18 11.72 C0.54 7.97 0.54 7.97 -5.31 10.38 C-5.83 10.7 -6.34 11.03 -6.88 11.38 C-6.88 13.03 -6.88 14.67 -6.88 16.38 C-6.33 16.54 -5.78 16.7 -5.21 16.86 C-2.7 17.6 -0.19 18.36 2.31 19.12 C3.18 19.38 4.04 19.63 4.93 19.89 C10.48 21.59 14.98 23.31 18.44 28.25 C19.58 31.77 19.78 34.71 18.4 38.21 C16.02 42.78 13.41 45.33 8.39 46.93 C-1.4 48.86 -11.53 47.94 -19.88 42.38 C-18 36.62 -18 36.62 -16.88 34.38 C-16.27 34.58 -15.67 34.78 -15.05 35 C-14.25 35.27 -13.45 35.53 -12.62 35.81 C-11.84 36.08 -11.05 36.35 -10.23 36.62 C-4.96 38.31 0.23 39.56 5.56 37.38 C5.82 37.21 5.82 37.21 7.12 36.38 C6.8 34.72 6.46 33.08 6.12 31.38 C1.76 29.86 -2.54 28.41 -7.06 27.44 C-11.56 26.18 -15.49 24.64 -18.01 20.52 C-19.51 16.81 -19.53 13.29 -18.88 9.38 C-14.25 2.02 -8.43 -0.17 0 0 Z " fill="#0E2A4C" transform="translate(425.875,59.625)"/>
<path d="M0 0 C8.12 7.05 10.36 21.86 13 32 C13.27 32.79 13.54 33.58 13.82 34.4 C14.27 40.8 9.69 47.97 6 53 C3.63 54.78 1.84 55.41 -1.02 56.16 C-5 57.28 -8.51 59.07 -12.19 60.94 C-12.85 61.26 -13.52 61.59 -14.2 61.92 C-18.81 64.22 -22.87 66.92 -27 70 C-25.58 65.35 -23.66 61.12 -21.44 56.81 C-17.88 49.82 -14.49 42.77 -11.16 35.67 C-9.21 31.53 -7.22 27.44 -5.12 23.38 C-1.16 15.45 0.5 8.9 0 0 Z " fill="#255B9E" transform="translate(169,46)"/>
<path d="M0 0 C0.85 1.56 1.68 3.12 2.5 4.69 C2.96 5.56 3.43 6.43 3.91 7.32 C5.05 10.12 5.22 12.02 5 15 C4.01 15.33 3.02 15.66 2 16 C2 16.66 2 17.32 2 18 C-5.47 23.62 -14.27 26.9 -22.97 30.07 C-29.42 32.5 -33.78 35.19 -38.12 40.69 C-40.12 43.15 -41.07 43.9 -44 45 C-47.23 45.2 -47.23 45.2 -50.75 45.12 C-51.92 45.11 -53.09 45.09 -54.3 45.07 C-55.19 45.05 -56.08 45.02 -57 45 C-50.72 30.81 -43.73 22.16 -29 16 C-25.67 14.72 -22.34 13.47 -19 12.23 C-14.98 10.58 -11.61 8.39 -8 6 C-7.34 6 -6.68 6 -6 6 C-6 5.34 -6 4.68 -6 4 C-2.47 0 -2.47 0 0 0 Z " fill="#4994B6" transform="translate(830,245)"/>
<path d="M0 0 C12.02 -0.57 12.02 -0.57 16 3 C16 3.66 16 4.32 16 5 C16.66 5 17.32 5 18 5 C19.38 7.89 20.72 10.78 22.06 13.69 C22.45 14.5 22.84 15.32 23.24 16.16 C26 22.19 26 22.19 25.99 25.84 C24.77 28.51 23.37 29.93 21.12 31.81 C20.43 32.42 19.73 33.02 19.01 33.64 C17 35 17 35 14 35 C13.34 33.68 12.68 32.36 12 31 C11.34 31 10.68 31 10 31 C9.91 31.28 9.91 31.28 9.47 32.72 C7.19 38.23 4.49 40.62 -0.83 42.99 C-3.59 44.12 -6.38 45.19 -9.17 46.24 C-11.61 47.25 -13.79 48.56 -16 50 C-14.67 44.75 -12.8 40.23 -10.31 35.44 C-9.96 34.75 -9.62 34.06 -9.26 33.35 C-7.52 29.92 -5.75 26.53 -3.92 23.16 C0.52 14.9 2.48 9.29 0 0 Z " fill="#4CB2BD" transform="translate(801,217)"/>
<path d="M0 0 C3 1 3 1 4.9 4.32 C5.59 5.73 6.27 7.14 6.94 8.56 C7.27 9.25 7.61 9.95 7.95 10.66 C8.63 12.06 9.3 13.46 9.97 14.87 C11.34 17.7 12.8 20.48 14.27 23.25 C15 25 15 25 15 28 C15.66 28 16.32 28 17 28 C17.84 29.77 18.67 31.54 19.5 33.31 C19.96 34.3 20.43 35.28 20.91 36.3 C22 39 22 39 22 42 C18.94 42.08 15.88 42.14 12.81 42.19 C12.38 42.2 12.38 42.2 10.19 42.26 C5.29 42.32 1.9 42.3 -2 39 C-5.89 34.86 -8.58 30.52 -11.19 25.5 C-11.53 24.86 -11.87 24.22 -12.22 23.57 C-14.21 19.8 -15.77 16.1 -17 12 C-16.28 11.55 -15.55 11.11 -14.8 10.64 C-5.95 5.1 -5.95 5.1 -2.5 2 C-1.68 1.34 -0.85 0.68 0 0 Z " fill="#57C3C1" transform="translate(218,106)"/>
<path d="M0 0 C3.27 1.63 4.06 5.16 5.5 8.38 C8.97 15.95 12.73 23.33 16.67 30.67 C18.66 34.38 20.55 38.03 22 42 C18.79 42.12 15.58 42.19 12.38 42.25 C11.47 42.28 10.57 42.32 9.64 42.35 C3.87 42.44 0.49 41.98 -4 38 C-8.27 33.56 -10.78 28.89 -13.31 23.31 C-13.67 22.55 -14.03 21.8 -14.4 21.01 C-17 15.4 -17 15.4 -17 12 C-15.06 10.61 -15.06 10.61 -12.44 9.19 C-7.76 6.53 -3.96 3.62 0 0 Z " fill="#55C1C4" transform="translate(868,108)"/>
<path d="M0 0 C2.16 -0.29 2.16 -0.29 4.62 -0.19 C5.44 -0.16 6.26 -0.13 7.1 -0.11 C7.41 -0.09 7.41 -0.09 9 0 C13.02 7.75 16.73 15.63 20.38 23.56 C20.83 24.54 21.28 25.51 21.75 26.52 C22.17 27.44 22.59 28.37 23.02 29.32 C23.4 30.15 23.78 30.98 24.18 31.83 C25 34 25 34 25 37 C22.03 37 19.06 37 16 37 C14 33 14 33 14 30 C7.73 30 1.46 30 -5 30 C-5.66 32.31 -6.32 34.62 -7 37 C-9.97 37 -12.94 37 -16 37 C-15.04 33.17 -13.7 29.75 -12.13 26.15 C-11.85 25.5 -11.56 24.85 -11.27 24.17 C-10.68 22.8 -10.08 21.42 -9.48 20.05 C-8.56 17.94 -7.66 15.84 -6.75 13.73 C-6.17 12.39 -5.59 11.05 -5 9.71 C-4.73 9.09 -4.46 8.46 -4.18 7.81 C-2.96 5.01 -1.7 2.56 0 0 Z " fill="#EAEFF2" transform="translate(743,443)"/>
<path d="M0 0 C3.3 0 6.6 0 10 0 C14.25 8.4 18.44 16.82 22.5 25.31 C22.85 26.03 23.2 26.76 23.56 27.5 C26 32.65 26 32.65 26 36 C23.03 36 20.06 36 17 36 C14 30.25 14 30.25 14 28 C8.06 28.33 2.12 28.66 -4 29 C-4.5 30.15 -4.5 30.15 -7 36 C-9.97 36 -12.94 36 -16 36 C-11.17 23.74 -6.05 11.71 0 0 Z " fill="#0E2748" transform="translate(203,256)"/>
<path d="M0 0 C3.3 0 6.6 0 10 0 C16.06 11.83 21.62 23.84 27 36 C23.7 36 20.4 36 17 36 C16.01 33.69 15.02 31.38 14 29 C8.06 28.67 2.12 28.34 -4 28 C-4.66 30.64 -5.32 33.28 -6 36 C-8.97 36 -11.94 36 -15 36 C-14.33 31.1 -12.35 26.95 -10.31 22.5 C-9.96 21.71 -9.6 20.92 -9.23 20.11 C-8.16 17.74 -7.08 15.37 -6 13 C-5.84 12.65 -5.84 12.65 -5.04 10.89 C-3.37 7.26 -1.69 3.63 0 0 Z " fill="#0A0A0A" transform="translate(209,444)"/>
<path d="M0 0 C4.6 -0.02 9.2 -0.04 13.94 -0.06 C15.39 -0.07 16.84 -0.08 18.34 -0.09 C19.47 -0.09 20.61 -0.1 21.78 -0.1 C22.36 -0.1 22.36 -0.1 25.32 -0.11 C28 0 28 0 29 1 C29 3.31 29 5.62 29 8 C22.4 8 15.8 8 9 8 C9 10.31 9 12.62 9 15 C14.94 15 20.88 15 27 15 C27 17.31 27 19.62 27 22 C21.06 22 15.12 22 9 22 C9 24.64 9 27.28 9 30 C15.6 30 22.2 30 29 30 C29 32.31 29 34.62 29 37 C19.43 37 9.86 37 0 37 C0 24.79 0 12.58 0 0 Z " fill="#E7EDF1" transform="translate(812,443)"/>
<path d="M0 0 C4.88 2.27 7.6 5.19 10 10 C10.72 14.05 10.22 17.28 9 21.19 C5.96 25.46 2.17 28.36 -3.05 29.41 C-7.94 29.62 -11.78 28.35 -16 26 C-20.45 21.31 -21.31 17.48 -21.21 11.21 C-20.79 6.76 -18.71 4.67 -15.56 1.69 C-10.37 -0.77 -5.65 -0.76 0 0 Z " fill="#122844" transform="translate(878,302)"/>
<path d="M0 0 C3.3 0 6.6 0 10 0 C7.69 4.62 4.83 7.2 1.09 10.68 C-1.05 13.06 -2.02 14.98 -3 18 C-2.65 18.43 -2.29 18.87 -1.93 19.31 C-0.32 21.29 1.28 23.27 2.88 25.25 C3.15 25.59 3.15 25.59 4.56 27.32 C4.83 27.65 4.83 27.65 6.18 29.33 C6.67 29.94 7.16 30.54 7.67 31.17 C9.03 33.04 10.03 34.91 11 37 C7.07 37.87 3.91 38.08 0 37 C-4.18 33.45 -7.09 28.59 -10 24 C-11.95 25.18 -11.95 25.18 -14 27 C-14.61 29.48 -14.61 29.48 -14.75 32.19 C-14.81 33.09 -14.86 33.99 -14.92 34.92 C-14.95 35.61 -14.97 36.29 -15 37 C-17.97 37 -20.94 37 -24 37 C-24 25.12 -24 13.24 -24 1 C-21.36 1 -18.72 1 -16 1 C-16 6.28 -16 11.56 -16 17 C-15.34 17 -14.68 17 -14 17 C-13.78 16.46 -13.57 15.91 -13.35 15.35 C-11.54 12.19 -9.05 9.87 -6.44 7.38 C-1.12 2.24 -1.12 2.24 0 0 Z " fill="#EFF4F7" transform="translate(797,443)"/>
<path d="M0 0 C3.63 0 7.26 0 11 0 C7.07 4.72 3 8.98 -1.56 13.11 C-3 15 -3 15 -2.74 16.91 C-1.96 19.13 -1.05 20.5 0.43 22.31 C0.92 22.91 1.4 23.51 1.9 24.13 C2.41 24.75 2.91 25.37 3.44 26 C9.51 33.44 9.51 33.44 11 37 C7.55 37.5 4.44 37.66 1 37 C-1.89 34.73 -3.85 31.96 -6 29 C-6.96 27.98 -7.93 26.97 -8.94 26 C-9.62 25.34 -10.3 24.68 -11 24 C-13.46 25.83 -14.83 27.23 -15.49 30.27 C-15.73 32.51 -15.9 34.74 -16 37 C-18.64 37 -21.28 37 -24 37 C-24 25.12 -24 13.24 -24 1 C-21.36 1 -18.72 1 -16 1 C-16 6.28 -16 11.56 -16 17 C-15.34 17 -14.68 17 -14 17 C-13.78 16.46 -13.57 15.91 -13.35 15.35 C-11.54 12.19 -9.05 9.87 -6.44 7.38 C-1.12 2.24 -1.12 2.24 0 0 Z " fill="#0E2645" transform="translate(258,255)"/>
<path d="M0 0 C2.64 0 5.28 0 8 0 C8 5.28 8 10.56 8 16 C8.66 16 9.32 16 10 16 C10.24 15.43 10.47 14.87 10.72 14.29 C12.28 11.5 14.2 9.65 16.5 7.44 C19.03 5 21.05 2.93 23 0 C25.38 -0.29 25.38 -0.29 28.12 -0.19 C29.04 -0.16 29.95 -0.13 30.88 -0.11 C31.58 -0.07 32.28 -0.04 33 0 C31.07 4.63 27.6 7.42 24 10.78 C21.93 13.07 21.3 13.99 21 17 C22.06 18.88 22.06 18.88 23.71 20.79 C24.3 21.48 24.88 22.18 25.48 22.89 C26.11 23.61 26.73 24.32 27.38 25.06 C28.59 26.49 29.81 27.92 31.02 29.35 C31.3 29.66 31.3 29.66 32.68 31.25 C34 33 34 33 35 36 C31.55 36.5 28.44 36.66 25 36 C22.11 33.73 20.15 30.96 18 28 C17.04 26.98 16.07 25.97 15.06 25 C14.38 24.34 13.7 23.68 13 23 C10.54 24.83 9.17 26.23 8.51 29.27 C8.27 31.51 8.1 33.74 8 36 C5.36 36 2.72 36 0 36 C0 24.12 0 12.24 0 0 Z " fill="#070707" transform="translate(240,444)"/>
<path d="M0 0 C1.21 -0.01 2.41 -0.01 3.65 -0.02 C6.9 0.24 9.14 0.85 12.06 2.25 C11.73 4.89 11.4 7.53 11.06 10.25 C6.31 9.38 6.31 9.38 4.06 8.25 C2.52 8.18 0.98 8.17 -0.56 8.19 C-1.38 8.2 -2.2 8.21 -3.04 8.21 C-3.67 8.23 -4.29 8.24 -4.94 8.25 C-5.27 9.9 -5.6 11.55 -5.94 13.25 C-5.47 13.37 -5.47 13.37 -3.09 13.95 C10.47 17.5 10.47 17.5 14.06 22.25 C14.97 25.48 15.03 28.03 14.06 31.25 C11.3 34.76 8.28 36.84 4.06 38.25 C-2.77 38.77 -9.05 39.04 -14.94 35.25 C-16 32.75 -16 32.75 -15.94 30.25 C-15.61 29.75 -15.61 29.75 -13.94 27.25 C-13.2 27.58 -12.45 27.91 -11.69 28.25 C-6.43 29.65 -1.35 29.41 4.06 29.25 C4.06 27.93 4.06 26.61 4.06 25.25 C3.11 25.01 2.16 24.77 1.18 24.52 C-0.08 24.18 -1.33 23.85 -2.62 23.5 C-3.87 23.18 -5.11 22.85 -6.39 22.52 C-10.54 21.03 -13.91 19.3 -15.94 15.25 C-16.64 8.14 -16.64 8.14 -13.69 4.38 C-8.95 0.71 -6.06 -0.03 0 0 Z " fill="#E9EFF3" transform="translate(861.9375,442.75)"/>
<path d="M0 0 C9.24 0 18.48 0 28 0 C28 1.98 28 3.96 28 6 C21.4 6 14.8 6 8 6 C8 8.64 8 11.28 8 14 C13.94 14 19.88 14 26 14 C26 16.31 26 18.62 26 21 C20.06 21 14.12 21 8 21 C8 23.64 8 26.28 8 29 C14.93 29 21.86 29 29 29 C29 31.31 29 33.62 29 36 C19.43 36 9.86 36 0 36 C0 24.12 0 12.24 0 0 Z " fill="#0C2445" transform="translate(274,256)"/>
<path d="M0 0 C8.91 0 17.82 0 27 0 C27 2.31 27 4.62 27 7 C20.73 7 14.46 7 8 7 C8 9.31 8 11.62 8 14 C13.61 14 19.22 14 25 14 C25 16.31 25 18.62 25 21 C19.39 21 13.78 21 8 21 C8 23.64 8 26.28 8 29 C14.6 29 21.2 29 28 29 C28 31.31 28 33.62 28 36 C18.76 36 9.52 36 0 36 C0 24.12 0 12.24 0 0 Z " fill="#0A0A0A" transform="translate(280,444)"/>
<path d="M0 0 C3.69 2.44 6.12 4.5 7.32 8.89 C8.19 14.3 7.62 18 4.75 22.81 C1.98 25.99 0.47 27.49 -3.65 28.26 C-9.33 28.51 -12.87 27.66 -17.25 23.81 C-20.99 19.54 -21.4 15.37 -21.25 9.81 C-19.75 5.56 -17.69 2.72 -14.25 -0.19 C-9.22 -1.86 -4.91 -1.79 0 0 Z " fill="#F3F6F8" transform="translate(481.25,70.1875)"/>
<path d="M0 0 C1 3 1 3 0.06 5.19 C-0.11 5.49 -0.11 5.49 -1 7 C-1.82 6.83 -2.65 6.67 -3.5 6.5 C-13.22 5.11 -13.22 5.11 -17 7 C-17 8.32 -17 9.64 -17 11 C-15.89 11.31 -14.78 11.63 -13.64 11.95 C-12.18 12.38 -10.71 12.82 -9.25 13.25 C-8.52 13.45 -7.79 13.66 -7.04 13.87 C-2.77 15.15 0.27 16.26 3 20 C3.58 24.54 3.64 26.79 1.5 30.81 C-3.25 34.97 -8.56 36.53 -14.9 36.3 C-18.77 35.74 -22.37 34.41 -26 33 C-26.69 30.69 -26.69 30.69 -27 28 C-25.56 26.19 -25.56 26.19 -24 25 C-23.01 25.5 -22.02 25.99 -21 26.5 C-16.83 28.3 -13.51 28.31 -9 28 C-8.34 27.67 -7.68 27.34 -7 27 C-7 25.68 -7 24.36 -7 23 C-9.8 21.47 -12.24 20.66 -15.38 20.12 C-19.76 19.21 -22.51 17.79 -26 15 C-27.61 11.77 -27.59 8.49 -27 5 C-20.59 -3.67 -9.33 -3.69 0 0 Z " fill="#0B0B0B" transform="translate(340,445)"/>
<path d="M0 0 C-0.66 1.98 -1.32 3.96 -2 6 C-2.71 5.84 -3.41 5.67 -4.14 5.5 C-7.1 4.98 -9.81 4.9 -12.81 4.94 C-13.79 4.95 -14.76 4.96 -15.77 4.96 C-16.51 4.98 -17.24 4.99 -18 5 C-18.33 6.32 -18.66 7.64 -19 9 C-14.77 11.82 -10.24 12.58 -5.35 13.8 C-1.85 15.05 -0.23 16.07 2 19 C2.48 22.81 2.34 25.22 0.81 28.75 C-1.32 31.4 -2.93 32.52 -6 34 C-8.72 34.29 -11.16 34.42 -13.88 34.38 C-14.22 34.38 -14.22 34.38 -15.94 34.41 C-20.97 34.38 -24.5 33.22 -29 31 C-28.34 29.02 -27.68 27.04 -27 25 C-24 25 -24 25 -21.38 26 C-17.16 27.25 -13.36 27.17 -9 27 C-8.67 25.35 -8.34 23.7 -8 22 C-8.51 21.85 -8.51 21.85 -11.11 21.08 C-12.47 20.66 -13.83 20.24 -15.19 19.81 C-15.86 19.62 -16.53 19.42 -17.23 19.22 C-21.92 17.73 -24.85 15.96 -28 12 C-28.9 9.21 -28.71 6.84 -28 4 C-21.76 -4.7 -8.66 -5.47 0 0 Z " fill="#0E2748" transform="translate(336,258)"/>
<path d="M0 0 C5.08 4.35 6.6 10.54 8.12 16.81 C9.88 23.88 9.88 23.88 11 25 C11.62 31.24 8.57 36.08 5 41 C2.51 42.99 -0 43.98 -3 45 C-9.86 47.53 -15.37 50.28 -21 55 C-19.25 48.99 -16.47 43.49 -13.75 37.88 C-13.26 36.85 -12.76 35.83 -12.26 34.77 C-9.24 28.52 -6.19 22.29 -3.02 16.11 C-1.26 12.48 -0.77 9.29 -0.44 5.31 C-0.35 4.32 -0.27 3.32 -0.18 2.3 C-0.15 1.92 -0.15 1.92 0 0 Z " fill="#295B9A" transform="translate(122,245)"/>
<path d="M0 0 C2.73 1.01 3.82 1.7 5.31 4.25 C5.68 5.16 6.05 6.06 6.44 7 C8.06 10.82 9.74 14.55 11.62 18.25 C17 28.92 17 28.92 17 33 C2.15 34.03 2.15 34.03 -2.12 30.62 C-5.76 26.7 -7.86 21.85 -10 17 C-10.38 16.32 -10.75 15.64 -11.14 14.95 C-12 13 -12 13 -12 9 C-10.14 7.4 -10.14 7.4 -7.69 5.94 C-4.77 4.17 -2.31 2.52 0 0 Z " fill="#5DC2C1" transform="translate(160,292)"/>
<path d="M0 0 C2.77 1.39 3.15 3.02 4.46 5.81 C4.93 6.81 5.4 7.8 5.89 8.82 C6.38 9.87 6.87 10.92 7.38 12 C7.86 13.02 8.34 14.03 8.84 15.08 C11.64 21.02 14.37 26.99 17 33 C14.46 33.11 11.92 33.19 9.38 33.25 C8.66 33.28 7.95 33.32 7.21 33.35 C2 33.45 -1 32.63 -5 29 C-6.9 26.25 -8.4 23.37 -9.88 20.38 C-10.28 19.6 -10.68 18.82 -11.09 18.02 C-14 12.33 -14 12.33 -14 10 C-12.28 8.79 -10.49 7.65 -8.69 6.56 C-5.44 4.6 -2.54 2.83 0 0 Z " fill="#F2F6F8" transform="translate(701,480)"/>
<path d="M0 0 C3.13 3.7 4.9 7.87 6.88 12.25 C9.02 16.92 11.13 21.49 13.94 25.81 C15.69 28.52 16.38 29.98 17 33 C14.46 33.14 11.92 33.23 9.38 33.31 C8.66 33.35 7.95 33.4 7.21 33.44 C3.13 33.53 1.31 33.2 -2.25 30.95 C-5.42 27.9 -7.44 24.33 -9.44 20.44 C-9.8 19.78 -10.16 19.12 -10.54 18.44 C-13.08 13.6 -13.08 13.6 -12.71 10.88 C-11.69 8.17 -10.07 7.42 -7.62 5.94 C-4.74 4.16 -2.3 2.5 0 0 Z " fill="#070707" transform="translate(168,480)"/>
<path d="M0 0 C5.96 -0.49 5.96 -0.49 8 0 C9.47 1.92 9.47 1.92 11 5 C11.35 5.7 11.71 6.4 12.07 7.13 C13.31 9.59 14.5 12.08 15.69 14.56 C16.1 15.41 16.52 16.26 16.95 17.14 C17.34 17.96 17.73 18.78 18.14 19.63 C18.49 20.37 18.85 21.12 19.22 21.88 C20 24 20 24 20 28 C17.69 28 15.38 28 13 28 C12.67 26.02 12.34 24.04 12 22 C9.73 22.03 7.46 22.1 5.19 22.19 C4.56 22.2 4.56 22.2 1.36 22.29 C-2 23 -2 23 -3.75 25.53 C-4.16 26.35 -4.58 27.16 -5 28 C-8.19 28.31 -8.19 28.31 -11 28 C-10.4 24.47 -9.47 21.49 -7.97 18.24 C-7.57 17.37 -7.17 16.5 -6.76 15.6 C-6.35 14.7 -5.93 13.8 -5.5 12.88 C-4.68 11.08 -3.85 9.29 -3.03 7.49 C-2.67 6.7 -2.3 5.91 -1.92 5.1 C-1 3 -1 3 0 0 Z " fill="#2A3F5C" transform="translate(748,302)"/>
<path d="M0 0 C3.4 3.78 4.68 8.2 6.25 12.94 C6.53 13.74 6.81 14.53 7.1 15.36 C8.52 19.59 9.52 22.63 8 27 C7.9 27.36 7.9 27.36 7.37 29.21 C4.71 35.38 0.96 37.42 -5 39.88 C-7.05 40.68 -9.11 41.46 -11.17 42.24 C-13.61 43.25 -15.79 44.56 -18 46 C-16.67 40.75 -14.8 36.23 -12.31 31.44 C-11.96 30.75 -11.61 30.06 -11.25 29.35 C-9.52 25.93 -7.76 22.54 -5.95 19.16 C-2.54 12.71 -0.13 7.39 0 0 Z " fill="#275A97" transform="translate(803,221)"/>
<path d="M0 0 C0.66 0 1.32 0 2 0 C2.22 0.59 2.44 1.18 2.66 1.79 C5.92 9.92 9.93 13.35 18 17 C18 17.66 18 18.32 18 19 C16.8 19.52 15.61 20.03 14.38 20.56 C8.79 23.35 5.26 27.31 2.62 32.94 C2.52 33.28 2.52 33.28 2 35 C1.34 35 0.68 35 0 35 C-0.29 34.41 -0.58 33.82 -0.88 33.21 C-4.29 26.64 -7.26 22.46 -14.38 19.69 C-15.24 19.46 -16.11 19.23 -17 19 C-17 18.34 -17 17.68 -17 17 C-16.48 16.77 -15.96 16.54 -15.43 16.3 C-7.46 12.57 -3.53 7.96 0 0 Z " fill="#7991AA" transform="translate(982,506)"/>
<path d="M0 0 C3.7 2.03 5.65 3.48 8 7 C8.62 11.28 8.46 14.98 6.69 18.94 C4.63 21.46 2.97 22.86 -0.3 23.34 C-4.63 23.4 -7.26 23.44 -11.06 21.19 C-14.41 17.41 -14.52 13.38 -14.47 8.52 C-13.77 4.76 -12.05 3.17 -9 1 C-5.75 -0.62 -3.55 -0.65 0 0 Z " fill="#F3F6F8" transform="translate(365,262)"/>
<path d="M0 0 C0.66 0 1.32 0 2 0 C4 4 6 8 8 12 C8.38 12.73 8.77 13.45 9.16 14.2 C10.64 17.38 10.44 19.5 10 23 C7.23 29.53 4.61 33.51 -1 38 C-3.64 32.06 -6.28 26.12 -9 20 C-9.66 20 -10.32 20 -11 20 C-9.5 16.89 -7.92 13.88 -6 11 C-5.34 11 -4.68 11 -4 11 C-3.9 10.3 -3.79 9.6 -3.69 8.88 C-2.91 5.61 -1.58 2.95 0 0 Z M-13 20 C-12.67 20.17 -12.67 20.17 -11 21 C-11.33 21.17 -11.33 21.17 -13 22 C-13 21.34 -13 20.68 -13 20 Z " fill="#3E8092" transform="translate(867,67)"/>
<path d="M0 0 C2.51 3.53 2.7 6.98 2.5 11.22 C1.73 14.81 -0.11 16.43 -3 18.56 C-6.46 20.29 -10.22 20.05 -14 19.56 C-16.87 17.77 -18.49 16.58 -20 13.56 C-20.61 8.15 -21 3.96 -17.75 -0.56 C-11.84 -4.59 -5.61 -4.56 0 0 Z " fill="#F4F4F4" transform="translate(376,453.4375)"/>
<path d="M0 0 C1.98 0 3.96 0 6 0 C6 3.96 6 7.92 6 12 C13.68 5.47 13.68 5.47 16 2.06 C18 0 18 0 20.02 -0.3 C22.01 -0.31 24.01 -0.17 26 0 C25.08 1.23 24.17 2.46 23.25 3.69 C22.74 4.37 22.23 5.06 21.7 5.76 C19.84 8.21 17.93 10.61 16 13 C16.79 14 17.59 15 18.41 16.03 C19.44 17.33 20.47 18.63 21.5 19.94 C22.02 20.6 22.55 21.26 23.09 21.94 C27 26.89 27 26.89 27 28 C23.91 28.43 21.98 28.69 19 28 C16.17 25.69 13.97 23.07 12 20 C12 19.34 12 18.68 12 18 C9.56 19.06 9.56 19.06 7 21 C6.19 24.69 6.19 24.69 6 28 C4.02 28 2.04 28 0 28 C0 18.76 0 9.52 0 0 Z " fill="#0F2544" transform="translate(773,302)"/>
<path d="M0 0 C0.66 0 1.32 0 2 0 C2.28 0.64 2.56 1.29 2.85 1.95 C5.76 8.52 9.01 14.8 12.55 21.05 C13.89 23.78 14.58 26.01 15 29 C2.49 30.03 2.49 30.03 -2.5 26.75 C-7.16 22.63 -9.24 16.85 -11 11 C-11 10.01 -11 9.02 -11 8 C-9.32 6.61 -9.32 6.61 -7.12 5.31 C-6.41 4.88 -5.69 4.44 -4.95 3.99 C-3 3 -3 3 -1 3 C-0.67 2.01 -0.34 1.02 0 0 Z " fill="#61C3C1" transform="translate(836,261)"/>
<path d="M0 0 C-0.49 4.07 -1.95 6.86 -4.02 10.3 C-5.26 12.45 -6.12 14.68 -7 17 C-8.84 21.4 -11.76 25.49 -15.74 28.17 C-18.82 29.3 -21.49 29.19 -24.75 29.12 C-25.92 29.11 -27.09 29.09 -28.3 29.07 C-29.19 29.05 -30.08 29.02 -31 29 C-25.18 15.84 -19 7.38 -5.6 1 C-3 0 -3 0 0 0 Z " fill="#22498D" transform="translate(804,261)"/>
<path d="M0 0 C7.26 0 14.52 0 22 0 C22 1.65 22 3.3 22 5 C17.05 5 12.1 5 7 5 C7 6.98 7 8.96 7 11 C11.29 11 15.58 11 20 11 C20 12.65 20 14.3 20 16 C15.38 16 10.76 16 6 16 C6 18.31 6 20.62 6 23 C11.28 23 16.56 23 22 23 C22 24.65 22 26.3 22 28 C14.74 28 7.48 28 0 28 C0 18.76 0 9.52 0 0 Z " fill="#112543" transform="translate(804,302)"/>
<path d="M0 0 C3.49 2.24 5.48 5.03 6.54 9.04 C6.83 12.93 6 15.48 3.62 18.44 C0.33 21.66 -0.18 21.95 -4.81 22.25 C-8.65 22.2 -10.94 21.43 -14 19 C-16.82 14.76 -16.67 10.98 -16 6 C-12.07 -0.41 -7.17 -1.32 0 0 Z " fill="#0B2A4D" transform="translate(905,451)"/>
<path d="M0 0 C1.16 -0.01 2.31 -0.03 3.5 -0.04 C6.44 0.19 6.44 0.19 8.44 2.19 C8.06 4.81 8.06 4.81 7.44 7.19 C6.45 6.86 5.46 6.53 4.44 6.19 C-2.61 5.71 -2.61 5.71 -5.56 7.19 C-5.89 8.18 -6.22 9.17 -6.56 10.19 C-5.67 10.35 -4.78 10.5 -3.86 10.67 C-2.69 10.9 -1.52 11.13 -0.31 11.38 C0.85 11.6 2.01 11.82 3.2 12.04 C7.04 13.4 8.35 14.74 10.44 18.19 C10.5 21.81 10.5 21.81 9.44 25.19 C4.75 28.89 0.31 29.57 -5.56 29.19 C-8.33 28.35 -10.89 27.31 -13.56 26.19 C-13.23 24.54 -12.9 22.89 -12.56 21.19 C-11.76 21.35 -10.95 21.52 -10.12 21.69 C-5.9 22.28 -1.82 22.27 2.44 22.19 C2.44 21.2 2.44 20.21 2.44 19.19 C2.02 19.06 2.02 19.06 -0.08 18.42 C-1.17 18.07 -2.26 17.73 -3.38 17.38 C-3.91 17.21 -3.91 17.21 -6.64 16.36 C-9.42 15.24 -10.86 14.61 -12.56 12.19 C-13.12 9.48 -12.99 6.91 -12.56 4.19 C-9.54 -0.28 -4.98 0.03 0 0 Z " fill="#142845" transform="translate(843.5625,301.8125)"/>
<path d="M0 0 C2.92 1.99 4.61 3.43 5.48 6.94 C5.76 10.86 5.22 12.67 3 16 C-1.16 18.77 -3.07 18.7 -8 18 C-10.5 16.56 -10.5 16.56 -12 14 C-12.61 10.87 -12.64 8.13 -12 5 C-8.69 0.08 -5.82 -1.04 0 0 Z " fill="#EEF3F6" transform="translate(876,307)"/>
<path d="M0 0 C2.58 1.29 2.67 2.27 3.62 4.94 C3.76 5.29 3.76 5.29 4.41 7.09 C5 9 5 9 5 11 C6.98 10.01 8.96 9.02 11 8 C11.66 8.99 12.32 9.98 13 11 C3.33 17.51 -7.33 21.23 -18.3 24.95 C-21.52 26.05 -24.15 27.1 -27 29 C-27.99 28.67 -28.98 28.34 -30 28 C-29 25 -29 25 -26.09 23.5 C-24.85 22.99 -23.62 22.49 -22.38 22 C-20.53 21.25 -18.69 20.49 -16.86 19.73 C-15.04 19.02 -13.18 18.42 -11.32 17.82 C-6.8 15.34 -5.58 12.42 -3.56 7.81 C-3.21 7.06 -2.86 6.31 -2.5 5.54 C-1.65 3.7 -0.82 1.85 0 0 Z " fill="#0D2E4C" transform="translate(832,85)"/>
<path d="M0 0 C3.27 2.47 4.78 3.96 5.62 8 C4.77 12.11 3.38 13.55 0 16 C-3.96 16.62 -6.01 16.61 -9.44 14.5 C-11.78 10.75 -11.49 8.39 -11 4 C-8.41 0.17 -4.42 -0.63 0 0 Z " fill="#1F2734" transform="translate(463,120)"/>
<path d="M0 0 C10.34 -0.37 10.34 -0.37 13.33 1.3 C15 3 15 3 15.5 6.38 C14.9 10.73 14.51 12.3 11 15 C7.23 15.42 3.81 15.23 0 15 C0 10.05 0 5.1 0 0 Z " fill="#1C212E" transform="translate(292,121)"/>
<path d="M0 0 C2.56 1.62 2.56 1.62 4 4 C4.56 6.94 4.56 6.94 4 10 C1.94 12.88 1.94 12.88 -1 15 C-4.66 15.51 -7 15.38 -10.44 14.06 C-12.64 11.15 -12.44 8.73 -12.43 5.16 C-11.14 -1.28 -5.37 -0.86 0 0 Z " fill="#1C2130" transform="translate(395,121)"/>
<path d="M0 0 C0 3 0 3 -1.19 4.58 C-8.85 11.65 -18.58 14.86 -28.12 18.63 C-28.79 18.9 -29.45 19.16 -30.13 19.43 C-31.95 20.14 -33.77 20.84 -35.6 21.54 C-39.27 23.12 -42.57 24.96 -46 27 C-46 26.01 -46 25.02 -46 24 C-41.51 19.75 -36.18 17.67 -30.38 15.88 C-23.55 13.47 -21.23 9.79 -18.07 3.45 C-17.72 2.64 -17.37 1.83 -17 1 C-14.22 2.39 -14.02 4.16 -13 7 C-7.74 5.59 -4.28 3.25 0 0 Z " fill="#19263C" transform="translate(690,462)"/>
<path d="M0 0 C2.12 0.38 2.12 0.38 4 1 C3.34 1.33 3.34 1.33 0 3 C0 3.66 0 4.32 0 5 C-8.84 11.65 -19.65 15.27 -29.9 19.15 C-32 20 -33.99 20.96 -36 22 C-36.33 21.01 -36.66 20.02 -37 19 C-34.77 17.87 -32.54 16.75 -30.31 15.62 C-29.69 15.31 -29.06 14.99 -28.42 14.66 C-25.71 13.31 -23.09 12.03 -20.22 11.06 C-17.33 9.68 -16.6 8.21 -15.19 5.38 C-14.77 4.56 -14.35 3.74 -13.92 2.9 C-13.77 2.59 -13.77 2.59 -13 1 C-12.01 1.33 -11.02 1.66 -10 2 C-9.31 4.06 -9.31 4.06 -9 6 C-7.89 5.38 -6.77 4.76 -5.62 4.12 C-5 3.78 -4.37 3.43 -3.73 3.07 C-2 2 -2 2 0 0 Z " fill="#CBEDF4" transform="translate(824,246)"/>
<path d="M0 0 C2.44 -0.08 4.87 -0.14 7.31 -0.19 C7.66 -0.2 7.66 -0.2 9.4 -0.26 C14.51 -0.34 14.51 -0.34 16.96 1.35 C18.45 3.71 18.42 5.28 18 8 C14.36 10.43 12.29 10.16 8 10 C7.67 8.68 7.34 7.36 7 6 C5.02 6 3.04 6 1 6 C1 6.66 1 7.32 1 8 C2.98 8 4.96 8 7 8 C7 8.66 7 9.32 7 10 C4.69 10 2.38 10 0 10 C0 6.7 0 3.4 0 0 Z " fill="#868B90" transform="translate(750,339)"/>
<path d="M0 0 C1.88 1.19 1.88 1.19 3 3 C3.39 6.09 3.48 8.1 2 10.88 C-1.22 12.69 -4.4 12.67 -8 12 C-10.06 10.38 -10.06 10.38 -11 8 C-10.93 4.52 -10.61 2.71 -8.31 0.06 C-5.13 -1.4 -3.32 -0.99 0 0 Z " fill="#8494A4" transform="translate(837,491)"/>
<path d="M0 0 C2.91 0.08 3.78 0.15 6.12 2 C7.38 5.18 6.98 7.12 6.06 10.38 C4.06 12.38 4.06 12.38 0.12 12.75 C-2.79 12.67 -3.65 12.6 -6 10.75 C-7.26 7.57 -6.86 5.63 -5.94 2.38 C-3.94 0.38 -3.94 0.38 0 0 Z " fill="#8497A5" transform="translate(887.9375,490.625)"/>
<path d="M0 0 C0.66 0 1.32 0 2 0 C3 2.46 4 4.92 5 7.38 C5.29 8.07 5.57 8.77 5.87 9.49 C8 14.77 8 14.77 8 17 C3.38 17 -1.24 17 -6 17 C-5.2 12.2 -4.45 9.36 -2.44 5.12 C-2.21 4.64 -2.21 4.64 -1.06 2.2 C-0.71 1.47 -0.36 0.75 0 0 Z " fill="#DDE4EC" transform="translate(282,72)"/>
<path d="M0 0 C0.99 0 1.98 0 3 0 C4.39 1.68 4.39 1.68 5.69 3.88 C6.12 4.59 6.56 5.31 7.01 6.05 C8 8 8 8 8 10 C8.66 10 9.32 10 10 10 C10.27 9.28 10.54 8.56 10.81 7.81 C12 5 13.27 2.52 15 0 C15.66 0 16.32 0 17 0 C17 5.28 17 10.56 17 16 C16.34 16 15.68 16 15 16 C14.67 13.03 14.34 10.06 14 7 C12.68 9.31 11.36 11.62 10 14 C7 13 7 13 5.31 9.94 C4.88 8.97 4.45 8 4 7 C3.67 9.97 3.34 12.94 3 16 C2.01 16 1.02 16 0 16 C0 10.72 0 5.44 0 0 Z " fill="#1D2737" transform="translate(256,120)"/>
<path d="M0 0 C1.42 -0.06 2.85 -0.12 4.31 -0.19 C4.71 -0.2 4.71 -0.2 6.74 -0.29 C9 0 9 0 10.77 1.32 C12.67 3.91 12.39 5.89 12 9 C10.77 10.68 10.77 10.68 9 12 C6.74 12.29 6.74 12.29 4.31 12.19 C2.89 12.13 1.47 12.06 0 12 C0 8.04 0 4.08 0 0 Z " fill="#8A99A9" transform="translate(755,491)"/>
<path d="M0 0 C3.62 0.38 3.62 0.38 6.12 2 C7.62 4.38 7.62 4.38 7.56 7.5 C6.62 10.38 6.62 10.38 3.62 12.38 C0.54 12.7 -1.52 12.86 -4.25 11.31 C-5.99 8.31 -5.68 5.77 -5.38 2.38 C-3.38 0.38 -3.38 0.38 0 0 Z " fill="#757575" transform="translate(354.375,490.625)"/>
<path d="M0 0 C1.94 1.12 1.94 1.12 3 3 C3.39 6.12 3.5 8.11 1.94 10.88 C-1.11 12.64 -3.56 12.37 -7 12 C-8.94 10.88 -8.94 10.88 -10 9 C-10.39 5.88 -10.5 3.89 -8.94 1.12 C-5.89 -0.64 -3.44 -0.37 0 0 Z " fill="#7D8288" transform="translate(298,303)"/>
<path d="M0 0 C2 1.69 2 1.69 3 4 C2.86 6.79 2.34 8.45 0.88 10.81 C-2.1 12.7 -4.58 12.37 -8 12 C-10.45 8.32 -10.4 6.35 -10 2 C-6.3 -0.47 -4.38 -0.47 0 0 Z " fill="#7F8488" transform="translate(354,303)"/>
<path d="M0 0 C7.2 -0.36 7.2 -0.36 10.5 1.12 C12 3 12 3 12.5 6 C12 9 12 9 10.5 10.88 C6.88 12.51 3.95 12.2 0 12 C0 8.04 0 4.08 0 0 Z " fill="#6F6F6F" transform="translate(222,491)"/>
<path d="M0 0 C1.42 -0.06 2.85 -0.12 4.31 -0.19 C4.71 -0.2 4.71 -0.2 6.74 -0.29 C9 0 9 0 10.8 1.29 C12 3 12 3 11.88 6.56 C11 10 11 10 8 12 C5.96 12.2 5.96 12.2 3.81 12.12 C3.18 12.1 3.18 12.1 0 12 C0 8.04 0 4.08 0 0 Z " fill="#787D85" transform="translate(216,303)"/>
<path d="M0 0 C3 2 3 2 3.4 3.88 C3.39 4.58 3.38 5.28 3.38 6 C3.38 6.7 3.39 7.4 3.4 8.12 C3 10 3 10 0 12 C-4.07 12.34 -5.53 12.31 -9 10 C-9.4 8.12 -9.4 8.12 -9.38 6 C-9.38 5.3 -9.39 4.6 -9.4 3.88 C-8.4 -0.84 -3.85 -0.32 0 0 Z " fill="#767676" transform="translate(303,491)"/>
<path d="M0 0 C1.8 0.03 1.8 0.03 4 1 C5.28 3.55 6.3 5.9 7.25 8.56 C7.52 9.27 7.79 9.98 8.06 10.72 C8.72 12.47 9.36 14.24 10 16 C9.01 16 8.02 16 7 16 C6.67 14.68 6.34 13.36 6 12 C4.72 12.1 3.44 12.21 2.12 12.31 C1.41 12.37 0.69 12.43 -0.05 12.49 C-2 13 -2 13 -4 16 C-4.66 16 -5.32 16 -6 16 C-4.44 10.39 -2.84 5.13 0 0 Z " fill="#414957" transform="translate(338,120)"/>
<path d="M0 0 C4.4 1.1 4.8 1.55 7.25 5.06 C7.51 5.43 7.51 5.43 8.83 7.29 C9.21 7.85 9.6 8.42 10 9 C10.33 6.03 10.66 3.06 11 0 C11.66 0 12.32 0 13 0 C13 4.95 13 9.9 13 15 C8.46 12.73 7.05 10.9 4 7 C3.67 9.64 3.34 12.28 3 15 C2.01 15 1.02 15 0 15 C0 10.05 0 5.1 0 0 Z " fill="#192132" transform="translate(471,121)"/>
<path d="M0 0 C3.16 -0.4 5.14 -0.54 7.88 1.19 C9.41 3.66 9.43 5.15 9 8 C7.81 9.81 7.81 9.81 6 11 C3.11 11.43 1.65 11.43 -0.81 9.81 C-2.41 7.37 -2.36 5.87 -2 3 C-1.34 2.01 -0.68 1.02 0 0 Z " fill="#E3EAEE" transform="translate(387,123)"/>
<path d="M0 0 C2 2 2 2 2.38 4.94 C2 8 2 8 0.31 9.94 C-2.61 11.28 -3.99 11.03 -7 10 C-9 8 -9 8 -9.31 5.56 C-9 3 -9 3 -7.88 1.19 C-5.17 -0.53 -3.14 -0.33 0 0 Z " fill="#E4E9EE" transform="translate(463,123)"/>
<path d="M0 0 C0 0.99 0 1.98 0 3 C-2.64 2.67 -5.28 2.34 -8 2 C-7.67 2.99 -7.34 3.98 -7 5 C-5.02 5.72 -3.02 6.38 -1 7 C-0.34 7.66 0.32 8.32 1 9 C0.75 11.56 0.75 11.56 0 14 C-3.21 15.61 -6.44 15.06 -10 15 C-10.33 14.01 -10.66 13.02 -11 12 C-8.36 12 -5.72 12 -3 12 C-3 11.34 -3 10.68 -3 10 C-3.57 9.8 -3.57 9.8 -6.44 8.81 C-10 7 -10 7 -11.12 4.5 C-11 2 -11 2 -10.06 0.12 C-6.67 -1.72 -3.73 -0.67 0 0 Z " fill="#2A313A" transform="translate(499,121)"/>
<path d="M0 0 C6.39 -0.36 6.39 -0.36 9 1.19 C10 3 10 3 9.88 5.5 C8.92 8.23 8.42 9.42 6 11 C2.81 11.19 2.81 11.19 0 11 C0 7.37 0 3.74 0 0 Z " fill="#DFE5E9" transform="translate(295,123)"/>
<path d="M0 0 C0.66 0 1.32 0 2 0 C2.84 1.79 3.67 3.58 4.5 5.38 C4.96 6.37 5.43 7.37 5.91 8.4 C7 11 7 11 7 13 C3.04 13 -0.92 13 -5 13 C-3.58 8.53 -1.89 4.29 0 0 Z " fill="#D8E2E9" transform="translate(207,265)"/>
<path d="M0 0 C3.77 1.88 4.79 2.69 7 6 C7.31 5.5 7.31 5.5 8.88 3 C9.58 2.01 10.28 1.02 11 0 C11.66 0 12.32 0 13 0 C13 3.96 13 7.92 13 12 C12.34 12 11.68 12 11 12 C10.84 11.18 10.84 11.18 10 7 C8.68 8.32 7.36 9.64 6 11 C5.01 9.68 4.02 8.36 3 7 C2.67 8.65 2.34 10.3 2 12 C1.34 12 0.68 12 0 12 C0 8.04 0 4.08 0 0 Z " fill="#D7E7EF" transform="translate(727,491)"/>
<path d="M0 0 C0.66 0 1.32 0 2 0 C2.84 1.79 3.67 3.58 4.5 5.38 C4.96 6.37 5.43 7.37 5.91 8.4 C7 11 7 11 7 13 C3.37 13 -0.26 13 -4 13 C-3.41 8.15 -2.02 4.39 0 0 Z " fill="#DFDFDF" transform="translate(213,453)"/>
<path d="M0 0 C0.99 0 1.98 0 3 0 C5.19 2.5 5.19 2.5 7 5 C7.33 3.35 7.66 1.7 8 0 C8.99 0 9.98 0 11 0 C11 3.96 11 7.92 11 12 C6.41 10.85 5.66 9.71 3 6 C2.67 7.98 2.34 9.96 2 12 C1.34 12 0.68 12 0 12 C0 8.04 0 4.08 0 0 Z " fill="#D4E2EA" transform="translate(897,491)"/>
<path d="M0 0 C0.99 0 1.98 0 3 0 C3.08 1.92 3.14 3.83 3.19 5.75 C3.22 6.82 3.26 7.88 3.29 8.98 C2.97 12.35 2.42 13.68 0 16 C-5.9 16.74 -5.9 16.74 -8.71 14.86 C-10.58 12.16 -10.29 10.06 -10.19 6.81 C-10.16 5.73 -10.13 4.64 -10.11 3.52 C-10.07 2.69 -10.04 1.86 -10 1 C-9.34 1 -8.68 1 -8 1 C-7.67 4.63 -7.34 8.26 -7 12 C-6.01 12.16 -6.01 12.16 -1 13 C-0.67 8.71 -0.34 4.42 0 0 Z " fill="#1C1E2F" transform="translate(425,120)"/>
<path d="M0 0 C1.32 0.33 2.64 0.66 4 1 C3.01 3.97 2.02 6.94 1 10 C-0.32 9.67 -1.64 9.34 -3 9 C-4.67 8.66 -6.33 8.32 -8 8 C-8.62 5.62 -8.62 5.62 -9 3 C-8.34 2.34 -7.68 1.68 -7 1 C-3.38 1.38 -3.38 1.38 0 2 C0 1.34 0 0.68 0 0 Z " fill="#0E233E" transform="translate(786,492)"/>
<path d="M0 0 C1.32 0 2.64 0 4 0 C4.67 1.62 5.34 3.25 6 4.88 C6.37 5.78 6.74 6.68 7.12 7.62 C8 10 8 10 8 12 C7.01 12 6.02 12 5 12 C5 11.34 5 10.68 5 10 C2.69 10 0.38 10 -2 10 C-2 10.66 -2 11.32 -2 12 C-2.99 11.67 -3.98 11.34 -5 11 C-3.35 7.37 -1.7 3.74 0 0 Z " fill="#BDC7D0" transform="translate(791,491)"/>
<path d="M0 0 C6.72 0.72 6.72 0.72 8 2 C8.25 4.94 8.25 4.94 8 8 C4.79 10.14 3.72 10.48 0 10 C-2 7 -2 7 -1.69 3.88 C-1 1 -1 1 0 0 Z " fill="#7E858B" transform="translate(817,339)"/>
<path d="M0 0 C4.14 2.07 4.29 2.22 6 6 C6.66 6.33 7.32 6.66 8 7 C8.12 6.4 8.25 5.8 8.38 5.19 C9 3 9 3 11 0 C11.66 0 12.32 0 13 0 C13 3.96 13 7.92 13 12 C12.34 12 11.68 12 11 12 C10.67 10.02 10.34 8.04 10 6 C9.01 7.65 8.02 9.3 7 11 C6.67 10.34 6.34 9.68 6 9 C5.34 9 4.68 9 4 9 C3.67 8.01 3.34 7.02 3 6 C2.67 7.98 2.34 9.96 2 12 C1.34 12 0.68 12 0 12 C0 8.04 0 4.08 0 0 Z " fill="#191919" transform="translate(194,491)"/>
<path d="M0 0 C3.63 0 7.26 0 11 0 C11 0.66 11 1.32 11 2 C8.03 2 5.06 2 2 2 C2 3.32 2 4.64 2 6 C4.64 6 7.28 6 10 6 C10 6.66 10 7.32 10 8 C7.36 8 4.72 8 2 8 C2 9.65 2 11.3 2 13 C4.97 13 7.94 13 11 13 C11 13.66 11 14.32 11 15 C7.37 15 3.74 15 0 15 C0 10.05 0 5.1 0 0 Z " fill="#0F1320" transform="translate(278,121)"/>
<path d="M0 0 C2.88 -0.12 2.88 -0.12 6 0 C8 2 8 2 8.25 5 C8 8 8 8 6 10 C3.56 10.38 3.56 10.38 1 10 C-0.94 8.38 -0.94 8.38 -2 6 C-1.19 2.75 -1.19 2.75 0 0 Z " fill="#7F868B" transform="translate(860,339)"/>
<path d="M0 0 C0.66 0.33 1.32 0.66 2 1 C2 1.66 2 2.32 2 3 C-0.97 2.67 -3.94 2.34 -7 2 C-8.32 8.36 -8.32 8.36 -7 11 C-3.88 12.56 -1.31 11.69 2 11 C2 11.99 2 12.98 2 14 C-1.09 15.55 -3.59 15.29 -7 15 C-9.44 13.5 -9.44 13.5 -11 11 C-11.63 7.43 -11.8 4.18 -9.69 1.06 C-6.15 -1.17 -3.91 -1 0 0 Z " fill="#1C202D" transform="translate(328,121)"/>
<path d="M0 0 C3.77 1.88 4.79 2.69 7 6 C7.33 4.02 7.66 2.04 8 0 C8.99 0 9.98 0 11 0 C11 3.96 11 7.92 11 12 C10.01 12 9.02 12 8 12 C6.61 10.47 6.61 10.47 5.31 8.5 C4.88 7.85 4.44 7.2 3.99 6.53 C3.66 6.03 3.34 5.52 3 5 C2.67 7.31 2.34 9.62 2 12 C1.34 12 0.68 12 0 12 C0 8.04 0 4.08 0 0 Z " fill="#222222" transform="translate(364,491)"/>
<path d="M0 0 C2.97 0 5.94 0 9 0 C9 0.66 9 1.32 9 2 C6.69 2.33 4.38 2.66 2 3 C2 3.66 2 4.32 2 5 C2.57 5.15 2.57 5.15 5.44 5.94 C9 7 9 7 10 8 C10.19 10.44 10.19 10.44 10 13 C8 15 8 15 6.05 15.2 C4.04 15.13 2.02 15.07 0 15 C0 14.01 0 13.02 0 12 C2.31 12 4.62 12 7 12 C7 11.34 7 10.68 7 10 C4.36 9.01 1.72 8.02 -1 7 C-0.67 4.69 -0.34 2.38 0 0 Z " fill="#1A1F2A" transform="translate(370,121)"/>
<path d="M0 0 C4.29 0 8.58 0 13 0 C13 0.99 13 1.98 13 3 C11.35 3 9.7 3 8 3 C8 7.29 8 11.58 8 16 C7.01 16 6.02 16 5 16 C5 11.71 5 7.42 5 3 C3.35 3 1.7 3 0 3 C0 2.01 0 1.02 0 0 Z " fill="#37404C" transform="translate(430,120)"/>
<path d="M0 0 C0.99 0 1.98 0 3 0 C3.33 2.97 3.66 5.94 4 9 C5.32 9.33 6.64 9.66 8 10 C8 6.7 8 3.4 8 0 C8.99 0 9.98 0 11 0 C11.05 1.62 11.09 3.25 11.12 4.88 C11.15 5.78 11.17 6.68 11.2 7.62 C11 10 11 10 9 12 C5.5 12.25 5.5 12.25 2 12 C0 10 0 10 -0.2 7.62 C-0.17 6.71 -0.15 5.81 -0.12 4.88 C-0.11 3.96 -0.09 3.05 -0.07 2.12 C-0.05 1.42 -0.02 0.72 0 0 Z " fill="#CBD8E4" transform="translate(852,491)"/>
<path d="M0 0 C0.66 0 1.32 0 2 0 C2 2.64 2 5.28 2 8 C3.32 7.67 4.64 7.34 6 7 C6.33 4.69 6.66 2.38 7 0 C10.63 0 14.26 0 18 0 C18 0.66 18 1.32 18 2 C17.01 2 16.02 2 15 2 C15 4.64 15 7.28 15 10 C14.34 10 13.68 10 13 10 C13 7.36 13 4.72 13 2 C12.01 2 11.02 2 10 2 C9.69 3.13 9.38 4.27 9.06 5.44 C8 9 8 9 7 10 C4.56 10.25 4.56 10.25 2 10 C-0.43 6.36 -0.16 4.29 0 0 Z " fill="#494D51" transform="translate(835,339)"/>
<path d="M0 0 C1.13 0.02 2.27 0.04 3.44 0.06 C3.44 0.72 3.44 1.38 3.44 2.06 C1.46 2.06 -0.52 2.06 -2.56 2.06 C-2.56 3.05 -2.56 4.04 -2.56 5.06 C-1.78 5.02 -1 4.98 -0.19 4.94 C2.44 5.06 2.44 5.06 4.44 7.06 C4.06 9.69 4.06 9.69 3.44 12.06 C-3.31 13.19 -3.31 13.19 -5.56 12.06 C-5.56 11.4 -5.56 10.74 -5.56 10.06 C-3.25 10.06 -0.94 10.06 1.44 10.06 C1.44 9.4 1.44 8.74 1.44 8.06 C-0.87 7.4 -3.18 6.74 -5.56 6.06 C-4.49 0.08 -4.49 0.08 0 0 Z " fill="#C2D2DF" transform="translate(915.5625,490.9375)"/>
<path d="M0 0 C5.43 -0.36 5.43 -0.36 7.88 1.19 C9.36 3.59 9.29 5.23 9 8 C8 9 8 9 6.15 9.1 C4.1 9.07 2.05 9.03 0 9 C0 6.03 0 3.06 0 0 Z " fill="#7E8488" transform="translate(759,339)"/>
<path d="M0 0 C2.97 0 5.94 0 9 0 C9 0.66 9 1.32 9 2 C7.02 2 5.04 2 3 2 C3 2.66 3 3.32 3 4 C4.65 4 6.3 4 8 4 C8 4.99 8 5.98 8 7 C6.35 7 4.7 7 3 7 C3 7.99 3 8.98 3 10 C4.98 10 6.96 10 9 10 C9 10.66 9 11.32 9 12 C6.03 12 3.06 12 0 12 C0 8.04 0 4.08 0 0 Z " fill="#424851" transform="translate(204,303)"/>
<path d="M0 0 C1.86 0.22 1.86 0.22 4 1 C5.27 3 5.27 3 6.25 5.44 C6.59 6.24 6.92 7.04 7.27 7.87 C8 10 8 10 8 12 C7.01 12 6.02 12 5 12 C5 11.01 5 10.02 5 9 C2.06 9.38 2.06 9.38 -1 10 C-1.33 10.66 -1.66 11.32 -2 12 C-2.99 11.67 -3.98 11.34 -5 11 C-4.35 9.54 -3.71 8.08 -3.06 6.62 C-2.7 5.81 -2.34 5 -1.97 4.16 C-1.34 2.76 -0.69 1.37 0 0 Z " fill="#3B3B3B" transform="translate(258,491)"/>
<path d="M0 0 C0.33 0.66 0.66 1.32 1 2 C-1.92 3.15 -4.83 4.29 -7.75 5.44 C-8.58 5.76 -9.4 6.09 -10.25 6.42 C-11.05 6.74 -11.85 7.05 -12.67 7.37 C-13.41 7.66 -14.14 7.95 -14.89 8.24 C-16.91 8.97 -18.91 9.52 -21 10 C-20.93 8.2 -20.93 8.2 -20 6 C-17.68 4.73 -15.57 3.75 -13.12 2.81 C-12.49 2.55 -11.85 2.29 -11.19 2.03 C-3.38 -1.13 -3.38 -1.13 0 0 Z " fill="#141F31" transform="translate(823,104)"/>
<path d="M0 0 C2.02 0.07 4.04 0.13 6.05 0.2 C6.38 1.19 6.71 2.18 7.05 3.2 C4.74 3.2 2.43 3.2 0.05 3.2 C-0.28 4.85 -0.61 6.5 -0.95 8.2 C-0.18 8.34 0.58 8.48 1.37 8.63 C4.05 9.2 4.05 9.2 7.05 10.2 C5.32 12.39 4.42 13.13 1.62 13.63 C-0.95 13.2 -0.95 13.2 -3.32 11.63 C-4.95 9.2 -4.95 9.2 -4.82 5.57 C-3.47 0.35 -3.47 0.35 0 0 Z " fill="#C5D7E4" transform="translate(778.9453125,490.8046875)"/>
<path d="M0 0 C0.33 1.32 0.66 2.64 1 4 C0.01 3.83 0.01 3.83 -5 3 C-5 3.99 -5 4.98 -5 6 C-4.22 5.96 -3.43 5.92 -2.62 5.88 C0 6 0 6 2 8 C1.62 10.62 1.62 10.62 1 13 C-1.97 13 -4.94 13 -8 13 C-8 12.34 -8 11.68 -8 11 C-5.69 11 -3.38 11 -1 11 C-2 9 -2 9 -4.5 8.12 C-7 7 -7 7 -8 5.06 C-8 3 -8 3 -6.88 1.25 C-4.46 -0.36 -2.84 -0.23 0 0 Z " fill="#C7D5E2" transform="translate(823,490)"/>
<path d="M0 0 C0.99 0 1.98 0 3 0 C3 4.29 3 8.58 3 13 C5.64 13 8.28 13 11 13 C11 13.99 11 14.98 11 16 C7.37 16 3.74 16 0 16 C0 10.72 0 5.44 0 0 Z " fill="#28303C" transform="translate(350,120)"/>
<path d="M0 0 C0.95 0.04 1.9 0.08 2.88 0.12 C3.21 0.79 3.53 1.44 3.88 2.12 C1.89 2.45 -0.09 2.79 -2.12 3.12 C-2.46 4.77 -2.78 6.43 -3.12 8.12 C3.5 7.38 3.5 7.38 6.88 5.12 C9.06 5.5 9.06 5.5 10.88 6.12 C10.54 4.81 10.22 3.49 9.88 2.12 C9.22 2.12 8.55 2.12 7.88 2.12 C7.88 1.46 7.88 0.81 7.88 0.12 C10.88 1.12 10.88 1.12 11.82 2.97 C11.95 3.34 11.95 3.34 12.56 5.19 C12.81 5.92 13.07 6.65 13.32 7.41 C13.51 7.98 13.69 8.54 13.88 9.12 C13.22 9.12 12.55 9.12 11.88 9.12 C11.88 8.46 11.88 7.81 11.88 7.12 C10.23 7.12 8.58 7.12 6.88 7.12 C6.88 8.12 6.88 9.11 6.88 10.12 C5.25 10.21 3.63 10.26 2 10.31 C1.55 10.33 1.55 10.33 -0.74 10.42 C-1.14 10.37 -1.14 10.37 -3.12 10.12 C-5.27 6.9 -5.51 5.86 -5.12 2.12 C-3.12 0.12 -3.12 0.12 0 0 Z " fill="#3E4348" transform="translate(779.125,338.875)"/>
<path d="M0 0 C1.86 0.22 1.86 0.22 4 1 C5.27 3 5.27 3 6.25 5.44 C6.59 6.24 6.92 7.04 7.27 7.87 C8 10 8 10 8 12 C7.34 12 6.68 12 6 12 C5.67 11.34 5.34 10.68 5 10 C2.68 9.59 0.34 9.26 -2 9 C-2 9.99 -2 10.98 -2 12 C-2.66 12 -3.32 12 -4 12 C-3.34 9.15 -2.48 6.48 -1.44 3.75 C-1.3 3.4 -1.3 3.4 -0.62 1.61 C-0.42 1.08 -0.21 0.55 0 0 Z " fill="#444951" transform="translate(252,303)"/>
<path d="M0 0 C4.01 2 5.41 3.49 8 7 C8.33 4.69 8.66 2.38 9 0 C9.66 0 10.32 0 11 0 C11 3.96 11 7.92 11 12 C6.99 10 5.59 8.51 3 5 C2.67 7.31 2.34 9.62 2 12 C1.34 12 0.68 12 0 12 C0 8.04 0 4.08 0 0 Z " fill="#0A0E16" transform="translate(359,303)"/>
<path d="M0 0 C3.3 1.65 3.76 4.67 5 8 C5 9.32 5 10.64 5 12 C2.03 12 -0.94 12 -4 12 C-3.46 7.44 -2.21 4.03 0 0 Z " fill="#152A44" transform="translate(747,453)"/>
<path d="M0 0 C0.66 0 1.32 0 2 0 C2 3.96 2 7.92 2 12 C0.51 11.67 0.51 11.67 -7 10 C-7 9.01 -7 8.02 -7 7 C-5.02 7 -3.04 7 -1 7 C-1 6.34 -1 5.68 -1 5 C-2.98 5 -4.96 5 -7 5 C-7 4.01 -7 3.02 -7 2 C-4.69 2 -2.38 2 0 2 C0 1.34 0 0.68 0 0 Z " fill="#121F30" transform="translate(753,491)"/>
<path d="M0 0 C0.33 0.99 0.66 1.98 1 3 C0.34 3 -0.32 3 -1 3 C-1.1 3.34 -1.1 3.34 -1.62 5.06 C-4.73 11.69 -10.16 17.2 -17 20 C-17.99 19.67 -18.98 19.34 -20 19 C-17.61 16.41 -15.11 14.34 -12.25 12.31 C-7.47 8.82 -3.78 4.52 0 0 Z " fill="#1B2638" transform="translate(706,470)"/>
<path d="M0 0 C0.99 0 1.98 0 3 0 C3.33 2.97 3.66 5.94 4 9 C5.32 9 6.64 9 8 9 C8.33 6.03 8.66 3.06 9 0 C9.66 0 10.32 0 11 0 C11.05 1.44 11.09 2.87 11.12 4.31 C11.15 5.11 11.17 5.91 11.2 6.74 C11 9 11 9 9 12 C4.95 12.43 3.45 12.3 0 10 C-0.29 7.62 -0.29 7.62 -0.19 4.88 C-0.16 3.96 -0.13 3.05 -0.11 2.12 C-0.07 1.42 -0.04 0.72 0 0 Z " fill="#262626" transform="translate(319,491)"/>
<path d="M0 0 C0.99 0 1.98 0 3 0 C3 3.63 3 7.26 3 11 C2.01 11.33 1.02 11.66 0 12 C0 11.34 0 10.68 0 10 C-1.98 10 -3.96 10 -6 10 C-6 9.01 -6 8.02 -6 7 C-4.35 7 -2.7 7 -1 7 C-1 6.01 -1 5.02 -1 4 C-2.65 4 -4.3 4 -6 4 C-6 3.34 -6 2.68 -6 2 C-4.02 2 -2.04 2 0 2 C0 1.34 0 0.68 0 0 Z " fill="#E7ECF1" transform="translate(213,303)"/>
</svg>
