<?xml version="1.0" encoding="UTF-8"?>
<!-- Generator: visioncortex VTracer 0.6.5 -->
<svg version="1.1" xmlns="http://www.w3.org/2000/svg" width="1024" height="559">
<path d="M0 0 C337.92 0 675.84 0 1024 0 C1024 184.47 1024 368.94 1024 559 C686.08 559 348.16 559 0 559 C0 374.53 0 190.06 0 0 Z " fill="#DDE6E7" transform="translate(0,0)"/>
<path d="M0 0 C13.86 0 27.72 0 42 0 C42 122.43 42 244.86 42 371 C234.39 370.67 426.78 370.34 625 370 C625 247.9 625 125.8 625 0 C756.67 0 888.34 0 1024 0 C1024 136.29 1024 272.58 1024 413 C686.08 413 348.16 413 0 413 C0 276.71 0 140.42 0 0 Z " fill="#EEF4F4" transform="translate(0,146)"/>
<path d="M0 0 C337.92 0 675.84 0 1024 0 C1024 47.85 1024 95.7 1024 145 C686.08 145 348.16 145 0 145 C0 97.15 0 49.3 0 0 Z " fill="#FBFCFC" transform="translate(0,0)"/>
<path d="M0 0 C13.86 0 27.72 0 42 0 C42 122.43 42 244.86 42 371 C352.2 371 662.4 371 982 371 C982 248.57 982 126.14 982 0 C995.86 0 1009.72 0 1024 0 C1024 136.29 1024 272.58 1024 413 C686.08 413 348.16 413 0 413 C0 276.71 0 140.42 0 0 Z " fill="#FDFEFD" transform="translate(0,146)"/>
<path d="M0 0 C101.64 0 203.28 0 308 0 C308 2.64 308 5.28 308 8 C206.36 8 104.72 8 0 8 C0 5.36 0 2.72 0 0 Z " fill="#32A9A9" transform="translate(674,0)"/>
<path d="M0 0 C0.33 0 0.66 0 1 0 C0.61 6.56 -0.42 11.95 -3 18 C-2.34 18 -1.68 18 -1 18 C-0.79 18.56 -0.58 19.12 -0.37 19.7 C1.96 25.76 4.68 31.52 7.71 37.26 C9.16 40.07 10 41.79 10 45 C4.39 45 -1.22 45 -7 45 C-8.13 42.63 -9.27 40.26 -10.44 37.81 C-10.79 37.07 -11.15 36.34 -11.52 35.58 C-13.17 32.07 -14.46 28.89 -15 25 C-16.05 25.28 -17.1 25.55 -18.18 25.84 C-19.6 26.21 -21.02 26.57 -22.44 26.94 C-23.17 27.13 -23.9 27.33 -24.66 27.53 C-28.6 28.54 -32.03 29.12 -36.12 29 C-38.16 29.13 -38.16 29.13 -40 30 C-43.24 34.62 -45.22 39.67 -47 45 C-52.61 45 -58.22 45 -64 45 C-62.13 37.54 -60.08 31.04 -54 26 C-53.22 25.3 -52.43 24.6 -51.62 23.88 C-45.66 19.61 -39.75 18.42 -32.62 17.5 C-23.11 16.26 -15.24 13.94 -7 9 C-6.01 8.67 -5.02 8.34 -4 8 C-2.94 5.62 -2.94 5.62 -2 3 C-1.34 2.01 -0.68 1.02 0 0 Z " fill="#30A1A9" transform="translate(107,58)"/>
<path d="M0 0 C4.76 1.62 7.74 4.18 11 8 C12.71 13.24 13.29 19.26 10.91 24.32 C7.68 28.96 4.55 31.47 -1 33 C-6.85 33.56 -11.84 32.98 -17 30 C-20.51 26.82 -22.78 23.51 -23.2 18.7 C-23.36 9.91 -23.36 9.91 -20 6 C-19.57 5.46 -19.14 4.92 -18.7 4.37 C-13.4 -1.3 -7.34 -0.95 0 0 Z " fill="#154F6F" transform="translate(285,50)"/>
<path d="M0 0 C0.8 0 1.6 0.01 2.43 0.01 C4.41 0.03 6.39 0.04 8.38 0.06 C9.85 3.23 11.31 6.41 12.77 9.59 C13.73 11.66 14.7 13.73 15.7 15.79 C16.07 16.56 16.43 17.33 16.81 18.12 C17.14 18.8 17.47 19.47 17.81 20.16 C18.54 22.62 18.47 23.73 17.38 26.06 C15.16 27.55 15.16 27.55 12.44 28.81 C11.54 29.24 10.65 29.67 9.72 30.11 C7.38 31.06 7.38 31.06 5.38 31.06 C4.53 29.32 3.7 27.57 2.88 25.81 C2.41 24.84 1.95 23.86 1.47 22.86 C0.38 20.06 0.38 20.06 0.38 16.06 C-0.28 16.06 -0.94 16.06 -1.62 16.06 C-1.8 16.62 -1.97 17.18 -2.14 17.75 C-2.92 20.21 -3.77 22.63 -4.62 25.06 C-4.83 25.8 -5.04 26.54 -5.26 27.3 C-6.12 29.71 -6.86 31.19 -8.62 33.06 C-11.83 34.46 -14.94 35.36 -18.34 36.18 C-21.72 37.09 -24.55 38.4 -27.62 40.06 C-26.34 35.15 -24.7 30.78 -22.5 26.19 C-21.88 24.89 -21.26 23.58 -20.64 22.28 C-20.47 21.94 -20.47 21.94 -19.65 20.22 C-18.57 17.94 -17.51 15.64 -16.46 13.34 C-16.1 12.57 -15.74 11.79 -15.37 10.99 C-14.67 9.47 -13.98 7.96 -13.29 6.43 C-10 -0.65 -7.33 -0.08 0 0 Z " fill="#0C4C75" transform="translate(80.625,39.9375)"/>
<path d="M0 0 C33.99 0 67.98 0 103 0 C103 2.64 103 5.28 103 8 C69.01 8 35.02 8 0 8 C0 5.36 0 2.72 0 0 Z " fill="#104F75" transform="translate(879,0)"/>
<path d="M0 0 C0.33 0 0.66 0 1 0 C1.33 117.81 1.66 235.62 2 357 C-115.81 356.67 -233.62 356.34 -355 356 C-355 355.67 -355 355.34 -355 355 C-354.25 355 -353.5 355 -352.73 355 C-308.41 355.02 -264.08 355.04 -219.76 355.05 C-214.44 355.05 -209.13 355.05 -203.81 355.05 C-202.75 355.06 -201.69 355.06 -200.6 355.06 C-183.44 355.06 -166.28 355.07 -149.12 355.08 C-131.52 355.09 -113.93 355.09 -96.33 355.09 C-85.47 355.1 -74.6 355.1 -63.73 355.11 C-56.29 355.11 -48.85 355.11 -41.41 355.11 C-37.11 355.11 -32.81 355.11 -28.51 355.12 C-24.58 355.12 -20.65 355.12 -16.72 355.12 C-15.29 355.12 -13.86 355.12 -12.44 355.12 C-10.51 355.13 -8.58 355.13 -6.65 355.12 C-6.11 355.12 -6.11 355.12 -3.39 355.12 C-1 355 -1 355 0 354 C0.1 352.12 0.12 350.23 0.12 348.35 C0.13 347.11 0.13 345.88 0.13 344.61 C0.13 343.22 0.12 341.83 0.12 340.44 C0.12 338.98 0.12 337.52 0.12 336.06 C0.13 332.02 0.12 327.99 0.12 323.96 C0.11 319.61 0.11 315.27 0.11 310.93 C0.11 303.4 0.11 295.87 0.11 288.33 C0.1 277.45 0.1 266.56 0.09 255.67 C0.09 238.01 0.08 220.34 0.08 202.68 C0.07 185.52 0.06 168.35 0.05 151.19 C0.05 150.13 0.05 149.08 0.05 147.99 C0.05 142.68 0.05 137.38 0.05 132.08 C0.04 88.05 0.02 44.03 0 0 Z " fill="#C4DDDA" transform="translate(980,160)"/>
<path d="M0 0 C33.66 0 67.32 0 102 0 C102 2.31 102 4.62 102 7 C68.01 7 34.02 7 -1 7 C-0.67 4.69 -0.34 2.38 0 0 Z " fill="#2785B6" transform="translate(777,0)"/>
<path d="M0 0 C2.97 0 5.94 0 9 0 C23 27.68 23 27.68 23 32 C20.36 32 17.72 32 15 32 C14.34 30.02 13.68 28.04 13 26 C7.72 26.33 2.44 26.66 -3 27 C-3.33 27.83 -3.33 27.83 -5 32 C-7.64 32 -10.28 32 -13 32 C-11.13 24.42 -8.1 17.61 -4.72 10.61 C-3.03 7.12 -1.51 3.57 0 0 Z " fill="#185272" transform="translate(140,50)"/>
<path d="M0 0 C2.64 0 5.28 0 8 0 C8 4.62 8 9.24 8 14 C8.64 13.36 9.28 12.72 9.94 12.06 C10.4 11.62 10.85 11.17 11.32 10.71 C12.6 9.41 13.82 8.05 15.02 6.66 C20.77 0.27 20.77 0.27 24.58 -0.58 C27.06 -0.56 27.06 -0.56 31 0 C28 3.59 25.02 7.02 21.56 10.19 C20.72 11.12 19.87 12.04 19 13 C19.29 16.12 20.55 18.03 22.5 20.42 C23 21.03 23.49 21.65 24 22.28 C24.51 22.91 25.03 23.54 25.56 24.19 C31 30.89 31 30.89 31 32 C27.9 32.43 25.09 32.58 22 32 C19.49 30.02 17.85 27.58 16 25 C14.38 23.27 12.7 21.65 11 20 C8.61 23.83 8.44 27.6 8 32 C5.36 32 2.72 32 0 32 C0 21.44 0 10.88 0 0 Z " fill="#165172" transform="translate(167,50)"/>
<path d="M0 0 C8.25 0 16.5 0 25 0 C25 1.98 25 3.96 25 6 C19.39 6 13.78 6 8 6 C8 8.31 8 10.62 8 13 C12.95 13 17.9 13 23 13 C23 14.98 23 16.96 23 19 C18.05 19 13.1 19 8 19 C8 21.31 8 23.62 8 26 C13.94 26 19.88 26 26 26 C26 27.98 26 29.96 26 32 C17.42 32 8.84 32 0 32 C0 21.44 0 10.88 0 0 Z " fill="#18506F" transform="translate(202,50)"/>
<path d="M0 0 C1.13 -0.01 2.26 -0.03 3.43 -0.04 C6.62 0.18 8.82 0.82 11.69 2.19 C11.03 4.17 10.37 6.15 9.69 8.19 C9.41 8.11 9.41 8.11 8.02 7.69 C5.42 7.13 3.09 7.09 0.44 7.12 C-0.01 7.13 -0.01 7.13 -2.27 7.15 C-2.94 7.16 -3.62 7.18 -4.31 7.19 C-4.31 8.51 -4.31 9.83 -4.31 11.19 C-3.59 11.36 -2.86 11.53 -2.12 11.7 C8.71 14.42 8.71 14.42 12.69 18.19 C13.87 22.01 14.06 24.17 12.69 27.94 C9.52 31.5 6.13 32.87 1.51 33.47 C-4.06 33.69 -8.23 32.4 -13.31 30.19 C-12.98 28.21 -12.65 26.23 -12.31 24.19 C-9.55 24.71 -6.99 25.3 -4.31 26.19 C2.23 26.42 2.23 26.42 4.69 25.19 C4.69 24.2 4.69 23.21 4.69 22.19 C3.64 21.87 2.59 21.56 1.51 21.23 C0.13 20.8 -1.25 20.37 -2.62 19.94 C-3.32 19.73 -4.01 19.53 -4.72 19.32 C-7.76 18.35 -9.99 17.51 -12.26 15.23 C-13.91 12.02 -13.81 9.73 -13.31 6.19 C-9.03 1.01 -6.55 0.04 0 0 Z " fill="#185170" transform="translate(245.3125,49.8125)"/>
<path d="M0 0 C1 2 1 2 0.06 5.12 C-0.11 5.6 -0.11 5.6 -1 8 C0.32 8 1.64 8 3 8 C2.67 10.31 2.34 12.62 2 15 C6.95 17.64 11.9 20.28 17 23 C16.67 23.17 16.67 23.17 15 24 C12.66 23.01 10.33 22 8 21 C6.68 21 5.36 21 4 21 C4 20.01 4 19.02 4 18 C2.68 17.67 1.36 17.34 0 17 C0 15.02 0 13.04 0 11 C-1.98 11.33 -3.96 11.66 -6 12 C-5.33 10 -4.67 8 -4 6 C-8.94 9.84 -12.6 13.22 -15.12 19 C-16.5 22.15 -18.27 25.04 -20 28 C-18.68 28.33 -17.36 28.66 -16 29 C-16.82 29.17 -16.82 29.17 -21 30 C-21.33 28.68 -21.66 27.36 -22 26 C-25 29.62 -25 29.62 -25 33 C-26.57 34.65 -26.57 34.65 -28.56 36.38 C-30.51 38.21 -30.51 38.21 -32 40 C-31.94 42.94 -31.94 42.94 -31 45 C-31.33 44.34 -31.66 43.68 -32 43 C-34.06 42.38 -34.06 42.38 -36 42 C-36 40.02 -36 38.04 -36 36 C-37.32 36.66 -38.64 37.32 -40 38 C-39.67 36.35 -39.34 34.7 -39 33 C-38.34 33 -37.68 33 -37 33 C-37 32.34 -37 31.68 -37 31 C-36.34 31 -35.68 31 -35 31 C-35 30.34 -35 29.68 -35 29 C-34.34 29 -33.68 29 -33 29 C-32.67 27.68 -32.34 26.36 -32 25 C-34.31 24.01 -36.62 23.02 -39 22 C-35 19.17 -31.57 20.24 -27 21 C-26.44 20.09 -25.89 19.19 -25.31 18.25 C-23.07 15.1 -21.05 13.31 -18 11 C-17.11 10.11 -16.23 9.23 -15.31 8.31 C-13 6 -13 6 -11 5 C-11 3.68 -11 2.36 -11 1 C-9.35 1 -7.7 1 -6 1 C-6.33 1.99 -6.66 2.98 -7 4 C-6.01 4 -5.02 4 -4 4 C-4 3.34 -4 2.68 -4 2 C-2.68 1.34 -1.36 0.68 0 0 Z " fill="#68BFBF" transform="translate(227,266)"/>
<path d="M0 0 C4.95 0 9.9 0 15 0 C15.33 1.32 15.66 2.64 16 4 C16.54 3.32 17.07 2.64 17.62 1.94 C20 0 20 0 23.12 0.06 C26 1 26 1 28 4 C28.33 2.68 28.66 1.36 29 0 C30.32 0 31.64 0 33 0 C33 5.94 33 11.88 33 18 C31.68 18 30.36 18 29 18 C28.67 17.01 28.34 16.02 28 15 C27.01 15.66 26.02 16.32 25 17 C20.93 17.34 19.47 17.31 16 15 C15.67 15.66 15.34 16.32 15 17 C13.68 17 12.36 17 11 17 C10.67 12.38 10.34 7.76 10 3 C7.69 3 5.38 3 3 3 C3 4.65 3 6.3 3 8 C4.65 8 6.3 8 8 8 C8 8.66 8 9.32 8 10 C6.35 10 4.7 10 3 10 C3 12.31 3 14.62 3 17 C2.01 17 1.02 17 0 17 C0 11.39 0 5.78 0 0 Z " fill="#7C9FAB" transform="translate(755,207)"/>
<path d="M0 0 C2.57 1.07 2.57 1.07 4.27 4.24 C4.76 5.57 5.24 6.92 5.7 8.26 C6.17 9.59 6.66 10.92 7.14 12.24 C7.37 12.89 7.6 13.54 7.84 14.2 C8.57 16.07 8.57 16.07 10.31 19.31 C11.57 22.07 11.57 22.07 11.57 24.28 C10.11 26.9 8.32 27.57 5.63 28.82 C4.74 29.25 3.84 29.68 2.92 30.12 C0.57 31.07 0.57 31.07 -1.43 31.07 C-2.25 29.33 -3.06 27.58 -3.87 25.82 C-4.32 24.85 -4.77 23.88 -5.24 22.87 C-7.32 17.98 -8.02 13.4 -7.43 8.07 C-4.19 0.13 -4.19 0.13 0 0 Z " fill="#3188B3" transform="translate(87.4296875,39.92578125)"/>
<path d="M0 0 C0.66 0.99 1.32 1.98 2 3 C2.54 2.69 3.07 2.38 3.62 2.06 C6.4 0.82 9 0.41 12 0 C15.93 4.65 15.93 4.65 16.11 8.33 C15.51 14.49 15.51 14.49 13 17 C6.74 17.57 6.74 17.57 4.06 15.5 C3.71 15 3.36 14.51 3 14 C2.65 14.5 2.3 14.99 1.94 15.5 C-1.02 17.79 -3.39 17.39 -7 17 C-9.22 13.67 -9.3 12.4 -9.31 8.5 C-9.33 7.54 -9.35 6.58 -9.36 5.59 C-9 3 -9 3 -7.67 1.18 C-5.09 -0.65 -3.06 -0.39 0 0 Z " fill="#CDE5EE" transform="translate(656,207)"/>
<path d="M0 0 C2.75 1.8 4.53 3.05 6 6 C6.35 11.35 6.44 14.63 3 19 C-0.45 20.72 -4.23 20.5 -8 20 C-10.5 18.12 -11.62 16.76 -13 14 C-13.58 6.91 -13.58 6.91 -11.12 3.06 C-7.52 -0.44 -4.97 -0.42 0 0 Z " fill="#EFF8F9" transform="translate(283,56)"/>
<path d="M0 0 C10.6 3.47 21.09 7.03 31.22 11.73 C39.71 15.6 47.58 18.77 57 19 C56.83 19.5 56.83 19.5 56 22 C59.41 22.78 62.51 23.1 66 23 C66 23.99 66 24.98 66 26 C66.85 26.05 67.71 26.1 68.59 26.15 C69.69 26.22 70.8 26.3 71.94 26.38 C73.04 26.44 74.14 26.51 75.28 26.59 C76.18 26.72 77.07 26.86 78 27 C78.16 27.33 78.16 27.33 79 29 C78.5 29.17 78.5 29.17 76 30 C76.33 30.33 76.33 30.33 78 32 C74.7 32 71.4 32 68 32 C67.01 33.98 66.02 35.96 65 38 C62.69 37.67 60.38 37.34 58 37 C58 35.68 58 34.36 58 33 C60.94 30.81 60.94 30.81 64 29 C64.16 28.83 64.16 28.83 65 28 C57.62 28.37 57.62 28.37 54.5 31.56 C54 32.37 53.51 33.17 53 34 C52.01 33.67 51.02 33.34 50 33 C50 32.34 50 31.68 50 31 C51.53 29.71 51.53 29.71 53.5 28.38 C54.15 27.93 54.8 27.48 55.47 27.02 C55.97 26.69 56.48 26.35 57 26 C54 24 54 24 51.62 24.06 C49 25 49 25 46.44 27.62 C45.63 28.41 44.83 29.19 44 30 C41.69 29.81 41.69 29.81 40 29 C40 28.34 40 27.68 40 27 C41.53 25.71 41.53 25.71 43.5 24.38 C44.15 23.93 44.8 23.48 45.47 23.02 C45.97 22.69 46.48 22.35 47 22 C44.97 19.97 43.79 19.37 41.18 18.34 C40.4 18.02 39.61 17.71 38.8 17.39 C37.95 17.05 37.11 16.72 36.23 16.38 C35.36 16.03 34.48 15.68 33.58 15.32 C30.79 14.21 27.99 13.1 25.19 12 C23.31 11.26 21.44 10.51 19.56 9.77 C16.11 8.4 12.66 7.03 9.21 5.66 C6.14 4.45 3.07 3.23 0 2 C0 1.34 0 0.68 0 0 Z " fill="#8F9295" transform="translate(260,278)"/>
<path d="M0 0 C13.6 4.49 26.71 10 39.87 15.66 C44.4 17.6 48.95 19.52 53.5 21.44 C54.27 21.76 55.03 22.08 55.82 22.42 C61.19 24.67 66.58 26.88 72 29 C72 29.66 72 30.32 72 31 C66.25 32.63 62.93 31.13 57.75 28.75 C56.06 28.01 54.38 27.26 52.69 26.52 C51.78 26.12 50.87 25.71 49.94 25.3 C44.55 22.92 39.11 20.66 33.69 18.38 C24.78 14.61 15.88 10.83 7 7 C7 6.34 7 5.68 7 5 C6.01 4.83 6.01 4.83 1 4 C0.67 4.5 0.67 4.5 -1 7 C-1.66 6.67 -2.32 6.34 -3 6 C-2.67 4.68 -2.34 3.36 -2 2 C-1.34 2 -0.68 2 0 2 C0 1.34 0 0.68 0 0 Z " fill="#AAADAF" transform="translate(319,367)"/>
<path d="M0 0 C0.66 0 1.32 0 2 0 C2.84 2.12 3.67 4.25 4.5 6.38 C4.96 7.56 5.43 8.74 5.91 9.96 C7 13 7 13 7 15 C7.63 14.7 8.25 14.4 8.9 14.09 C9.72 13.71 10.53 13.33 11.38 12.94 C12.19 12.55 13 12.17 13.84 11.78 C14.55 11.52 15.26 11.26 16 11 C16.66 11.33 17.32 11.66 18 12 C17.67 12.99 17.34 13.98 17 15 C8.93 18.87 -0.33 20.17 -9.13 21.46 C-15.51 22.41 -19.78 24.25 -25 28 C-25.66 28.33 -26.32 28.66 -27 29 C-27 27.35 -27 25.7 -27 24 C-22.1 20.94 -18.14 18.95 -12.38 18.19 C-9.37 17.5 -7.61 16.89 -5.83 14.31 C-3.41 9.72 -1.65 4.91 0 0 Z " fill="#D4F0F4" transform="translate(79,56)"/>
<path d="M0 0 C2.89 0.4 4.67 0.74 7 2.56 C9.5 4.36 10.99 4.16 14 4 C15 5 15 5 15.31 8.19 C14.95 12.58 13.68 14.57 11 18 C6.25 17.12 6.25 17.12 4 16 C4 15.01 4 14.02 4 13 C3.43 13.09 3.43 13.09 0.56 13.56 C-0.03 13.63 -0.03 13.63 -3 14 C-4 13 -4 13 -4.31 9.81 C-3.95 5.42 -2.68 3.43 0 0 Z " fill="#818183" transform="translate(361,341)"/>
<path d="M0 0 C-0.92 5.36 -2.93 9.98 -5 15 C-10.61 15 -16.22 15 -22 15 C-20.3 8.19 -20.3 8.19 -16.81 6 C-15.55 5.32 -14.28 4.66 -13 4 C-12.47 3.72 -12.47 3.72 -9.81 2.31 C-6.31 0.68 -3.86 0 0 0 Z " fill="#145177" transform="translate(65,88)"/>
<path d="M0 0 C3.72 -0.48 4.79 -0.14 8 2 C8 2.66 8 3.32 8 4 C9.32 4 10.64 4 12 4 C12 7.3 12 10.6 12 14 C12.99 13.67 13.98 13.34 15 13 C15.33 10.03 15.66 7.06 16 4 C16.33 4 16.66 4 17 4 C17 7.63 17 11.26 17 15 C11.38 16.12 11.38 16.12 8 14 C7.01 14.66 6.02 15.32 5 16 C1.68 15.68 0.39 15.39 -2 13 C-2.27 10.72 -2.27 10.72 -2.25 8.06 C-2.26 7.19 -2.26 6.31 -2.27 5.41 C-2 3 -2 3 0 0 Z " fill="#919B9F" transform="translate(943,64)"/>
<path d="M0 0 C1.98 0 3.96 0 6 0 C6 0.66 6 1.32 6 2 C4.35 2 2.7 2 1 2 C1 3.32 1 4.64 1 6 C3.94 5.25 3.94 5.25 7 4 C7.88 1.88 7.88 1.88 8 0 C8.66 0 9.32 0 10 0 C11.32 2.64 12.64 5.28 14 8 C14.33 5.36 14.66 2.72 15 0 C16.98 0 18.96 0 21 0 C21 4.29 21 8.58 21 13 C18.69 13 16.38 13 14 13 C13.01 11.02 12.02 9.04 11 7 C10.67 8.98 10.34 10.96 10 13 C6.7 13 3.4 13 0 13 C0 8.71 0 4.42 0 0 Z " fill="#7C7C7C" transform="translate(820,471)"/>
<path d="M0 0 C1.13 -0.01 2.26 -0.03 3.43 -0.04 C6.62 0.18 8.82 0.82 11.69 2.19 C11.03 4.17 10.37 6.15 9.69 8.19 C9.41 8.11 9.41 8.11 8.02 7.69 C5.42 7.13 3.09 7.09 0.44 7.12 C-0.01 7.13 -0.01 7.13 -2.27 7.15 C-2.94 7.16 -3.62 7.18 -4.31 7.19 C-4.4 7.97 -4.48 8.76 -4.56 9.56 C-5.31 12.19 -5.31 12.19 -7.12 13.56 C-9.62 14.27 -10.9 14.05 -13.31 13.19 C-13.62 10 -13.62 10 -13.31 6.19 C-9.03 1.01 -6.55 0.04 0 0 Z " fill="#134969" transform="translate(245.3125,49.8125)"/>
<path d="M0 0 C0.99 0.33 1.98 0.66 3 1 C2.67 1.5 2.67 1.5 1 4 C1.66 4 2.32 4 3 4 C5.32 7.47 5.27 8.96 5.25 13.06 C5.26 14.13 5.26 15.19 5.27 16.29 C5 19 5 19 3 21 C-2.25 21.56 -2.25 21.56 -4.66 19.77 C-6.86 16.86 -6.58 14.2 -6.5 10.65 C-5.66 6.2 -3.04 3.24 0 0 Z " fill="#577989" transform="translate(821,203)"/>
<path d="M0 0 C2.88 0.88 2.88 0.88 4.88 2.88 C5.14 5.37 5.14 5.37 5.12 8.31 C5.13 9.28 5.14 10.25 5.14 11.25 C4.88 13.88 4.88 13.88 2.88 16.88 C-0.62 17.19 -0.62 17.19 -4.12 16.88 C-7.12 13.88 -7.06 11.56 -7.44 7.38 C-7.12 3.88 -7.12 3.88 -5.5 1.38 C-3.12 -0.12 -3.12 -0.12 0 0 Z " fill="#567A8A" transform="translate(797.125,207.125)"/>
<path d="M0 0 C2.44 1 2.44 1 4.31 3 C5.86 7.12 5.54 10.76 4.44 15 C2.44 17 2.44 17 -1.06 17.25 C-4.56 17 -4.56 17 -6.56 15 C-6.9 12.29 -6.9 12.29 -6.94 9.06 C-6.97 8 -6.99 6.94 -7.02 5.85 C-6.56 3 -6.56 3 -4.7 1.12 C-2.56 0 -2.56 0 0 0 Z " fill="#537389" transform="translate(666.5625,207)"/>
<path d="M0 0 C2.31 0 4.62 0 7 0 C7 0.66 7 1.32 7 2 C7.99 1.34 8.98 0.68 10 0 C12.69 0.38 12.69 0.38 15 1 C15.33 1.99 15.66 2.98 16 4 C14.02 3.34 12.04 2.68 10 2 C10.83 2.72 11.65 3.44 12.5 4.19 C15 7 15 7 15.31 9.81 C15.21 10.53 15.11 11.26 15 12 C12.69 12.62 12.69 12.62 10 13 C9.01 12.34 8.02 11.68 7 11 C7 11.66 7 12.32 7 13 C4.69 13 2.38 13 0 13 C0 8.71 0 4.42 0 0 Z " fill="#606060" transform="translate(647,423)"/>
<path d="M0 0 C1.56 1.69 1.56 1.69 3 4 C2.56 8.88 0.33 13.35 -1.56 17.81 C-1.89 18.6 -2.22 19.39 -2.56 20.2 C-3.37 22.14 -4.18 24.07 -5 26 C-4.34 26 -3.68 26 -3 26 C-2.67 25.01 -2.34 24.02 -2 23 C-1.51 30.26 -1.51 30.26 -4 34 C-4.66 34.66 -5.32 35.32 -6 36 C-6.66 35.67 -7.32 35.34 -8 35 C-7.34 33.68 -6.68 32.36 -6 31 C-6.7 30.55 -7.4 30.09 -8.12 29.62 C-10.26 26.63 -10.25 26.22 -9.69 22.75 C-8.06 16.14 -4.89 4.89 0 0 Z " fill="#BBC5C6" transform="translate(447,373)"/>
<path d="M0 0 C3.06 -0.39 5.09 -0.65 7.67 1.18 C9.5 3.69 9.37 5.43 9.31 8.5 C9.31 9.46 9.3 10.42 9.3 11.41 C9 14 9 14 7 17 C3.5 17.31 3.5 17.31 0 17 C-2 15 -2 15 -2.27 12.29 C-2.26 11.22 -2.26 10.16 -2.25 9.06 C-2.26 8 -2.26 6.94 -2.27 5.85 C-2 3 -2 3 0 0 Z " fill="#577C8A" transform="translate(864,207)"/>
<path d="M0 0 C2.32 3.47 2.27 4.96 2.25 9.06 C2.26 10.13 2.26 11.19 2.27 12.29 C2 15 2 15 0 17 C-5.21 17.55 -5.21 17.55 -7.67 15.82 C-9.5 13.32 -9.4 11.57 -9.38 8.5 C-9.38 7.54 -9.39 6.58 -9.4 5.59 C-9 3 -9 3 -7.67 1.18 C-5.08 -0.65 -3.06 -0.39 0 0 Z " fill="#577A8A" transform="translate(718,207)"/>
<path d="M0 0 C1.94 0.88 1.94 0.88 4.94 2.88 C5.93 2.88 6.92 2.88 7.94 2.88 C7.28 7.94 5.08 12.29 2.94 16.88 C2.28 16.88 1.62 16.88 0.94 16.88 C0.61 16.21 0.28 15.56 -0.06 14.88 C-0.85 14.92 -1.63 14.96 -2.44 15 C-5.06 14.88 -5.06 14.88 -7.06 12.88 C-7.32 8.51 -6.74 4.85 -4.25 1.25 C-2.06 -0.12 -2.06 -0.12 0 0 Z " fill="#818284" transform="translate(350.0625,335.125)"/>
<path d="M0 0 C3 3.08 3.41 5.4 3.38 9.62 C3.38 10.59 3.39 11.55 3.4 12.54 C3.27 13.35 3.14 14.16 3 15 C-0.45 17.3 -1.95 17.34 -6 17 C-8.69 14.31 -8.3 12.81 -8.31 9.06 C-8.33 8 -8.35 6.94 -8.36 5.85 C-8 3 -8 3 -6.64 1.15 C-4.27 -0.51 -2.82 -0.49 0 0 Z " fill="#537283" transform="translate(744,207)"/>
<path d="M0 0 C3.3 0 6.6 0 10 0 C10.33 1.32 10.66 2.64 11 4 C11.66 4 12.32 4 13 4 C13.33 2.68 13.66 1.36 14 0 C14.66 0 15.32 0 16 0 C15.65 0.72 15.3 1.44 14.94 2.19 C13.56 6.32 14.66 8.97 16 13 C15.34 13 14.68 13 14 13 C13.67 11.68 13.34 10.36 13 9 C12.34 9 11.68 9 11 9 C10.67 10.32 10.34 11.64 10 13 C6.7 13 3.4 13 0 13 C0 8.71 0 4.42 0 0 Z " fill="#8D8D8D" transform="translate(741,471)"/>
<path d="M0 0 C1.32 0 2.64 0 4 0 C5.42 3.82 6.24 6.91 6 11 C6.66 11 7.32 11 8 11 C8.07 10.37 8.07 10.37 8.44 7.19 C8.74 4.57 9.16 2.53 10 0 C11.65 0 13.3 0 15 0 C15 5.28 15 10.56 15 16 C14.01 16 13.02 16 12 16 C11.67 13.36 11.34 10.72 11 8 C10.34 10.64 9.68 13.28 9 16 C8.01 16 7.02 16 6 16 C5.34 14.02 4.68 12.04 4 10 C3.67 11.98 3.34 13.96 3 16 C2.01 16 1.02 16 0 16 C0 10.72 0 5.44 0 0 Z " fill="#193D53" transform="translate(674,208)"/>
<path d="M0 0 C0.66 0.33 1.32 0.66 2 1 C2 1.66 2 2.32 2 3 C2.57 2.99 2.57 2.99 5.44 2.94 C9 3 9 3 10 4 C9.64 8.67 9.08 12.37 6 16 C3.5 16.5 3.5 16.5 1 16 C-0.62 14.5 -0.62 14.5 -2 13 C-2.99 13 -3.98 13 -5 13 C-4.39 8.14 -2.27 4.26 0 0 Z " fill="#7A7B7E" transform="translate(316,322)"/>
<path d="M0 0 C2.08 0.18 4.12 0.52 6.19 0.84 C6.79 0.9 7.38 0.95 8 1 C8.33 0.67 8.66 0.34 9 0 C10.67 -0.04 12.33 -0.04 14 0 C14.33 0.99 14.66 1.98 15 3 C13.35 2.67 11.7 2.34 10 2 C10 2.99 10 3.98 10 5 C10.83 5.33 10.83 5.33 15 7 C14.67 8.32 14.34 9.64 14 11 C11.69 11.62 11.69 11.62 9 12 C8.01 11.34 7.02 10.68 6 10 C5.34 10.66 4.68 11.32 4 12 C1.38 11.62 1.38 11.62 -1 11 C-1.33 10.01 -1.66 9.02 -2 8 C-1.34 8 -0.68 8 0 8 C0 8.66 0 9.32 0 10 C0.99 10 1.98 10 3 10 C3 9.01 3 8.02 3 7 C2.17 6.67 2.17 6.67 -2 5 C-1.12 1.12 -1.12 1.12 0 0 Z " fill="#707D84" transform="translate(802,68)"/>
<path d="M0 0 C2.64 0 5.28 0 8 0 C10 2 10 2 10.16 4.46 C10.13 5.42 10.1 6.38 10.06 7.38 C9.96 10.81 9.99 13.7 11 17 C10.01 17 9.02 17 8 17 C6.95 15.36 5.95 13.7 5 12 C4.34 11.67 3.68 11.34 3 11 C3 12.98 3 14.96 3 17 C2.01 17 1.02 17 0 17 C0 11.39 0 5.78 0 0 Z " fill="#38606F" transform="translate(749,183)"/>
<path d="M0 0 C1.62 2.69 1.62 2.69 2 5 C1.07 4.34 0.14 3.68 -0.81 3 C-5.75 0.22 -10.47 0.13 -16 1 C-22.04 3.07 -26.88 6.33 -31.43 10.77 C-33.27 12.21 -34.74 12.49 -37 13 C-37.99 13.66 -38.98 14.32 -40 15 C-38.8 12.51 -37.55 10.32 -36 8 C-35.34 8 -34.68 8 -34 8 C-34 7.34 -34 6.68 -34 6 C-24.38 -3.18 -12.2 -5.87 0 0 Z " fill="#77D0CD" transform="translate(144,219)"/>
<path d="M0 0 C6 0 6 0 9 2 C9 1.34 9 0.68 9 0 C9.99 0 10.98 0 12 0 C12 4.29 12 8.58 12 13 C10.02 13 8.04 13 6 13 C5.34 11.68 4.68 10.36 4 9 C3.67 10.32 3.34 11.64 3 13 C2.01 13 1.02 13 0 13 C0 8.71 0 4.42 0 0 Z " fill="#565656" transform="translate(687,375)"/>
<path d="M0 0 C10.6 3.47 21.09 7.03 31.22 11.73 C39.71 15.6 47.58 18.77 57 19 C56.34 19.66 55.68 20.32 55 21 C53.68 21 52.36 21 51 21 C51.66 21.66 52.32 22.32 53 23 C52.54 23.3 52.54 23.3 50.19 24.81 C47 27 47 27 45.38 28.81 C44.92 29.2 44.47 29.6 44 30 C41.81 29.69 41.81 29.69 40 29 C40 28.34 40 27.68 40 27 C41.53 25.71 41.53 25.71 43.5 24.38 C44.15 23.93 44.8 23.48 45.47 23.02 C45.97 22.69 46.48 22.35 47 22 C44.97 19.97 43.79 19.37 41.18 18.34 C40.4 18.02 39.61 17.71 38.8 17.39 C37.95 17.05 37.11 16.72 36.23 16.38 C35.36 16.03 34.48 15.68 33.58 15.32 C30.79 14.21 27.99 13.1 25.19 12 C23.31 11.26 21.44 10.51 19.56 9.77 C16.11 8.4 12.66 7.03 9.21 5.66 C6.14 4.45 3.07 3.23 0 2 C0 1.34 0 0.68 0 0 Z " fill="#B3B5B8" transform="translate(260,278)"/>
<path d="M0 0 C7 0 7 0 10 2 C10.27 5.72 10.18 8.46 9 12 C9.44 14.69 9.44 14.69 10 17 C9.01 17 8.02 17 7 17 C6.34 14.69 5.68 12.38 5 10 C4.34 10 3.68 10 3 10 C3 12.31 3 14.62 3 17 C2.01 17 1.02 17 0 17 C0 11.39 0 5.78 0 0 Z " fill="#305B6F" transform="translate(671,183)"/>
<path d="M0 0 C0.66 0 1.32 0 2 0 C2 4.62 2 9.24 2 14 C1.34 14 0.68 14 0 14 C-0.33 13.34 -0.66 12.68 -1 12 C-1.99 12.66 -2.98 13.32 -4 14 C-6.62 13.75 -6.62 13.75 -9 13 C-10.11 10.77 -10.16 9.47 -10.19 7 C-10.2 6.3 -10.22 5.6 -10.23 4.88 C-10 3 -10 3 -8 1 C-5.5 0.75 -5.5 0.75 -3 1 C-2.34 1.66 -1.68 2.32 -1 3 C-0.67 2.01 -0.34 1.02 0 0 Z " fill="#979797" transform="translate(744,326)"/>
<path d="M0 0 C0.99 0 1.98 0 3 0 C3 2.31 3 4.62 3 7 C4.65 7 6.3 7 8 7 C8 4.69 8 2.38 8 0 C9.32 0 10.64 0 12 0 C12 5.61 12 11.22 12 17 C10.68 17 9.36 17 8 17 C8 14.69 8 12.38 8 10 C6.35 10 4.7 10 3 10 C3 12.31 3 14.62 3 17 C2.01 17 1.02 17 0 17 C0 11.39 0 5.78 0 0 Z " fill="#2D5465" transform="translate(820,183)"/>
<path d="M0 0 C1.65 0 3.3 0 5 0 C5 0.99 5 1.98 5 3 C3.68 3 2.36 3 1 3 C0.67 3.66 0.34 4.32 0 5 C0.78 5.14 1.57 5.29 2.38 5.44 C5 6 5 6 7 7 C6.67 8.65 6.34 10.3 6 12 C2 12 -2 12 -6 12 C-7.39 10.47 -7.39 10.47 -8.69 8.5 C-9.12 7.85 -9.56 7.2 -10.01 6.53 C-10.34 6.03 -10.66 5.52 -11 5 C-11.33 6.98 -11.66 8.96 -12 11 C-12.33 11 -12.66 11 -13 11 C-13 7.7 -13 4.4 -13 1 C-9 2.33 -8.16 4.5 -6 8 C-5.67 5.69 -5.34 3.38 -5 1 C-3.35 1.33 -1.7 1.66 0 2 C0 1.34 0 0.68 0 0 Z " fill="#93B8B6" transform="translate(290,91)"/>
<path d="M0 0 C2.64 0 5.28 0 8 0 C10 2 10 2 10.19 5 C10 8 10 8 9 10 C9.28 12.01 9.61 14.01 10 16 C9.01 16 8.02 16 7 16 C6.34 14.02 5.68 12.04 5 10 C4.34 10 3.68 10 3 10 C3 11.98 3 13.96 3 16 C2.01 16 1.02 16 0 16 C0 10.72 0 5.44 0 0 Z " fill="#284D62" transform="translate(723,208)"/>
<path d="M0 0 C1.32 0.33 2.64 0.66 4 1 C5.75 4.56 5.75 4.56 7 8 C7.33 5.36 7.66 2.72 8 0 C8.99 0 9.98 0 11 0 C11 5.61 11 11.22 11 17 C9.68 16.67 8.36 16.34 7 16 C5.25 12.44 5.25 12.44 4 9 C3.67 11.64 3.34 14.28 3 17 C2.01 17 1.02 17 0 17 C0 11.39 0 5.78 0 0 Z " fill="#164358" transform="translate(793,183)"/>
<path d="M0 0 C0.99 0 1.98 0 3 0 C3 5.61 3 11.22 3 17 C-1 16 -1 16 -2.75 13.44 C-3.16 12.63 -3.58 11.83 -4 11 C-4.33 12.98 -4.66 14.96 -5 17 C-5.99 17 -6.98 17 -8 17 C-8 11.72 -8 6.44 -8 1 C-6.68 1.33 -5.36 1.66 -4 2 C-2.25 5.56 -2.25 5.56 -1 9 C-0.67 6.03 -0.34 3.06 0 0 Z " fill="#174159" transform="translate(698,183)"/>
<path d="M0 0 C0.66 0 1.32 0 2 0 C2 4.62 2 9.24 2 14 C1.34 14 0.68 14 0 14 C-0.33 13.34 -0.66 12.68 -1 12 C-1.66 12.66 -2.32 13.32 -3 14 C-7.56 13.44 -7.56 13.44 -9 12 C-9.07 10.31 -9.08 8.62 -9.06 6.94 C-9.05 6.02 -9.04 5.1 -9.04 4.15 C-9.02 3.44 -9.01 2.73 -9 2 C-6.12 1.38 -6.12 1.38 -3 1 C-2.34 1.66 -1.68 2.32 -1 3 C-0.67 2.01 -0.34 1.02 0 0 Z " fill="#9A9A9A" transform="translate(921,326)"/>
<path d="M0 0 C8 0 8 0 10.06 1.06 C11.55 4.14 10.67 6.75 10 10 C7.69 10.33 5.38 10.66 3 11 C3 12.98 3 14.96 3 17 C2.01 17 1.02 17 0 17 C0 11.39 0 5.78 0 0 Z " fill="#36596D" transform="translate(736,183)"/>
<path d="M0 0 C3.96 0 7.92 0 12 0 C10.9 4.39 9.3 7.14 7 11 C8.65 11 10.3 11 12 11 C12 11.66 12 12.32 12 13 C8.04 13 4.08 13 0 13 C0 8.71 0 4.42 0 0 Z " fill="#5D5D5D" transform="translate(705,423)"/>
<path d="M0 0 C1.67 0.3 3.34 0.64 5 1 C7 1 7 1 9.5 0.38 C10.33 0.25 11.15 0.13 12 0 C12.66 0.66 13.32 1.32 14 2 C13.62 5.62 13.62 5.62 13 9 C11.35 9.33 9.7 9.66 8 10 C8 9.34 8 8.68 8 8 C7.44 8.35 6.89 8.7 6.31 9.06 C3.46 10.22 1.91 9.81 -1 9 C-1.1 2.85 -1.1 2.85 -1 1 C-0.67 0.67 -0.34 0.34 0 0 Z " fill="#8E8E8E" transform="translate(847,378)"/>
<path d="M0 0 C5.71 0.71 5.71 0.71 7 2 C7.33 1.34 7.66 0.68 8 0 C8.99 0 9.98 0 11 0 C11 3.96 11 7.92 11 12 C10.01 12 9.02 12 8 12 C7.67 11.34 7.34 10.68 7 10 C6.01 10.66 5.02 11.32 4 12 C0.48 11.48 0.48 11.48 -1 10 C-1.1 8.5 -1.13 7 -1.12 5.5 C-1.13 4.69 -1.13 3.87 -1.13 3.03 C-1 1 -1 1 0 0 Z " fill="#929CA2" transform="translate(841,68)"/>
<path d="M0 0 C0.33 0.99 0.66 1.98 1 3 C2.15 2.83 2.15 2.83 8 2 C8.33 3.65 8.66 5.3 9 7 C8.67 6.01 8.34 5.02 8 4 C6.68 4 5.36 4 4 4 C4.33 4.72 4.66 5.44 5 6.19 C6.02 9.06 6.33 10.98 6 14 C4 16 4 16 1.5 16.25 C-1 16 -1 16 -3 14 C-3.99 14 -4.98 14 -6 14 C-5.31 10.61 -4.01 7.82 -2.44 4.75 C-2.21 4.3 -2.21 4.3 -1.06 2.05 C-0.71 1.37 -0.36 0.7 0 0 Z " fill="#67686C" transform="translate(304,317)"/>
<path d="M0 0 C5.71 0.71 5.71 0.71 7 2 C7.33 1.34 7.66 0.68 8 0 C9.65 0 11.3 0 13 0 C13 0.66 13 1.32 13 2 C12.01 2 11.02 2 10 2 C10 5.3 10 8.6 10 12 C9.01 11.67 8.02 11.34 7 11 C5.99 11.19 4.98 11.37 3.94 11.56 C2.97 11.71 2 11.85 1 12 C-1 10 -1 10 -1.23 7.87 C-1.22 7.07 -1.2 6.26 -1.19 5.44 C-1.18 4.63 -1.17 3.83 -1.17 3 C-1 1 -1 1 0 0 Z " fill="#7D888D" transform="translate(691,68)"/>
<path d="M0 0 C0.99 0.33 1.98 0.66 3 1 C2.67 1.66 2.34 2.32 2 3 C2.66 3.33 3.32 3.66 4 4 C4 4.99 4 5.98 4 7 C2.02 7 0.04 7 -2 7 C-2 8.32 -2 9.64 -2 11 C-0.02 11 1.96 11 4 11 C4 11.99 4 12.98 4 14 C2.02 14 0.04 14 -2 14 C-2 15.32 -2 16.64 -2 18 C0.31 18 2.62 18 5 18 C5 18.99 5 19.98 5 21 C1.7 21 -1.6 21 -5 21 C-5 15.39 -5 9.78 -5 4 C-4.01 4 -3.02 4 -2 4 C-1.34 2.68 -0.68 1.36 0 0 Z " fill="#2B4E5D" transform="translate(767,179)"/>
<path d="M0 0 C3.3 0 6.6 0 10 0 C10 0.99 10 1.98 10 3 C8.02 3 6.04 3 4 3 C4 4.32 4 5.64 4 7 C5.65 7 7.3 7 9 7 C9 7.99 9 8.98 9 10 C7.35 10 5.7 10 4 10 C4 11.32 4 12.64 4 14 C5.98 14 7.96 14 10 14 C10 14.99 10 15.98 10 17 C6.7 17 3.4 17 0 17 C0 11.39 0 5.78 0 0 Z " fill="#325567" transform="translate(659,183)"/>
<path d="M0 0 C1.81 1.31 1.81 1.31 3 3 C3 3.99 3 4.98 3 6 C2.01 6 1.02 6 0 6 C-0.33 5.34 -0.66 4.68 -1 4 C-1.99 4 -2.98 4 -4 4 C-4 7.63 -4 11.26 -4 15 C-2.68 15 -1.36 15 0 15 C0 13.68 0 12.36 0 11 C-0.99 11 -1.98 11 -3 11 C-3 10.01 -3 9.02 -3 8 C-1.02 8 0.96 8 3 8 C3 10.64 3 13.28 3 16 C-0.01 17.51 -2.68 17.18 -6 17 C-8.69 14.31 -8.3 12.81 -8.31 9.06 C-8.33 8 -8.35 6.94 -8.36 5.85 C-8 3 -8 3 -6.64 1.14 C-4.29 -0.49 -2.79 -0.42 0 0 Z " fill="#204055" transform="translate(837,207)"/>
<path d="M0 0 C2.34 0.3 4.67 0.64 7 1 C8.34 0.68 9.67 0.34 11 0 C13 2 13 2 13 6 C11.35 6 9.7 6 8 6 C8 6.66 8 7.32 8 8 C9.32 8 10.64 8 12 8 C12 8.66 12 9.32 12 10 C10.35 10 8.7 10 7 10 C7 9.34 7 8.68 7 8 C6.44 8.35 5.89 8.7 5.31 9.06 C2.46 10.22 0.91 9.81 -2 9 C-2.12 5.62 -2.12 5.62 -2 2 C-1.34 1.34 -0.68 0.68 0 0 Z " fill="#868686" transform="translate(814,378)"/>
<path d="M0 0 C0.99 0.17 0.99 0.17 6 1 C6 5.29 6 9.58 6 14 C5.34 14 4.68 14 4 14 C3.67 13.34 3.34 12.68 3 12 C2.67 12.66 2.34 13.32 2 14 C0 14.04 -2 14.04 -4 14 C-5 13 -5 13 -5.1 11.15 C-5.07 9.1 -5.03 7.05 -5 5 C-3.35 4.67 -1.7 4.34 0 4 C0 2.68 0 1.36 0 0 Z " fill="#8C8C8C" transform="translate(831,326)"/>
<path d="M0 0 C1.32 0 2.64 0 4 0 C4 5.94 4 11.88 4 18 C2.68 18 1.36 18 0 18 C-2 15 -2 15 -2.81 12 C-4.23 8.41 -5.58 7.62 -9 6 C-8.67 5.01 -8.34 4.02 -8 3 C-7.01 3 -6.02 3 -5 3 C-5 3.66 -5 4.32 -5 5 C-3.68 4.67 -2.36 4.34 -1 4 C-0.67 2.68 -0.34 1.36 0 0 Z " fill="#7595A3" transform="translate(784,207)"/>
<path d="M0 0 C6.4 -0.36 6.4 -0.36 8.88 1.12 C10.47 3.78 10.87 5.91 11 9 C10.06 10.88 10.06 10.88 8 12 C5.28 12.24 2.74 12.13 0 12 C0 8.04 0 4.08 0 0 Z " fill="#A9C7C7" transform="translate(151,91)"/>
<path d="M0 0 C1.32 0.33 2.64 0.66 4 1 C4.67 3.29 5.34 5.58 6 7.88 C6.19 8.53 6.38 9.18 6.58 9.85 C8 14.77 8 14.77 8 17 C6.68 16.67 5.36 16.34 4 16 C4 15.01 4 14.02 4 13 C2.35 13 0.7 13 -1 13 C-1 14.32 -1 15.64 -1 17 C-2.32 17 -3.64 17 -5 17 C-4.81 16.36 -4.61 15.72 -4.41 15.06 C-2.91 10.05 -1.42 5.03 0 0 Z " fill="#285165" transform="translate(721,183)"/>
<path d="M0 0 C3.06 0.38 3.06 0.38 4.94 2.25 C6.06 4.38 6.06 4.38 6.06 6.38 C5.07 6.38 4.08 6.38 3.06 6.38 C3.06 5.38 3.06 4.4 3.06 3.38 C1.41 3.38 -0.24 3.38 -1.94 3.38 C-1.61 7 -1.28 10.63 -0.94 14.38 C0.05 14.38 1.04 14.38 2.06 14.38 C2.39 13.06 2.72 11.74 3.06 10.38 C2.07 10.38 1.08 10.38 0.06 10.38 C0.06 9.72 0.06 9.06 0.06 8.38 C2.04 8.38 4.02 8.38 6.06 8.38 C6.19 11.75 6.19 11.75 6.06 15.38 C4.06 17.38 4.06 17.38 0.56 17.62 C-2.94 17.38 -2.94 17.38 -4.94 15.38 C-5.2 12.41 -5.2 12.41 -5.19 8.88 C-5.19 7.71 -5.2 6.54 -5.2 5.34 C-4.84 1.28 -4.04 0.52 0 0 Z " fill="#214354" transform="translate(708.9375,182.625)"/>
<path d="M0 0 C1.32 0 2.64 0 4 0 C4.67 2.1 5.34 4.21 6 6.31 C6.37 7.48 6.74 8.66 7.12 9.86 C8 13 8 13 8 16 C6.68 15.67 5.36 15.34 4 15 C4 14.01 4 13.02 4 12 C2.35 12 0.7 12 -1 12 C-1 13.32 -1 14.64 -1 16 C-2.32 16 -3.64 16 -5 16 C-3.41 10.64 -1.81 5.29 0 0 Z " fill="#274F63" transform="translate(857,184)"/>
<path d="M0 0 C0.76 0.41 1.53 0.83 2.31 1.25 C2.97 1.58 3.63 1.91 4.31 2.25 C4.67 7.65 4.67 7.65 3.19 10.12 C0.43 11.78 -1.54 11.64 -4.69 11.25 C-6.56 10.12 -6.56 10.12 -7.69 8.25 C-8.19 5.25 -8.19 5.25 -7.69 2.25 C-4.9 -0.3 -3.7 -1.03 0 0 Z " fill="#A7C9C9" transform="translate(221.6875,91.75)"/>
<path d="M0 0 C1.65 0 3.3 0 5 0 C5 3 5 3 4.06 5.88 C2.63 10.53 2.62 15.27 2.44 20.11 C1.97 23.21 1.46 24.14 -1 26 C-2.12 22.65 -1.84 21.43 -1.06 18.06 C-0.33 14.83 0 12.37 0 9 C-0.66 10.65 -1.32 12.3 -2 14 C-2.66 14 -3.32 14 -4 14 C-3.81 14.56 -3.63 15.11 -3.44 15.69 C-2.92 18.4 -3.34 20.34 -4 23 C-4.33 23 -4.66 23 -5 23 C-5.33 19.04 -5.66 15.08 -6 11 C-5.01 10.34 -4.02 9.68 -3 9 C-2.05 6.84 -2.05 6.84 -1.31 4.38 C-1.06 3.56 -0.81 2.74 -0.55 1.9 C-0.37 1.27 -0.19 0.65 0 0 Z " fill="#65A7AA" transform="translate(457,384)"/>
<path d="M0 0 C3.5 0.25 3.5 0.25 5.5 2.25 C5.84 6.3 5.8 7.8 3.5 11.25 C0 11.62 0 11.62 -3.5 11.25 C-5.8 7.8 -5.84 6.3 -5.5 2.25 C-3.5 0.25 -3.5 0.25 0 0 Z " fill="#A4C8C7" transform="translate(268.5,91.75)"/>
<path d="M0 0 C0.33 0.66 0.66 1.32 1 2 C-0.39 3.76 -1.79 5.5 -3.19 7.25 C-3.96 8.22 -4.74 9.2 -5.54 10.2 C-7.86 12.84 -10.2 14.91 -13 17 C-13.66 16.67 -14.32 16.34 -15 16 C-15 14.68 -15 13.36 -15 12 C-14.34 12 -13.68 12 -13 12 C-13 11.34 -13 10.68 -13 10 C-12.34 10 -11.68 10 -11 10 C-10.67 8.68 -10.34 7.36 -10 6 C-12.31 5.01 -14.62 4.02 -17 3 C-15.19 1.94 -15.19 1.94 -13 1 C-12.01 1.33 -11.02 1.66 -10 2 C-7.28 2.23 -4.75 2.13 -2 2 C-1.34 1.34 -0.68 0.68 0 0 Z " fill="#8AD5D5" transform="translate(205,285)"/>
<path d="M0 0 C0.99 0 1.98 0 3 0 C4.35 2.71 4.07 5.01 4 8 C4.66 8 5.32 8 6 8 C6.33 5.36 6.66 2.72 7 0 C8.32 0 9.64 0 11 0 C11 4.29 11 8.58 11 13 C10.01 13 9.02 13 8 13 C7.67 12.34 7.34 11.68 7 11 C6.67 11.66 6.34 12.32 6 13 C5.34 13 4.68 13 4 13 C3.67 12.01 3.34 11.02 3 10 C2.67 10.99 2.34 11.98 2 13 C1.34 13 0.68 13 0 13 C0 8.71 0 4.42 0 0 Z " fill="#2B2B2B" transform="translate(647,375)"/>
<path d="M0 0 C3.69 0.69 3.69 0.69 5 2 C4.74 5.95 4.52 8.96 2.75 12.5 C1 14 1 14 -1.62 14.31 C-4 14 -4 14 -5 13 C-5.61 7.72 -4.19 5.15 -1 1 C-0.67 0.67 -0.34 0.34 0 0 Z " fill="#747577" transform="translate(338,331)"/>
<path d="M0 0 C2.56 0.31 2.56 0.31 4.38 1.69 C5.56 3.31 5.56 3.31 5.56 5.31 C3.18 4.74 0.9 4.09 -1.44 3.31 C-0.44 6.31 -0.44 6.31 2.62 8.19 C5.56 10.31 5.56 10.31 6.06 12.94 C5.56 15.31 5.56 15.31 3.56 17.31 C-0.06 17.44 -0.06 17.44 -3.44 17.31 C-4.1 15.66 -4.76 14.01 -5.44 12.31 C-4.45 12.31 -3.46 12.31 -2.44 12.31 C-2.11 12.97 -1.78 13.63 -1.44 14.31 C-0.45 14.31 0.54 14.31 1.56 14.31 C0.56 11.31 0.56 11.31 -2 10 C-2.8 9.44 -3.61 8.89 -4.44 8.31 C-4.88 5.25 -4.88 5.25 -4.44 2.31 C-2.44 0.31 -2.44 0.31 0 0 Z " fill="#1F4253" transform="translate(701.4375,206.6875)"/>
<path d="M0 0 C3.06 0.25 3.06 0.25 6 1 C7.51 4.02 7.18 6.67 7 10 C6.67 10.5 6.67 10.5 5 13 C2.5 13.31 2.5 13.31 0 13 C-2 11 -2 11 -2.27 8.91 C-2.26 8.51 -2.26 8.51 -2.25 6.5 C-2.26 5.71 -2.26 4.91 -2.27 4.09 C-2 2 -2 2 0 0 Z " fill="#626262" transform="translate(751,423)"/>
<path d="M0 0 C0.93 0.21 1.86 0.41 2.81 0.62 C3.14 1.94 3.47 3.26 3.81 4.62 C2.82 4.62 1.83 4.62 0.81 4.62 C0.81 3.97 0.81 3.31 0.81 2.62 C-0.18 2.96 -1.17 3.28 -2.19 3.62 C-2.19 4.28 -2.19 4.94 -2.19 5.62 C-1.2 6.22 -0.21 6.82 0.81 7.44 C3.81 9.62 3.81 9.62 4.31 12.25 C3.81 14.62 3.81 14.62 1.81 16.62 C-1.19 16.88 -1.19 16.88 -4.19 16.62 C-4.85 15.97 -5.51 15.31 -6.19 14.62 C-6.19 13.63 -6.19 12.65 -6.19 11.62 C-5.2 11.62 -4.21 11.62 -3.19 11.62 C-3.19 12.28 -3.19 12.94 -3.19 13.62 C-1.87 13.62 -0.55 13.62 0.81 13.62 C-0.44 9.87 -1.82 9.48 -5.19 7.62 C-6.19 6.62 -6.19 6.62 -6.44 4.19 C-6.36 3.34 -6.27 2.5 -6.19 1.62 C-3.19 -0.38 -3.19 -0.38 0 0 Z " fill="#1A3C4F" transform="translate(653.1875,183.375)"/>
<path d="M0 0 C2.5 -0.31 2.5 -0.31 5 0 C7 2 7 2 7.31 5.94 C7.24 8.55 7.13 9.77 5.81 12.06 C4 13 4 13 1.38 12.81 C-1 12 -1 12 -2 10 C-2.35 3.53 -2.35 3.53 0 0 Z " fill="#636363" transform="translate(658,279)"/>
<path d="M0 0 C2.5 -0.31 2.5 -0.31 5 0 C7 2 7 2 7.31 5.94 C7.24 8.55 7.13 9.77 5.81 12.06 C4 13 4 13 1.38 12.81 C-1 12 -1 12 -2 10 C-2.35 3.53 -2.35 3.53 0 0 Z " fill="#5C5C5C" transform="translate(658,327)"/>
<path d="M0 0 C0.91 0.25 1.82 0.5 2.75 0.75 C3.08 2.4 3.41 4.05 3.75 5.75 C2.76 5.75 1.77 5.75 0.75 5.75 C0.42 5.09 0.09 4.43 -0.25 3.75 C-1.24 3.42 -2.23 3.09 -3.25 2.75 C-2.92 6.38 -2.59 10.01 -2.25 13.75 C-1.26 14.08 -0.27 14.41 0.75 14.75 C0.75 13.76 0.75 12.77 0.75 11.75 C1.74 11.75 2.73 11.75 3.75 11.75 C3.42 13.4 3.09 15.05 2.75 16.75 C-0.56 17.06 -0.56 17.06 -4.25 16.75 C-6.93 13.99 -7.46 11.41 -7.69 7.69 C-7.25 3.75 -7.25 3.75 -5.62 1.19 C-3.25 -0.25 -3.25 -0.25 0 0 Z " fill="#224158" transform="translate(855.25,207.25)"/>
<path d="M0 0 C0 0.66 0 1.32 0 2 C0.66 2 1.32 2 2 2 C2 3.32 2 4.64 2 6 C1.01 6 0.02 6 -1 6 C-1.33 5.34 -1.66 4.68 -2 4 C-2.99 4 -3.98 4 -5 4 C-5 6.97 -5 9.94 -5 13 C-4.01 13 -3.02 13 -2 13 C-1.67 12.34 -1.34 11.68 -1 11 C-0.01 11 0.98 11 2 11 C1.43 13.87 1.14 14.86 -1 17 C-4.56 16.75 -4.56 16.75 -8 16 C-9.29 13.42 -9.2 11.44 -9.25 8.56 C-9.28 7.59 -9.3 6.63 -9.33 5.63 C-9 3 -9 3 -7.68 1.16 C-5.17 -0.57 -2.97 -0.2 0 0 Z " fill="#264A58" transform="translate(816,183)"/>
<path d="M0 0 C0.33 1.32 0.66 2.64 1 4 C0.01 4 -0.98 4 -2 4 C-2 3.34 -2 2.68 -2 2 C-2.99 2.33 -3.98 2.66 -5 3 C-5 3.66 -5 4.32 -5 5 C-4.01 5.58 -3.02 6.16 -2 6.75 C-1.01 7.49 -0.02 8.24 1 9 C1.38 12.25 1.38 12.25 1 15 C-1.76 16.38 -3.95 16.19 -7 16 C-7.66 15.34 -8.32 14.68 -9 14 C-9 13.01 -9 12.02 -9 11 C-8.01 11 -7.02 11 -6 11 C-5.67 11.66 -5.34 12.32 -5 13 C-4.01 13.33 -3.02 13.66 -2 14 C-2.19 12.19 -2.19 12.19 -3 10 C-3.83 9.53 -4.65 9.05 -5.5 8.56 C-8 7 -8 7 -9 4.5 C-9 2 -9 2 -7.94 0.12 C-5.09 -1.53 -3.1 -0.76 0 0 Z " fill="#1B4051" transform="translate(781,208)"/>
<path d="M0 0 C1.98 0 3.96 0 6 0 C8.43 2.43 8.3 3.17 8.31 6.5 C8.33 7.29 8.35 8.09 8.36 8.91 C8.24 9.6 8.12 10.29 8 11 C5 13 5 13 0 13 C0 8.71 0 4.42 0 0 Z " fill="#565656" transform="translate(705,327)"/>
<path d="M0 0 C1.32 0.33 2.64 0.66 4 1 C4 1.66 4 2.32 4 3 C4.99 3 5.98 3 7 3 C7.33 2.01 7.66 1.02 8 0 C8.66 0.33 9.32 0.66 10 1 C10 4.3 10 7.6 10 11 C9.01 11.33 8.02 11.66 7 12 C7 11.01 7 10.02 7 9 C6.01 9 5.02 9 4 9 C4 9.99 4 10.98 4 12 C2.68 11.67 1.36 11.34 0 11 C0 7.37 0 3.74 0 0 Z " fill="#C6E3E7" transform="translate(852,210)"/>
<path d="M0 0 C1.65 0 3.3 0 5 0 C4.67 0.16 4.67 0.16 3 1 C3 4.96 3 8.92 3 13 C4.32 12.67 5.64 12.34 7 12 C7.33 9.36 7.66 6.72 8 4 C8.99 3.67 9.98 3.34 11 3 C11.21 7.09 11.3 10.11 10 14 C9.34 14.66 8.68 15.32 8 16 C5.36 16 2.72 16 0 16 C0 10.72 0 5.44 0 0 Z " fill="#1A3B4E" transform="translate(840,184)"/>
<path d="M0 0 C1.98 0 3.96 0 6 0 C8 2 8 2 8.25 5.44 C8 9 8 9 6 12 C5.01 12 4.02 12 3 12 C2.67 13.32 2.34 14.64 2 16 C1.34 16 0.68 16 0 16 C0 10.72 0 5.44 0 0 Z " fill="#75878A" transform="translate(884,68)"/>
<path d="M0 0 C4.56 0.56 4.56 0.56 6 2 C6.07 3.69 6.08 5.38 6.06 7.06 C6.05 7.98 6.04 8.9 6.04 9.85 C6.02 10.56 6.01 11.27 6 12 C3.67 12.38 1.34 12.71 -1 13 C-2.67 11.33 -2.17 9.34 -2.19 7.06 C-2.2 6.17 -2.22 5.27 -2.23 4.35 C-2 2 -2 2 0 0 Z " fill="#8F8F8E" transform="translate(801,471)"/>
<path d="M0 0 C4.56 0.56 4.56 0.56 6 2 C6.1 3.66 6.13 5.33 6.12 7 C6.13 7.91 6.13 8.81 6.13 9.75 C6 12 6 12 5 13 C2.56 13.19 2.56 13.19 0 13 C-2 11 -2 11 -2.27 8.91 C-2.26 8.51 -2.26 8.51 -2.25 6.5 C-2.26 5.71 -2.26 4.91 -2.27 4.09 C-2 2 -2 2 0 0 Z " fill="#8D8D8D" transform="translate(845,471)"/>
<path d="M0 0 C2.38 0.31 2.38 0.31 3.38 1.31 C3.2 5.8 2.81 7.82 -0.19 11.25 C-0.99 11.93 -1.8 12.61 -2.62 13.31 C-3.94 12.65 -5.26 11.99 -6.62 11.31 C-5.6 0.67 -5.6 0.67 0 0 Z " fill="#757679" transform="translate(285.625,309.6875)"/>
<path d="M0 0 C1.32 0.33 2.64 0.66 4 1 C4.38 6.23 3.22 9.38 1 14 C-0.67 14.04 -2.33 14.04 -4 14 C-5 13 -5 13 -5.38 9.81 C-4.89 4.86 -3.41 3.49 0 0 Z " fill="#737474" transform="translate(385,350)"/>
<path d="M0 0 C0.56 0.27 1.11 0.54 1.69 0.81 C0.92 10.04 0.92 10.04 -2.31 12.81 C-4.94 13.12 -4.94 13.12 -7.31 12.81 C-7.64 12.48 -7.97 12.15 -8.31 11.81 C-8.15 7.48 -7.67 5.28 -5 1.81 C-2.31 -0.19 -2.31 -0.19 0 0 Z " fill="#797B7E" transform="translate(269.3125,302.1875)"/>
<path d="M0 0 C0.66 1.98 1.32 3.96 2 6 C1.01 6 0.02 6 -1 6 C-1.33 5.34 -1.66 4.68 -2 4 C-2.99 4 -3.98 4 -5 4 C-5 7.3 -5 10.6 -5 14 C-4.01 14 -3.02 14 -2 14 C-1.67 13.34 -1.34 12.68 -1 12 C-0.01 12 0.98 12 2 12 C1.12 15.88 1.12 15.88 0 17 C-3.44 17.25 -3.44 17.25 -7 17 C-9.22 13.67 -9.3 12.4 -9.31 8.5 C-9.33 7.54 -9.35 6.58 -9.36 5.59 C-9 3 -9 3 -7.68 1.17 C-5.17 -0.58 -2.97 -0.2 0 0 Z " fill="#173D51" transform="translate(656,207)"/>
<path d="M0 0 C2.97 0 5.94 0 9 0 C9 0.66 9 1.32 9 2 C7.02 2 5.04 2 3 2 C3 3.32 3 4.64 3 6 C4.65 6 6.3 6 8 6 C8 6.99 8 7.98 8 9 C6.35 9 4.7 9 3 9 C3 10.32 3 11.64 3 13 C4.98 13 6.96 13 9 13 C9 13.99 9 14.98 9 16 C6.03 16 3.06 16 0 16 C0 10.72 0 5.44 0 0 Z " fill="#1B3A4B" transform="translate(782,184)"/>
<path d="M0 0 C4.56 0.56 4.56 0.56 6 2 C6.17 4 6.17 4 6.19 6.44 C6.2 7.24 6.22 8.04 6.23 8.87 C6 11 6 11 4 13 C-0.56 12.44 -0.56 12.44 -2 11 C-2.17 9 -2.17 9 -2.19 6.56 C-2.2 5.76 -2.22 4.96 -2.23 4.13 C-2 2 -2 2 0 0 Z " fill="#595959" transform="translate(717,327)"/>
<path d="M0 0 C0.99 0 1.98 0 3 0 C3.66 1.98 4.32 3.96 5 6 C7 3 7 3 8 0 C8.99 0 9.98 0 11 0 C11 4.29 11 8.58 11 13 C10.34 13 9.68 13 9 13 C8.84 12.18 8.84 12.18 8 8 C7.67 9.65 7.34 11.3 7 13 C6.01 13 5.02 13 4 13 C3.84 12.18 3.84 12.18 3 8 C2.67 9.65 2.34 11.3 2 13 C1.34 13 0.68 13 0 13 C0 8.71 0 4.42 0 0 Z " fill="#141414" transform="translate(685,279)"/>
<path d="M0 0 C1.32 0.33 2.64 0.66 4 1 C3.67 2.32 3.34 3.64 3 5 C4.32 4.34 5.64 3.68 7 3 C5.25 6.88 5.25 6.88 3 8 C3.52 8.37 4.03 8.74 4.56 9.12 C6 11 6 11 5.69 14.19 C5.46 15.12 5.23 16.04 5 17 C3.68 17 2.36 17 1 17 C0.34 15.35 -0.32 13.7 -1 12 C-1.99 12 -2.98 12 -4 12 C-2.68 10.68 -1.36 9.36 0 8 C-0.37 7.24 -0.74 6.47 -1.12 5.69 C-1.41 4.8 -1.7 3.91 -2 3 C-1.34 2.01 -0.68 1.02 0 0 Z " fill="#636365" transform="translate(405,358)"/>
<path d="M0 0 C2.31 0 4.62 0 7 0 C7 3.63 7 7.26 7 11 C8.65 11 10.3 11 12 11 C12 11.66 12 12.32 12 13 C8.04 13 4.08 13 0 13 C0 8.71 0 4.42 0 0 Z " fill="#484848" transform="translate(692,423)"/>
<path d="M0 0 C1.98 0 3.96 0 6 0 C8 2 8 2 8.06 5.94 C8.03 6.63 8 7.32 7.97 8.03 C8 10 8 10 9 13 C8.01 13 7.02 13 6 13 C5.84 12.18 5.84 12.18 5 8 C4.34 8 3.68 8 3 8 C3 9.65 3 11.3 3 13 C2.01 13 1.02 13 0 13 C0 8.71 0 4.42 0 0 Z " fill="#3C3C3C" transform="translate(669,471)"/>
<path d="M0 0 C1.98 0 3.96 0 6 0 C8 2 8 2 8.2 4.6 C8.17 5.6 8.15 6.6 8.12 7.62 C8.11 8.63 8.09 9.63 8.07 10.66 C8.05 11.43 8.02 12.21 8 13 C7.01 12.67 6.02 12.34 5 12 C5 10.68 5 9.36 5 8 C4.34 8 3.68 8 3 8 C3 9.65 3 11.3 3 13 C2.01 13 1.02 13 0 13 C0 8.71 0 4.42 0 0 Z " fill="#3A3A3A" transform="translate(682,423)"/>
<path d="M0 0 C5.25 1.68 10.33 3.71 15.43 5.79 C18.4 6.99 21.35 8.11 24.41 9.06 C27 10 27 10 28 12 C30.56 12.62 30.56 12.62 33 13 C33 13.99 33 14.98 33 16 C24.61 12.95 16.28 9.8 8.06 6.31 C7.37 6.03 6.68 5.74 5.97 5.45 C4.27 4.72 2.63 3.87 1 3 C0.67 2.01 0.34 1.02 0 0 Z " fill="#47E0E0" transform="translate(147,268)"/>
<path d="M0 0 C6 1 6 1 7 2 C7.17 4 7.17 4 7.19 6.44 C7.2 7.24 7.22 8.04 7.23 8.87 C7 11 7 11 5 13 C3.35 13 1.7 13 0 13 C0 8.71 0 4.42 0 0 Z " fill="#555555" transform="translate(692,471)"/>
<path d="M0 0 C8.13 0.24 8.13 0.24 12 3.62 C14.14 7.24 14.75 9.84 15 14 C13.25 11.38 12.61 9.96 12 7 C11.34 7 10.68 7 10 7 C10 6.34 10 5.68 10 5 C9.26 5.45 8.51 5.91 7.75 6.38 C3.05 9.15 3.05 9.15 1 10 C0.34 9.67 -0.32 9.34 -1 9 C-0.67 6.03 -0.34 3.06 0 0 Z " fill="#9DA6A6" transform="translate(441,349)"/>
<path d="M0 0 C4.71 0.71 4.71 0.71 6 2 C6.36 9.46 6.36 9.46 4 13 C2.68 13 1.36 13 0 13 C-1.25 10.5 -1.13 8.73 -1.12 5.94 C-1.13 5.04 -1.13 4.14 -1.13 3.21 C-1 1 -1 1 0 0 Z " fill="#838383" transform="translate(725,279)"/>
<path d="M0 0 C1.32 0 2.64 0 4 0 C5.56 3.13 5.4 6.58 5 10 C4.67 10.5 4.67 10.5 3 13 C1.06 12.62 1.06 12.62 -1 12 C-2.11 9.77 -2.16 8.47 -2.19 6 C-2.2 5.3 -2.22 4.6 -2.23 3.88 C-2 2 -2 2 0 0 Z " fill="#7B7B7B" transform="translate(853,327)"/>
<path d="M0 0 C0.66 0 1.32 0 2 0 C2 4.62 2 9.24 2 14 C1.34 13.67 0.68 13.34 0 13 C0 10.69 0 8.38 0 6 C-0.99 6 -1.98 6 -3 6 C-2.34 8.64 -1.68 11.28 -1 14 C-1.78 13.81 -2.57 13.63 -3.38 13.44 C-6 13 -6 13 -8 14 C-8 10.7 -8 7.4 -8 4 C-7.34 4 -6.68 4 -6 4 C-6 4.66 -6 5.32 -6 6 C-5.01 5.34 -4.02 4.68 -3 4 C-2.01 4 -1.02 4 0 4 C0 2.68 0 1.36 0 0 Z " fill="#4F4F4F" transform="translate(747,374)"/>
<path d="M0 0 C8.4 -0.2 8.4 -0.2 11 0 C13 2 13 2 13.2 4.38 C13.17 5.29 13.15 6.19 13.12 7.12 C13.11 8.04 13.09 8.95 13.07 9.88 C13.05 10.58 13.02 11.28 13 12 C12.34 12 11.68 12 11 12 C11 8.7 11 5.4 11 2 C10.01 2.33 9.02 2.66 8 3 C7.67 5.97 7.34 8.94 7 12 C6.34 12 5.68 12 5 12 C5 8.7 5 5.4 5 2 C3.68 2 2.36 2 1 2 C1 5.3 1 8.6 1 12 C0.67 12 0.34 12 0 12 C0 8.04 0 4.08 0 0 Z " fill="#2A3840" transform="translate(723,68)"/>
<path d="M0 0 C4.3 -0.2 6.01 0 10 2 C9.34 5.63 8.68 9.26 8 13 C6.35 13.33 4.7 13.66 3 14 C3.03 13.16 3.07 12.31 3.11 11.45 C3.13 10.35 3.16 9.25 3.19 8.12 C3.22 7.03 3.26 5.94 3.29 4.82 C3.24 4.35 3.24 4.35 3 2 C2.01 1.34 1.02 0.68 0 0 Z " fill="#8EB0BC" transform="translate(840,183)"/>
<path d="M0 0 C0.66 0 1.32 0 2 0 C2 4.62 2 9.24 2 14 C0.02 14 -1.96 14 -4 14 C-5.25 7.38 -5.25 7.38 -3 4 C-2.34 4 -1.68 4 -1 4 C-0.67 2.68 -0.34 1.36 0 0 Z " fill="#6E6E6E" transform="translate(840,422)"/>
<path d="M0 0 C0.66 0 1.32 0 2 0 C2 4.62 2 9.24 2 14 C0.35 14 -1.3 14 -3 14 C-5.15 10.78 -5.38 9.73 -5 6 C-4.34 5.34 -3.68 4.68 -3 4 C-2.01 4 -1.02 4 0 4 C0 2.68 0 1.36 0 0 Z " fill="#6B6B6B" transform="translate(792,326)"/>
<path d="M0 0 C0.82 0.33 0.82 0.33 5 2 C4.62 4.94 4.62 4.94 4 8 C3.67 8.17 3.67 8.17 2 9 C1.38 12.06 1.38 12.06 1 15 C0.34 15 -0.32 15 -1 15 C-1.33 13.02 -1.66 11.04 -2 9 C-2.99 10.32 -3.98 11.64 -5 13 C-4.48 7.72 -2.75 4.43 0 0 Z " fill="#515155" transform="translate(275,305)"/>
<path d="M0 0 C1.65 0 3.3 0 5 0 C7 2 7 2 7.25 5 C7 8 7 8 5 10 C4.01 10 3.02 10 2 10 C2 10.99 2 11.98 2 13 C1.34 13 0.68 13 0 13 C0 8.71 0 4.42 0 0 Z " fill="#858585" transform="translate(879,378)"/>
<path d="M0 0 C0.99 0 1.98 0 3 0 C3.66 1.65 4.32 3.3 5 5 C5.33 3.35 5.66 1.7 6 0 C6.66 0 7.32 0 8 0 C8 4.29 8 8.58 8 13 C7.01 12.67 6.02 12.34 5 12 C3.81 9.44 3.81 9.44 3 7 C2.67 8.98 2.34 10.96 2 13 C1.34 13 0.68 13 0 13 C0 8.71 0 4.42 0 0 Z " fill="#101010" transform="translate(667,327)"/>
<path d="M0 0 C0.44 0.12 0.44 0.12 2.69 0.75 C2.69 1.74 2.69 2.73 2.69 3.75 C-1.66 7.75 -1.66 7.75 -4.31 7.75 C-4.64 8.41 -4.97 9.07 -5.31 9.75 C-6.14 9.42 -6.14 9.42 -10.31 7.75 C-8.38 2.82 -5.49 -0.41 0 0 Z " fill="#DADADE" transform="translate(314.3125,301.25)"/>
<path d="M0 0 C0.99 0.33 1.98 0.66 3 1 C2.41 1.52 1.82 2.04 1.21 2.57 C0.46 3.27 -0.29 3.97 -1.06 4.69 C-1.82 5.37 -2.57 6.06 -3.35 6.76 C-5 9 -5 9 -4.75 11.77 C-4.5 12.51 -4.25 13.24 -4 14 C-4.33 13.34 -4.66 12.68 -5 12 C-7.06 11.38 -7.06 11.38 -9 11 C-9 9.02 -9 7.04 -9 5 C-9.66 5.33 -9.66 5.33 -13 7 C-12.67 5.35 -12.34 3.7 -12 2 C-11.28 2.39 -10.56 2.78 -9.81 3.19 C-7 4 -7 4 -4.31 2.56 C-3.55 2.05 -2.79 1.53 -2 1 C-1.34 1.33 -0.68 1.66 0 2 C0 1.34 0 0.68 0 0 Z " fill="#57A9A7" transform="translate(200,297)"/>
<path d="M0 0 C2.97 0 5.94 0 9 0 C9 0.66 9 1.32 9 2 C7.02 2 5.04 2 3 2 C3 3.65 3 5.3 3 7 C4.65 7 6.3 7 8 7 C8 7.66 8 8.32 8 9 C6.35 9 4.7 9 3 9 C3 11.31 3 13.62 3 16 C2.01 16 1.02 16 0 16 C0 10.72 0 5.44 0 0 Z " fill="#0A2B41" transform="translate(755,208)"/>
<path d="M0 0 C3.96 0 7.92 0 12 0 C12 3.3 12 6.6 12 10 C11.01 10 10.02 10 9 10 C9 9.01 9 8.02 9 7 C7.35 7 5.7 7 4 7 C4 5.68 4 4.36 4 3 C5.98 3 7.96 3 10 3 C10 2.34 10 1.68 10 1 C7.03 1 4.06 1 1 1 C1 6.28 1 11.56 1 17 C0.67 17 0.34 17 0 17 C0 11.39 0 5.78 0 0 Z " fill="#AFD0DC" transform="translate(781,183)"/>
<path d="M0 0 C0.66 0 1.32 0 2 0 C2 3.96 2 7.92 2 12 C1.34 12 0.68 12 0 12 C-0.16 11.17 -0.16 11.17 -1 7 C-1.33 7.5 -1.33 7.5 -3 10 C-3.99 9.67 -4.98 9.34 -6 9 C-6.33 8.34 -6.66 7.68 -7 7 C-7.33 8.65 -7.66 10.3 -8 12 C-8.66 12 -9.32 12 -10 12 C-10 8.37 -10 4.74 -10 1 C-9.01 1.33 -8.02 1.66 -7 2 C-5.81 5.06 -5.81 5.06 -5 8 C-4.34 8 -3.68 8 -3 8 C-2.85 7.53 -2.85 7.53 -2.06 5.12 C-1 2 -1 2 0 0 Z " fill="#739F9E" transform="translate(136,91)"/>
<path d="M0 0 C0.99 0.17 0.99 0.17 6 1 C6 4.63 6 8.26 6 12 C3.12 12.12 3.12 12.12 0 12 C-0.66 11.34 -1.32 10.68 -2 10 C-2 8.68 -2 7.36 -2 6 C-0.35 5.67 1.3 5.34 3 5 C3 3.68 3 2.36 3 1 C2.34 1.33 2.34 1.33 -1 3 C-0.67 2.01 -0.34 1.02 0 0 Z " fill="#606F75" transform="translate(767,68)"/>
<path d="M0 0 C0.66 0.99 1.32 1.98 2 3 C1.71 3.47 1.71 3.47 0.25 5.88 C-4.12 13.61 -6.58 20.05 -6 29 C-7.32 28.34 -8.64 27.68 -10 27 C-9.06 19.05 -5.88 5.88 0 0 Z " fill="#9DA7A8" transform="translate(447,373)"/>
<path d="M0 0 C0.66 0 1.32 0 2 0 C2.66 1.32 3.32 2.64 4 4 C4.33 3.34 4.66 2.68 5 2 C5.66 2 6.32 2 7 2 C7 5.3 7 8.6 7 12 C5 12.04 3 12.04 1 12 C-0.56 10.44 -0.38 8.72 -0.62 6.56 C-0.72 5.76 -0.82 4.96 -0.91 4.13 C-1 2 -1 2 0 0 Z " fill="#7F7F7F" transform="translate(837,376)"/>
<path d="M0 0 C0.3 0.1 0.3 0.1 1.81 0.62 C1.43 6.34 0.94 9.36 -3.19 13.62 C-4.51 13.3 -5.83 12.96 -7.19 12.62 C-6.55 12.34 -5.91 12.05 -5.25 11.75 C-3.19 10.62 -3.19 10.62 -2.19 8.62 C-3.18 8.3 -4.17 7.96 -5.19 7.62 C-5.38 4.75 -5.38 4.75 -5.19 1.62 C-2.19 -0.38 -2.19 -0.38 0 0 Z " fill="#555756" transform="translate(399.1875,355.375)"/>
<path d="M0 0 C1.32 0 2.64 0 4 0 C4 5.61 4 11.22 4 17 C2.68 17 1.36 17 0 17 C0 11.39 0 5.78 0 0 Z " fill="#395766" transform="translate(834,183)"/>
<path d="M0 0 C1.32 0 2.64 0 4 0 C4 5.61 4 11.22 4 17 C2.68 17 1.36 17 0 17 C0 11.39 0 5.78 0 0 Z " fill="#43677E" transform="translate(683,183)"/>
<path d="M0 0 C4.88 0.88 4.88 0.88 6 2 C6.07 3.69 6.08 5.38 6.06 7.06 C6.05 7.98 6.04 8.9 6.04 9.85 C6.02 10.56 6.01 11.27 6 12 C3.12 12.12 3.12 12.12 0 12 C-0.66 11.34 -1.32 10.68 -2 10 C-2 8.68 -2 7.36 -2 6 C-0.02 5.67 1.96 5.34 4 5 C4 4.01 4 3.02 4 2 C2.35 2.33 0.7 2.66 -1 3 C-0.67 2.01 -0.34 1.02 0 0 Z " fill="#5B6B74" transform="translate(971,68)"/>
<path d="M0 0 C2.64 0 5.28 0 8 0 C8 0.66 8 1.32 8 2 C6.02 2 4.04 2 2 2 C2 3.65 2 5.3 2 7 C3.98 7 5.96 7 8 7 C8 7.66 8 8.32 8 9 C6.02 9 4.04 9 2 9 C2 10.65 2 12.3 2 14 C3.98 14 5.96 14 8 14 C8 14.66 8 15.32 8 16 C5.36 16 2.72 16 0 16 C0 10.72 0 5.44 0 0 Z " fill="#394953" transform="translate(790,64)"/>
<path d="M0 0 C2.31 0 4.62 0 7 0 C7 0.66 7 1.32 7 2 C5.68 2 4.36 2 3 2 C3 2.99 3 3.98 3 5 C4.32 5 5.64 5 7 5 C7 5.99 7 6.98 7 8 C5.68 8 4.36 8 3 8 C3 8.99 3 9.98 3 11 C4.32 11 5.64 11 7 11 C7 11.66 7 12.32 7 13 C4.69 13 2.38 13 0 13 C0 8.71 0 4.42 0 0 Z " fill="#373737" transform="translate(679,471)"/>
<path d="M0 0 C0.99 0 1.98 0 3 0 C6.43 8.43 6.43 8.43 6 13 C5.34 13 4.68 13 4 13 C4 12.01 4 11.02 4 10 C2.68 10 1.36 10 0 10 C-0.33 10.99 -0.66 11.98 -1 13 C-1.66 13 -2.32 13 -3 13 C-2.69 11.58 -2.38 10.17 -2.06 8.75 C-1.98 8.36 -1.98 8.36 -1.54 6.36 C-1.05 4.23 -0.54 2.11 0 0 Z " fill="#282828" transform="translate(704,375)"/>
<path d="M0 0 C2.31 0 4.62 0 7 0 C7 0.66 7 1.32 7 2 C5.68 2 4.36 2 3 2 C3 2.99 3 3.98 3 5 C4.32 5 5.64 5 7 5 C7 5.66 7 6.32 7 7 C5.68 7 4.36 7 3 7 C3 7.99 3 8.98 3 10 C4.32 10 5.64 10 7 10 C7 10.99 7 11.98 7 13 C4.69 13 2.38 13 0 13 C0 8.71 0 4.42 0 0 Z " fill="#313131" transform="translate(698,279)"/>
<path d="M0 0 C0.66 0 1.32 0 2 0 C2.67 1.46 3.34 2.92 4 4.38 C4.19 4.78 4.19 4.78 5.12 6.84 C6 9 6 9 6 11 C2.7 11 -0.6 11 -4 11 C-1.12 2.25 -1.12 2.25 0 0 Z " fill="#CDE7EF" transform="translate(144,59)"/>
<path d="M0 0 C1.65 0 3.3 0 5 0 C7 2 7 2 7.2 4.6 C7.17 5.6 7.15 6.6 7.12 7.62 C7.11 8.63 7.09 9.63 7.07 10.66 C7.05 11.43 7.02 12.21 7 13 C6.34 13 5.68 13 5 13 C4.84 12.18 4.84 12.18 4 8 C3.01 8 2.02 8 1 8 C1 9.65 1 11.3 1 13 C0.67 13 0.34 13 0 13 C0 8.71 0 4.42 0 0 Z " fill="#5C5C5C" transform="translate(790,471)"/>
<path d="M0 0 C0.99 0.33 1.98 0.66 3 1 C3.95 3.72 3.95 3.72 4.69 7.06 C4.94 8.17 5.19 9.27 5.45 10.41 C5.63 11.26 5.81 12.12 6 13 C5.01 13 4.02 13 3 13 C3 12.01 3 11.02 3 10 C1.68 10 0.36 10 -1 10 C-1 10.99 -1 11.98 -1 13 C-1.99 13 -2.98 13 -4 13 C-3.53 11.02 -3.04 9.04 -2.56 7.06 C-2.3 5.96 -2.03 4.86 -1.75 3.72 C-1 1 -1 1 0 0 Z " fill="#2B2B2B" transform="translate(742,423)"/>
<path d="M0 0 C0.66 0 1.32 0 2 0 C2.48 1.42 2.96 2.83 3.44 4.25 C3.57 4.64 3.57 4.64 4.25 6.64 C4.92 8.75 5.49 10.85 6 13 C5.01 13 4.02 13 3 13 C3 12.01 3 11.02 3 10 C1.68 10 0.36 10 -1 10 C-1 10.99 -1 11.98 -1 13 C-1.99 13 -2.98 13 -4 13 C-3.52 11.21 -3.04 9.42 -2.56 7.62 C-2.3 6.63 -2.03 5.63 -1.75 4.6 C-1 2 -1 2 0 0 Z " fill="#272727" transform="translate(663,375)"/>
<path d="M0 0 C1.65 0 3.3 0 5 0 C5 5.28 5 10.56 5 16 C4.01 16 3.02 16 2 16 C1.8 13.95 1.61 11.9 1.41 9.85 C1.35 9.54 1.35 9.54 1 8 C0.34 7.67 -0.32 7.34 -1 7 C-0.67 4.69 -0.34 2.38 0 0 Z " fill="#20425B" transform="translate(684,208)"/>
</svg>
