<?xml version="1.0" encoding="UTF-8"?>
<!-- Generator: visioncortex VTracer 0.6.5 -->
<svg version="1.1" xmlns="http://www.w3.org/2000/svg" width="1024" height="565">
<path d="M0 0 C337.92 0 675.84 0 1024 0 C1024 186.45 1024 372.9 1024 565 C686.08 565 348.16 565 0 565 C0 378.55 0 192.1 0 0 Z " fill="#E7E7E8" transform="translate(0,0)"/>
<path d="M0 0 C0 132.99 0 265.98 0 403 C-3.86 404.29 -7.59 404.29 -11.61 404.43 C-13.42 404.5 -15.23 404.58 -17.04 404.65 C-19.84 404.76 -22.65 404.87 -25.45 404.97 C-36.84 405.4 -48.13 406.16 -59.47 407.34 C-82.59 409.72 -105.81 410.96 -129.01 412.39 C-134 412.7 -138.98 413.02 -143.97 413.34 C-148.86 413.65 -153.76 413.95 -158.65 414.26 C-160.95 414.4 -163.24 414.54 -165.54 414.69 C-179.11 415.55 -192.68 416.24 -206.28 416.63 C-207.34 416.67 -208.41 416.7 -209.51 416.74 C-210.45 416.76 -211.39 416.79 -212.36 416.82 C-214.99 417 -217.43 417.44 -220 418 C-221.39 418.13 -222.78 418.22 -224.18 418.28 C-224.57 418.3 -224.57 418.3 -226.56 418.39 C-226.98 418.41 -226.98 418.41 -229.1 418.5 C-229.97 418.54 -230.84 418.58 -231.74 418.62 C-235.45 418.8 -239.17 418.96 -242.88 419.12 C-245.6 419.25 -248.32 419.37 -251.04 419.5 C-251.45 419.52 -251.45 419.52 -253.58 419.61 C-253.97 419.63 -253.97 419.63 -255.95 419.72 C-256.64 419.75 -257.33 419.78 -258.03 419.81 C-260.1 420.01 -261.99 420.49 -264 421 C-266.43 421.13 -268.86 421.2 -271.29 421.25 C-272.74 421.28 -274.19 421.31 -275.64 421.35 C-277.91 421.39 -280.18 421.44 -282.44 421.48 C-296.84 421.74 -296.84 421.74 -303.65 423.54 C-308.69 424.53 -313.89 424.42 -319.02 424.52 C-322.47 424.59 -325.91 424.69 -329.36 424.79 C-330.02 424.8 -330.02 424.8 -333.36 424.89 C-337.83 425.02 -342.29 425.22 -346.75 425.5 C-347.92 425.57 -349.09 425.64 -350.3 425.72 C-353 426 -353 426 -356 427 C-363.32 427.82 -370.7 428.1 -378.06 428.25 C-379.27 428.28 -380.48 428.3 -381.72 428.33 C-385.38 427.96 -386.98 427 -390 425 C-392.25 424.06 -394.53 423.17 -396.81 422.31 C-397.97 421.88 -399.14 421.44 -400.33 420.99 C-401.21 420.66 -402.09 420.34 -403 420 C-403 419.34 -403 418.68 -403 418 C-404.12 417.92 -405.24 417.83 -406.39 417.75 C-411.59 417.1 -416.01 415.13 -420.75 413 C-422.41 412.27 -424.07 411.54 -425.73 410.81 C-426.1 410.65 -426.1 410.65 -427.93 409.83 C-429.94 409.02 -431.9 408.5 -434 408 C-434.05 394.82 -434.08 381.64 -434.1 368.47 C-434.11 362.35 -434.13 356.23 -434.15 350.11 C-434.17 344.2 -434.18 338.29 -434.19 332.39 C-434.19 330.13 -434.2 327.88 -434.21 325.63 C-434.23 322.47 -434.23 319.32 -434.23 316.16 C-434.23 315.23 -434.24 314.3 -434.25 313.34 C-434.23 308.17 -433.69 303.9 -432 299 C-432.66 299 -433.32 299 -434 299 C-434 297.68 -434 296.36 -434 295 C-433.01 295 -432.02 295 -431 295 C-431 294.34 -431 293.68 -431 293 C-431.99 293 -432.98 293 -434 293 C-434 289.04 -434 285.08 -434 281 C-433.01 281 -432.02 281 -431 281 C-431 280.34 -431 279.68 -431 279 C-431.99 279 -432.98 279 -434 279 C-434 277.68 -434 276.36 -434 275 C-433.01 275 -432.02 275 -431 275 C-431.33 274.34 -431.66 273.68 -432 273 C-432.66 273 -433.32 273 -434 273 C-434 270.69 -434 268.38 -434 266 C-433.01 266 -432.02 266 -431 266 C-431 265.34 -431 264.68 -431 264 C-431.99 264 -432.98 264 -434 264 C-434 260.04 -434 256.08 -434 252 C-433.01 252 -432.02 252 -431 252 C-431 251.34 -431 250.68 -431 250 C-431.99 250 -432.98 250 -434 250 C-434 241.09 -434 232.18 -434 223 C-433.34 222.67 -432.68 222.34 -432 222 C-432.66 221.67 -433.32 221.34 -434 221 C-434 217.04 -434 213.08 -434 209 C-433.34 208.67 -432.68 208.34 -432 208 C-432.66 207.67 -433.32 207.34 -434 207 C-434 190.67 -434 174.33 -434 158 C-434.01 155.99 -434.01 153.98 -434.02 151.96 C-434.03 145.62 -434.04 139.27 -434.05 132.93 C-434.06 129.09 -434.06 125.25 -434.08 121.42 C-434.09 117.7 -434.09 113.98 -434.09 110.26 C-434.1 108.85 -434.1 107.44 -434.11 106.03 C-434.15 93.63 -434.15 93.63 -433.5 88.21 C-432.59 80.36 -432.88 72.41 -432.9 64.52 C-432.9 62.74 -432.91 60.96 -432.91 59.19 C-432.91 54.53 -432.92 49.88 -432.93 45.23 C-432.94 40.47 -432.95 35.71 -432.95 30.95 C-432.96 21.63 -432.98 12.32 -433 3 C-348.58 1.43 -264.14 1.01 -179.71 0.49 C-172.77 0.45 -165.84 0.4 -158.91 0.36 C-105.94 0.01 -52.97 0 0 0 Z " fill="#06325F" transform="translate(649,68)"/>
<path d="M0 0 C0 30.36 0 60.72 0 92 C-8.06 92.02 -16.13 92.04 -24.44 92.06 C-26.99 92.07 -29.54 92.08 -32.16 92.09 C-34.17 92.09 -36.18 92.1 -38.18 92.1 C-39.24 92.1 -40.29 92.11 -41.37 92.11 C-41.87 92.11 -41.87 92.11 -44.39 92.11 C-45.26 92.12 -46.12 92.12 -47.02 92.12 C-49 92 -49 92 -50 91 C-50.1 88.2 -50.13 85.42 -50.11 82.62 C-50.11 81.75 -50.11 80.87 -50.11 79.96 C-50.11 77.05 -50.11 74.13 -50.1 71.21 C-50.1 69.2 -50.09 67.18 -50.09 65.17 C-50.09 59.85 -50.08 54.53 -50.07 49.21 C-50.06 43.79 -50.05 38.37 -50.05 32.94 C-50.04 22.3 -50.02 11.65 -50 1 C-46.17 0.82 -42.33 0.66 -38.5 0.5 C-37.46 0.45 -36.42 0.4 -35.35 0.36 C-23.54 -0.13 -11.86 0 0 0 Z " fill="#FDFDFD" transform="translate(1024,117)"/>
<path d="M0 0 C0.54 -0.01 0.54 -0.01 3.28 -0.05 C4.45 -0.05 5.61 -0.06 6.82 -0.06 C8.02 -0.07 9.22 -0.08 10.46 -0.09 C13.01 -0.11 15.55 -0.12 18.1 -0.12 C21.99 -0.13 25.88 -0.18 29.77 -0.23 C32.25 -0.24 34.72 -0.25 37.19 -0.25 C38.36 -0.27 39.52 -0.29 40.72 -0.31 C49.74 -0.26 49.74 -0.26 53.36 2.59 C56.77 6.54 57.97 8.85 57.9 14.07 C57.89 14.96 57.89 15.85 57.88 16.77 C57.87 17.23 57.87 17.23 57.83 19.56 C57.82 20.49 57.81 21.43 57.8 22.39 C57.78 24.7 57.74 27 57.71 29.31 C63.32 29.31 68.93 29.31 74.71 29.31 C74.71 29.97 74.71 30.63 74.71 31.31 C39.73 31.31 4.75 31.31 -31.29 31.31 C-31.29 30.98 -31.29 30.65 -31.29 30.31 C-25.35 30.31 -19.41 30.31 -13.29 30.31 C-13.35 28.79 -13.41 27.27 -13.47 25.7 C-13.52 23.7 -13.56 21.69 -13.61 19.68 C-13.65 18.68 -13.69 17.68 -13.73 16.65 C-13.87 8.31 -13.87 8.31 -10.96 4.72 C-7.12 1.24 -5.11 0.06 0 0 Z " fill="#28BCBD" transform="translate(117.294189453125,482.693603515625)"/>
<path d="M0 0 C9.24 0 18.48 0 28 0 C28 20.13 28 40.26 28 61 C24.04 59.02 20.08 57.04 16 55 C9.29 56.12 9.29 56.12 5.75 58.56 C2.19 61 2.19 61 0 61 C0 52.42 0 43.84 0 35 C0.82 34.84 0.82 34.84 5 34 C5.12 28.25 5.12 28.25 4 26 C2.68 25.34 1.36 24.68 0 24 C0 16.08 0 8.16 0 0 Z " fill="#36C8C7" transform="translate(165,54)"/>
<path d="M0 0 C0.74 0 1.47 0.01 2.23 0.01 C3 0.01 3.77 0.01 4.56 0.01 C7.12 0.01 9.68 0.02 12.24 0.03 C14.01 0.03 15.78 0.03 17.55 0.03 C22.22 0.03 26.88 0.04 31.55 0.06 C36.31 0.07 41.07 0.07 45.83 0.08 C55.17 0.09 64.52 0.1 73.86 0.12 C73.86 6.06 73.86 12 73.86 18.12 C47.46 18.12 21.06 18.12 -6.14 18.12 C-6.14 0.01 -6.14 0.01 0 0 Z " fill="#29AAA7" transform="translate(105.13786315917969,458.8755798339844)"/>
<path d="M0 0 C4.42 3.11 8.02 6.76 9.75 11.94 C10.45 19.13 10.17 24.13 5.75 29.94 C1.47 34.13 -1.56 36.08 -7.56 36.12 C-8.03 36.13 -8.03 36.13 -10.43 36.17 C-16.3 35.69 -19.4 33.29 -23.25 28.94 C-27.1 23.45 -27.15 18.46 -26.25 11.94 C-24.21 6.75 -20.91 3 -16.25 -0.06 C-10.89 -1.85 -5.36 -1.75 0 0 Z " fill="#E5EDF2" transform="translate(561.25,134.0625)"/>
<path d="M0 0 C4.23 2.82 7.17 5.95 8.81 10.88 C9.51 17.96 9.29 24.1 4.81 29.88 C1.25 33.55 -2.12 36.22 -7.38 36.38 C-13.95 35.51 -16.8 33.78 -20.89 28.66 C-23.76 24.69 -24.7 21.07 -24.57 16.13 C-23.59 10.37 -20.7 5.35 -16.56 1.31 C-11.23 -1.92 -5.75 -2.03 0 0 Z " fill="#ADBFD3" transform="translate(515.1875,354.125)"/>
<path d="M0 0 C3.89 3.6 5.5 7.72 6.62 12.88 C5.61 17.96 2.42 21.23 -1 25 C-1.48 25.54 -1.96 26.08 -2.46 26.63 C-7.43 31.45 -13.89 34.12 -20.06 37.07 C-25.95 39.93 -31.03 42.5 -35.25 47.69 C-38.7 51.9 -38.7 51.9 -42 53 C-43.73 53.07 -45.46 53.08 -47.19 53.06 C-48.09 53.05 -48.99 53.04 -49.92 53.04 C-50.61 53.02 -51.29 53.01 -52 53 C-45.85 38.15 -38.96 30.29 -24 24 C-11.46 18.55 -5.54 12.46 0 0 Z " fill="#E5EAEE" transform="translate(372,145)"/>
<path d="M0 0 C9.05 -0.31 9.05 -0.31 13 2 C16.45 5.77 18.45 9.79 20.31 14.5 C20.45 14.83 20.45 14.83 21.15 16.47 C22.71 20.36 23.5 23.02 22 27 C20.73 28.84 20.73 28.84 19.19 30.38 C18.69 30.9 18.18 31.42 17.67 31.96 C16 33 16 33 13.88 32.79 C12 32 12 32 10.75 29.94 C10.5 29.3 10.25 28.66 10 28 C9.57 29.07 9.13 30.15 8.69 31.25 C7.14 35.08 5.59 38.22 1.77 40.09 C0.94 40.37 0.11 40.65 -0.75 40.94 C-5.5 42.69 -9.02 44.89 -13 48 C-12.23 44.31 -10.81 41.04 -9.31 37.59 C-9.05 36.98 -8.79 36.37 -8.52 35.75 C-7.68 33.81 -6.84 31.87 -6 29.94 C-5.16 28 -4.32 26.06 -3.48 24.12 C-2.72 22.36 -1.96 20.6 -1.2 18.85 C0.32 15.23 1.14 12.46 1.12 8.56 C1.13 7.8 1.13 7.04 1.13 6.25 C1 4.05 0.61 2.12 0 0 Z " fill="#E3E8EC" transform="translate(342,130)"/>
<path d="M0 0 C0.33 0 0.66 0 1 0 C1 132.99 1 265.98 1 403 C-2.18 404.06 -4.64 404.2 -7.98 404.32 C-9.14 404.36 -10.31 404.4 -11.51 404.44 C-12.72 404.48 -13.94 404.52 -15.19 404.56 C-16.41 404.61 -17.64 404.65 -18.9 404.69 C-21.94 404.8 -24.97 404.9 -28 405 C-28 404.67 -28 404.34 -28 404 C-18.76 403.34 -9.52 402.68 0 402 C-0.16 395.56 -0.16 395.56 -1 363 C-3.64 367.62 -6.28 372.24 -9 377 C-13 383 -13 383 -15 384 C-13.01 373.63 -10.92 363.29 -8.56 353 C-8.47 352.59 -8.47 352.59 -8.01 350.51 C-6.93 345.89 -5.49 341.85 -3.45 337.56 C-0.54 330.62 -0.3 324.44 -0.36 316.99 C-0.35 315.62 -0.35 314.24 -0.34 312.86 C-0.31 309.12 -0.32 305.37 -0.34 301.62 C-0.34 297.57 -0.32 293.52 -0.31 289.46 C-0.29 282.45 -0.28 275.44 -0.29 268.43 C-0.3 258.29 -0.28 248.16 -0.25 238.02 C-0.21 221.57 -0.2 205.12 -0.2 188.68 C-0.19 172.7 -0.18 156.73 -0.15 140.76 C-0.15 139.77 -0.15 138.79 -0.15 137.77 C-0.14 132.83 -0.13 127.88 -0.12 122.94 C-0.05 81.96 -0.01 40.98 0 0 Z " fill="#586E80" transform="translate(648,68)"/>
<path d="M0 0 C2.05 0.03 4.1 0.07 6.15 0.1 C9.95 7.43 13.3 14.91 16.46 22.54 C16.92 23.61 17.37 24.68 17.84 25.79 C18.27 26.82 18.7 27.85 19.14 28.91 C19.53 29.83 19.91 30.76 20.31 31.71 C21.15 34.1 21.15 34.1 21.15 37.1 C15.84 37.53 15.84 37.53 13.15 37.1 C10.7 34.26 10.15 32.85 10.15 29.1 C4.87 29.1 -0.41 29.1 -5.85 29.1 C-6.51 31.41 -7.17 33.72 -7.85 36.1 C-8.85 37.1 -8.85 37.1 -10.7 37.2 C-12.75 37.16 -14.8 37.13 -16.85 37.1 C-14.37 29.26 -11.34 21.7 -8.22 14.1 C-7.71 12.85 -7.21 11.6 -6.7 10.34 C-2.53 0.13 -2.53 0.13 0 0 Z " fill="#E4EAEF" transform="translate(412.84765625,134.90234375)"/>
<path d="M0 0 C2.97 0 5.94 0 9 0 C6.78 4.43 4.02 7.77 0.88 11.56 C-0.75 13.68 -1.86 15.61 -3 18 C-2.82 18.23 -2.82 18.23 -1.91 19.42 C-0.29 21.55 1.32 23.68 2.94 25.81 C3.22 26.18 3.22 26.18 4.65 28.05 C5.18 28.76 5.72 29.47 6.28 30.21 C6.77 30.86 7.27 31.52 7.78 32.19 C9 34 9 34 10 37 C6.42 37.81 3.55 38.01 0 37 C-2.85 34.07 -4.99 31.05 -7.19 27.62 C-7.49 27.19 -7.49 27.19 -9 25 C-9.66 25 -10.32 25 -11 25 C-13.11 28.16 -13.34 29.51 -13.62 33.19 C-13.7 34.09 -13.77 34.99 -13.85 35.92 C-13.88 36.26 -13.88 36.26 -14 38 C-16.64 38 -19.28 38 -22 38 C-22 25.79 -22 13.58 -22 1 C-19.36 1 -16.72 1 -14 1 C-13.67 5.95 -13.34 10.9 -13 16 C-11.02 13.71 -9.04 11.42 -7.06 9.12 C-6.5 8.47 -5.93 7.82 -5.35 7.15 C-4.82 6.53 -4.28 5.9 -3.72 5.26 C-3.23 4.68 -2.73 4.11 -2.22 3.51 C-1 2 -1 2 0 0 Z " fill="#E2E9F0" transform="translate(460,134)"/>
<path d="M0 0 C8.58 0 17.16 0 26 0 C26 2.31 26 4.62 26 7 C20.06 7 14.12 7 8 7 C8 9.64 8 12.28 8 15 C12.95 15 17.9 15 23 15 C23 16.98 23 18.96 23 21 C18.05 21 13.1 21 8 21 C8 23.97 8 26.94 8 30 C13.94 30 19.88 30 26 30 C26 32.31 26 34.62 26 37 C17.42 37 8.84 37 0 37 C0 24.79 0 12.58 0 0 Z " fill="#E4EDF3" transform="translate(474,134)"/>
<path d="M0 0 C3.62 1.5 3.62 1.5 6 3 C5.25 7.75 5.25 7.75 3 10 C2.34 9.65 1.68 9.3 1 8.94 C-3.05 7.67 -5.83 8.29 -10 9 C-9.67 10.65 -9.34 12.3 -9 14 C-8.42 14.1 -7.84 14.2 -7.24 14.3 C-2.01 15.3 1.76 16.59 6 20 C8.51 23.77 8.53 25.53 8 30 C5.25 34.16 2.93 36.91 -2 38 C-8.35 38.6 -13.46 38.3 -19 35 C-20.06 33 -20.06 33 -20 31 C-19.67 30.5 -19.67 30.5 -18 28 C-13.25 28.88 -13.25 28.88 -11 30 C-9.12 30.13 -9.12 30.13 -7 30.12 C-6.3 30.13 -5.6 30.13 -4.88 30.13 C-3 30 -3 30 -1 29 C-0.38 26.94 -0.38 26.94 0 25 C-0.8 24.83 -1.59 24.66 -2.41 24.48 C-8.39 23.12 -13.26 21.97 -18 18 C-19.74 14.52 -19.59 10.79 -19 7 C-13.79 0.2 -8.17 -0.89 0 0 Z " fill="#E2EBF1" transform="translate(524,133)"/>
<path d="M0 0 C0.74 0 1.47 0.01 2.23 0.01 C3 0.01 3.77 0.01 4.56 0.01 C7.12 0.01 9.68 0.02 12.24 0.03 C14.01 0.03 15.78 0.03 17.55 0.03 C22.22 0.03 26.88 0.04 31.55 0.06 C36.31 0.07 41.07 0.07 45.83 0.08 C55.17 0.09 64.52 0.1 73.86 0.12 C73.86 0.45 73.86 0.78 73.86 1.12 C51.09 1.12 28.32 1.12 4.86 1.12 C5.19 2.44 5.52 3.76 5.86 5.12 C6.52 4.79 7.18 4.46 7.86 4.12 C9.57 4.05 11.28 4.04 12.99 4.06 C13.9 4.07 14.81 4.08 15.74 4.09 C16.09 4.1 16.09 4.1 17.86 4.12 C18.52 5.77 19.18 7.42 19.86 9.12 C21.86 7.12 21.86 7.12 22.86 4.12 C23.85 4.12 24.84 4.12 25.86 4.12 C25.92 5.73 25.96 7.33 25.99 8.94 C26.01 9.83 26.03 10.72 26.06 11.64 C25.86 14.12 25.86 14.12 23.86 17.12 C40.36 17.12 56.86 17.12 73.86 17.12 C73.86 17.45 73.86 17.78 73.86 18.12 C47.46 18.12 21.06 18.12 -6.14 18.12 C-6.14 0.01 -6.14 0.01 0 0 Z " fill="#58C1C0" transform="translate(105.13786315917969,458.8755798339844)"/>
<path d="M0 0 C2.97 0 5.94 0 9 0 C9 0.66 9 1.32 9 2 C11.64 2.33 14.28 2.66 17 3 C17 4.65 17 6.3 17 8 C16.34 8 15.68 8 15 8 C15.35 8.56 15.7 9.11 16.06 9.69 C17 12 17 12 16 17 C12.7 17.66 9.4 18.32 6 19 C6.33 18.34 6.66 17.68 7 17 C-1.58 16.34 -10.16 15.68 -19 15 C-19 14.34 -19 13.68 -19 13 C-18.34 13 -17.68 13 -17 13 C-17 11.35 -17 9.7 -17 8 C-17.66 8 -18.32 8 -19 8 C-18.62 5.56 -18.62 5.56 -18 3 C-14.93 1.47 -11.73 1.9 -8.38 1.94 C-8.02 1.94 -8.02 1.94 -6.23 1.95 C-4.49 1.96 -2.74 1.98 -1 2 C-0.67 1.34 -0.34 0.68 0 0 Z " fill="#535353" transform="translate(141,349)"/>
<path d="M0 0 C4.31 0.36 5.74 1.3 8.75 4.31 C10.15 7.11 9.96 9.5 10 12.62 C10.03 13.76 10.05 14.89 10.08 16.05 C9.63 20.46 8.04 23.03 4.94 26.12 C1.92 27.77 0.14 27.87 -3.25 27.31 C-6.97 24.17 -9.09 22.12 -9.52 17.23 C-9.79 7.32 -9.79 7.32 -8.17 4.31 C-6.81 3 -6.81 3 -4.25 1.31 C-3.25 0.31 -3.25 0.31 0 0 Z " fill="#DBE7F2" transform="translate(594.25,278.6875)"/>
<path d="M0 0 C12.45 -0.13 12.45 -0.13 18 1 C18.33 0.67 18.66 0.34 19 0 C24.74 -0.27 24.74 -0.27 27 0 C27.66 0.66 28.32 1.32 29 2 C28.67 2.66 28.34 3.32 28 4 C25.36 3.67 22.72 3.34 20 3 C20.33 3.99 20.66 4.98 21 6 C23.31 6.74 25.65 7.41 28 8 C29 9 29 9 29.25 11.94 C29.17 12.95 29.09 13.96 29 15 C25.3 17.47 23.38 17.31 19 17 C16.56 16 16.56 16 15 15 C14.67 15.66 14.34 16.32 14 17 C9.38 17 4.76 17 0 17 C0 11.39 0 5.78 0 0 Z " fill="#DCE7EC" transform="translate(770,76)"/>
<path d="M0 0 C4.29 0 8.58 0 13 0 C18.05 6.31 18.67 9.16 18 17 C16.28 21.73 15.14 22.89 11 26 C7.37 26 3.74 26 0 26 C0 17.42 0 8.84 0 0 Z " fill="#DBE5EE" transform="translate(437,285)"/>
<path d="M0 0 C2.95 0.23 4.53 0.55 6.69 2.62 C10.89 10.24 11.52 19.99 9.39 28.39 C8.29 31.06 7.05 32.95 5 35 C3.12 35.06 3.12 35.06 1 34 C-4.52 25.8 -4.66 17.74 -4 8 C-3.22 5 -2.25 2.25 0 0 Z " fill="#7E8AAA" transform="translate(226,410)"/>
<path d="M0 0 C1.65 0 3.3 0 5 0 C5 8.91 5 17.82 5 27 C3.35 27 1.7 27 0 27 C-1.44 25.53 -1.44 25.53 -2.56 23.5 C-2.97 22.78 -3.38 22.06 -3.8 21.31 C-5.58 17.89 -7.33 14.47 -9 11 C-9.33 16.61 -9.66 22.22 -10 28 C-11.65 28 -13.3 28 -15 28 C-15 19.09 -15 10.18 -15 1 C-13.02 1 -11.04 1 -9 1 C-6.36 5.62 -3.72 10.24 -1 15 C-0.67 10.05 -0.34 5.1 0 0 Z " fill="#D8E2ED" transform="translate(500,282)"/>
<path d="M0 0 C13 0 13 0 17 3 C17.46 5.19 17.46 5.19 17.38 7.56 C17.37 7.96 17.37 7.96 17.34 9.94 C17 12 17 12 15 14 C15.28 16.68 15.86 18.72 17.06 21.12 C18 23 18 23 18 26 C16.35 26 14.7 26 13 26 C12.33 24.71 11.66 23.42 11 22.12 C10.63 21.41 10.26 20.69 9.88 19.95 C9 18 9 18 9 16 C7.68 16 6.36 16 5 16 C5 19.3 5 22.6 5 26 C3.35 26 1.7 26 0 26 C0 17.42 0 8.84 0 0 Z " fill="#C0CDDA" transform="translate(538,281)"/>
<path d="M0 0 C3.12 2.66 4.64 4.22 5.45 8.22 C5.64 12.18 5.31 14.47 3.31 17.94 C-0.13 21.01 -2.43 22.03 -7.06 21.94 C-10.75 20.76 -11.9 19.19 -14 16 C-15.53 12.94 -15.23 10.38 -15 7 C-12 0.06 -7.24 -2.2 0 0 Z " fill="#0A3861" transform="translate(558,141)"/>
<path d="M0 0 C3.25 0 3.25 0 7 1 C10.01 4.79 11 8.19 11 13 C11.66 13 12.32 13 13 13 C13.33 15.31 13.66 17.62 14 20 C11.71 21.17 9.42 22.34 7.12 23.5 C6.47 23.83 5.82 24.17 5.15 24.51 C0.23 27 0.23 27 -2 27 C-2.31 27.64 -2.62 28.28 -2.94 28.94 C-4 31 -4 31 -5 32 C-7 32.04 -9 32.04 -11 32 C-9.36 27.22 -7.48 23.3 -2.84 20.87 C-1.28 20.18 0.29 19.52 1.88 18.89 C4 18 4 18 7 16 C6.01 15.67 5.02 15.34 4 15 C3.67 15.99 3.34 16.98 3 18 C0.93 18.95 0.93 18.95 -1.56 19.69 C-2.39 19.94 -3.22 20.19 -4.07 20.45 C-4.7 20.63 -5.34 20.81 -6 21 C-4.87 17.34 -3.52 13.95 -1.88 10.5 C-0.21 6.85 0.42 4.07 0 0 Z " fill="#32A0B9" transform="translate(704,72)"/>
<path d="M0 0 C1.98 0 3.96 0 6 0 C6.33 7.26 6.66 14.52 7 22 C8.98 22 10.96 22 13 22 C13.33 14.74 13.66 7.48 14 0 C15.98 0 17.96 0 20 0 C20.09 3.21 20.14 6.42 20.19 9.62 C20.21 10.53 20.24 11.43 20.26 12.36 C20.32 17.69 20.01 21.4 17 26 C14.52 27.95 12.74 28.03 9.56 28.44 C5.08 27.89 3.79 26.45 1 23 C-0.23 20.55 -0.11 18.95 -0.1 16.21 C-0.1 15.74 -0.1 15.74 -0.09 13.36 C-0.08 12.37 -0.07 11.39 -0.06 10.38 C-0.06 9.38 -0.05 8.39 -0.05 7.37 C-0.04 4.91 -0.02 2.46 0 0 Z " fill="#CCD8E4" transform="translate(340,287)"/>
<path d="M0 0 C2.68 3.44 2.64 5.94 2.43 10.21 C2 12.56 2 12.56 0.19 15.12 C-3.84 17.77 -7.27 18.04 -12 17.56 C-16.35 15.19 -16.35 15.19 -18 12.56 C-18.73 9.1 -18.7 6.03 -18 2.56 C-13.43 -3.89 -6.5 -3.11 0 0 Z " fill="#11243E" transform="translate(190,153.4375)"/>
<path d="M0 0 C0.66 0 1.32 0 2 0 C3.12 6.62 3.12 6.62 2 10 C1.34 10 0.68 10 0 10 C0 41.02 0 72.04 0 104 C1.65 104.33 3.3 104.66 5 105 C7.31 106.06 7.31 106.06 9 107 C9 107.66 9 108.32 9 109 C10.23 109.07 11.46 109.13 12.73 109.2 C19.03 109.9 24.52 112.36 30.31 114.81 C53.64 124.55 53.64 124.55 66.75 124.75 C67.75 124.78 68.74 124.81 69.77 124.84 C72.18 124.91 74.59 124.96 77 125 C77 125.33 77 125.66 77 126 C69.65 126.63 62.31 127.1 54.94 127.25 C53.73 127.28 52.52 127.3 51.28 127.33 C47.62 126.96 46.02 126 43 124 C40.75 123.06 38.47 122.17 36.19 121.31 C35.03 120.88 33.86 120.44 32.67 119.99 C31.79 119.66 30.91 119.34 30 119 C30 118.34 30 117.68 30 117 C28.88 116.92 27.76 116.83 26.61 116.75 C21.41 116.1 16.99 114.13 12.25 112 C10.59 111.27 8.93 110.54 7.27 109.81 C6.54 109.49 5.82 109.17 5.07 108.83 C3.06 108.02 1.1 107.5 -1 107 C-1.02 93.79 -1.04 80.57 -1.05 67.36 C-1.06 61.23 -1.06 55.09 -1.08 48.96 C-1.09 43.04 -1.09 37.12 -1.09 31.2 C-1.1 28.94 -1.1 26.68 -1.11 24.42 C-1.11 21.26 -1.11 18.09 -1.11 14.93 C-1.12 14 -1.12 13.06 -1.12 12.1 C-1.12 7.93 -1.06 4.06 0 0 Z " fill="#5C6069" transform="translate(216,369)"/>
<path d="M0 0 C1.98 0 3.96 0 6 0 C7.34 3.75 8.67 7.5 10 11.25 C10.38 12.31 10.76 13.38 11.16 14.47 C11.52 15.5 11.88 16.52 12.25 17.58 C12.59 18.52 12.92 19.46 13.27 20.43 C14 23 14 23 14 27 C12.35 27 10.7 27 9 27 C8.34 25.35 7.68 23.7 7 22 C4.03 21.67 1.06 21.34 -2 21 C-1.98 21.8 -1.96 22.61 -1.94 23.44 C-2 26 -2 26 -3 27 C-4.67 27.04 -6.33 27.04 -8 27 C-6.69 20.64 -4.99 14.58 -2.88 8.44 C-2.6 7.62 -2.32 6.8 -2.04 5.96 C-1.36 3.97 -0.68 1.99 0 0 Z " fill="#C9D3DE" transform="translate(391,286)"/>
<path d="M0 0 C1.65 0 3.3 0 5 0 C5 8.58 5 17.16 5 26 C3.68 26 2.36 26 1 26 C0.67 21.38 0.34 16.76 0 12 C-1.65 16.62 -3.3 21.24 -5 26 C-5.99 26 -6.98 26 -8 26 C-9.98 20.72 -11.96 15.44 -14 10 C-14.33 15.61 -14.66 21.22 -15 27 C-15.99 27 -16.98 27 -18 27 C-18 18.42 -18 9.84 -18 1 C-16.68 1 -15.36 1 -14 1 C-11.26 6.89 -8.94 12.8 -7 19 C-4.42 12.74 -2.06 6.45 0 0 Z " fill="#C3D2E2" transform="translate(378,364)"/>
<path d="M0 0 C1.84 3.96 3.67 7.91 5.5 11.88 C6.02 13 6.55 14.13 7.09 15.29 C7.59 16.37 8.08 17.45 8.59 18.55 C9.05 19.55 9.52 20.54 9.99 21.57 C11 24 11 24 11 26 C5.67 26.43 1.42 26.76 -3.38 24.19 C-7.1 20.4 -9.66 15.1 -11 10 C-9.99 6.72 -8.09 4.92 -5.5 2.75 C-4.89 2.23 -4.28 1.71 -3.66 1.17 C-2 0 -2 0 0 0 Z " fill="#E0E8EB" transform="translate(374,171)"/>
<path d="M0 0 C0.33 0 0.66 0 1 0 C2.83 32.08 2.83 32.08 -8 46 C-8.36 46.55 -8.36 46.55 -10.17 49.34 C-12 52 -12 52 -14 53 C-6.3 12.95 -6.3 12.95 0 0 Z " fill="#106C94" transform="translate(647,399)"/>
<path d="M0 0 C2 0 2 0 4.19 2.12 C6 5 6 5 5.81 8.12 C5.26 10.1 4.65 12.06 4 14 C3.01 14 2.02 14 1 14 C1 11.69 1 9.38 1 7 C0.34 7 -0.32 7 -1 7 C-0.67 9.64 -0.34 12.28 0 15 C1.65 15 3.3 15 5 15 C5 14.34 5 13.68 5 13 C5.99 13 6.98 13 8 13 C8 11.35 8 9.7 8 8 C8.66 8.33 9.32 8.66 10 9 C10.33 9.99 10.66 10.98 11 12 C11.66 12 12.32 12 13 12 C14.73 13.61 14.73 13.61 16.62 15.75 C17.26 16.45 17.89 17.14 18.54 17.86 C20 20 20 20 20 24 C15.5 26.16 12.09 27.76 7 27 C2.66 24.7 -0.11 22.57 -2 18 C-3.53 11.12 -2.95 6.37 0 0 Z " fill="#0D2C52" transform="translate(496,361)"/>
<path d="M0 0 C5.28 0 10.56 0 16 0 C16 1.32 16 2.64 16 4 C12.7 4 9.4 4 6 4 C6 5.98 6 7.96 6 10 C8.97 10 11.94 10 15 10 C15 11.65 15 13.3 15 15 C12.03 15 9.06 15 6 15 C6 17.31 6 19.62 6 22 C9.63 21.67 13.26 21.34 17 21 C17 22.65 17 24.3 17 26 C14.19 26.17 14.19 26.17 0 27 C0 18.09 0 9.18 0 0 Z " fill="#CEDBE4" transform="translate(458,284)"/>
<path d="M0 0 C1.93 2.09 3.1 4.31 4 7 C3.56 9.44 3.56 9.44 2 12 C1.58 12.69 1.17 13.38 0.74 14.09 C-0.48 16.08 -1.73 18.04 -3 20 C-3.33 19.34 -3.66 18.68 -4 18 C-7.96 18 -11.92 18 -16 18 C-16 15.36 -16 12.72 -16 10 C-12.7 10 -9.4 10 -6 10 C-6 8.68 -6 7.36 -6 6 C-9.3 6 -12.6 6 -16 6 C-16 3.69 -16 1.38 -16 -1 C-14.27 -1.22 -12.54 -1.43 -10.81 -1.62 C-10.33 -1.68 -10.33 -1.68 -7.89 -1.98 C-4.68 -2 -2.82 -1.52 0 0 Z " fill="#0B2C54" transform="translate(468,365)"/>
<path d="M0 0 C2.09 0.43 2.09 0.43 4.66 2.18 C6.09 4.43 6.09 4.43 6.09 8.43 C3.72 8.61 3.72 8.61 1.09 8.43 C0.43 7.44 -0.23 6.45 -0.91 5.43 C-2.56 5.76 -4.21 6.09 -5.91 6.43 C-4.52 9.87 -3.29 11.07 0.09 12.55 C2.66 13.69 4.08 14.41 6.09 16.43 C6.41 20.76 6.54 22.75 4.09 26.43 C0.05 27.77 -3.68 27.98 -7.91 27.43 C-10.47 25.68 -10.47 25.68 -11.91 23.43 C-11.91 22.11 -11.91 20.79 -11.91 19.43 C-10.26 19.43 -8.61 19.43 -6.91 19.43 C-6.91 20.42 -6.91 21.41 -6.91 22.43 C-4.93 22.43 -2.95 22.43 -0.91 22.43 C-0.58 21.11 -0.25 19.79 0.09 18.43 C-0.21 18.3 -0.21 18.3 -1.77 17.66 C-2.58 17.31 -3.39 16.97 -4.22 16.61 C-5.02 16.28 -5.82 15.94 -6.64 15.59 C-8.91 14.42 -10.31 13.41 -11.91 11.43 C-12.6 7.46 -12.23 5.91 -9.97 2.55 C-6.36 0.05 -4.3 -0.25 0 0 Z " fill="#DAE6F0" transform="translate(418.90625,284.57421875)"/>
<path d="M0 0 C0.48 0.01 0.48 0.01 2.94 0.06 C0.73 9.55 -2.09 18.79 -5.06 28.06 C-7.04 28.06 -9.02 28.06 -11.06 28.06 C-12.74 23.4 -14.41 18.73 -16.06 14.06 C-16.39 13.14 -16.72 12.22 -17.06 11.27 C-17.33 10.5 -17.6 9.73 -17.88 8.94 C-18.11 8.27 -18.34 7.61 -18.58 6.93 C-19.06 5.06 -19.06 5.06 -19.06 1.06 C-17.08 1.06 -15.1 1.06 -13.06 1.06 C-11.74 6.01 -10.42 10.96 -9.06 16.06 C-7.38 12.7 -6.42 9.97 -5.5 6.38 C-3.89 0.08 -3.89 0.08 0 0 Z " fill="#D3DEEB" transform="translate(381.0625,285.9375)"/>
<path d="M0 0 C3.96 0 7.92 0 12 0 C15 3 15 3 15.38 6.38 C15 10 15 10 13.25 12.44 C12 15 12 15 12.69 17.02 C13.43 18.44 14.2 19.85 15.02 21.23 C16 23 16 23 16 25 C14.68 25 13.36 25 12 25 C11.77 24.36 11.54 23.72 11.3 23.07 C11.14 22.65 11.14 22.65 10.31 20.56 C10 19.74 9.69 18.92 9.36 18.07 C8.91 17.38 8.46 16.7 8 16 C6.35 15.67 4.7 15.34 3 15 C3 18.63 3 22.26 3 26 C2.01 26 1.02 26 0 26 C0 17.42 0 8.84 0 0 Z " fill="#CADAE9" transform="translate(397,404)"/>
<path d="M0 0 C13.2 0 26.4 0 40 0 C38.68 1.32 37.36 2.64 36 4 C34.95 6.14 34.95 6.14 34.25 8.25 C34.04 8.87 34.04 8.87 33 12 C31.35 12 29.7 12 28 12 C28 9.03 28 6.06 28 3 C27.34 3 26.68 3 26 3 C25.67 6.63 25.34 10.26 25 14 C25.99 14.33 26.98 14.66 28 15 C27 16 27 16 25.15 16.1 C23.1 16.07 21.05 16.03 19 16 C19.66 11.71 20.32 7.42 21 3 C20.01 3 19.02 3 18 3 C17.88 3.78 17.75 4.57 17.62 5.38 C17 8 17 8 15 10 C13.54 7.35 13 6.11 13 3 C12.01 3 11.02 3 10 3 C9.67 3.66 9.34 4.32 9 5 C9 4.34 9 3.68 9 3 C6.36 3.66 3.72 4.32 1 5 C0.34 4.01 -0.32 3.02 -1 2 C-0.67 1.34 -0.34 0.68 0 0 Z M7 5 C9 6 9 6 9 6 Z " fill="#1DA9A8" transform="translate(110,460)"/>
<path d="M0 0 C3.58 2.39 5.01 3.93 6.81 7.88 C7.47 13.98 7.39 19.25 4.81 24.88 C1.65 23.51 0.82 22.89 -1.19 19.88 C0.13 18.88 1.45 17.89 2.81 16.88 C2.81 17.54 2.81 18.19 2.81 18.88 C3.47 18.88 4.13 18.88 4.81 18.88 C4.44 18.13 4.07 17.39 3.69 16.62 C2.81 13.88 2.81 13.88 3.69 11.56 C4.06 11.01 4.43 10.45 4.81 9.88 C4.15 9.88 3.49 9.88 2.81 9.88 C2.48 10.87 2.15 11.86 1.81 12.88 C1.48 12.21 1.15 11.56 0.81 10.88 C0.1 10.96 -0.61 11.04 -1.35 11.12 C-9.08 11.63 -9.08 11.63 -12.48 9.32 C-14.18 7.57 -15.73 5.83 -17.19 3.88 C-12.12 -1.54 -7.11 -2.51 0 0 Z " fill="#0A284E" transform="translate(515.1875,356.125)"/>
<path d="M0 0 C3.38 1.19 3.93 1.9 6 5 C6.63 9.08 6.14 10.76 4.06 14.38 C1.7 16.94 -0.11 17.47 -3.56 17.62 C-6.58 17.4 -7.89 17.07 -10.5 15.44 C-12.52 12.16 -13 9.85 -13 6 C-9.35 0.2 -6.68 -0.35 0 0 Z " fill="#111B30" transform="translate(814,76)"/>
<path d="M0 0 C3.35 0.03 6.71 0.07 10.06 0.1 C10.06 5.38 10.06 10.66 10.06 16.1 C4.12 16.1 -1.82 16.1 -7.94 16.1 C-7.61 15.44 -7.28 14.78 -6.94 14.1 C-5.62 14.1 -4.3 14.1 -2.94 14.1 C-2.94 13.44 -2.94 12.78 -2.94 12.1 C-4.26 12.1 -5.58 12.1 -6.94 12.1 C-6.94 9.79 -6.94 7.48 -6.94 5.1 C-5.95 4.77 -4.96 4.44 -3.94 4.1 C-3.94 3.11 -3.94 2.12 -3.94 1.1 C-2.94 0.1 -2.94 0.1 0 0 Z " fill="#3DBABA" transform="translate(168.94140625,459.90234375)"/>
<path d="M0 0 C0.4 0.01 0.4 0.01 2.44 0.06 C3.78 3.02 5.11 5.98 6.44 8.94 C6.82 9.78 7.2 10.62 7.59 11.49 C7.95 12.29 8.32 13.1 8.69 13.93 C9.02 14.67 9.36 15.42 9.7 16.18 C10.44 18.06 10.44 18.06 10.44 20.06 C8.79 20.06 7.14 20.06 5.44 20.06 C5.11 19.07 4.78 18.08 4.44 17.06 C1.14 16.73 -2.16 16.4 -5.56 16.06 C-5.89 17.38 -6.22 18.7 -6.56 20.06 C-8.21 20.06 -9.86 20.06 -11.56 20.06 C-10.25 16.92 -8.94 13.77 -7.62 10.62 C-7.44 10.18 -7.44 10.18 -6.49 7.9 C-6.14 7.05 -5.78 6.2 -5.41 5.32 C-5.08 4.53 -4.75 3.73 -4.41 2.92 C-3.11 0.08 -3.11 0.08 0 0 Z " fill="#192C45" transform="translate(102.5625,150.9375)"/>
<path d="M0 0 C0.99 0 1.98 0 3 0 C4.18 3.41 5.34 6.83 6.5 10.25 C6.67 10.73 6.67 10.73 7.51 13.18 C7.83 14.12 8.14 15.05 8.47 16.02 C8.62 16.45 8.62 16.45 9.36 18.62 C10 21 10 21 10 25 C9.01 25 8.02 25 7 25 C6.67 23.02 6.34 21.04 6 19 C2.7 19 -0.6 19 -4 19 C-4.33 20.15 -4.33 20.15 -6 26 C-6.99 26 -7.98 26 -9 26 C-3.3 3.3 -3.3 3.3 0 0 Z " fill="#CDDBE9" transform="translate(419,362)"/>
<path d="M0 0 C4.95 0 9.9 0 15 0 C15 1.32 15 2.64 15 4 C11.7 4 8.4 4 5 4 C5 5.32 5 6.64 5 8 C7.97 8 10.94 8 14 8 C14 9.32 14 10.64 14 12 C11.03 12 8.06 12 5 12 C5 13.32 5 14.64 5 16 C8.3 16 11.6 16 15 16 C15 17.32 15 18.64 15 20 C10.05 20 5.1 20 0 20 C0 13.4 0 6.8 0 0 Z " fill="#2A455E" transform="translate(136,151)"/>
<path d="M0 0 C0 1.32 0 2.64 0 4 C-3.63 4 -7.26 4 -11 4 C-11 6.64 -11 9.28 -11 12 C-8.03 12 -5.06 12 -2 12 C-2 12.99 -2 13.98 -2 15 C-4.97 15 -7.94 15 -11 15 C-11 17.64 -11 20.28 -11 23 C-7.37 23 -3.74 23 0 23 C0 24.32 0 25.64 0 27 C-4.95 27 -9.9 27 -15 27 C-15 18.42 -15 9.84 -15 1 C-4.88 -0.12 -4.88 -0.12 0 0 Z " fill="#CEDAEA" transform="translate(338,407)"/>
<path d="M0 0 C6.6 0 13.2 0 20 0 C20 1.65 20 3.3 20 5 C17.36 5 14.72 5 12 5 C12 12.26 12 19.52 12 27 C10.35 27 8.7 27 7 27 C7 19.74 7 12.48 7 5 C4.69 5 2.38 5 0 5 C0 3.35 0 1.7 0 0 Z " fill="#D0DDE8" transform="translate(516,281)"/>
<path d="M0 0 C1.65 0 3.3 0 5 0 C5.33 2.64 5.66 5.28 6 8 C6.23 7.74 6.23 7.74 7.39 6.43 C8 5.77 8.62 5.12 9.25 4.44 C9.85 3.78 10.46 3.11 11.08 2.43 C13 1 13 1 15.23 1.29 C15.53 1.4 15.53 1.4 17 2 C15.67 3.43 14.33 4.86 13 6.3 C12 8 12 8 12.16 9.94 C13.15 12.37 14.44 14.18 16.06 16.25 C16.34 16.6 16.34 16.6 17.72 18.39 C17.93 18.66 17.93 18.66 19 20 C16.25 20.31 16.25 20.31 13 20 C10.62 17.62 10.62 17.62 9 15 C9 14.34 9 13.68 9 13 C8.01 13.33 7.02 13.66 6 14 C5.67 15.98 5.34 17.96 5 20 C3.35 20 1.7 20 0 20 C0 13.4 0 6.8 0 0 Z " fill="#233C53" transform="translate(115,151)"/>
<path d="M0 0 C0.16 0.33 0.16 0.33 1 2 C6.61 2 12.22 2 18 2 C18 2.66 18 3.32 18 4 C-16.98 4 -51.96 4 -88 4 C-88 3.67 -88 3.34 -88 3 C-82.06 3 -76.12 3 -70 3 C-69.67 2.34 -69.34 1.68 -69 1 C-68.35 1.07 -67.7 1.15 -67.03 1.22 C-59.87 1.97 -52.88 2.05 -45.69 1.84 C-45.13 1.83 -45.13 1.83 -42.27 1.77 C-38.7 1.68 -35.13 1.59 -31.56 1.5 C-27.97 1.41 -24.37 1.32 -20.78 1.23 C-18.55 1.18 -16.33 1.13 -14.1 1.06 C-13.09 1.04 -12.09 1.02 -11.05 0.99 C-10.17 0.97 -9.29 0.95 -8.38 0.92 C-6 1 -6 1 -3.81 1.63 C-3.21 1.75 -2.62 1.87 -2 2 C-1.34 1.34 -0.68 0.68 0 0 Z " fill="#73A4A3" transform="translate(174,510)"/>
<path d="M0 0 C2.97 0 5.94 0 9 0 C9 0.66 9 1.32 9 2 C11.64 2.33 14.28 2.66 17 3 C17 4.65 17 6.3 17 8 C16.34 8 15.68 8 15 8 C15.35 8.56 15.7 9.11 16.06 9.69 C17 12 17 12 16 17 C12.7 17.66 9.4 18.32 6 19 C6.33 18.34 6.66 17.68 7 17 C4.03 16.67 1.06 16.34 -2 16 C-2 15.67 -2 15.34 -2 15 C-0.84 14.83 -0.84 14.83 5 14 C4.67 10.7 4.34 7.4 4 4 C3.18 3.67 3.18 3.67 -1 2 C-0.67 1.34 -0.34 0.68 0 0 Z " fill="#8C8C8C" transform="translate(141,349)"/>
<path d="M0 0 C2.16 0.34 2.16 0.34 5.16 2.34 C5.34 4.96 5.34 4.96 5.16 7.34 C4.17 7.34 3.18 7.34 2.16 7.34 C1.83 6.35 1.5 5.36 1.16 4.34 C-1.15 4.01 -3.46 3.68 -5.84 3.34 C-5.84 5.65 -5.84 7.96 -5.84 10.34 C-4.77 10.44 -3.7 10.54 -2.59 10.65 C3.01 11.68 3.01 11.68 5.16 14.34 C5.61 17.51 5.84 19.32 5.16 22.34 C3.16 24.9 3.16 24.9 0.16 26.34 C-2.7 26.55 -5.13 26.26 -7.84 25.34 C-9.84 23.46 -9.84 23.46 -10.84 21.34 C-10.84 20.35 -10.84 19.36 -10.84 18.34 C-9.52 18.34 -8.2 18.34 -6.84 18.34 C-6.84 19.66 -6.84 20.98 -6.84 22.34 C-5.52 22.17 -5.52 22.17 1.16 21.34 C1.16 19.69 1.16 18.04 1.16 16.34 C0.53 16.07 -0.1 15.8 -0.74 15.53 C-1.56 15.18 -2.38 14.82 -3.22 14.46 C-4.03 14.11 -4.84 13.76 -5.68 13.41 C-7.84 12.34 -7.84 12.34 -9.84 10.34 C-10.19 7.15 -10.09 4.95 -8.91 1.96 C-6 -0.33 -3.61 -0.06 0 0 Z " fill="#C9D8EA" transform="translate(350.84375,406.6640625)"/>
<path d="M0 0 C4.62 0 9.24 0 14 0 C14 0.99 14 1.98 14 3 C10.37 3 6.74 3 3 3 C3 5.64 3 8.28 3 11 C3.66 10.67 4.32 10.34 5 10 C7.67 9.87 10.32 9.96 13 10 C13 11.32 13 12.64 13 14 C9.7 14 6.4 14 3 14 C3 16.64 3 19.28 3 22 C6.63 22 10.26 22 14 22 C14 22.99 14 23.98 14 25 C9.1 25.98 5.19 26 0 26 C0 17.42 0 8.84 0 0 Z " fill="#C6D7E9" transform="translate(379,405)"/>
<path d="M0 0 C1.65 0 3.3 0 5 0 C5 6.93 5 13.86 5 21 C8.63 21 12.26 21 16 21 C16 22.65 16 24.3 16 26 C10.72 26 5.44 26 0 26 C0 17.42 0 8.84 0 0 Z " fill="#D1DFEA" transform="translate(568,280)"/>
<path d="M0 0 C2.38 1.81 2.38 1.81 4 4 C4 4.99 4 5.98 4 7 C3.01 7 2.02 7 1 7 C0.67 5.68 0.34 4.36 0 3 C-2.31 3.66 -4.62 4.32 -7 5 C-7.06 7.25 -7.06 7.25 -6 10 C-3.77 11.28 -1.53 12.2 0.87 13.11 C3 14 3 14 5 16 C5.45 19.48 5.39 21.35 3.56 24.38 C-0.14 26.73 -3.71 26.68 -8 26 C-11 24 -11 24 -11.69 21.38 C-11.79 20.59 -11.89 19.81 -12 19 C-11.01 19 -10.02 19 -9 19 C-8.34 19.99 -7.68 20.98 -7 22 C-3.38 22.19 -3.38 22.19 0 22 C0 20.35 0 18.7 0 17 C-0.36 16.83 -0.36 16.83 -2.15 15.98 C-3.07 15.53 -3.99 15.08 -4.94 14.62 C-5.4 14.4 -5.4 14.4 -7.71 13.29 C-10 12 -10 12 -11 10 C-11.46 4.61 -11.46 4.61 -9.62 2.19 C-6.36 -0.2 -4.03 -0.4 0 0 Z " fill="#CDDCEC" transform="translate(334,366)"/>
<path d="M0 0 C4.62 0 9.24 0 14 0 C14 0.99 14 1.98 14 3 C10.37 3 6.74 3 3 3 C3 5.31 3 7.62 3 10 C6.3 10 9.6 10 13 10 C13 11.32 13 12.64 13 14 C9.7 14 6.4 14 3 14 C3 16.64 3 19.28 3 22 C6.63 22 10.26 22 14 22 C14 22.99 14 23.98 14 25 C9.38 25 4.76 25 0 25 C0 16.75 0 8.5 0 0 Z " fill="#C4D7E8" transform="translate(449,361)"/>
<path d="M0 0 C4.62 0 9.24 0 14 0 C14 0.99 14 1.98 14 3 C10.37 3 6.74 3 3 3 C3 5.64 3 8.28 3 11 C6.3 11 9.6 11 13 11 C13 11.99 13 12.98 13 14 C9.7 14 6.4 14 3 14 C3 16.97 3 19.94 3 23 C6.96 23 10.92 23 15 23 C15 23.99 15 24.98 15 26 C10.05 26 5.1 26 0 26 C0 17.42 0 8.84 0 0 Z " fill="#CCDCE9" transform="translate(342,365)"/>
<path d="M0 0 C1.65 0 3.3 0 5 0 C5 7.59 5 15.18 5 23 C8.3 23 11.6 23 15 23 C15 24.32 15 25.64 15 27 C10.05 27 5.1 27 0 27 C0 18.09 0 9.18 0 0 Z " fill="#E0ECF7" transform="translate(323,288)"/>
<path d="M0 0 C1.98 0 3.96 0 6 0 C6.87 1.38 7.72 2.78 8.56 4.19 C9.04 4.96 9.51 5.74 10 6.54 C11.21 9.52 11.03 10.99 10 14 C7.94 15.31 7.94 15.31 6 16 C6 15.34 6 14.68 6 14 C5.34 14 4.68 14 4 14 C3.84 14.6 3.67 15.2 3.5 15.81 C1.19 19.19 -2.2 19.83 -6 21 C-4.87 17.34 -3.52 13.95 -1.88 10.5 C-0.21 6.85 0.42 4.07 0 0 Z " fill="#1F6396" transform="translate(134,112)"/>
<path d="M0 0 C1.98 0 3.96 0 6 0 C6 0.33 6 0.66 6 1 C4.35 1 2.7 1 1 1 C1 1.99 1 2.98 1 4 C2.2 3.65 3.39 3.3 4.62 2.94 C8.43 1.97 11.14 2.23 15 3 C17.88 2.56 17.88 2.56 20 2 C20.33 2.66 20.66 3.32 21 4 C21.29 3.82 21.29 3.82 22.75 2.94 C25.36 1.85 26.39 2.07 29 3 C28.67 3.99 28.34 4.98 28 6 C28 5.34 28 4.68 28 4 C27.01 4 26.02 4 25 4 C25 5.32 25 6.64 25 8 C26.32 8 27.64 8 29 8 C29 8.66 29 9.32 29 10 C24.25 9.12 24.25 9.12 22 8 C22 8.66 22 9.32 22 10 C14.74 10 7.48 10 0 10 C0 6.7 0 3.4 0 0 Z M10 4 C10.33 4.66 10.66 5.32 11 6 C11.99 5.67 12.98 5.34 14 5 C12.68 4.67 11.36 4.34 10 4 Z " fill="#648394" transform="translate(782,150)"/>
<path d="M0 0 C0.9 0.11 1.8 0.22 2.73 0.34 C3.07 0.38 3.07 0.38 4.81 0.62 C4.81 1.94 4.81 3.26 4.81 4.62 C1.84 4.62 -1.13 4.62 -4.19 4.62 C-4.19 5.28 -4.19 5.94 -4.19 6.62 C-2.54 7.28 -2.54 7.28 5.81 10.62 C6.29 16 6.29 16 4.38 18.5 C0.59 20.16 -3.1 20.03 -7.19 19.62 C-7.85 19.3 -8.51 18.97 -9.19 18.62 C-9.19 17.31 -9.19 15.99 -9.19 14.62 C-5.56 14.96 -1.93 15.28 1.81 15.62 C1.81 14.63 1.81 13.65 1.81 12.62 C1.19 12.5 0.56 12.38 -0.09 12.26 C-0.49 12.17 -0.49 12.17 -2.56 11.75 C-3.37 11.59 -4.19 11.43 -5.02 11.26 C-7.19 10.62 -7.19 10.62 -9.19 8.62 C-9 5.12 -9 5.12 -8.19 1.62 C-4.74 -0.68 -3.95 -0.51 0 0 Z " fill="#16273E" transform="translate(163.1875,151.375)"/>
<path d="M0 0 C2.67 0.54 3.59 1.22 5.16 3.43 C5.16 4.75 5.16 6.07 5.16 7.43 C4.17 7.43 3.18 7.43 2.16 7.43 C1.83 6.44 1.5 5.45 1.16 4.43 C-3.59 3.31 -3.59 3.31 -5.84 4.43 C-5.84 6.68 -5.84 6.68 -4.84 9.43 C-2.88 10.71 -0.9 11.62 1.25 12.54 C3.16 13.43 3.16 13.43 5.16 15.43 C5.62 18.95 5.57 20.78 3.66 23.81 C0.16 26.08 -2.79 26.27 -6.84 25.43 C-9.34 23.62 -9.34 23.62 -10.84 21.43 C-10.84 20.44 -10.84 19.45 -10.84 18.43 C-9.85 18.43 -8.86 18.43 -7.84 18.43 C-7.84 19.42 -7.84 20.41 -7.84 21.43 C-4.87 21.43 -1.9 21.43 1.16 21.43 C1.16 19.78 1.16 18.13 1.16 16.43 C0.53 16.17 -0.1 15.9 -0.74 15.63 C-1.56 15.28 -2.38 14.92 -3.22 14.56 C-4.03 14.21 -4.84 13.86 -5.68 13.5 C-7.84 12.43 -7.84 12.43 -9.84 10.43 C-10.19 7.25 -10.09 5.04 -8.91 2.06 C-6 -0.23 -3.61 -0.01 0 0 Z " fill="#CDE0EF" transform="translate(451.84375,401.56640625)"/>
<path d="M0 0 C2.88 0.94 2.88 0.94 4.25 2.56 C5.41 6.98 5.39 10.6 3.75 14.88 C1.88 16.94 1.88 16.94 -1.12 17.5 C-4.12 16.94 -4.12 16.94 -5.79 15.22 C-7.35 12.56 -7.56 10.94 -7.56 7.88 C-7.58 7.02 -7.6 6.16 -7.62 5.28 C-7.12 2.94 -7.12 2.94 -5.29 1.12 C-3.12 -0.06 -3.12 -0.06 0 0 Z " fill="#B8CFE4" transform="translate(416.125,325.0625)"/>
<path d="M0 0 C0.99 0 1.98 0 3 0 C1.92 2.82 0.77 5.41 -0.69 8.06 C-2.16 11.35 -2.12 11.76 -1 15 C-0.18 16.77 0.67 18.52 1.56 20.25 C2.02 21.14 2.47 22.03 2.94 22.95 C3.29 23.63 3.64 24.3 4 25 C-0.62 24.46 -0.62 24.46 -2.36 22.37 C-3.24 20.58 -4.12 18.79 -5 17 C-5.4 17.65 -5.8 18.3 -6.21 18.97 C-6.47 19.39 -6.47 19.39 -7.81 21.5 C-8.33 22.34 -8.86 23.17 -9.39 24.03 C-9.92 24.68 -10.45 25.33 -11 26 C-11.99 26 -12.98 26 -14 26 C-12.87 22.9 -11.55 20.3 -9.75 17.56 C-8 14 -8 14 -8.56 10.88 C-9.92 8.16 -11.42 5.59 -13 3 C-13 2.34 -13 1.68 -13 1 C-11.25 1.12 -11.25 1.12 -9 2 C-6.75 5.06 -6.75 5.06 -5 8 C-4.67 7.42 -4.35 6.85 -4.01 6.25 C-3.57 5.51 -3.14 4.76 -2.69 4 C-2.26 3.26 -1.83 2.51 -1.39 1.75 C-0.93 1.17 -0.47 0.6 0 0 Z " fill="#CFE0EC" transform="translate(479,360)"/>
<path d="M0 0 C4.23 2.82 7.17 5.95 8.81 10.88 C8.88 12.44 8.9 14 8.88 15.56 C8.87 16.37 8.86 17.18 8.85 18.01 C8.84 18.63 8.82 19.24 8.81 19.88 C8.48 19.88 8.15 19.88 7.81 19.88 C7.65 19.07 7.5 18.26 7.33 17.43 C4.97 6.62 4.97 6.62 -0.19 2.88 C-5.09 1.24 -8.87 1.3 -13.62 3.38 C-14.47 3.87 -15.32 4.37 -16.19 4.88 C-14.21 7.19 -12.23 9.5 -10.19 11.88 C-10.52 12.54 -10.85 13.19 -11.19 13.88 C-13.23 12.26 -15.23 10.59 -17.19 8.88 C-17.19 8.21 -17.19 7.56 -17.19 6.88 C-17.85 6.88 -18.51 6.88 -19.19 6.88 C-21.55 14.38 -21.94 20.93 -18.69 28.25 C-15.34 31.77 -11.7 33.24 -7.19 34.88 C-9.67 35.59 -10.99 35.92 -13.56 35.38 C-18.07 32.8 -21.03 28.92 -23.56 24.44 C-25.33 17.19 -24.12 12.53 -20.62 6.08 C-15.79 -1.36 -8.04 -2.84 0 0 Z " fill="#BBD2E8" transform="translate(515.1875,354.125)"/>
<path d="M0 0 C0.99 0.33 1.98 0.66 3 1 C3.69 3.06 3.69 3.06 4 5 C-0.52 8.46 -4.75 10.85 -10 13.02 C-12 14 -12 14 -14.19 16.25 C-16 18 -16 18 -19.25 18.25 C-20.16 18.17 -21.06 18.09 -22 18 C-20.97 13.58 -19.55 10.95 -15.91 8.16 C-12.9 6.33 -9.68 5.16 -6.37 3.99 C-4 3 -4 3 -1.88 1.32 C-1.26 0.88 -0.64 0.45 0 0 Z " fill="#3394B3" transform="translate(145,126)"/>
<path d="M0 0 C0.93 0.21 1.86 0.41 2.81 0.62 C3.94 4.38 3.94 4.38 2.81 6.62 C3.47 6.95 4.13 7.29 4.81 7.62 C4.94 11 4.94 11 4.81 14.62 C2.81 16.62 2.81 16.62 -0.62 17 C-4.19 16.62 -4.19 16.62 -6.12 15.06 C-7.84 11.13 -7.44 7.49 -6.88 3.31 C-5.45 -0.19 -3.46 -0.41 0 0 Z " fill="#263F5C" transform="translate(435.1875,324.375)"/>
<path d="M0 0 C6 0 6 0 8.88 2.06 C11 5 11 5 11.62 8.5 C10.83 12.93 9.64 14.39 6 17 C4.02 17 2.04 17 0 17 C0 11.39 0 5.78 0 0 Z " fill="#BDD3E5" transform="translate(509,321)"/>
<path d="M0 0 C1.94 -0.05 3.87 -0.09 5.81 -0.12 C6.89 -0.15 7.97 -0.17 9.08 -0.2 C12 0 12 0 15 2 C15 1.34 15 0.68 15 0 C15.99 0 16.98 0 18 0 C18 3.3 18 6.6 18 10 C17.01 10.33 16.02 10.66 15 11 C12.74 9.6 10.98 7.8 9 6 C9 7.32 9 8.64 9 10 C6.03 10 3.06 10 0 10 C0 6.7 0 3.4 0 0 Z " fill="#9298A0" transform="translate(121,395)"/>
<path d="M0 0 C1.98 0 3.96 0 6 0 C6.03 4.31 6.05 8.62 6.06 12.94 C6.07 14.17 6.08 15.4 6.09 16.67 C6.09 17.84 6.09 19.01 6.1 20.21 C6.1 21.3 6.11 22.38 6.11 23.5 C6 26 6 26 5 27 C3.35 27 1.7 27 0 27 C0 18.09 0 9.18 0 0 Z " fill="#C0CEDE" transform="translate(559,280)"/>
<path d="M0 0 C4.62 0 9.24 0 14 0 C14 0.99 14 1.98 14 3 C10.37 3 6.74 3 3 3 C3 5.64 3 8.28 3 11 C6.3 11 9.6 11 13 11 C13 11.99 13 12.98 13 14 C9.7 14 6.4 14 3 14 C3 16.97 3 19.94 3 23 C6.63 23 10.26 23 14 23 C14 23.66 14 24.32 14 25 C9.38 25 4.76 25 0 25 C0 16.75 0 8.5 0 0 Z " fill="#D0E1EF" transform="translate(416,403)"/>
<path d="M0 0 C2.29 0.07 2.29 0.07 5 1 C6.38 3.37 7.36 5.4 8.31 7.94 C8.58 8.58 8.84 9.23 9.11 9.9 C11 14.62 11 14.62 11 17 C9.68 17 8.36 17 7 17 C6.67 16.01 6.34 15.02 6 14 C3.36 14 0.72 14 -2 14 C-2.33 14.99 -2.66 15.98 -3 17 C-4.32 17 -5.64 17 -7 17 C-5.17 11 -2.93 5.55 0 0 Z " fill="#111D32" transform="translate(739,76)"/>
<path d="M0 0 C4.29 0 8.58 0 13 0 C13 0.99 13 1.98 13 3 C10.03 3 7.06 3 4 3 C4 4.32 4 5.64 4 7 C6.64 7 9.28 7 12 7 C12 7.99 12 8.98 12 10 C9.36 10 6.72 10 4 10 C4 11.32 4 12.64 4 14 C7.3 14 10.6 14 14 14 C14 14.99 14 15.98 14 17 C9.38 17 4.76 17 0 17 C0 11.39 0 5.78 0 0 Z " fill="#1E2740" transform="translate(770,76)"/>
<path d="M0 0 C5.94 0 11.88 0 18 0 C18 0.99 18 1.98 18 3 C15.69 3 13.38 3 11 3 C11 10.26 11 17.52 11 25 C9.68 25 8.36 25 7 25 C7 17.74 7 10.48 7 3 C4.69 3 2.38 3 0 3 C0 2.01 0 1.02 0 0 Z " fill="#BECDE1" transform="translate(358,406)"/>
<path d="M0 0 C2.44 0.38 2.44 0.38 5 1 C6.35 3.71 6.21 5.92 6.25 8.94 C6.26 9.47 6.26 9.47 6.33 12.15 C6 15 6 15 4.65 16.89 C3 18 3 18 0.38 17.81 C-2 17 -2 17 -3 15 C-3.15 13.21 -3.22 11.42 -3.25 9.62 C-3.28 8.67 -3.3 7.71 -3.33 6.73 C-2.95 3.62 -2.07 2.29 0 0 Z " fill="#0E2C51" transform="translate(593,283)"/>
<path d="M0 0 C0 4.29 -1.95 5.93 -4.77 9.02 C-8.66 12.47 -13.24 14.05 -18 16 C-26.02 19.62 -33.35 23.01 -39 30 C-39.33 29.34 -39.66 28.68 -40 28 C-38.21 22.62 -32.63 19.97 -28 17 C-26.35 16.23 -24.69 15.49 -23 14.81 C-20.04 13.61 -19.11 13.14 -17.06 10.56 C-16.89 10.14 -16.89 10.14 -16 8 C-15.61 7.07 -15.22 6.14 -14.81 5.19 C-14.54 4.47 -14.28 3.74 -14 3 C-12 5 -12 5 -11 8 C-7.37 7.43 -5.74 6.08 -3.25 3.44 C-2.64 2.8 -2.02 2.16 -1.39 1.5 C-0.93 1 -0.47 0.51 0 0 Z " fill="#1A273C" transform="translate(366,154)"/>
<path d="M0 0 C0.66 0 1.32 0 2 0 C2.66 1.65 3.32 3.3 4 5 C4.66 3.35 5.32 1.7 6 0 C10.29 0 14.58 0 19 0 C19 2.97 19 5.94 19 9 C20.32 9.33 21.64 9.66 23 10 C18.03 10.91 13.97 10.91 9 10 C8.67 7.69 8.34 5.38 8 3 C7.01 5.31 6.02 7.62 5 10 C4.34 10 3.68 10 3 10 C2.01 6.7 1.02 3.4 0 0 Z " fill="#717781" transform="translate(161,409)"/>
<path d="M0 0 C1.32 0.33 2.64 0.66 4 1 C4.92 6.17 4.96 10.66 4.5 15.88 C3.96 22.59 3.9 29.26 4 36 C3.34 36.17 3.34 36.17 0 37 C0 24.79 0 12.58 0 0 Z " fill="#A6A6A6" transform="translate(152,291)"/>
<path d="M0 0 C3 2 3 2 4 5 C4.24 9.95 4.26 13.48 2 18 C1.34 16.68 0.68 15.36 0 14 C-2.64 14 -5.28 14 -8 14 C-8 12.35 -8 10.7 -8 9 C-5.69 9 -3.38 9 -1 9 C-1 8.34 -1 7.68 -1 7 C-3.31 7 -5.62 7 -8 7 C-8 5.35 -8 3.7 -8 2 C-5.36 2 -2.72 2 0 2 C0 1.34 0 0.68 0 0 Z " fill="#0F2A4E" transform="translate(532,321)"/>
<path d="M0 0 C1.65 0 3.3 0 5 0 C5 8.91 5 17.82 5 27 C3.35 27 1.7 27 0 27 C0 18.09 0 9.18 0 0 Z " fill="#D7E6F0" transform="translate(509,282)"/>
<path d="M0 0 C0.99 0 1.98 0 3 0 C3.33 2.31 3.66 4.62 4 7 C4.38 6.49 4.75 5.99 5.14 5.47 C9.37 0.1 9.37 0.1 12.88 -0.44 C13.58 -0.29 14.28 -0.15 15 0 C14.58 0.45 14.58 0.45 12.44 2.75 C10.01 5.71 10.01 5.71 9.94 7.94 C11.53 11.02 13.22 14.02 15 17 C13.35 16.67 11.7 16.34 10 16 C9.67 15.01 9.34 14.02 9 13 C8.34 13 7.68 13 7 13 C7 12.34 7 11.68 7 11 C6.01 11 5.02 11 4 11 C3.67 12.98 3.34 14.96 3 17 C2.01 17 1.02 17 0 17 C0 11.39 0 5.78 0 0 Z " fill="#131D32" transform="translate(753,76)"/>
<path d="M0 0 C0.99 0 1.98 0 3 0 C3 5.61 3 11.22 3 17 C2.34 17 1.68 17 1 17 C0.67 13.7 0.34 10.4 0 7 C-0.99 9.97 -1.98 12.94 -3 16 C-4.32 16 -5.64 16 -7 16 C-7.66 14.02 -8.32 12.04 -9 10 C-9.33 12.64 -9.66 15.28 -10 18 C-10.66 18 -11.32 18 -12 18 C-12 12.39 -12 6.78 -12 1 C-11.01 1 -10.02 1 -9 1 C-7.68 4.3 -6.36 7.6 -5 11 C-3.35 7.37 -1.7 3.74 0 0 Z " fill="#BED1E3" transform="translate(360,327)"/>
<path d="M0 0 C8 0 8 0 11 2 C11.48 5.72 11.14 6.79 9 10 C9.88 13.19 9.88 13.19 11 16 C10.01 15.67 9.02 15.34 8 15 C7.33 13.67 6.67 12.33 6 11 C5.01 10.67 4.02 10.34 3 10 C3 12.31 3 14.62 3 17 C2.01 16.67 1.02 16.34 0 16 C0 10.72 0 5.44 0 0 Z " fill="#90A4B8" transform="translate(468,323)"/>
<path d="M0 0 C0 0.66 0 1.32 0 2 C-2.31 2.33 -4.62 2.66 -7 3 C-7 4.65 -7 6.3 -7 8 C-3.71 8.8 -2.29 9.1 1 8 C2.17 5.93 2.17 5.93 3.19 3.44 C3.53 2.61 3.88 1.78 4.23 0.93 C4.48 0.3 4.74 -0.34 5 -1 C5.99 -1 6.98 -1 8 -1 C8.67 0.62 9.34 2.25 10 3.88 C10.37 4.78 10.74 5.68 11.12 6.62 C12 9 12 9 12 11 C11.34 11 10.68 11 10 11 C10 10.34 10 9.68 10 9 C7.69 9 5.38 9 3 9 C3 9.99 3 10.98 3 12 C1.4 12.08 -0.21 12.14 -1.81 12.19 C-2.71 12.22 -3.6 12.26 -4.52 12.29 C-7 12 -7 12 -8.8 10.71 C-10.8 7.86 -10.36 5.35 -10 2 C-7.7 -2.33 -4.23 -0.88 0 0 Z " fill="#ACC2D6" transform="translate(450,183)"/>
<path d="M0 0 C4.29 0 8.58 0 13 0 C13 1.32 13 2.64 13 4 C13.3 5.67 13.63 7.34 14 9 C9.3 10.21 4.83 10.07 0 10 C0 6.7 0 3.4 0 0 Z " fill="#8B909A" transform="translate(115,444)"/>
<path d="M0 0 C1.88 1.56 1.88 1.56 3 4 C2.67 10.33 2.67 10.33 0 13 C-3.07 13.33 -5.15 13.48 -7.88 11.94 C-9.66 8.86 -9.43 6.47 -9 3 C-6.37 -0.02 -3.92 -0.7 0 0 Z " fill="#7791A9" transform="translate(496,181)"/>
<path d="M0 0 C0.66 0.66 1.32 1.32 2 2 C1.67 2.66 1.34 3.32 1 4 C-1.64 3.67 -4.28 3.34 -7 3 C-6.67 3.99 -6.34 4.98 -6 6 C-3.69 6.74 -1.35 7.41 1 8 C2 9 2 9 2.25 11.94 C2.17 12.95 2.09 13.96 2 15 C-1.68 17.45 -3.65 17.23 -8 17 C-8.99 16.67 -9.98 16.34 -11 16 C-11 15.01 -11 14.02 -11 13 C-8.03 13 -5.06 13 -2 13 C-1.67 12.34 -1.34 11.68 -1 11 C-1.45 10.95 -1.45 10.95 -3.75 10.69 C-7.08 9.98 -8.7 9.48 -11 7 C-11.44 4.44 -11.44 4.44 -11 2 C-6.93 -0.71 -4.84 -0.31 0 0 Z " fill="#151E34" transform="translate(797,76)"/>
<path d="M0 0 C0.85 0.78 1.69 1.57 2.56 2.38 C5.88 5.17 8.8 6.08 13 7 C13 7.99 13 8.98 13 10 C8.59 11.03 6.07 11.04 2 9 C1.34 10.32 0.68 11.64 0 13 C0 12.01 0 11.02 0 10 C-3.63 10 -7.26 10 -11 10 C-11 8.68 -11 7.36 -11 6 C-8.03 6 -5.06 6 -2 6 C-2 4.35 -2 2.7 -2 1 C-1.34 0.67 -0.68 0.34 0 0 Z " fill="#E1ECF0" transform="translate(152,157)"/>
<path d="M0 0 C0.66 0 1.32 0 2 0 C2.08 2.9 2.14 5.79 2.19 8.69 C2.21 9.5 2.24 10.32 2.26 11.16 C2.32 15.98 2.07 19.04 -1 23 C-2.88 22.69 -2.88 22.69 -5 22 C-7 19 -7 19 -6.75 16.06 C-6.1 13.4 -5.36 11.35 -4 9 C-3.01 9 -2.02 9 -1 9 C-1 8.34 -1 7.68 -1 7 C-1.66 6.67 -2.32 6.34 -3 6 C-2.01 4.02 -1.02 2.04 0 0 Z " fill="#1A2140" transform="translate(232,420)"/>
<path d="M0 0 C1.26 -0.04 2.52 -0.08 3.81 -0.12 C4.52 -0.15 5.23 -0.17 5.96 -0.2 C8 0 8 0 11 2 C11.37 5.37 11.58 7.88 10 10.94 C6.73 12.67 3.66 12.18 0 12 C0 8.04 0 4.08 0 0 Z " fill="#7C91A9" transform="translate(422,183)"/>
<path d="M0 0 C2.31 0.88 2.31 0.88 4.31 2.88 C4.69 6.31 4.69 6.31 4.31 9.88 C2.69 11.88 2.69 11.88 0.31 12.88 C-2.81 12.75 -2.81 12.75 -5.69 11.88 C-7.85 8.63 -8.33 7.64 -7.69 3.88 C-5.14 1.1 -3.84 -0.18 0 0 Z " fill="#7790AA" transform="translate(543.6875,180.125)"/>
<path d="M0 0 C1.65 0 3.3 0 5 0 C8 3 7.95 5.3 8.25 9.5 C8 13 8 13 6.81 15.44 C5 17 5 17 0 17 C0 11.39 0 5.78 0 0 Z " fill="#0A254B" transform="translate(442,289)"/>
<path d="M0 0 C2 2 2 2 2.31 4.94 C2 8 2 8 0.94 9.88 C-2.1 11.64 -4.58 11.37 -8 11 C-10.31 7.53 -10.42 6.08 -10 2 C-7.65 -2.28 -4.22 -1 0 0 Z " fill="#D9E6ED" transform="translate(186,156)"/>
<path d="M0 0 C0.33 0 0.66 0 1 0 C1 5.61 1 11.22 1 17 C-0.44 17.37 -1.89 17.74 -3.38 18.12 C-4.19 18.33 -5 18.54 -5.84 18.76 C-6.55 18.84 -7.26 18.92 -8 19 C-8.66 18.34 -9.32 17.68 -10 17 C-7.36 16.34 -4.72 15.68 -2 15 C-1.67 12.69 -1.34 10.38 -1 8 C-2.98 8 -4.96 8 -7 8 C-7 8.99 -7 9.98 -7 11 C-6.01 11 -5.02 11 -4 11 C-4 12.32 -4 13.64 -4 15 C-5.65 15 -7.3 15 -9 15 C-10.18 12.65 -10.17 11.12 -10.19 8.5 C-10.19 8.1 -10.19 8.1 -10.23 6.09 C-10 4 -10 4 -8 2 C-5.88 2.38 -5.88 2.38 -4 3 C-4 3.66 -4 4.32 -4 5 C-3.01 5 -2.02 5 -1 5 C-0.67 3.35 -0.34 1.7 0 0 Z " fill="#0C2144" transform="translate(467,323)"/>
<path d="M0 0 C0.05 2.79 0.09 5.58 0.12 8.38 C0.14 9.17 0.16 9.96 0.18 10.78 C0.19 12.85 0.1 14.93 0 17 C-0.66 17.66 -1.32 18.32 -2 19 C-3.37 17.6 -4.72 16.18 -6.06 14.75 C-6.82 13.96 -7.57 13.17 -8.35 12.36 C-10 10 -10 10 -9.96 7.91 C-8.81 5.62 -7.54 4.38 -5.56 2.75 C-4.95 2.23 -4.33 1.71 -3.69 1.17 C-2 0 -2 0 0 0 Z " fill="#DBE9EF" transform="translate(136,152)"/>
<path d="M0 0 C0.99 0 1.98 0 3 0 C3 7.59 3 15.18 3 23 C6.63 23 10.26 23 14 23 C14 23.99 14 24.98 14 26 C9.38 26 4.76 26 0 26 C0 17.42 0 8.84 0 0 Z " fill="#C9D9E7" transform="translate(395,363)"/>
<path d="M0 0 C0.99 0 1.98 0 3 0 C4.61 2.19 4.61 2.19 6.19 5 C6.72 5.93 7.25 6.86 7.79 7.81 C8.19 8.53 8.59 9.26 9 10 C9.33 6.7 9.66 3.4 10 0 C10.66 0 11.32 0 12 0 C12 5.28 12 10.56 12 16 C11.01 16 10.02 16 9 16 C7.61 14.25 7.61 14.25 6.31 12 C5.88 11.26 5.44 10.51 4.99 9.75 C4.83 9.46 4.83 9.46 4 8 C3.67 10.97 3.34 13.94 3 17 C2.01 17 1.02 17 0 17 C0 11.39 0 5.78 0 0 Z " fill="#B2C6D8" transform="translate(494,322)"/>
<path d="M0 0 C5.61 0 11.22 0 17 0 C17 0.66 17 1.32 17 2 C14.69 2 12.38 2 10 2 C10 9.59 10 17.18 10 25 C9.01 25 8.02 25 7 25 C7 17.74 7 10.48 7 3 C4.69 3 2.38 3 0 3 C0 2.01 0 1.02 0 0 Z " fill="#D6E8F5" transform="translate(429,362)"/>
<path d="M0 0 C0.66 0 1.32 0 2 0 C3.12 6.62 3.12 6.62 2 10 C1.34 10 0.68 10 0 10 C0 35.41 0 60.82 0 87 C-0.33 87 -0.66 87 -1 87 C-1.02 76.39 -1.04 65.79 -1.05 55.18 C-1.06 50.26 -1.06 45.34 -1.08 40.41 C-1.09 35.66 -1.09 30.91 -1.09 26.15 C-1.1 24.34 -1.1 22.53 -1.11 20.71 C-1.11 18.17 -1.11 15.63 -1.11 13.09 C-1.12 12.72 -1.12 12.72 -1.12 10.83 C-1.12 7.09 -0.9 3.63 0 0 Z " fill="#434B65" transform="translate(216,369)"/>
<path d="M0 0 C3.73 1.44 3.73 1.44 4.88 3.81 C5.04 6.63 4.19 8.48 3 11 C2.01 11 1.02 11 0 11 C0 11.66 0 12.32 0 13 C0.66 13.33 1.32 13.66 2 14 C1.34 14 0.68 14 0 14 C-0.12 15.11 -0.25 16.23 -0.38 17.38 C-1 21 -1 21 -3 23 C-5.22 15.2 -4.31 8.29 -1 1 C-0.67 0.67 -0.34 0.34 0 0 Z " fill="#162041" transform="translate(227,411)"/>
<path d="M0 0 C4.88 2.88 4.88 2.88 6 4 C6.52 8.64 6.94 12.67 4.19 16.56 C0.13 19.23 -3.26 19.09 -8 19 C-7.38 17.12 -7.38 17.12 -6 15 C-2.94 13.81 -2.94 13.81 0 13 C1 12 1 12 1.19 9.25 C1 6.03 0.36 3.89 -1 1 C-0.67 0.67 -0.34 0.34 0 0 Z " fill="#29475D" transform="translate(186,152)"/>
<path d="M0 0 C0 1.32 0 2.64 0 4 C-3.63 4 -7.26 4 -11 4 C-11 6.64 -11 9.28 -11 12 C-11.66 10.68 -12.32 9.36 -13 8 C-13.33 13.94 -13.66 19.88 -14 26 C-9.38 26 -4.76 26 0 26 C0 26.33 0 26.66 0 27 C-4.95 27 -9.9 27 -15 27 C-15 18.42 -15 9.84 -15 1 C-4.88 -0.12 -4.88 -0.12 0 0 Z " fill="#A5B3CC" transform="translate(338,407)"/>
<path d="M0 0 C0.99 0.33 1.98 0.66 3 1 C4.04 3.33 4.9 5.53 5.69 7.94 C5.91 8.58 6.14 9.23 6.37 9.9 C8 14.67 8 14.67 8 17 C7.01 16.67 6.02 16.34 5 16 C5 15.01 5 14.02 5 13 C2.69 13 0.38 13 -2 13 C-2.33 14.32 -2.66 15.64 -3 17 C-3.66 17 -4.32 17 -5 17 C-3.83 11.07 -2.24 5.61 0 0 Z " fill="#9FB2C4" transform="translate(338,328)"/>
<path d="M0 0 C0.66 0 1.32 0 2 0 C2.65 1.89 3.29 3.79 3.94 5.69 C4.3 6.74 4.66 7.8 5.03 8.89 C5.87 11.59 6.51 14.21 7 17 C6.34 17 5.68 17 5 17 C4.67 15.68 4.34 14.36 4 13 C1.69 13 -0.62 13 -3 13 C-3.33 14.32 -3.66 15.64 -4 17 C-4.66 17 -5.32 17 -6 17 C-5.35 13.55 -4.55 10.19 -3.56 6.81 C-3.32 5.95 -3.07 5.09 -2.82 4.21 C-2 2 -2 2 0 0 Z " fill="#9AADC0" transform="translate(371,327)"/>
<path d="M0 0 C0.33 1.32 0.66 2.64 1 4 C0.34 4 -0.32 4 -1 4 C-1.33 3.34 -1.66 2.68 -2 2 C-3.32 2.33 -4.64 2.66 -6 3 C-6 6.63 -6 10.26 -6 14 C-4.35 14 -2.7 14 -1 14 C-1 12.68 -1 11.36 -1 10 C-1.99 10 -2.98 10 -4 10 C-4 9.01 -4 8.02 -4 7 C-2.02 7 -0.04 7 2 7 C2.19 10.38 2.19 10.38 2 14 C-1.47 16.31 -2.92 16.51 -7 16 C-9.22 14.23 -9.88 12.9 -10.25 10.09 C-10.37 6.31 -10.28 3.17 -8 0 C-5.14 -1.43 -3.07 -0.6 0 0 Z " fill="#ACC3D6" transform="translate(464,324)"/>
<path d="M0 0 C1.65 0 3.3 0 5 0 C7.62 3.93 7.29 7.43 7 12 C6.67 12.5 6.67 12.5 5 15 C2.13 14.43 1.14 14.14 -1 12 C-1.23 9.69 -1.23 9.69 -1.19 7 C-1.18 6.11 -1.17 5.23 -1.17 4.31 C-1 2 -1 2 0 0 Z " fill="#4F6180" transform="translate(223,207)"/>
<path d="M0 0 C1.32 0 2.64 0 4 0 C6.21 3.31 6.22 4.34 6.12 8.19 C6.11 9.09 6.09 9.99 6.07 10.92 C6.05 11.61 6.02 12.29 6 13 C5.34 13.33 5.34 13.33 2 15 C-1 13 -1 13 -2 10 C-2.35 3.52 -2.35 3.52 0 0 Z " fill="#77839A" transform="translate(246,306)"/>
<path d="M0 0 C0.66 0 1.32 0 2 0 C2 5.61 2 11.22 2 17 C-2.82 15.39 -3.71 11.4 -6 7 C-6.33 10.3 -6.66 13.6 -7 17 C-7.66 17 -8.32 17 -9 17 C-9 11.72 -9 6.44 -9 1 C-8.01 1 -7.02 1 -6 1 C-4.35 3.97 -2.7 6.94 -1 10 C-0.67 6.7 -0.34 3.4 0 0 Z " fill="#C9DDED" transform="translate(389,326)"/>
<path d="M0 0 C3.62 0.38 3.62 0.38 7 1 C8.33 7.43 8.33 7.43 6.88 9.94 C4.34 11.38 2.87 11.5 0 11 C-1.88 9.31 -1.88 9.31 -3 7 C-2.76 3.63 -2.41 2.41 0 0 Z " fill="#E3EBEF" transform="translate(808,79)"/>
<path d="M0 0 C0.33 0 0.66 0 1 0 C1 8.91 1 17.82 1 27 C0.01 27 -0.98 27 -2 27 C-2.7 25.59 -3.39 24.17 -4.06 22.75 C-4.45 21.96 -4.83 21.17 -5.22 20.36 C-6.78 15.62 -3.92 11.33 -2 7 C-1.67 7 -1.34 7 -1 7 C-0.67 4.69 -0.34 2.38 0 0 Z " fill="#0C2247" transform="translate(558,280)"/>
<path d="M0 0 C2.64 0.33 5.28 0.66 8 1 C8.05 2.42 8.09 3.83 8.12 5.25 C8.15 6.04 8.17 6.83 8.2 7.64 C7.98 10.21 7.29 11.79 6 14 C4.12 13.69 4.12 13.69 2 13 C-0.21 9.69 -0.22 8.66 -0.12 4.81 C-0.11 3.91 -0.09 3.01 -0.07 2.08 C-0.05 1.39 -0.02 0.71 0 0 Z " fill="#7C89A0" transform="translate(244,193)"/>
<path d="M0 0 C0.41 0.01 0.41 0.01 2.5 0.04 C3.32 0.04 4.15 0.05 5 0.06 C5.64 0.07 6.28 0.09 6.93 0.1 C8.27 2.76 9.6 5.43 10.93 8.1 C10.27 8.76 9.61 9.42 8.93 10.1 C8.6 9.11 8.27 8.12 7.93 7.1 C7.27 7.1 6.61 7.1 5.93 7.1 C5.93 8.09 5.93 9.08 5.93 10.1 C2.66 10.1 0.09 9.8 -3.07 9.1 C-2.74 8.44 -2.41 7.78 -2.07 7.1 C-1.08 7.43 -0.09 7.76 0.93 8.1 C0.93 7.44 0.93 6.78 0.93 6.1 C-0.39 6.1 -1.71 6.1 -3.07 6.1 C-3.11 4.43 -3.11 2.76 -3.07 1.1 C-2.07 0.1 -2.07 0.1 0 0 Z " fill="#686D7A" transform="translate(130.06640625,422.90234375)"/>
<path d="M0 0 C0.99 0 1.98 0 3 0 C3.67 1.94 4.34 3.87 5 5.81 C5.37 6.89 5.74 7.97 6.12 9.08 C7 12 7 12 7 15 C4.04 16.48 1.26 16.06 -2 16 C-1.54 12.53 -1.11 9.33 0 6 C0.66 6 1.32 6 2 6 C2 5.34 2 4.68 2 4 C1.01 4 0.02 4 -1 4 C-0.67 2.68 -0.34 1.36 0 0 Z " fill="#78889E" transform="translate(419,362)"/>
<path d="M0 0 C3.77 1.88 4.79 2.69 7 6 C7.31 5.5 7.31 5.5 8.88 3 C9.58 2.01 10.28 1.02 11 0 C11.66 0 12.32 0 13 0 C13 4.29 13 8.58 13 13 C12.34 13 11.68 13 11 13 C10.67 10.69 10.34 8.38 10 6 C9.55 6.82 9.09 7.65 8.62 8.5 C8.09 9.32 7.55 10.15 7 11 C6.34 11 5.68 11 5 11 C4.34 9.35 3.68 7.7 3 6 C2.67 8.31 2.34 10.62 2 13 C1.34 13 0.68 13 0 13 C0 8.71 0 4.42 0 0 Z " fill="#B8CEE0" transform="translate(396,183)"/>
<path d="M0 0 C0.99 0.33 1.98 0.66 3 1 C2.84 1.82 2.67 2.65 2.5 3.5 C1.94 7.44 1.87 11.03 2 15 C2.33 15.33 2.66 15.66 3 16 C3.12 18.5 3.12 18.5 3 21 C2.67 21.33 2.34 21.66 2 22 C1.76 29.52 1.76 29.52 3 32 C2.34 32 1.68 32 1 32 C1.16 32.51 1.32 33.01 1.49 33.53 C2.18 36.88 2.17 40.08 2.19 43.5 C2.2 44.81 2.22 46.12 2.23 47.47 C2 51 2 51 0 55 C0 36.85 0 18.7 0 0 Z " fill="#68778C" transform="translate(215,161)"/>
<path d="M0 0 C4.62 0 9.24 0 14 0 C14.33 0.66 14.66 1.32 15 2 C13.68 2 12.36 2 11 2 C11 2.99 11 3.98 11 5 C11.99 5.33 12.98 5.66 14 6 C13.01 6 12.02 6 11 6 C11 6.99 11 7.98 11 9 C12.32 9 13.64 9 15 9 C15 9.66 15 10.32 15 11 C12.69 11 10.38 11 8 11 C8 8.03 8 5.06 8 2 C7.01 2 6.02 2 5 2 C5 4.97 5 7.94 5 11 C4.34 11 3.68 11 3 11 C3 8.03 3 5.06 3 2 C2.01 2 1.02 2 0 2 C0 1.34 0 0.68 0 0 Z " fill="#7BE1E5" transform="translate(151,463)"/>
<path d="M0 0 C1.92 0.2 1.92 0.2 4 1 C6.54 4.27 8 7.74 8 11.88 C7 14 7 14 4.94 15.31 C4.62 15.43 4.62 15.43 3 16 C3 15.34 3 14.68 3 14 C2.34 13.67 1.68 13.34 1 13 C0.33 10.31 0.33 10.31 -0.19 7 C-0.37 5.91 -0.55 4.81 -0.73 3.69 C-0.82 2.8 -0.91 1.91 -1 1 C-0.67 0.67 -0.34 0.34 0 0 Z " fill="#33AABA" transform="translate(137,112)"/>
<path d="M0 0 C1.65 0.33 3.3 0.66 5 1 C5 4.63 5 8.26 5 12 C3.35 12.33 1.7 12.66 0 13 C-2.71 8.93 -2.31 6.84 -2 2 C-1.34 1.34 -0.68 0.68 0 0 Z " fill="#102B4D" transform="translate(413,327)"/>
<path d="M0 0 C0.49 0.01 0.49 0.01 3 0.04 C3.99 0.05 4.98 0.06 6 0.06 C8.43 0.23 8.43 0.23 9.43 1.23 C9.47 3.56 9.48 5.9 9.43 8.23 C9.1 8.23 8.77 8.23 8.43 8.23 C8.43 6.25 8.43 4.27 8.43 2.23 C7.44 2.23 6.45 2.23 5.43 2.23 C5.43 4.21 5.43 6.19 5.43 8.23 C4.11 8.23 2.79 8.23 1.43 8.23 C0.55 8.25 -0.34 8.27 -1.25 8.29 C-3.57 8.23 -3.57 8.23 -4.57 7.23 C-4.75 4.79 -4.75 4.79 -4.57 2.23 C-2.57 0.23 -2.57 0.23 0 0 Z " fill="#5E7D92" transform="translate(745.56640625,151.76953125)"/>
<path d="M0 0 C2.78 2.78 3.23 5.17 4 9 C3.69 12.25 3.69 12.25 2 15 C-0.91 16.41 -3.86 17.26 -7 18 C-5.64 13.78 -4.1 9.71 -2.38 5.62 C-1.93 4.57 -1.48 3.51 -1.02 2.41 C-0.69 1.62 -0.35 0.82 0 0 Z " fill="#115A91" transform="translate(705,75)"/>
<path d="M0 0 C1.73 0 3.46 0.01 5.19 0.02 C6.1 0.02 7.01 0.02 7.94 0.02 C10.86 0.03 13.77 0.04 16.69 0.05 C18.66 0.06 20.63 0.06 22.6 0.06 C27.44 0.08 32.28 0.09 37.12 0.11 C37.12 0.44 37.12 0.77 37.12 1.11 C29.63 1.86 22.15 2.37 14.62 2.68 C13.59 2.72 12.57 2.76 11.51 2.8 C2.04 3.17 -7.41 3.21 -16.88 3.11 C-16.88 2.78 -16.88 2.45 -16.88 2.11 C-16.02 2.05 -15.17 1.99 -14.29 1.93 C-13.73 1.89 -13.73 1.89 -10.94 1.68 C-9.84 1.59 -8.74 1.51 -7.6 1.43 C-3.89 1 -4.17 0.12 0 0 Z " fill="#3E4554" transform="translate(565.877197265625,472.886474609375)"/>
<path d="M0 0 C0.93 0.21 1.86 0.41 2.81 0.62 C3.14 1.94 3.47 3.26 3.81 4.62 C3.15 4.62 2.49 4.62 1.81 4.62 C1.48 3.96 1.15 3.31 0.81 2.62 C-0.51 2.95 -1.83 3.29 -3.19 3.62 C-3.19 6.93 -3.19 10.23 -3.19 13.62 C-1.54 13.62 0.11 13.62 1.81 13.62 C2.14 12.31 2.47 10.99 2.81 9.62 C1.82 9.3 0.83 8.96 -0.19 8.62 C1.13 8.62 2.45 8.62 3.81 8.62 C3.85 10.96 3.85 13.29 3.81 15.62 C2.81 16.62 2.81 16.62 -0.56 16.94 C-4.19 16.62 -4.19 16.62 -6.12 15.06 C-7.84 11.13 -7.44 7.49 -6.88 3.31 C-5.45 -0.19 -3.46 -0.41 0 0 Z " fill="#BFD4E7" transform="translate(435.1875,324.375)"/>
<path d="M0 0 C-0.33 1.32 -0.66 2.64 -1 4 C0.32 4.33 1.64 4.66 3 5 C2.07 5.6 1.14 6.2 0.19 6.81 C-3 9 -3 9 -4.5 10.75 C-6.84 12.7 -9.07 12.2 -12 12 C-10.68 6.31 -8.56 4.32 -4 1 C-2 0 -2 0 0 0 Z " fill="#1D4F86" transform="translate(135,132)"/>
<path d="M0 0 C0.66 0 1.32 0 2 0 C2 2.31 2 4.62 2 7 C4.31 7 6.62 7 9 7 C9 4.69 9 2.38 9 0 C9.66 0 10.32 0 11 0 C11 5.28 11 10.56 11 16 C10.34 16 9.68 16 9 16 C9 13.69 9 11.38 9 9 C6.69 9 4.38 9 2 9 C2 11.64 2 14.28 2 17 C1.34 17 0.68 17 0 17 C0 11.39 0 5.78 0 0 Z " fill="#BED4E8" transform="translate(395,326)"/>
<path d="M0 0 C0.33 0.66 0.66 1.32 1 2 C2.3 1.98 3.6 1.96 4.94 1.94 C6.29 1.92 7.65 1.93 9 2 C10 3 10 3 10.06 6.56 C10.04 7.7 10.02 8.83 10 10 C6.7 10 3.4 10 0 10 C-1.12 2.25 -1.12 2.25 0 0 Z " fill="#6F8D9F" transform="translate(758,150)"/>
<path d="M0 0 C3.05 -0.27 5.9 -0.35 8.95 -0.29 C9.83 -0.29 10.72 -0.28 11.63 -0.28 C14.46 -0.26 17.29 -0.23 20.12 -0.19 C22.04 -0.17 23.96 -0.16 25.88 -0.15 C30.59 -0.11 35.29 -0.06 40 0 C40 0.33 40 0.66 40 1 C36.11 1.29 32.22 1.58 28.32 1.85 C26.37 2 24.41 2.14 22.45 2.29 C14.28 2.87 6.19 3.12 -2 3 C-1.34 2.01 -0.68 1.02 0 0 Z " fill="#6D727A" transform="translate(450,481)"/>
<path d="M0 0 C2 0 2 0 4.19 2.12 C6 5 6 5 5.81 8.12 C5.26 10.1 4.65 12.06 4 14 C3.01 14 2.02 14 1 14 C1 11.69 1 9.38 1 7 C0.34 7 -0.32 7 -1 7 C-1 10.3 -1 13.6 -1 17 C-3.25 13.62 -3.19 12.92 -2.75 9.06 C-2.66 8.21 -2.57 7.35 -2.48 6.47 C-2 4 -1.23 2.18 0 0 Z " fill="#0E2140" transform="translate(496,361)"/>
<path d="M0 0 C2.31 0.33 4.62 0.66 7 1 C7.69 2.62 7.69 2.62 8 5 C6.56 8.25 6.56 8.25 5 11 C5.99 11.33 6.98 11.66 8 12 C8 12.99 8 13.98 8 15 C5.69 15 3.38 15 1 15 C0.31 12.69 0.31 12.69 0 10 C1.38 8.38 1.38 8.38 3 7 C3.33 6.01 3.66 5.02 4 4 C2.68 4 1.36 4 0 4 C0 2.68 0 1.36 0 0 Z " fill="#A5B2C6" transform="translate(244,229)"/>
<path d="M0 0 C4.95 0 9.9 0 15 0 C15 1.32 15 2.64 15 4 C11.37 4 7.74 4 4 4 C3.67 5.32 3.34 6.64 3 8 C2.01 8.99 1.02 9.98 0 11 C0 7.37 0 3.74 0 0 Z " fill="#21374E" transform="translate(136,151)"/>
<path d="M0 0 C0.66 0 1.32 0 2 0 C2.67 1.77 3.34 3.54 4 5.31 C4.37 6.3 4.74 7.28 5.12 8.3 C6 11 6 11 6 14 C2.7 14 -0.6 14 -4 14 C-3.52 12.23 -3.04 10.46 -2.56 8.69 C-2.3 7.7 -2.03 6.72 -1.75 5.7 C-1.22 3.78 -0.63 1.89 0 0 Z " fill="#1F3654" transform="translate(414,144)"/>
<path d="M0 0 C0.99 0 1.98 0 3 0 C3 8.58 3 17.16 3 26 C2.01 26 1.02 26 0 26 C0 17.42 0 8.84 0 0 Z " fill="#DBE9F7" transform="translate(434,402)"/>
<path d="M0 0 C3.38 1.19 3.93 1.9 6 5 C6.12 8.19 6.12 8.19 6 11 C4.5 9.62 4.5 9.62 3 8 C3 7.34 3 6.68 3 6 C2.34 6 1.68 6 1 6 C1 5.34 1 4.68 1 4 C-7 3.69 -7 3.69 -10 6 C-10.75 8.12 -10.75 8.12 -11 10 C-11.66 10 -12.32 10 -13 10 C-12.75 6.28 -12.4 4.44 -9.88 1.62 C-6.28 -0.41 -4.08 -0.44 0 0 Z " fill="#1F2A3D" transform="translate(814,76)"/>
<path d="M0 0 C2 0.25 2 0.25 4 1 C4.33 1.99 4.66 2.98 5 4 C4.34 4 3.68 4 3 4 C3 3.34 3 2.68 3 2 C2.01 2.33 1.02 2.66 0 3 C0 4.65 0 6.3 0 8 C1.65 7.67 3.3 7.34 5 7 C4.67 7.99 4.34 8.98 4 10 C2.95 9.98 1.9 9.96 0.81 9.94 C-3 10 -3 10 -5.81 10.56 C-8 11 -8 11 -10 10 C-9.67 9.34 -9.34 8.68 -9 8 C-8.34 8.17 -8.34 8.17 -5 9 C-6.26 6.49 -7.5 6.13 -10 5 C-9.67 3.68 -9.34 2.36 -9 1 C-7.35 1.33 -5.7 1.66 -4 2 C-4.33 2.99 -4.66 3.98 -5 5 C-4.34 5.33 -3.68 5.66 -3 6 C-2.69 5.2 -2.38 4.39 -2.06 3.56 C-1 1 -1 1 0 0 Z " fill="#585C66" transform="translate(122,409)"/>
<path d="M0 0 C0.66 0 1.32 0 2 0 C2.14 1.05 2.29 2.1 2.44 3.19 C2.88 6.15 3.38 9.07 4 12 C3.34 12 2.68 12 2 12 C2 11.34 2 10.68 2 10 C0.68 10 -0.64 10 -2 10 C-2.33 10.99 -2.66 11.98 -3 13 C-5.64 12.67 -8.28 12.34 -11 12 C-11 8.7 -11 5.4 -11 2 C-10.34 2 -9.68 2 -9 2 C-9 4.97 -9 7.94 -9 11 C-7.35 11 -5.7 11 -4 11 C-3.9 10.64 -3.9 10.64 -3.38 8.85 C-3.11 7.93 -2.84 7.01 -2.56 6.06 C-2.3 5.15 -2.03 4.23 -1.75 3.29 C-1 1 -1 1 0 0 Z " fill="#7EE6E9" transform="translate(147,461)"/>
<path d="M0 0 C0.33 1.32 0.66 2.64 1 4 C2.32 4.33 3.64 4.66 5 5 C4.34 5.33 4.34 5.33 1 7 C1.66 7.33 2.32 7.66 3 8 C3 8.66 3 9.32 3 10 C1.54 9.55 0.08 9.09 -1.38 8.62 C-1.78 8.5 -1.78 8.5 -3.84 7.85 C-6 7 -6 7 -8 5 C-7.75 2.44 -7.75 2.44 -7 0 C-4.33 -1.33 -2.83 -0.67 0 0 Z " fill="#0E2445" transform="translate(453,405)"/>
<path d="M0 0 C3.38 -0.12 3.38 -0.12 7 0 C9 2 9 2 9.25 4.5 C9 7 9 7 7 9 C3.38 9.12 3.38 9.12 0 9 C0 6.03 0 3.06 0 0 Z " fill="#092045" transform="translate(400,407)"/>
<path d="M0 0 C1.32 0.33 2.64 0.66 4 1 C3.12 8.62 3.12 8.62 2 12 C2.66 12 3.32 12 4 12 C4 16.29 4 20.58 4 25 C3.34 25 2.68 25 2 25 C1.34 25.66 0.68 26.32 0 27 C0 18.09 0 9.18 0 0 Z " fill="#566278" transform="translate(215,291)"/>
<path d="M0 0 C0.48 0.01 0.48 0.01 2.94 0.06 C3.27 1.38 3.6 2.7 3.94 4.06 C4.93 4.06 5.92 4.06 6.94 4.06 C7.27 3.4 7.6 2.74 7.94 2.06 C7.94 3.05 7.94 4.04 7.94 5.06 C6.62 5.39 5.3 5.72 3.94 6.06 C3.94 6.72 3.94 7.38 3.94 8.06 C2.25 8.75 2.25 8.75 -0.06 9.06 C-2.81 7.62 -2.81 7.62 -5.06 6.06 C-3.99 0.08 -3.99 0.08 0 0 Z " fill="#192F53" transform="translate(331.0625,368.9375)"/>
<path d="M0 0 C2.97 0 5.94 0 9 0 C9 0.66 9 1.32 9 2 C6.69 2 4.38 2 2 2 C2 3.65 2 5.3 2 7 C4.31 7 6.62 7 9 7 C9 7.66 9 8.32 9 9 C6.69 9 4.38 9 2 9 C2 10.65 2 12.3 2 14 C4.31 14 6.62 14 9 14 C9 14.66 9 15.32 9 16 C6.03 16 3.06 16 0 16 C0 10.72 0 5.44 0 0 Z " fill="#BDD5E8" transform="translate(522,321)"/>
<path d="M0 0 C1.32 0.33 2.64 0.66 4 1 C4.48 6.38 4.48 6.38 2.56 8.88 C-1.23 10.54 -4.92 10.41 -9 10 C-9.66 9.67 -10.32 9.34 -11 9 C-11 7.68 -11 6.36 -11 5 C-7.37 5.33 -3.74 5.66 0 6 C0 5.01 0 4.02 0 3 C-0.66 2.67 -1.32 2.34 -2 2 C-1.34 2 -0.68 2 0 2 C0 1.34 0 0.68 0 0 Z " fill="#111C32" transform="translate(165,161)"/>
<path d="M0 0 C3.63 0 7.26 0 11 0 C11 0.66 11 1.32 11 2 C10.34 2 9.68 2 9 2 C9 3.98 9 5.96 9 8 C6.03 8 3.06 8 0 8 C-0.33 6.68 -0.66 5.36 -1 4 C0.32 3.67 1.64 3.34 3 3 C3 2.34 3 1.68 3 1 C1.68 1.33 0.36 1.66 -1 2 C-0.67 1.34 -0.34 0.68 0 0 Z " fill="#6A8797" transform="translate(703,169)"/>
<path d="M0 0 C0.66 0 1.32 0 2 0 C4 3 4 3 4 7 C2.02 7 0.04 7 -2 7 C-2.99 9.31 -3.98 11.62 -5 14 C-6.65 14 -8.3 14 -10 14 C-8.35 10.04 -6.7 6.08 -5 2 C-4.01 2 -3.02 2 -2 2 C-1.67 2.66 -1.34 3.32 -1 4 C-0.67 2.68 -0.34 1.36 0 0 Z " fill="#5C7891" transform="translate(101,157)"/>
<path d="M0 0 C2.68 2.32 3.66 4.32 4.69 7.69 C4.94 8.5 5.19 9.3 5.45 10.14 C5.63 10.75 5.81 11.37 6 12 C3.25 12.31 3.25 12.31 0 12 C-2.6 9.4 -3.84 7.49 -5 4 C-3.35 2.68 -1.7 1.36 0 0 Z " fill="#41B9B9" transform="translate(149,132)"/>
<path d="M0 0 C-0.79 1.46 -1.58 2.92 -2.38 4.38 C-2.82 5.19 -3.26 6 -3.71 6.84 C-5 9 -5 9 -7 11 C-10.12 11.12 -10.12 11.12 -13 11 C-11.37 6.24 -9.19 2.46 -4.94 -0.38 C-3 -1 -3 -1 0 0 Z " fill="#124680" transform="translate(706,93)"/>
<path d="M0 0 C0.99 0 1.98 0 3 0 C3 3.3 3 6.6 3 10 C2.01 10.33 1.02 10.66 0 11 C-2.26 9.6 -4.02 7.8 -6 6 C-6 7.32 -6 8.64 -6 10 C-6.66 10 -7.32 10 -8 10 C-7.67 7.03 -7.34 4.06 -7 1 C-6.67 2.32 -6.34 3.64 -6 5 C-5.01 5 -4.02 5 -3 5 C-3.33 3.68 -3.66 2.36 -4 1 C-2.68 1.33 -1.36 1.66 0 2 C0 1.34 0 0.68 0 0 Z " fill="#6A6F7C" transform="translate(136,395)"/>
<path d="M0 0 C0.99 -0.33 1.98 -0.66 3 -1 C2.81 -0.07 2.63 0.86 2.44 1.81 C2 5 2 5 3 8 C0.33 8 -2.33 8 -5 8 C-4.67 6.35 -4.34 4.7 -4 3 C-5.32 3.33 -6.64 3.66 -8 4 C-8.33 2.68 -8.66 1.36 -9 0 C-5.63 -1.12 -3.43 -0.7 0 0 Z " fill="#667993" transform="translate(517,367)"/>
<path d="M0 0 C5 1 5 1 6 2 C6.2 4 6.2 4 6.25 6.44 C6.28 7.24 6.3 8.04 6.33 8.87 C6.22 9.57 6.11 10.28 6 11 C3 13 3 13 0 13 C0 8.71 0 4.42 0 0 Z " fill="#0E2B4C" transform="translate(511,323)"/>
<path d="M0 0 C2.64 0.33 5.28 0.66 8 1 C8 4.96 8 8.92 8 13 C6.35 12.67 4.7 12.34 3 12 C3 9.36 3 6.72 3 4 C2.34 4 1.68 4 1 4 C1 6.64 1 9.28 1 12 C0.67 12 0.34 12 0 12 C0 8.04 0 4.08 0 0 Z " fill="#9CA8BF" transform="translate(244,209)"/>
<path d="M0 0 C0.99 0 1.98 0 3 0 C3.66 1.65 4.32 3.3 5 5 C7 3 7 3 8 0 C8.99 0 9.98 0 11 0 C11 3.3 11 6.6 11 10 C10.34 10 9.68 10 9 10 C8.67 9.01 8.34 8.02 8 7 C7.67 7.99 7.34 8.98 7 10 C6.01 10 5.02 10 4 10 C3.67 9.01 3.34 8.02 3 7 C2.67 7.99 2.34 8.98 2 10 C1.34 10 0.68 10 0 10 C0 6.7 0 3.4 0 0 Z " fill="#85E6E9" transform="translate(120,463)"/>
<path d="M0 0 C3.88 1.75 3.88 1.75 5 4 C5.07 5.71 5.08 7.42 5.06 9.12 C5.05 10.04 5.04 10.95 5.04 11.88 C5.02 12.58 5.01 13.28 5 14 C4.01 14.33 3.02 14.66 2 15 C2 12.03 2 9.06 2 6 C1.34 5.67 0.68 5.34 0 5 C-0.33 6.16 -0.33 6.16 -2 12 C-1.34 12 -0.68 12 0 12 C0.33 11.01 0.66 10.02 1 9 C1 10.98 1 12.96 1 15 C0.01 15 -0.98 15 -2 15 C-3.23 12.55 -3.2 10.8 -3.25 8.06 C-3.28 7.19 -3.3 6.31 -3.33 5.41 C-2.94 2.58 -2.19 1.75 0 0 Z " fill="#A7B4CF" transform="translate(225,230)"/>
<path d="M0 0 C2.75 3.4 6 7.48 6 12 C3.69 12 1.38 12 -1 12 C-4.04 6.66 -4.04 6.66 -3.88 3.75 C-3 2 -3 2 0 0 Z " fill="#53BFBE" transform="translate(719,92)"/>
<path d="M0 0 C0.66 0.66 1.32 1.32 2 2 C2.99 1.67 3.98 1.34 5 1 C5.66 3.31 6.32 5.62 7 8 C4.69 8.66 2.38 9.32 0 10 C-0.33 11.32 -0.66 12.64 -1 14 C-2.32 14 -3.64 14 -5 14 C-3.46 9.28 -1.92 4.58 0 0 Z " fill="#4E5C71" transform="translate(737,79)"/>
<path d="M0 0 C3.69 1.23 4.72 2.94 7 6 C7.33 4.02 7.66 2.04 8 0 C8.66 0 9.32 0 10 0 C10 3.96 10 7.92 10 12 C9.01 12 8.02 12 7 12 C4.81 9 4.81 9 3 6 C2.67 7.98 2.34 9.96 2 12 C1.34 12 0.68 12 0 12 C0 8.04 0 4.08 0 0 Z " fill="#C9E0F0" transform="translate(550,180)"/>
<path d="M0 0 C0.56 0.19 1.11 0.37 1.69 0.56 C4.39 1.07 6.33 0.58 9 0 C10 1 10 1 10.06 4.56 C10.04 5.7 10.02 6.83 10 8 C6.67 8 3.33 8 0 8 C0 5.36 0 2.72 0 0 Z " fill="#658296" transform="translate(829,152)"/>
<path d="M0 0 C1.32 0.33 2.64 0.66 4 1 C3.01 1 2.02 1 1 1 C1 2.32 1 3.64 1 5 C1.99 4.67 2.98 4.34 4 4 C4.33 3.01 4.66 2.02 5 1 C6.65 0.67 8.3 0.34 10 0 C10 3.3 10 6.6 10 10 C8.35 10 6.7 10 5 10 C4.67 8.68 4.34 7.36 4 6 C3.01 6 2.02 6 1 6 C0.84 6.66 0.84 6.66 0 10 C0 6.7 0 3.4 0 0 Z " fill="#757C88" transform="translate(147,444)"/>
<path d="M0 0 C4.36 4.36 4.18 10.15 4.31 16 C4.22 22.46 3.73 27.27 -1 32 C-3.12 31.62 -3.12 31.62 -5 31 C-5 30.01 -5 29.02 -5 28 C-3.68 28.33 -2.36 28.66 -1 29 C0.62 26.13 1.27 23.96 1.41 20.67 C1.45 19.87 1.49 19.07 1.53 18.25 C1.56 17.43 1.59 16.6 1.62 15.75 C1.66 14.91 1.7 14.07 1.74 13.2 C1.84 11.14 1.92 9.07 2 7 C1.01 6.67 0.02 6.34 -1 6 C-1.04 4.33 -1.04 2.67 -1 1 C-0.67 0.67 -0.34 0.34 0 0 Z " fill="#697799" transform="translate(232,413)"/>
<path d="M0 0 C2.31 0.33 4.62 0.66 7 1 C7 2.98 7 4.96 7 7 C8.32 7 9.64 7 11 7 C11 7.66 11 8.32 11 9 C7.37 9 3.74 9 0 9 C0 6.03 0 3.06 0 0 Z " fill="#8A8E8E" transform="translate(941,304)"/>
<path d="M0 0 C0.66 0 1.32 0 2 0 C2 3.96 2 7.92 2 12 C3.32 12.33 4.64 12.66 6 13 C5.67 13.17 5.67 13.17 4 14 C3.59 16.5 3.59 16.5 3.38 19.56 C3.3 20.57 3.23 21.59 3.15 22.63 C3.1 23.41 3.05 24.19 3 25 C2.01 25 1.02 25 0 25 C0 16.75 0 8.5 0 0 Z " fill="#DAE9F4" transform="translate(397,405)"/>
<path d="M0 0 C0.33 0 0.66 0 1 0 C2.19 5.57 2.3 9.09 -0.57 14.1 C-3.15 17.52 -6.13 20.12 -10 22 C-13.5 21.88 -13.5 21.88 -16 21 C-12.73 18.82 -9.62 17.5 -6 16 C-6.16 15.18 -6.16 15.18 -7 11 C-6.17 11.33 -6.17 11.33 -2 13 C-1.34 8.71 -0.68 4.42 0 0 Z " fill="#B0C7DC" transform="translate(522,368)"/>
<path d="M0 0 C6.88 0.88 6.88 0.88 8 2 C8.14 4.67 8.04 7.32 8 10 C7.67 10 7.34 10 7 10 C7 8.35 7 6.7 7 5 C6.01 5 5.02 5 4 5 C4 6.98 4 8.96 4 11 C4.99 11 5.98 11 7 11 C7 11.99 7 12.98 7 14 C6.01 14 5.02 14 4 14 C4 13.34 4 12.68 4 12 C2.68 12.33 1.36 12.66 0 13 C0.56 9.66 1.35 6.97 3 4 C2.01 4 1.02 4 0 4 C0 2.68 0 1.36 0 0 Z " fill="#ACB6CD" transform="translate(244,269)"/>
<path d="M0 0 C0.66 0.33 1.32 0.66 2 1 C2 1.66 2 2.32 2 3 C2.33 2.34 2.66 1.68 3 1 C3.99 1 4.98 1 6 1 C7.12 3.25 7.13 4.51 7.12 7 C7.13 7.7 7.13 8.4 7.13 9.12 C7 11 7 11 6 13 C5.34 13 4.68 13 4 13 C4 11.35 4 9.7 4 8 C3.34 9.32 2.68 10.64 2 12 C1.01 11.67 0.02 11.34 -1 11 C-1.03 9.35 -1.05 7.71 -1.06 6.06 C-1.07 5.15 -1.09 4.23 -1.1 3.29 C-1 1 -1 1 0 0 Z " fill="#9FACC2" transform="translate(245,172)"/>
</svg>
