<?xml version="1.0" encoding="UTF-8"?>
<!-- Generator: visioncortex VTracer 0.6.5 -->
<svg version="1.1" xmlns="http://www.w3.org/2000/svg" width="1024" height="559">
<path d="M0 0 C337.92 0 675.84 0 1024 0 C1024 184.47 1024 368.94 1024 559 C686.08 559 348.16 559 0 559 C0 374.53 0 190.06 0 0 Z " fill="#E5E6E5" transform="translate(0,0)"/>
<path d="M0 0 C123.09 0 246.18 0 373 0 C373 35.63 373 35.63 372.78 48.46 C372.76 49.9 372.74 51.34 372.71 52.77 C372.66 56.42 372.6 60.07 372.54 63.72 C372.47 67.5 372.42 71.28 372.36 75.05 C372.24 82.37 372.12 89.68 372 97 C332.62 97.02 293.24 97.04 253.86 97.05 C249.19 97.05 244.53 97.05 239.86 97.05 C238.94 97.06 238.01 97.06 237.05 97.06 C222.08 97.06 207.11 97.07 192.13 97.08 C176.73 97.09 161.33 97.09 145.94 97.09 C136.46 97.1 126.98 97.1 117.5 97.11 C110.97 97.11 104.45 97.11 97.92 97.11 C94.17 97.11 90.42 97.11 86.68 97.12 C67.76 97.15 48.9 96.79 30 96 C30.11 119.17 30.22 142.33 30.34 165.5 C30.39 176.25 30.45 187.01 30.5 197.77 C30.54 207.15 30.59 216.52 30.64 225.9 C30.66 230.87 30.69 235.83 30.71 240.79 C30.73 245.47 30.75 250.15 30.78 254.82 C30.79 256.53 30.8 258.25 30.8 259.96 C30.86 275.69 30.86 275.69 31.8 282.95 C32.18 286.85 31.84 290.73 31.56 294.62 C31.54 295.03 31.54 295.03 31.4 297.09 C31.28 299.06 31.14 301.03 31 303 C26.6 303.09 22.21 303.14 17.81 303.19 C17.19 303.2 17.19 303.2 14.04 303.26 C12.84 303.27 11.63 303.28 10.39 303.29 C9.29 303.31 8.18 303.32 7.05 303.34 C3.61 302.96 1.76 302.05 -1 300 C-2.28 297.44 -2.13 295.61 -2.13 292.74 C-2.13 291.64 -2.14 290.54 -2.14 289.4 C-2.13 288.24 -2.13 287.07 -2.12 285.88 C-2.13 285.34 -2.13 285.34 -2.14 282.61 C-2.13 275.05 -1.87 267.52 -1.53 259.97 C-1 247.73 -0.69 235.5 -0.46 223.25 C-0.42 221.01 -0.38 218.78 -0.33 216.54 C-0.2 209.36 -0.07 202.18 0.06 195 C0.07 194.39 0.07 194.39 0.13 191.28 C0.74 157.39 1.2 123.52 1.19 89.63 C1.19 86.27 1.19 82.9 1.19 79.54 C1.18 53.01 0.56 26.53 0 0 Z " fill="#2EACA9" transform="translate(325,217)"/>
<path d="M0 0 C12.47 4.99 25.69 5.53 38.94 5.94 C40.24 5.98 41.54 6.02 42.88 6.07 C46.06 6.17 49.25 6.28 52.44 6.38 C45.63 13.18 25.75 10.75 16.47 10.83 C4.87 10.95 -5.11 11.53 -14.38 19.19 C-14.91 19.6 -15.44 20.01 -15.99 20.44 C-20.24 23.82 -24.88 27.56 -26.2 33.01 C-26.21 33.42 -26.21 33.42 -26.25 35.5 C-26.35 39 -26.67 41.37 -28.56 44.38 C-31.65 45.92 -34.17 45.67 -37.56 45.38 C-40.68 42.3 -41.19 39.15 -41.94 34.94 C-43.12 29.53 -44 26.77 -48.56 23.38 C-49.29 22.74 -50.01 22.11 -50.76 21.45 C-62.73 11.17 -73.39 10.78 -88.56 10.75 C-110.82 10.61 -110.82 10.61 -118.56 8.38 C-118.89 7.71 -119.22 7.06 -119.56 6.38 C-118.82 6.37 -118.08 6.36 -117.31 6.35 C-91.76 5.95 -71.91 2.19 -48.31 -7.66 C-32.19 -13.33 -14.77 -6.74 0 0 Z " fill="#0A4C66" transform="translate(615.5625,371.625)"/>
<path d="M0 0 C0.33 0 0.66 0 1 0 C1.29 4.52 0.93 7.22 -0.91 11.36 C-3.23 18.83 0.92 24.95 4.31 31.44 C5.27 33.33 6.21 35.23 7.15 37.14 C8.01 38.85 8.88 40.55 9.76 42.25 C11 45 11 45 11 48 C4.73 48 -1.54 48 -8 48 C-9.34 45.07 -10.67 42.13 -12 39.19 C-12.38 38.35 -12.76 37.52 -13.16 36.66 C-13.52 35.86 -13.88 35.06 -14.25 34.23 C-14.59 33.49 -14.92 32.75 -15.27 31.99 C-16 30 -16 30 -16 27 C-16.55 27.14 -16.55 27.14 -19.33 27.84 C-27.55 29.87 -35.51 31.63 -44 32 C-44.98 34.1 -45.96 36.21 -46.94 38.31 C-47.48 39.48 -48.03 40.66 -48.59 41.86 C-50 45 -50 45 -51 48 C-57.27 48 -63.54 48 -70 48 C-65.85 35.54 -62.12 27.58 -50.38 21.31 C-44.08 18.57 -37.6 17.99 -30.85 17.16 C-20.46 15.8 -10.16 13.24 -3 5 C-1.12 2.12 -1.12 2.12 0 0 Z " fill="#2EA3A7" transform="translate(441,138)"/>
<path d="M0 0 C4.44 4.31 5.46 8.12 5.69 14.19 C5.55 19.33 4.84 22.31 1.25 26.19 C-4.39 31.4 -9.44 32.66 -16.96 32.5 C-22.47 31.88 -26.25 29.69 -30.12 25.81 C-33.32 20.65 -34.84 15.26 -33.75 9.19 C-31.33 3.34 -27.35 -0.89 -21.75 -3.81 C-13.55 -6.36 -7.05 -4.64 0 0 Z " fill="#115973" transform="translate(643.75,131.8125)"/>
<path d="M0 0 C0.8 0.01 1.6 0.02 2.43 0.03 C2.85 0.04 2.85 0.04 4.96 0.11 C5.38 0.11 5.38 0.11 7.52 0.15 C9.6 0.18 11.69 0.24 13.77 0.29 C17.09 6.72 20.29 13.2 23.27 19.79 C23.8 20.94 24.32 22.08 24.86 23.26 C25.77 26.29 25.77 26.29 25.13 28.56 C22.94 31.35 20.07 33.11 16.77 34.29 C14.79 34.29 12.81 34.29 10.77 34.29 C8.79 29.67 6.81 25.05 4.77 20.29 C2.15 23.79 0.74 26.43 -0.86 30.42 C-3.21 36.24 -3.21 36.24 -4.23 38.29 C-6.05 38.8 -7.88 39.23 -9.73 39.61 C-15.58 40.96 -20.17 43.15 -25.23 46.29 C-22.72 38 -19.26 30.17 -15.76 22.25 C-14.73 19.91 -13.7 17.55 -12.68 15.2 C-12.02 13.7 -11.36 12.21 -10.7 10.71 C-10.55 10.36 -10.55 10.36 -9.78 8.59 C-5.9 -0.13 -5.9 -0.13 0 0 Z " fill="#0C6F88" transform="translate(407.23046875,115.70703125)"/>
<path d="M0 0 C2.88 0.05 2.88 0.05 5.56 -0.12 C10.68 -0.26 12.81 1.05 17 4 C20.88 3.75 20.88 3.75 24 3 C24 2.34 24 1.68 24 1 C28.88 0.26 33.75 -0.29 38.67 -0.72 C41 -1 41 -1 42.85 -1.52 C51.05 -3.34 60.76 -2.16 69 -1 C69 -0.67 69 -0.34 69 0 C68.55 0.02 68.55 0.02 66.29 0.11 C50.71 0.96 39.7 5.28 29.16 17 C26.95 20.08 26.39 21.43 26.31 25.12 C26.21 28.63 25.89 31 24 34 C20.92 35.54 18.39 35.3 15 35 C11.88 31.92 11.38 28.78 10.62 24.56 C9.44 19.15 8.56 16.4 4 13 C3.28 12.37 2.55 11.73 1.8 11.08 C-8.24 2.45 -16.87 0.38 -30 0 C-30 -0.33 -30 -0.66 -30 -1 C-19.84 -2.66 -9.9 -2.87 0 0 Z " fill="#289F9D" transform="translate(563,382)"/>
<path d="M0 0 C3.3 0 6.6 0 10 0 C18.79 19.41 18.79 19.41 22.56 28.12 C23.04 29.22 23.51 30.32 24 31.45 C25 34 25 34 25 36 C22.03 36 19.06 36 16 36 C13 30.25 13 30.25 13 28 C7.39 28 1.78 28 -4 28 C-4.66 30.31 -5.32 32.62 -6 35 C-8.97 35 -11.94 35 -15 35 C-13.7 30.03 -11.99 25.51 -9.75 20.88 C-9.13 19.57 -8.51 18.26 -7.89 16.96 C-7.57 16.3 -7.26 15.65 -6.94 14.98 C-5.45 11.85 -4.01 8.71 -2.56 5.56 C-2.07 4.49 -1.58 3.42 -1.07 2.32 C-0.89 1.93 -0.89 1.93 0 0 Z " fill="#16768A" transform="translate(478,128)"/>
<path d="M0 0 C9.24 0 18.48 0 28 0 C28 2.31 28 4.62 28 7 C21.4 7 14.8 7 8 7 C8 9.31 8 11.62 8 14 C13.94 14 19.88 14 26 14 C26 16.31 26 18.62 26 21 C20.39 21 14.78 21 9 21 C9 23.64 9 26.28 9 29 C15.27 29 21.54 29 28 29 C28 31.31 28 33.62 28 36 C18.76 36 9.52 36 0 36 C0 24.12 0 12.24 0 0 Z " fill="#1C788B" transform="translate(545,128)"/>
<path d="M0 0 C2.64 0 5.28 0 8 0 C8 5.28 8 10.56 8 16 C8.66 16 9.32 16 10 16 C10.25 15.42 10.5 14.84 10.75 14.25 C12.18 11.68 13.82 10.02 15.94 8 C18.05 5.98 19.85 4.23 21.43 1.77 C23 0 23 0 25.48 -0.39 C25.93 -0.37 25.93 -0.37 28.19 -0.25 C29.09 -0.21 29.99 -0.18 30.92 -0.14 C31.61 -0.09 32.29 -0.05 33 0 C29.09 5.51 24.9 10.36 20 15 C21.58 18.63 23.83 21.36 26.38 24.38 C29.5 28.14 32.42 31.85 35 36 C31.07 36.87 27.91 37.08 24 36 C19.82 32.45 16.91 27.59 14 23 C9.2 26.4 9.2 26.4 8.29 29.14 C8.26 29.84 8.22 30.53 8.19 31.25 C8.13 32.49 8.06 33.72 8 35 C5.36 35 2.72 35 0 35 C0 23.45 0 11.9 0 0 Z " fill="#16778B" transform="translate(507,128)"/>
<path d="M0 0 C4.21 0.91 8.03 2.34 12 4 C13.25 4.51 14.5 5.02 15.76 5.53 C16.4 5.79 17.05 6.06 17.72 6.33 C31.88 12.06 46.27 15.09 61 9 C63.67 7.83 66.34 6.63 69 5.44 C79.56 0.72 89.31 -1.07 101 0 C101.33 0.33 101.33 0.33 103 2 C101.97 2.16 100.95 2.32 99.89 2.48 C91.19 3.91 83.89 5.95 76 10 C73.11 11.42 70.21 12.8 67.31 14.19 C66.61 14.53 65.91 14.88 65.19 15.23 C52.31 21.42 37.84 22.15 24.32 17.41 C19.71 15.45 15.26 13.23 10.81 10.94 C1.05 5.93 -8.08 3.32 -19 2 C-13.68 -1.55 -6.24 -0.6 0 0 Z " fill="#399995" transform="translate(539,408)"/>
<path d="M0 0 C0.94 -0.02 1.88 -0.03 2.84 -0.05 C14.11 -0.06 22.86 3.84 32.81 8.81 C41.28 13.02 49.46 16.79 58.81 18.5 C59.66 18.66 60.51 18.82 61.38 18.98 C61.69 19.04 61.69 19.04 63.25 19.31 C63.25 19.64 63.25 19.97 63.25 20.31 C51.01 20.94 41.71 20.01 30.25 15.31 C28.92 14.78 27.59 14.25 26.27 13.71 C24.31 12.93 22.35 12.14 20.39 11.35 C2.15 4.01 -12.92 8.73 -30.36 15.85 C-38.09 18.98 -44.88 20.64 -53.25 20.44 C-53.98 20.43 -54.7 20.42 -55.45 20.41 C-57.22 20.39 -58.98 20.35 -60.75 20.31 C-60.75 19.98 -60.75 19.65 -60.75 19.31 C-59.78 19.1 -58.81 18.9 -57.81 18.68 C-44.04 15.58 -31.88 10.1 -19.4 3.57 C-12.79 0.43 -7.22 -0.02 0 0 Z " fill="#389E9C" transform="translate(580.75,349.6875)"/>
<path d="M0 0 C0.47 0.25 0.47 0.25 2.88 1.5 C2.54 3.15 2.22 4.8 1.88 6.5 C-1.88 7.62 -1.88 7.62 -4.12 6.5 C-5.6 6.4 -7.08 6.37 -8.56 6.38 C-9.34 6.37 -10.13 6.37 -10.93 6.37 C-13.12 6.5 -13.12 6.5 -16.12 7.5 C-15.79 9.15 -15.47 10.8 -15.12 12.5 C-14.4 12.61 -13.68 12.72 -12.93 12.83 C-6.57 13.87 -1.25 14.88 3.81 19.12 C5.53 22.96 5.08 26.53 3.88 30.5 C0.23 34.44 -2.94 35.35 -8.15 35.7 C-19.23 35.86 -19.23 35.86 -24.12 32.5 C-23.75 29.56 -23.75 29.56 -23.12 26.5 C-22.47 26.17 -21.8 25.84 -21.12 25.5 C-20.38 25.81 -19.63 26.11 -18.86 26.43 C-15.8 27.63 -13.58 27.7 -10.31 27.62 C-9.34 27.61 -8.36 27.59 -7.36 27.57 C-6.62 27.55 -5.88 27.52 -5.12 27.5 C-5.12 26.18 -5.12 24.86 -5.12 23.5 C-5.64 23.35 -5.64 23.35 -8.27 22.58 C-9.64 22.16 -11.01 21.74 -12.38 21.31 C-13.06 21.12 -13.74 20.92 -14.44 20.72 C-19.1 19.25 -21.58 17.69 -24.12 13.5 C-25 8.46 -25 8.46 -24.12 5.5 C-18.1 -1.93 -8.75 -3.79 0 0 Z " fill="#14677E" transform="translate(602.125,128.5)"/>
<path d="M0 0 C0 0.33 0 0.66 0 1 C-81.84 1 -163.68 1 -248 1 C-248 0.67 -248 0.34 -248 0 C-165.98 -2.43 -83.84 -3.42 0 0 Z " fill="#898989" transform="translate(632,518)"/>
<path d="M0 0 C10 0 10 0 12.62 1.62 C14.37 4.64 14.37 6.57 14 10 C13.67 10.66 13.34 11.32 13 12 C12.34 12 11.68 12 11 12 C11.45 13.32 11.91 14.63 12.38 15.94 C12.63 16.67 12.89 17.4 13.15 18.15 C14 20 14 20 16 21 C16.25 19.76 16.5 18.52 16.75 17.25 C18.05 11.35 20.01 5.7 22 0 C22.82 0.16 22.82 0.16 27 1 C28 4.12 29 7.25 30 10.38 C30.29 11.26 30.57 12.15 30.87 13.07 C31.14 13.92 31.41 14.77 31.69 15.65 C31.94 16.43 32.19 17.22 32.45 18.03 C33 20 33 20 33 22 C31.35 22 29.7 22 28 22 C27.67 21.01 27.34 20.02 27 19 C25.02 18.67 23.04 18.34 21 18 C20.67 19.65 20.34 21.3 20 23 C16.7 23 13.4 23 10 23 C8.74 20.09 8 18.2 8 15 C7.01 15 6.02 15 5 15 C5 17.31 5 19.62 5 22 C3.35 22.33 1.7 22.66 0 23 C0 15.41 0 7.82 0 0 Z " fill="#0A6376" transform="translate(410,240)"/>
<path d="M0 0 C5.94 0 11.88 0 18 0 C21.3 6.44 24.52 12.91 27.5 19.5 C28.03 20.64 28.55 21.79 29.09 22.97 C30 26 30 26 29.36 28.27 C27.17 31.06 24.3 32.82 21 34 C17.77 34.11 17.77 34.11 15 34 C13.82 31.65 12.65 29.3 11.5 26.94 C11.17 26.28 10.83 25.62 10.49 24.95 C7.96 19.71 7.1 15.35 8.66 9.57 C9.44 7.71 10.22 5.86 11 4 C11.66 4 12.32 4 13 4 C13 3.34 13 2.68 13 2 C8.71 1.67 4.42 1.34 0 1 C0 0.67 0 0.34 0 0 Z " fill="#42B1C6" transform="translate(403,116)"/>
<path d="M0 0 C2.94 1.31 3.83 2.4 6 5 C7.51 9.16 7.3 12.16 5.81 16.31 C2.94 20.57 2.94 20.57 0 22 C-6.55 22.84 -6.55 22.84 -9.82 20.95 C-11.99 19.17 -13.74 17.53 -15 15 C-15.35 9.66 -15.46 6.35 -12 2 C-7.95 -0.7 -4.75 -0.77 0 0 Z " fill="#DCE8E7" transform="translate(634,135)"/>
<path d="M0 0 C1.05 -0.03 2.1 -0.05 3.18 -0.08 C11.38 0.69 18.31 4.41 25.44 8.31 C35.36 13.69 35.36 13.69 39.69 15.25 C39.69 15.58 39.69 15.91 39.69 16.25 C32.41 15.77 26.44 13.94 19.69 11.25 C4.55 5.27 -8.47 6.03 -23.31 12.25 C-34.82 16.83 -34.82 16.83 -41.31 16.25 C-37.93 14 -34.39 12.23 -30.75 10.44 C-29.3 9.72 -27.86 9.01 -26.41 8.29 C-25.71 7.94 -25.01 7.59 -24.28 7.24 C-22.59 6.39 -20.92 5.52 -19.25 4.65 C-18.4 4.21 -17.56 3.77 -16.69 3.31 C-15.97 2.93 -15.26 2.55 -14.52 2.16 C-9.86 0.24 -4.99 0.07 0 0 Z " fill="#3B9B97" transform="translate(582.3125,334.75)"/>
<path d="M0 0 C0.68 0.25 1.35 0.49 2.05 0.74 C5.33 2 8.06 3.05 10.19 5.94 C10.88 8.62 10.88 8.62 11.19 10.94 C7.06 10.37 3.62 9.44 -0.19 7.75 C-19.64 -0.57 -35.46 -4.46 -56.81 -2.06 C-42.39 -14.37 -15.7 -5.72 0 0 Z " fill="#419B96" transform="translate(560.8125,403.0625)"/>
<path d="M0 0 C3.83 0.04 3.83 0.04 6.06 1.62 C9.18 6.39 8.64 11.73 8.12 17.25 C6.56 20.5 6.56 20.5 4.12 22.25 C0.34 22.79 -1.88 22.8 -5.25 20.94 C-8.59 17.47 -8.14 13.23 -8.11 8.7 C-7.58 3.1 -5.38 0.35 0 0 Z " fill="#BDEDEB" transform="translate(518.875,270.75)"/>
<path d="M0 0 C3.23 4.03 2.56 8.62 2.25 13.56 C1.17 17.54 0.75 18.23 -2.75 20.56 C-5.69 20.94 -5.69 20.94 -8.75 20.56 C-11.05 18.7 -12.43 17.21 -13.75 14.56 C-14.16 9.63 -14.35 5.07 -12.5 0.44 C-8.94 -3.37 -4.04 -3.32 0 0 Z " fill="#066173" transform="translate(498.75,242.4375)"/>
<path d="M0 0 C2.12 0.6 2.12 0.6 3.87 2.2 C5.56 5.44 5.55 7.97 5.56 11.6 C5.57 12.21 5.57 12.21 5.62 15.29 C5.12 18.6 5.12 18.6 3.31 21.01 C0.11 23.33 -2.03 23.15 -5.88 22.6 C-8.24 20.86 -9.48 19.54 -10.63 16.85 C-11.21 11.59 -11.45 8 -9.44 3.1 C-6.19 -0.07 -4.38 -0.04 0 0 Z " fill="#C1EFEE" transform="translate(485.87890625,270.3984375)"/>
<path d="M0 0 C3.79 1.19 4.5 1.68 6.38 5.06 C6.81 8.38 6.81 8.38 6.81 12.06 C6.83 13.28 6.85 14.5 6.87 15.75 C6.38 19.06 6.38 19.06 4.57 21.47 C1.37 23.79 -0.77 23.61 -4.62 23.06 C-7.71 20.81 -8.53 19.59 -9.19 15.79 C-9.18 4.68 -9.18 4.68 -6.56 1.62 C-3.62 0.06 -3.62 0.06 0 0 Z " fill="#BEEDEC" transform="translate(552.625,269.9375)"/>
<path d="M0 0 C10 0 10 0 12.56 1.88 C15.65 6.43 15.69 10.6 15 16 C13.78 19.19 12.89 19.8 10 22 C6.7 22 3.4 22 0 22 C0 14.74 0 7.48 0 0 Z " fill="#B4E5E5" transform="translate(570,271)"/>
<path d="M0 0 C2.38 1.75 2.38 1.75 4 5 C4.79 11.43 4.93 16.62 1 22 C-1.87 23.44 -3.82 23.38 -7 23 C-9.86 20.24 -10.91 18.53 -11.57 14.59 C-11.57 13.38 -11.56 12.18 -11.56 10.94 C-11.58 9.73 -11.61 8.52 -11.63 7.28 C-11 4 -11 4 -8.66 1.6 C-5.39 -0.37 -3.74 -0.72 0 0 Z " fill="#025E6F" transform="translate(645,240)"/>
<path d="M0 0 C8 0 8 0 10.94 1.75 C14.53 5.67 14.47 10.42 14.4 15.58 C13.96 18.26 13.46 19.28 11.5 21.12 C8 23 8 23 0 23 C0 15.41 0 7.82 0 0 Z " fill="#025667" transform="translate(617,240)"/>
<path d="M0 0 C0.79 -0.01 1.57 -0.02 2.38 -0.04 C7.01 -0.05 10.7 0.42 15.06 2.19 C15.06 2.52 15.06 2.85 15.06 3.19 C13.97 3.22 12.89 3.26 11.77 3.3 C-2.47 3.89 -13.76 6.77 -26.65 12.96 C-32.05 15.52 -37.05 17.09 -42.94 18.19 C-42.61 15.88 -42.28 13.57 -41.94 11.19 C-35.6 8.48 -29.15 6.19 -22.62 4 C-21.85 3.74 -21.07 3.48 -20.27 3.21 C-13.35 0.91 -7.29 0.01 0 0 Z " fill="#389894" transform="translate(634.9375,395.8125)"/>
<path d="M0 0 C9 0 9 0 11.5 1.88 C14.69 6.39 14.49 10.6 14 16 C11.97 20.51 11.97 20.51 9 22 C6.03 22 3.06 22 0 22 C0 14.74 0 7.48 0 0 Z " fill="#BEECEB" transform="translate(442,271)"/>
<path d="M0 0 C8 0 8 0 10.94 1.94 C13.63 5.94 14.3 9.2 14 14 C12.86 17.3 12 19.22 9.25 21.38 C7 22 7 22 0 22 C0 14.74 0 7.48 0 0 Z " fill="#066B7D" transform="translate(376,271)"/>
<path d="M0 0 C10.61 1.63 10.61 1.63 14.81 3.56 C25.09 8.2 36.13 6.13 46.5 2.94 C48.42 2.36 50.35 1.78 52.28 1.21 C53.12 0.96 53.95 0.7 54.81 0.44 C57 0 57 0 60 1 C56.22 3.3 52.38 5.49 48.5 7.62 C47.4 8.24 46.29 8.85 45.16 9.48 C37.14 13.35 26.99 13.27 18.45 11.09 C11.78 8.65 5.52 5.51 0 1 C0 0.67 0 0.34 0 0 Z " fill="#3A9291" transform="translate(552,429)"/>
<path d="M0 0 C10 0 10 0 12.69 1.56 C14.55 5.03 13.89 7.24 13 11 C12.67 11.99 12.34 12.98 12 14 C12.56 16.04 12.56 16.04 13.44 18.19 C13.72 18.9 14.01 19.62 14.31 20.36 C14.54 20.9 14.76 21.44 15 22 C13.35 22 11.7 22 10 22 C9.73 21.43 9.47 20.87 9.2 20.29 C9.02 19.92 9.02 19.92 8.12 18.06 C7.78 17.33 7.43 16.6 7.07 15.85 C6 14 6 14 4 13 C4 15.97 4 18.94 4 22 C2.68 22 1.36 22 0 22 C0 14.74 0 7.48 0 0 Z " fill="#B7E6E6" transform="translate(459,271)"/>
<path d="M0 0 C0.83 0.16 0.83 0.16 5 1 C7.22 4.83 8.46 8.83 10 13 C10.33 8.71 10.66 4.42 11 0 C12.32 0 13.64 0 15 0 C15 7.59 15 15.18 15 23 C13.35 23 11.7 23 10 23 C8.35 19.04 6.7 15.08 5 11 C4.67 14.96 4.34 18.92 4 23 C2.68 23 1.36 23 0 23 C0 15.41 0 7.82 0 0 Z " fill="#025A70" transform="translate(563,240)"/>
<path d="M0 0 C0.33 0.66 0.66 1.32 1 2 C0.09 4.6 -0.87 7.09 -1.94 9.62 C-2.44 10.84 -2.44 10.84 -5 17 C-11.27 17 -17.54 17 -24 17 C-23.34 15.35 -22.68 13.7 -22 12 C-21.34 12 -20.68 12 -20 12 C-19.81 11.44 -19.63 10.89 -19.44 10.31 C-15.45 3.9 -9.1 2.17 -2.16 0.48 C-1.45 0.32 -0.73 0.16 0 0 Z " fill="#0C516E" transform="translate(395,169)"/>
<path d="M0 0 C1.65 0 3.3 0 5 0 C5.33 5.94 5.66 11.88 6 18 C7.32 18.33 8.64 18.66 10 19 C10 12.73 10 6.46 10 0 C11.65 0 13.3 0 15 0 C15.05 2.54 15.09 5.08 15.12 7.62 C15.14 8.34 15.16 9.05 15.18 9.79 C15.22 14.23 14.83 17.85 13 22 C9.95 23.52 7.36 23.24 4 23 C1.38 21.17 1.03 20.09 0 17 C-0.08 15.66 -0.11 14.33 -0.1 12.99 C-0.09 12.23 -0.09 11.47 -0.09 10.69 C-0.08 9.91 -0.07 9.12 -0.06 8.31 C-0.06 7.91 -0.06 7.91 -0.05 5.9 C-0.04 3.93 -0.02 1.97 0 0 Z " fill="#035C6E" transform="translate(392,240)"/>
<path d="M0 0 C1.32 0 2.64 0 4 0 C5.17 3.46 6.34 6.92 7.5 10.38 C7.83 11.36 8.17 12.34 8.51 13.36 C8.67 13.83 8.67 13.83 9.47 16.21 C9.62 16.65 9.62 16.65 10.36 18.85 C11 21 11 21 11 23 C9.35 23 7.7 23 6 23 C5.84 22.18 5.84 22.18 5 18 C3.02 18.33 1.04 18.66 -1 19 C-1.33 20.32 -1.66 21.64 -2 23 C-3.65 23 -5.3 23 -7 23 C-2.91 2.91 -2.91 2.91 0 0 Z " fill="#095F75" transform="translate(550,240)"/>
<path d="M0 0 C1.32 0 2.64 0 4 0 C5.17 3.27 6.34 6.54 7.5 9.81 C7.83 10.74 8.17 11.67 8.51 12.63 C8.67 13.07 8.67 13.07 9.47 15.33 C9.76 16.15 10.06 16.98 10.36 17.82 C11 20 11 20 11 23 C9.35 23 7.7 23 6 23 C5.84 22.18 5.84 22.18 5 18 C3.02 18 1.04 18 -1 18 C-1.33 19.65 -1.66 21.3 -2 23 C-3.32 22.67 -4.64 22.34 -6 22 C-5.5 15.66 -4.62 4.62 0 0 Z " fill="#08586C" transform="translate(604,240)"/>
<path d="M0 0 C1.32 0 2.64 0 4 0 C11 16.7 11 16.7 11 23 C9.35 22.67 7.7 22.34 6 22 C5.67 21.01 5.34 20.02 5 19 C3.02 18.67 1.04 18.34 -1 18 C-1.33 19.65 -1.66 21.3 -2 23 C-3.32 22.67 -4.64 22.34 -6 22 C-5.31 17.01 -3.98 12.4 -2.44 7.62 C-2.2 6.89 -1.97 6.15 -1.73 5.39 C-1.16 3.6 -0.58 1.8 0 0 Z " fill="#096578" transform="translate(516,240)"/>
<path d="M0 0 C3 2 3 2 3.69 5.12 C3.79 6.07 3.89 7.02 4 8 C2.68 8 1.36 8 0 8 C-0.33 6.68 -0.66 5.36 -1 4 C-2.65 4.66 -4.3 5.32 -6 6 C-6 10.29 -6 14.58 -6 19 C-4.35 18.67 -2.7 18.34 -1 18 C-0.67 17.01 -0.34 16.02 0 15 C1.32 15 2.64 15 4 15 C3.12 19.75 3.12 19.75 2 22 C0.68 22 -0.64 22 -2 22 C-2 22.66 -2 23.32 -2 24 C-1.34 24 -0.68 24 0 24 C-0.51 26.17 -1 28 -2 30 C-2.99 30 -3.98 30 -5 30 C-5.04 29.45 -5.04 29.45 -5.25 26.69 C-6 23 -6 23 -8 21.31 C-8.66 20.88 -9.32 20.45 -10 20 C-11.66 15.22 -11.52 9.97 -11 5 C-8.38 -0.35 -5.73 -0.73 0 0 Z " fill="#04596C" transform="translate(592,240)"/>
<path d="M0 0 C1.32 0 2.64 0 4 0 C4 2.97 4 5.94 4 9 C5.98 8.67 7.96 8.34 10 8 C10.33 5.36 10.66 2.72 11 0 C12.32 0 13.64 0 15 0 C15 7.26 15 14.52 15 22 C13.68 22 12.36 22 11 22 C11 18.7 11 15.4 11 12 C8.69 12 6.38 12 4 12 C4 15.3 4 18.6 4 22 C2.68 22 1.36 22 0 22 C0 14.74 0 7.48 0 0 Z " fill="#C0EDED" transform="translate(415,271)"/>
<path d="M0 0 C0.83 0.16 0.83 0.16 5 1 C5.34 2.42 5.67 3.83 6 5.25 C6.19 6.04 6.37 6.83 6.56 7.64 C7 10 7 10 7 14 C7.66 14 8.32 14 9 14 C9.13 13.07 9.27 12.15 9.4 11.19 C9.58 9.99 9.76 8.8 9.94 7.56 C10.11 6.37 10.29 5.17 10.46 3.94 C11 1 11 1 12 0 C13.67 -0.04 15.33 -0.04 17 0 C15.22 7.4 13.11 14.69 11 22 C9.35 22.33 7.7 22.66 6 23 C4.24 18.89 3.01 14.69 1.88 10.38 C1.69 9.71 1.51 9.04 1.32 8.35 C0.56 5.48 0 2.99 0 0 Z " fill="#055F73" transform="translate(527,240)"/>
<path d="M0 0 C1.65 0 3.3 0 5 0 C5.99 4.29 6.98 8.58 8 13 C9.32 8.71 10.64 4.42 12 0 C13.32 0.33 14.64 0.66 16 1 C15.39 8.63 13.2 15.7 11 23 C9.35 23 7.7 23 6 23 C4.99 19.73 4 16.46 3 13.19 C2.71 12.26 2.43 11.33 2.13 10.37 C1.86 9.48 1.59 8.59 1.31 7.67 C1.06 6.85 0.81 6.02 0.55 5.18 C0 3 0 3 0 0 Z " fill="#066173" transform="translate(467,240)"/>
<path d="M0 0 C4.29 0 8.58 0 13 0 C13 0.99 13 1.98 13 3 C10.36 3 7.72 3 5 3 C5 4.98 5 6.96 5 9 C6.98 9 8.96 9 11 9 C11 9.99 11 10.98 11 12 C9.02 12 7.04 12 5 12 C5 13.98 5 15.96 5 18 C7.64 18 10.28 18 13 18 C13 19.32 13 20.64 13 22 C8.71 22 4.42 22 0 22 C0 14.74 0 7.48 0 0 Z " fill="#025D70" transform="translate(392,271)"/>
<path d="M0 0 C3.09 0.15 3.96 0.43 6.56 2.31 C8.06 4.5 8.06 4.5 8.06 7.5 C6.41 7.5 4.76 7.5 3.06 7.5 C2.73 6.51 2.4 5.52 2.06 4.5 C0.74 4.83 -0.58 5.16 -1.94 5.5 C-1.94 9.46 -1.94 13.42 -1.94 17.5 C-0.29 17.83 1.36 18.16 3.06 18.5 C3.06 17.51 3.06 16.52 3.06 15.5 C4.71 15.5 6.36 15.5 8.06 15.5 C6.19 21.38 6.19 21.38 5.06 22.5 C-2.11 23.09 -2.11 23.09 -5.17 20.92 C-7.55 17.66 -7.44 15.5 -7.38 11.5 C-7.37 10.89 -7.37 10.89 -7.37 7.81 C-6.66 2.37 -5.5 0.7 0 0 Z " fill="#BCEFEC" transform="translate(500.9375,270.5)"/>
<path d="M0 0 C3.96 0.33 7.92 0.66 12 1 C13.12 6.62 13.12 6.62 12 10 C12.66 10 13.32 10 14 10 C14 7.03 14 4.06 14 1 C14.99 0.67 15.98 0.34 17 0 C17 3.96 17 7.92 17 12 C15.35 12 13.7 12 12 12 C11.34 11.34 10.68 10.68 10 10 C9.09 10.35 8.19 10.7 7.25 11.06 C4 12 4 12 0 11 C0 7.37 0 3.74 0 0 Z " fill="#4D5F6C" transform="translate(397,434)"/>
<path d="M0 0 C3.96 0 7.92 0 12 0 C12 0.99 12 1.98 12 3 C9.36 3 6.72 3 4 3 C4 4.98 4 6.96 4 9 C6.31 9 8.62 9 11 9 C11 9.99 11 10.98 11 12 C8.69 12 6.38 12 4 12 C4 13.98 4 15.96 4 18 C6.64 18 9.28 18 12 18 C12 19.32 12 20.64 12 22 C8.04 22 4.08 22 0 22 C0 14.74 0 7.48 0 0 Z " fill="#BAE9EA" transform="translate(588,271)"/>
<path d="M0 0 C2.51 2.51 3 3.41 3 7 C1.68 7 0.36 7 -1 7 C-1.66 5.68 -2.32 4.36 -3 3 C-4.32 3 -5.64 3 -7 3 C-7 7.62 -7 12.24 -7 17 C-5.35 17 -3.7 17 -2 17 C-1.67 16.01 -1.34 15.02 -1 14 C0.32 14 1.64 14 3 14 C1.38 19.75 1.38 19.75 -2 22 C-5.84 21.93 -8.12 21.85 -10.94 19.12 C-12.88 13.42 -13.03 7.45 -10.69 1.88 C-7.47 -1.7 -4.35 -1.18 0 0 Z " fill="#067280" transform="translate(387,241)"/>
<path d="M0 0 C0.66 0 1.32 0 2 0 C2.33 2.97 2.66 5.94 3 9 C3.66 6.36 4.32 3.72 5 1 C6.65 1.33 8.3 1.66 10 2 C10 1.34 10 0.68 10 0 C12.31 0 14.62 0 17 0 C17 0.66 17 1.32 17 2 C16.34 2 15.68 2 15 2 C15 4.97 15 7.94 15 11 C11.05 11.18 8.4 11.09 5 9 C5 9.66 5 10.32 5 11 C3.02 11 1.04 11 -1 11 C-1.17 10.18 -1.17 10.18 -2 6 C-1.67 6 -1.34 6 -1 6 C-0.67 4.02 -0.34 2.04 0 0 Z " fill="#5B6F79" transform="translate(437,417)"/>
<path d="M0 0 C4.95 0 9.9 0 15 0 C15 1.32 15 2.64 15 4 C13.35 4 11.7 4 10 4 C10 10.27 10 16.54 10 23 C8.68 23 7.36 23 6 23 C6 16.73 6 10.46 6 4 C4.02 4 2.04 4 0 4 C0 2.68 0 1.36 0 0 Z " fill="#046072" transform="translate(442,240)"/>
<path d="M0 0 C2.31 0.66 4.62 1.32 7 2 C7 1.34 7 0.68 7 0 C10.88 0.88 10.88 0.88 12 2 C12.14 4.67 12.04 7.32 12 10 C7.07 11.1 2.93 11.1 -2 10 C-2.2 3.95 -2.2 3.95 -2 2 C-1.34 1.34 -0.68 0.68 0 0 Z " fill="#919EA3" transform="translate(377,417)"/>
<path d="M0 0 C0.7 0.01 1.4 0.01 2.12 0.02 C2.83 0.01 3.53 0.01 4.25 0 C6.12 0.27 6.12 0.27 8.12 2.27 C8.5 5.7 8.5 5.7 8.12 9.27 C6.5 11.27 6.5 11.27 4.12 12.27 C0.97 12.14 -1.11 11.73 -3.81 10.08 C-4.88 8.27 -4.88 8.27 -4.69 5.2 C-3.84 2.13 -3.34 0.47 0 0 Z " fill="#92BDBD" transform="translate(615.875,173.734375)"/>
<path d="M0 0 C0.99 0.66 1.98 1.32 3 2 C3.37 5.42 3.64 7.9 1.88 10.94 C-0.86 12.49 -2.91 12.32 -6 12 C-9 10 -9 10 -9.4 8.12 C-9.39 7.42 -9.38 6.72 -9.38 6 C-9.38 5.3 -9.39 4.6 -9.4 3.88 C-8.4 -0.84 -3.85 -0.32 0 0 Z " fill="#93C1BE" transform="translate(568,174)"/>
<path d="M0 0 C0.66 0.33 1.32 0.66 2 1 C1.45 3.82 1.45 3.82 0 7 C-2.52 8.35 -4.42 9.13 -7.12 9.88 C-7.83 10.08 -8.53 10.29 -9.25 10.5 C-16.82 12.55 -24.23 12.46 -32 12 C-32 11.67 -32 11.34 -32 11 C-31.03 10.79 -30.06 10.58 -29.06 10.37 C-20.6 8.46 -12.89 5.94 -5.05 2.2 C-3.39 1.42 -1.7 0.7 0 0 Z " fill="#419A98" transform="translate(552,358)"/>
<path d="M0 0 C1.32 0 2.64 0 4 0 C4 5.94 4 11.88 4 18 C6.64 18 9.28 18 12 18 C12 19.32 12 20.64 12 22 C8.04 22 4.08 22 0 22 C0 14.74 0 7.48 0 0 Z " fill="#BFEFEF" transform="translate(530,271)"/>
<path d="M0 0 C7.36 -0.36 7.36 -0.36 10 1.12 C11.48 3.9 11.39 5.91 11 9 C10 10.88 10 10.88 8 12 C5.28 12.24 2.74 12.13 0 12 C0 8.04 0 4.08 0 0 Z " fill="#9BC4BF" transform="translate(490,174)"/>
<path d="M0 0 C2 -0.04 4 -0.04 6 0 C6.33 0.33 6.66 0.66 7 1 C8.67 1.04 10.33 1.04 12 1 C12 1.66 12 2.32 12 3 C11.01 3 10.02 3 9 3 C9.68 3.58 10.36 4.15 11.06 4.75 C11.38 5.12 11.38 5.12 13 7 C12.67 8.32 12.34 9.64 12 11 C8.04 11 4.08 11 0 11 C0 7.37 0 3.74 0 0 Z " fill="#6D8088" transform="translate(375,434)"/>
<path d="M0 0 C1.65 0 3.3 0 5 0 C5 7.26 5 14.52 5 22 C3.35 22.33 1.7 22.66 0 23 C0 15.41 0 7.82 0 0 Z " fill="#0A6B7D" transform="translate(460,240)"/>
<path d="M0 0 C1.65 0 3.3 0 5 0 C5 7.26 5 14.52 5 22 C3.35 22 1.7 22 0 22 C0 14.74 0 7.48 0 0 Z " fill="#B2E7E5" transform="translate(433,271)"/>
<path d="M0 0 C0.93 0.17 1.86 0.33 2.81 0.5 C5.79 0.97 7.2 0.83 10 0 C11 1 11 1 11.1 2.85 C11.08 3.87 11.08 3.87 11 9 C7.52 10.99 5 11 1 11 C1 8.03 1 5.06 1 2 C0.34 1.67 -0.32 1.34 -1 1 C-0.67 0.67 -0.34 0.34 0 0 Z " fill="#879196" transform="translate(443,452)"/>
<path d="M0 0 C3.54 0.54 3.54 0.54 5 2 C5.1 4 5.13 6 5.12 8 C5.13 9.09 5.13 10.19 5.13 11.31 C5 14 5 14 4 15 C1.5 15.12 1.5 15.12 -1 15 C-2.81 13.19 -2.17 10.5 -2.19 8.06 C-2.2 6.98 -2.22 5.9 -2.23 4.79 C-2 2 -2 2 0 0 Z " fill="#44A3A3" transform="translate(482,274)"/>
<path d="M0 0 C3.54 0.54 3.54 0.54 5 2 C5.1 4 5.13 6 5.12 8 C5.13 9.09 5.13 10.19 5.13 11.31 C5 14 5 14 4 15 C1.5 15.12 1.5 15.12 -1 15 C-2.81 13.19 -2.17 10.5 -2.19 8.06 C-2.2 6.98 -2.22 5.9 -2.23 4.79 C-2 2 -2 2 0 0 Z " fill="#469D9D" transform="translate(550,274)"/>
<path d="M0 0 C0.38 0.08 0.38 0.08 2.31 0.5 C5 1 5 1 9 0 C9 3.3 9 6.6 9 10 C4.95 11.16 2.78 10.84 -1 9 C-1.1 2.85 -1.1 2.85 -1 1 C-0.67 0.67 -0.34 0.34 0 0 Z " fill="#617681" transform="translate(421,418)"/>
<path d="M0 0 C1.32 0 2.64 0 4 0 C5.38 2.76 5.1 5.05 5.06 8.12 C5.05 9.22 5.04 10.32 5.04 11.45 C5.02 12.29 5.01 13.13 5 14 C2.62 14.62 2.62 14.62 0 15 C-2 13 -2 13 -2.27 10.47 C-2.26 9.49 -2.26 8.51 -2.25 7.5 C-2.26 6.52 -2.26 5.54 -2.27 4.53 C-2 2 -2 2 0 0 Z " fill="#39ADB3" transform="translate(640,244)"/>
<path d="M0 0 C1.32 0 2.64 0 4 0 C4 7.26 4 14.52 4 22 C2.68 22 1.36 22 0 22 C0 14.74 0 7.48 0 0 Z " fill="#BBF0ED" transform="translate(563,271)"/>
<path d="M0 0 C1.68 0.29 3.34 0.62 5 1 C5.03 3.15 5.05 5.29 5.06 7.44 C5.07 8.63 5.09 9.83 5.1 11.06 C5 14 5 14 4 15 C2.33 15.04 0.67 15.04 -1 15 C-1.03 12.69 -1.05 10.38 -1.06 8.06 C-1.07 6.77 -1.09 5.49 -1.1 4.16 C-1 1 -1 1 0 0 Z " fill="#3AAFB6" transform="translate(491,244)"/>
<path d="M0 0 C3.17 0.44 6.06 1.77 9 3 C9 3.66 9 4.32 9 5 C8.01 5 7.02 5 6 5 C6 5.99 6 6.98 6 8 C6.99 8 7.98 8 9 8 C9 8.66 9 9.32 9 10 C5.7 10.33 2.4 10.66 -1 11 C-2.51 7.99 -2.18 5.32 -2 2 C-1.34 1.34 -0.68 0.68 0 0 Z " fill="#677680" transform="translate(428,452)"/>
<path d="M0 0 C-1.11 3.49 -2.26 6.77 -4 10 C-2.68 10.33 -1.36 10.66 0 11 C-3.3 11 -6.6 11 -10 11 C-10 7.7 -10 4.4 -10 1 C-6.53 -0.16 -3.64 -0.07 0 0 Z " fill="#606D76" transform="translate(432,434)"/>
<path d="M0 0 C1.17 0.01 2.35 0.03 3.56 0.04 C4.15 0.05 4.15 0.05 7.12 0.06 C10 0.23 10 0.23 11 1.23 C11.04 3.56 11.04 5.9 11 8.23 C10.67 8.23 10.34 8.23 10 8.23 C10 6.25 10 4.27 10 2.23 C9.01 2.23 8.02 2.23 7 2.23 C7 4.21 7 6.19 7 8.23 C6.67 8.23 6.34 8.23 6 8.23 C6 6.25 6 4.27 6 2.23 C5.01 2.23 4.02 2.23 3 2.23 C3 4.21 3 6.19 3 8.23 C0.12 8.86 0.12 8.86 -3 9.23 C-5 7.23 -5 7.23 -5.25 4.73 C-4.87 0.89 -3.77 0.29 0 0 Z " fill="#778187" transform="translate(504.00390625,453.76953125)"/>
<path d="M0 0 C3.88 0.88 3.88 0.88 5 2 C5.07 4.02 5.08 6.04 5.06 8.06 C5.05 9.17 5.04 10.27 5.04 11.41 C5.02 12.26 5.01 13.12 5 14 C4.34 14.33 4.34 14.33 1 16 C-1 14 -1 14 -1.23 11.25 C-1.22 10.18 -1.2 9.11 -1.19 8 C-1.18 6.93 -1.17 5.86 -1.17 4.75 C-1 2 -1 2 0 0 Z " fill="#43A19C" transform="translate(517,274)"/>
<path d="M0 0 C0.79 0.18 1.58 0.37 2.39 0.55 C4.31 1.12 4.31 1.12 5.31 2.12 C5.35 4.12 5.36 6.13 5.31 8.12 C3.66 8.45 2.01 8.79 0.31 9.12 C0.31 6.81 0.31 4.5 0.31 2.12 C-0.68 2.12 -1.67 2.12 -2.69 2.12 C-2.69 4.11 -2.69 6.08 -2.69 8.12 C-3.02 8.12 -3.35 8.12 -3.69 8.12 C-3.85 7.3 -3.85 7.3 -4.69 3.12 C-6.01 2.8 -7.33 2.46 -8.69 2.12 C-8.69 3.77 -8.69 5.43 -8.69 7.12 C-7.37 6.8 -6.05 6.46 -4.69 6.12 C-4.69 6.79 -4.69 7.44 -4.69 8.12 C-6.56 8.75 -6.56 8.75 -8.69 9.12 C-10.69 7.12 -10.69 7.12 -10.94 4.62 C-10.69 2.12 -10.69 2.12 -8.69 0.12 C-5.51 -1.06 -3.26 -0.79 0 0 Z " fill="#6E777D" transform="translate(465.6875,453.875)"/>
<path d="M0 0 C0.99 0 1.98 0 3 0 C3.45 0.97 3.91 1.94 4.38 2.94 C6 6 6 6 8 7 C8.27 6.03 8.54 5.06 8.81 4.06 C9.01 3.56 9.01 3.56 10 1 C10.99 0.67 11.98 0.34 13 0 C13 3.96 13 7.92 13 12 C12.34 12 11.68 12 11 12 C10.83 11.18 10.83 11.18 10 7 C9.67 7.5 9.67 7.5 8 10 C4.12 8.25 4.12 8.25 3 6 C2.67 7.98 2.34 9.96 2 12 C1.34 12 0.68 12 0 12 C0 8.04 0 4.08 0 0 Z " fill="#639B9A" transform="translate(462,174)"/>
<path d="M0 0 C2 -0.04 4 -0.04 6 0 C7 1 7 1 7.1 3.29 C7.09 4.2 7.07 5.12 7.06 6.06 C7.05 6.98 7.04 7.9 7.04 8.85 C7.02 9.56 7.01 10.27 7 11 C4 12 4 12 0 11 C0 7.37 0 3.74 0 0 Z " fill="#758893" transform="translate(397,434)"/>
<path d="M0 0 C2.97 0 5.94 0 9 0 C9 0.66 9 1.32 9 2 C7.02 2 5.04 2 3 2 C3 2.66 3 3.32 3 4 C4.65 4 6.3 4 8 4 C8 4.99 8 5.98 8 7 C6.35 7 4.7 7 3 7 C3 7.99 3 8.98 3 10 C4.98 10 6.96 10 9 10 C9 10.66 9 11.32 9 12 C6.03 12 3.06 12 0 12 C0 8.04 0 4.08 0 0 Z " fill="#76AAA5" transform="translate(478,174)"/>
<path d="M0 0 C0.83 0.16 0.83 0.16 5 1 C5 5.29 5 9.58 5 14 C3.35 14.33 1.7 14.66 0 15 C0 10.05 0 5.1 0 0 Z " fill="#309AA4" transform="translate(621,244)"/>
<path d="M0 0 C1.86 0.22 1.86 0.22 4 1 C5.27 3 5.27 3 6.25 5.44 C6.59 6.24 6.92 7.04 7.27 7.87 C8 10 8 10 8 12 C7.44 11.67 6.89 11.34 6.31 11 C3.63 9.84 1.89 9.7 -1 10 C-1.99 10.66 -2.98 11.32 -4 12 C-3.34 7.61 -1.81 4.02 0 0 Z " fill="#78AEAC" transform="translate(524,174)"/>
<path d="M0 0 C3.77 1.88 4.79 2.69 7 6 C7.33 4.02 7.66 2.04 8 0 C8.66 0 9.32 0 10 0 C10 3.96 10 7.92 10 12 C6.23 10.12 5.21 9.31 3 6 C2.67 7.98 2.34 9.96 2 12 C1.34 12 0.68 12 0 12 C0 8.04 0 4.08 0 0 Z " fill="#5F9894" transform="translate(627,174)"/>
<path d="M0 0 C3.86 3.34 4.54 7.21 6 12 C2.7 12 -0.6 12 -4 12 C-3.34 7.61 -1.81 4.02 0 0 Z " fill="#D2F5F7" transform="translate(482,137)"/>
<path d="M0 0 C4 1 4 1 5 2 C5.1 3.62 5.13 5.25 5.12 6.88 C5.13 7.76 5.13 8.64 5.13 9.55 C5 12 5 12 4 15 C2.68 15 1.36 15 0 15 C0 10.05 0 5.1 0 0 Z " fill="#43BABF" transform="translate(380,274)"/>
<path d="M0 0 C0.83 0.17 0.83 0.17 5 1 C5 4.96 5 8.92 5 13 C3.35 13.33 1.7 13.66 0 14 C0 9.38 0 4.76 0 0 Z " fill="#3E9995" transform="translate(575,275)"/>
<path d="M0 0 C0.82 0.17 0.82 0.17 5 1 C5 4.96 5 8.92 5 13 C3.35 13.33 1.7 13.66 0 14 C0 9.38 0 4.76 0 0 Z " fill="#419896" transform="translate(446,275)"/>
</svg>
