<?xml version="1.0" encoding="UTF-8"?>
<!-- Generator: visioncortex VTracer 0.6.5 - Background removed -->
<svg version="1.1" xmlns="http://www.w3.org/2000/svg" width="1024" height="559">
<path d="M0 0 C4.17 -0.06 8.33 -0.09 12.5 -0.12 C13.09 -0.13 13.09 -0.13 16.05 -0.18 C22.41 -0.21 27.92 0.09 34 2 C34 2.66 34 3.32 34 4 C34.95 4.31 35.9 4.62 36.88 4.94 C40 6 40 6 42 7 C42 7.66 42 8.32 42 9 C42.66 9 43.32 9 44 9 C45.51 10.86 45.51 10.86 47.12 13.31 C47.66 14.11 48.2 14.91 48.76 15.74 C50 18 50 18 50 21 C50.66 21 51.32 21 52 21 C55.39 28.11 58.58 35.17 61.04 42.66 C62.06 45.14 63.36 46.9 65 49 C65.72 50.64 66.44 52.27 67.1 53.93 C68.56 57.28 70.35 60.46 72.11 63.67 C73.14 66.37 73.11 67.36 72 70 C68.29 75.5 63.06 79.79 58 84 C57.11 84.74 56.23 85.49 55.31 86.25 C49.04 91 49.04 91 46 91 C46 91.66 46 92.32 46 93 C44.35 93.33 42.7 93.66 41 94 C38 88 35 82 32 76 C31.67 76.67 31.34 77.34 31 78.03 C29.98 80.1 28.94 82.16 27.9 84.21 C26.52 86.93 25.21 89.68 23.91 92.44 C17.6 105.58 17.6 105.58 12.88 107.75 C11.26 108.22 9.64 108.63 8 109 C5.7 109.71 3.41 110.44 1.12 111.19 C0.5 111.39 -0.13 111.6 -0.78 111.81 C-15.1 116.59 -27.48 123.29 -39 133 C-40.33 134.01 -41.66 135.01 -43 136 C-41.39 131.76 -39.42 127.73 -37.38 123.69 C-37.02 122.99 -36.67 122.29 -36.31 121.57 C-34.87 118.7 -33.42 115.83 -31.97 112.97 C-28.21 105.5 -24.52 98.02 -21 90.44 C-18.55 85.16 -15.98 79.98 -13.19 74.88 C-9.68 68.43 -6.44 61.86 -3.25 55.25 C-3.02 54.78 -3.02 54.78 -1.86 52.38 C3.97 40.2 10.32 26.08 6.21 12.36 C4.55 8.54 2.61 5.26 0 2 C0 1.34 0 0.68 0 0 Z " fill="#42BAC7" transform="translate(480,106)"/>
<path d="M0 0 C2.94 1.47 3.09 3.78 4.14 6.73 C5.81 11.14 8.11 15.27 10.3 19.44 C13 24.69 13 24.69 13 28 C13.66 28 14.32 28 15 28 C15 29.32 15 30.64 15 32 C15.66 32 16.32 32 17 32 C17.33 33.65 17.66 35.3 18 37 C15.73 38.82 13.46 40.63 11.19 42.44 C10.54 42.95 9.9 43.47 9.24 44 C8.62 44.5 8 44.99 7.36 45.5 C6.78 45.95 6.21 46.41 5.63 46.88 C4 48 4 48 1 49 C0.24 49.76 -0.53 50.53 -1.31 51.31 C-5.45 55.45 -9.69 57.89 -15.05 60.14 C-17.03 61.01 -18.96 61.96 -20.89 62.95 C-30.27 67.67 -39.68 71.37 -49.69 74.56 C-68.36 80.56 -84.01 87.19 -95.24 103.91 C-99.94 110.72 -106.1 115.38 -114 118 C-117.51 118.23 -117.51 118.23 -121.49 118.2 C-122.19 118.19 -122.89 118.19 -123.62 118.19 C-125.85 118.18 -128.08 118.15 -130.31 118.12 C-131.83 118.11 -133.35 118.11 -134.87 118.1 C-138.58 118.08 -142.29 118.04 -146 118 C-140.73 93.76 -121.49 69.18 -101 56 C-100.15 55.44 -99.31 54.87 -98.43 54.29 C-86.57 46.83 -72.99 42.41 -59.62 38.44 C-51.67 36.06 -44.36 32.8 -37 29 C-36.33 28.65 -35.66 28.31 -34.97 27.95 C-21.8 21.07 -8.51 12.51 0 0 Z " fill="#2E75B2" transform="translate(556,180)"/>
<path d="M0 0 C4.96 3.82 8.35 7.74 11.19 13.31 C11.36 13.64 11.36 13.64 12.21 15.32 C16.02 24.51 15.42 35.92 12.25 45.19 C7.55 55.82 -0.08 62.95 -10.81 67.31 C-22.71 71.2 -36.22 70.47 -47.47 65.02 C-56.32 60.03 -62.78 53.74 -66.81 44.31 C-69.43 34.76 -69.49 22.41 -65.12 13.5 C-64.07 11.74 -62.98 10 -61.81 8.31 C-61.41 7.7 -61 7.09 -60.58 6.46 C-46.43 -12.43 -18.15 -12.14 0 0 Z " fill="#112D51" transform="translate(697.8125,336.6875)"/>
<path d="M0 0 C6.27 0 12.54 0 19 0 C19.63 1.33 19.63 1.33 22.81 8.06 C25.41 13.56 28.02 19.06 30.66 24.54 C35.51 34.62 40.31 44.72 45 54.88 C45.46 55.85 45.91 56.83 46.38 57.84 C46.81 58.78 47.24 59.72 47.69 60.68 C48.06 61.49 48.44 62.3 48.82 63.14 C50.42 67.02 51.67 71.02 53 75 C46.73 75 40.46 75 34 75 C33.01 72.73 32.02 70.46 31 68.12 C30.69 67.41 30.37 66.7 30.05 65.97 C28 61.22 28 61.22 28 59 C15.46 59 2.92 59 -10 59 C-10.33 60.65 -10.66 62.3 -11 64 C-12.54 67.73 -14.28 71.34 -16 75 C-21.94 75 -27.88 75 -34 75 C-32.06 68.85 -29.78 63.16 -26.94 57.38 C-23.41 50.07 -20.08 42.7 -16.88 35.25 C-11.7 23.26 -6.55 11.32 0 0 Z " fill="#132F53" transform="translate(346,330)"/>
<path d="M0 0 C10.56 9.71 13.57 24.66 17.3 38 C18.83 43.47 20.51 48.87 22.31 54.25 C22.55 54.98 22.8 55.71 23.05 56.47 C23.96 59.17 24.88 61.77 26.18 64.31 C27.54 67.11 26.81 69.06 26 72 C25.06 73.65 24.11 75.31 23.15 76.95 C21.91 79.16 20.82 81.41 19.74 83.7 C19.54 84.11 19.54 84.11 18.53 86.17 C17.72 87.85 16.92 89.54 16.15 91.24 C13.42 96.72 11.03 99.2 5.24 101.3 C4.5 101.53 3.76 101.76 3 102 C1.85 102.39 0.7 102.77 -0.49 103.17 C-1.61 103.5 -2.72 103.84 -3.88 104.19 C-18.88 109.02 -31.95 115.84 -44 126 C-45.33 127.01 -46.66 128.01 -48 129 C-46.39 124.76 -44.42 120.73 -42.38 116.69 C-42.02 115.99 -41.67 115.29 -41.31 114.57 C-39.87 111.7 -38.42 108.83 -36.97 105.97 C-33.21 98.5 -29.52 91.02 -26 83.44 C-23.55 78.16 -20.98 72.98 -18.19 67.88 C-14.68 61.43 -11.44 54.86 -8.25 48.25 C-8.02 47.78 -8.02 47.78 -6.86 45.38 C-0.97 33.07 3.1 21.83 2 8 C1.37 6.32 0.7 4.65 0 3 C0 2.01 0 1.02 0 0 Z " fill="#2158AB" transform="translate(485,113)"/>
<path d="M0 0 C5.94 0 11.88 0 18 0 C18.33 10.56 18.66 21.12 19 32 C30.92 20.21 30.92 20.21 34.5 16 C34.77 15.7 34.77 15.7 36.14 14.16 C37.62 12.44 39.02 10.65 40.39 8.84 C47.05 0.63 47.05 0.63 52.5 -0.53 C58.38 -1.04 64.15 -0.62 70 0 C68.24 3.8 66.04 6.1 63 9 C61.1 10.87 59.21 12.75 57.31 14.62 C56.83 15.1 56.34 15.58 55.84 16.07 C53.6 18.29 51.76 20.36 50 23 C49.34 23 48.68 23 48 23 C47.77 23.56 47.55 24.11 47.31 24.69 C45.64 27.63 43.45 29.68 41 32 C42.6 35.69 44.9 38.4 47.5 41.44 C52.43 47.25 57.09 53.24 61.71 59.31 C63.08 61.1 64.46 62.89 65.85 64.68 C66.08 64.97 66.08 64.97 67.26 66.49 C68.15 67.64 69.05 68.8 69.95 69.95 C73 73.89 73 73.89 73 75 C53.78 76.95 53.78 76.95 47.99 72.89 C46.16 70.32 44.62 67.72 43.14 64.93 C40.86 61.08 37.82 57.78 34.94 54.38 C33.79 53.01 32.66 51.65 31.53 50.27 C31.04 49.69 30.55 49.11 30.05 48.51 C29 47 29 47 29 45 C28.34 45 27.68 45 27 45 C26.79 45.54 26.59 46.07 26.38 46.62 C25 49 25 49 21.97 51.5 C18.49 54.92 18.26 57.89 18.12 62.64 C18.12 63.09 18.12 63.09 18.12 65.38 C18.1 66.3 18.08 67.23 18.06 68.18 C18.02 70.46 18 72.73 18 75 C12.06 75 6.12 75 0 75 C0 50.25 0 25.5 0 0 Z " fill="#132E52" transform="translate(408,330)"/>
<path d="M0 0 C19.47 0 38.94 0 59 0 C59 4.62 59 9.24 59 14 C45.47 14 31.94 14 18 14 C18 19.28 18 24.56 18 30 C29.88 30 41.76 30 54 30 C54 34.29 54 38.58 54 43 C42.12 43 30.24 43 18 43 C18 48.94 18 54.88 18 61 C32.19 61 46.38 61 61 61 C61 65.62 61 70.24 61 75 C40.87 75 20.74 75 0 75 C0 50.25 0 25.5 0 0 Z " fill="#153055" transform="translate(489,330)"/>
<path d="M0 0 C3 1 3 1 4.32 3.16 C4.77 4.12 5.22 5.08 5.69 6.06 C6.2 7.14 6.72 8.22 7.25 9.33 C7.53 9.92 7.81 10.51 8.09 11.11 C10.06 15.21 12.14 19.25 14.2 23.3 C15.76 26.41 17.25 29.52 18.61 32.71 C19.7 35.29 20.84 37.76 22.12 40.25 C25.12 46.15 27.91 52.14 30.7 58.14 C32.43 61.82 34.19 65.4 36.28 68.89 C38 72 38 72 38 75 C33.93 75.1 29.86 75.17 25.79 75.22 C24.41 75.24 23.03 75.27 21.65 75.3 C11.62 75.55 2.09 75.31 -5.88 68.56 C-6.58 67.72 -7.28 66.87 -8 66 C-8.79 65.27 -9.58 64.55 -10.39 63.8 C-13.29 60.69 -15.03 57.49 -16.81 53.69 C-17.5 52.27 -18.18 50.85 -18.87 49.43 C-19.22 48.71 -19.57 47.98 -19.93 47.23 C-21.7 43.55 -23.54 39.9 -25.38 36.25 C-26.03 34.94 -26.68 33.64 -27.34 32.33 C-28.27 30.45 -29.23 28.58 -30.23 26.73 C-31 25 -31 25 -31 22 C-28.55 20.28 -26.14 18.75 -23.56 17.25 C-16.69 13.11 -10.24 8.78 -4.23 3.43 C-2.88 2.22 -1.44 1.1 0 0 Z " fill="#4FCBCA" transform="translate(576,223)"/>
<path d="M0 0 C0.51 0 0.51 0 3.1 0 C11.99 0.13 19.35 1.36 26.88 6.38 C26.27 11.23 24.15 15.12 21.88 19.38 C20.27 18.9 18.67 18.42 17.06 17.94 C16.17 17.67 15.28 17.4 14.36 17.13 C12.52 16.57 10.69 15.98 8.88 15.38 C6.24 15.23 3.64 15.14 1 15.12 C0.65 15.11 0.65 15.11 -1.14 15.06 C-5.65 15.03 -8.61 15.49 -12.12 18.38 C-12.86 21.15 -13.12 23.52 -13.12 26.38 C-9.47 27.94 -5.88 28.99 -2.01 29.89 C-0.85 30.17 0.32 30.46 1.52 30.75 C3.95 31.33 6.38 31.9 8.82 32.46 C17.39 34.56 24.15 37.25 29.38 44.62 C32 49.98 31.78 55.41 30.06 61.03 C27.21 67.62 23.38 71.38 16.88 74.38 C4.32 79.05 -11.02 79.22 -23.44 73.98 C-31.86 69.9 -31.86 69.9 -33.12 67.38 C-31.91 64.55 -31.91 64.55 -30.19 61.25 C-29.62 60.15 -29.06 59.06 -28.47 57.93 C-28.25 57.51 -28.25 57.51 -27.12 55.38 C-26.18 55.8 -25.24 56.22 -24.27 56.65 C-23.02 57.21 -21.76 57.76 -20.5 58.31 C-19.88 58.59 -19.27 58.87 -18.63 59.15 C-11.12 62.43 -1.95 64.04 6.11 61.74 C10.27 59.98 10.27 59.98 11.88 58.38 C12.25 56.06 12.25 56.06 11.88 53.38 C6.76 47.68 -1.58 46.92 -8.69 45.2 C-17.08 43.02 -23.46 39.95 -29.69 33.88 C-32.32 27.46 -32.61 20.16 -30.05 13.64 C-23.19 2.46 -12.35 -0.02 0 0 Z " fill="#122D50" transform="translate(591.125,328.625)"/>
<path d="M0 0 C4.94 3.87 7.2 7.71 8.2 13.8 C8.72 20.41 8.93 27.07 5.2 32.8 C0.48 37.92 -4.23 42.19 -11.34 43.13 C-18.12 43.23 -23.98 42.48 -29.8 38.8 C-32.19 36.34 -34.02 33.72 -35.8 30.8 C-36.46 29.81 -37.12 28.82 -37.8 27.8 C-39.13 20.49 -39.83 13.3 -35.8 6.8 C-31.63 1.01 -27.67 -2.42 -20.92 -4.89 C-12.74 -6.09 -6.86 -4.59 0 0 Z " fill="#F8FAFA" transform="translate(685.796875,348.203125)"/>
<path d="M0 0 C3.43 2.02 6.21 4.42 8 8 C8.51 12.06 8.94 16.21 6.99 19.92 C4.45 23 1.78 25.74 -2.27 26.34 C-8.03 26.42 -11.54 26.03 -16 22 C-18.89 18.54 -19.54 15.51 -19.35 10.99 C-18.59 6.66 -16.07 3.95 -12.88 1.12 C-8.53 -0.57 -4.59 -0.91 0 0 Z " fill="#223048" transform="translate(538,427)"/>
<path d="M0 0 C3.7 1.33 6.36 3.25 8.94 6.25 C10.35 9.9 10.68 13.17 10 17 C7.78 21.36 5.58 24.17 1 26 C-3.74 26.71 -7.06 26.47 -11.38 24.31 C-14.56 21.51 -16.65 19.39 -17.28 15.08 C-17.49 10.56 -16.91 7.62 -14 4 C-9.83 -0.54 -5.85 -0.99 0 0 Z " fill="#192942" transform="translate(650,427)"/>
<path d="M0 0 C2.68 -0.08 5.36 -0.17 8.12 -0.25 C8.96 -0.29 9.79 -0.32 10.65 -0.36 C15.89 -0.44 18.9 0.45 23 4 C25.14 8.92 25.44 12.83 24 18 C21.52 20.93 19.19 22.87 16 25 C13.23 25.14 10.58 25.19 7.81 25.12 C6.52 25.1 6.52 25.1 0 25 C0 16.75 0 8.5 0 0 Z " fill="#1A263E" transform="translate(371,428)"/>
<path d="M0 0 C5 1 5 1 7.24 4.09 C7.95 5.36 8.64 6.65 9.31 7.94 C9.67 8.58 10.03 9.23 10.4 9.9 C13 14.66 13 14.66 13 17 C13.66 17 14.32 17 15 17 C15.26 16.13 15.52 15.26 15.79 14.37 C17.01 10.97 18.48 8.18 20.38 5.12 C20.96 4.16 21.55 3.19 22.15 2.2 C22.76 1.47 23.37 0.75 24 0 C25.32 0 26.64 0 28 0 C28 8.25 28 16.5 28 25 C26.68 25 25.36 25 24 25 C24 20.05 24 15.1 24 10 C23.34 10 22.68 10 22 10 C21.77 10.85 21.55 11.69 21.31 12.56 C19.74 16.67 17.66 19.5 15 23 C9.72 21.24 7.8 15.6 5 11 C4.67 15.62 4.34 20.24 4 25 C2.68 25 1.36 25 0 25 C0 16.75 0 8.5 0 0 Z " fill="#16243C" transform="translate(312,427)"/>
<path d="M0 0 C3 1 3 1 4.26 3.28 C4.66 4.27 5.07 5.26 5.48 6.28 C5.92 7.35 6.36 8.42 6.82 9.52 C7.27 10.65 7.72 11.78 8.19 12.94 C8.65 14.06 9.11 15.18 9.59 16.34 C13 24.69 13 24.69 13 27 C5.41 27 -2.18 27 -10 27 C-9.26 22.54 -8.67 19.78 -6.93 15.82 C-6.53 14.89 -6.13 13.96 -5.71 13.01 C-5.29 12.06 -4.87 11.11 -4.44 10.12 C-4.01 9.15 -3.59 8.18 -3.15 7.17 C-2.11 4.78 -1.06 2.39 0 0 Z " fill="#EEF4F6" transform="translate(354,348)"/>
<path d="M0 0 C1.65 0 3.3 0 5 0 C10.86 11.72 10.86 11.72 11.92 13.85 C12.66 15.32 13.4 16.78 14.16 18.25 C17 23.79 17 23.79 17 26 C14.62 26.19 14.62 26.19 12 26 C10 23 10 23 10 20 C5.38 20.33 0.76 20.66 -4 21 C-4.33 21.82 -4.33 21.82 -6 26 C-7.65 26 -9.3 26 -11 26 C-8.35 16.88 -4.12 8.52 0 0 Z " fill="#1E2C44" transform="translate(446,427)"/>
<path d="M0 0 C5.63 1.13 5.63 1.13 7.89 4.09 C8.37 4.71 8.85 5.33 9.35 5.97 C9.83 6.62 10.32 7.27 10.81 7.94 C11.06 8.26 11.06 8.26 12.33 9.9 C16 14.7 16 14.7 16 17 C16.66 17 17.32 17 18 17 C18 11.72 18 6.44 18 1 C19.32 1 20.64 1 22 1 C22 8.92 22 16.84 22 25 C17 25 17 25 15.12 23.21 C14.57 22.42 14.01 21.63 13.44 20.81 C12.85 19.99 12.26 19.17 11.65 18.33 C11.38 17.94 11.38 17.94 10 16 C9.2 15.03 8.39 14.06 7.56 13.06 C6 11 6 11 6 9 C5.34 9 4.68 9 4 9 C4 14.28 4 19.56 4 25 C2.68 25 1.36 25 0 25 C0 16.75 0 8.5 0 0 Z " fill="#14213B" transform="translate(665,427)"/>
<path d="M0 0 C2.92 1.99 4.61 3.43 5.48 6.94 C5.76 10.9 5.23 12.66 2.94 16 C-0.76 18.52 -2.6 18.71 -7 18 C-9.88 16.44 -9.88 16.44 -12 14 C-13.15 10.05 -13.43 7.97 -11.75 4.19 C-8.26 -0.18 -5.39 -0.65 0 0 Z " fill="#ECF0F3" transform="translate(650,431)"/>
<path d="M0 0 C3.75 2.08 4.79 3.29 6 7.44 C6 11.39 5.38 12.91 3 16 C1 18 1 18 -2.81 18.44 C-6.18 18.33 -7.04 17.97 -10 16 C-12.21 12.69 -12.81 10.85 -12.55 6.94 C-10.89 1.11 -5.52 -1.06 0 0 Z " fill="#EBF0F3" transform="translate(536,431)"/>
<path d="M0 0 C1.65 0 3.3 0 5 0 C5.05 1.26 5.1 2.53 5.15 3.83 C5.22 5.49 5.3 7.15 5.38 8.81 C5.41 9.65 5.44 10.48 5.47 11.34 C5.51 12.14 5.55 12.94 5.59 13.77 C5.62 14.51 5.65 15.25 5.68 16.01 C6 18 6 18 8 21 C11.5 21.38 11.5 21.38 15 21 C16.98 18.04 17.26 17.32 17.41 13.99 C17.45 13.23 17.49 12.47 17.53 11.69 C17.55 11.3 17.55 11.3 17.62 9.31 C17.66 8.52 17.7 7.72 17.74 6.9 C17.84 4.93 17.92 2.97 18 1 C19.32 1 20.64 1 22 1 C22.11 4.06 22.19 7.12 22.25 10.19 C22.28 11.05 22.32 11.92 22.35 12.81 C22.42 17.02 22.38 19.37 20.17 23.05 C16.8 26.08 13.54 26.39 9.07 26.36 C5.38 25.72 3.58 23.64 1 21 C-0.17 18.65 -0.12 17.26 -0.1 14.65 C-0.09 13.8 -0.09 12.95 -0.09 12.07 C-0.08 11.18 -0.07 10.29 -0.06 9.38 C-0.06 8.48 -0.05 7.58 -0.05 6.66 C-0.04 4.44 -0.02 2.22 0 0 Z " fill="#25364E" transform="translate(572,427)"/>
<path d="M0 0 C5.94 0 11.88 0 18 0 C18 0.99 18 1.98 18 3 C13.38 3 8.76 3 4 3 C4 5.31 4 7.62 4 10 C8.29 10 12.58 10 17 10 C17 11.32 17 12.64 17 14 C12.71 14 8.42 14 4 14 C4 16.31 4 18.62 4 21 C8.95 21 13.9 21 19 21 C19 22.32 19 23.64 19 25 C12.73 25 6.46 25 0 25 C0 16.75 0 8.5 0 0 Z " fill="#192541" transform="translate(347,428)"/>
<path d="M0 0 C0.99 0.66 1.98 1.32 3 2 C2.34 3.32 1.68 4.64 1 6 C0.01 5.67 -0.98 5.34 -2 5 C-4.33 4.96 -6.67 4.96 -9 5 C-9.33 6.32 -9.66 7.64 -10 9 C-9.32 9.18 -8.65 9.36 -7.95 9.55 C-7.06 9.8 -6.17 10.05 -5.25 10.31 C-4.37 10.56 -3.49 10.8 -2.58 11.05 C0.1 12.04 1.9 13.07 4 15 C4.75 18.85 4.27 20.54 2.31 23.94 C-2.31 26.81 -5.84 26.17 -11.14 25.69 C-14 25 -14 25 -16 22 C-15.67 21.34 -15.34 20.68 -15 20 C-14.44 20.16 -13.88 20.33 -13.3 20.5 C-10.87 21.03 -8.73 21.1 -6.25 21.06 C-5.85 21.06 -5.85 21.06 -3.83 21.04 C-3.22 21.02 -2.62 21.01 -2 21 C-1.34 19.68 -0.68 18.36 0 17 C-0.41 16.92 -0.41 16.92 -2.48 16.52 C-11.27 14.62 -11.27 14.62 -14.81 11.62 C-16 9 -16 9 -16 6.44 C-12.92 -1.08 -7.38 -0.97 0 0 Z " fill="#212D43" transform="translate(512,427)"/>
<path d="M0 0 C-0.33 1.32 -0.66 2.64 -1 4 C-4.63 4 -8.26 4 -12 4 C-12.66 5.32 -13.32 6.64 -14 8 C-13.34 8.18 -12.67 8.36 -11.99 8.55 C-1.7 11.48 -1.7 11.48 1 14 C1.62 17.44 1.62 17.44 1 21 C-0.75 23.5 -0.75 23.5 -4 25 C-9.15 25.09 -14.11 24.63 -19 23 C-18.67 21.68 -18.34 20.36 -18 19 C-17.44 19.16 -16.88 19.33 -16.3 19.5 C-13.87 20.03 -11.73 20.1 -9.25 20.06 C-8.85 20.06 -8.85 20.06 -6.83 20.04 C-6.22 20.02 -5.62 20.01 -5 20 C-5 18.68 -5 17.36 -5 16 C-5.69 15.82 -6.37 15.64 -7.08 15.45 C-7.98 15.2 -8.88 14.95 -9.81 14.69 C-10.71 14.44 -11.6 14.2 -12.52 13.95 C-15.11 12.96 -16.35 12.2 -18 10 C-18.5 6.56 -18.5 6.56 -18 3 C-13.42 -2.76 -6.48 -1.81 0 0 Z " fill="#1C2940" transform="translate(711,428)"/>
<path d="M0 0 C9 0 9 0 13 2 C15.47 5.7 15.78 8.71 15 13 C13.12 16 13.12 16 10 18 C6.55 18.41 3.49 18.23 0 18 C0 12.06 0 6.12 0 0 Z " fill="#ECF1F4" transform="translate(376,431)"/>
<path d="M0 0 C3.12 1.5 3.12 1.5 5 3 C4.34 4.32 3.68 5.64 3 7 C2.3 6.67 1.6 6.34 0.88 6 C-2.43 4.85 -4.53 4.49 -8 5 C-10.94 7.06 -10.94 7.06 -13 10 C-13.07 13.99 -12.59 16.15 -10.31 19.44 C-7.28 21.48 -5.6 21.44 -2 21 C0.88 20 0.88 20 3 19 C3.66 20.32 4.32 21.64 5 23 C-0.34 25.67 -4.01 26.67 -10 26 C-14.05 23.9 -16.34 22.24 -18 18 C-18.53 14.28 -18.55 10.72 -18 7 C-12.96 0.32 -7.97 -0.88 0 0 Z " fill="#1F2D43" transform="translate(429,427)"/>
<path d="M0 0 C1.65 0 3.3 0 5 0 C5 6.93 5 13.86 5 21 C9.29 21 13.58 21 18 21 C18 22.65 18 24.3 18 26 C12.06 26 6.12 26 0 26 C0 17.42 0 8.84 0 0 Z " fill="#4C5973" transform="translate(466,427)"/>
<path d="M0 0 C1.65 0 3.3 0 5 0 C5 7.26 5 14.52 5 22 C9.29 22 13.58 22 18 22 C18 23.32 18 24.64 18 26 C12.06 26 6.12 26 0 26 C0 17.42 0 8.84 0 0 Z " fill="#2A3852" transform="translate(551,427)"/>
<path d="M0 0 C6.93 0 13.86 0 21 0 C21 0.99 21 1.98 21 3 C18.36 3 15.72 3 13 3 C13 10.26 13 17.52 13 25 C11.35 25 9.7 25 8 25 C8 18.07 8 11.14 8 4 C5.36 4 2.72 4 0 4 C0 2.68 0 1.36 0 0 Z " fill="#223149" transform="translate(598,428)"/>
<path d="M0 0 C3.7 1.31 6.36 3.26 8.94 6.25 C10.44 10.14 10.4 12.83 10 17 C8.62 19 8.62 19 7 20 C6.34 20 5.68 20 5 20 C3.65 20.63 2.32 21.3 1 22 C1.5 21.34 1.99 20.68 2.5 20 C4.51 15.98 4.29 13.48 4 9 C3.67 8.01 3.34 7.02 3 6 C0 5 0 5 -3.94 5.12 C-6.93 5.18 -7.84 5.1 -10.5 3.5 C-11 3 -11.49 2.51 -12 2 C-7.94 -0.71 -4.77 -0.64 0 0 Z " fill="#1F2C45" transform="translate(650,427)"/>
<path d="M0 0 C1.65 0 3.3 0 5 0 C5 8.58 5 17.16 5 26 C3.35 26 1.7 26 0 26 C0 17.42 0 8.84 0 0 Z " fill="#303F57" transform="translate(623,427)"/>
</svg>
