<?xml version="1.0" encoding="UTF-8"?>
<!-- Generator: visioncortex VTracer 0.6.5 -->
<svg version="1.1" xmlns="http://www.w3.org/2000/svg" width="1024" height="565">
<path d="M0 0 C337.92 0 675.84 0 1024 0 C1024 186.45 1024 372.9 1024 565 C686.08 565 348.16 565 0 565 C0 378.55 0 192.1 0 0 Z " fill="#FDFDFD" transform="translate(0,0)"/>
<path d="M0 0 C0.66 0 1.32 0 2 0 C2.43 0.85 2.85 1.71 3.29 2.59 C3.59 3.17 3.88 3.76 4.19 4.37 C4.87 5.73 5.55 7.1 6.23 8.46 C8.6 13.22 10.99 17.97 13.39 22.71 C14.57 25.06 15.76 27.4 16.94 29.75 C17.52 30.89 18.1 32.04 18.69 33.21 C19.24 34.29 19.78 35.37 20.34 36.48 C20.83 37.45 21.32 38.42 21.82 39.41 C24.09 44.39 24.15 48.9 24.12 54.31 C24.13 55.05 24.13 55.78 24.14 56.54 C24.11 71.63 17.83 82.91 8 94 C7.31 94.8 6.62 95.59 5.91 96.41 C3.65 98.99 1.34 101.5 -1 104 C-1.44 104.47 -1.44 104.47 -3.64 106.84 C-31.01 135.61 -69.67 151.72 -106.88 163.56 C-133.99 172.25 -155.29 184.88 -172.06 208.25 C-179.11 217.61 -188.9 223.72 -200.59 225.57 C-205.45 226.13 -210.29 226.13 -215.19 226.1 C-216.13 226.1 -217.07 226.09 -218.05 226.09 C-221.03 226.09 -224.02 226.08 -227 226.06 C-229.04 226.06 -231.07 226.05 -233.11 226.05 C-238.07 226.04 -243.04 226.02 -248 226 C-246.64 221.67 -244.99 217.65 -243.02 213.56 C-242.74 212.96 -242.45 212.37 -242.16 211.75 C-241.23 209.83 -240.31 207.92 -239.38 206 C-239.06 205.35 -238.74 204.69 -238.41 204.02 C-219.11 164.33 -192.02 135.52 -151 118 C-149.94 117.54 -148.88 117.07 -147.79 116.59 C-137.75 112.38 -127.39 109.06 -117.05 105.69 C-106.1 102.11 -95.2 98.41 -84.94 93.12 C-84.27 92.78 -83.6 92.44 -82.91 92.09 C-43.33 71.75 -17.01 40.79 0 0 Z " fill="#FAFCFC" transform="translate(821,196)"/>
<path d="M0 0 C0.66 0 1.32 0 2 0 C2.36 0.7 2.72 1.4 3.1 2.12 C4.77 5.35 6.45 8.58 8.12 11.81 C8.69 12.91 9.26 14.01 9.85 15.15 C13.06 21.32 16.32 27.45 19.75 33.5 C24.68 43.33 26.16 56.44 23.12 67.08 C21.92 69.86 20.56 72.4 19 75 C18.75 75.44 18.75 75.44 17.5 77.66 C-7.4 119.35 -52.36 141.06 -96.48 156.34 C-102.92 158.58 -109.25 161.02 -115.55 163.61 C-118.87 164.95 -122.2 166.16 -125.56 167.38 C-145.08 174.88 -159.19 187.66 -171.21 204.57 C-173.29 207.39 -175.34 209.73 -178 212 C-178.66 212 -179.32 212 -180 212 C-180 212.66 -180 213.32 -180 214 C-182.23 215.13 -184.46 216.25 -186.69 217.38 C-187.31 217.69 -187.94 218.01 -188.58 218.34 C-198.37 223.26 -198.37 223.26 -203.97 223.23 C-204.45 223.23 -204.45 223.23 -206.88 223.23 C-207.91 223.22 -208.93 223.21 -209.99 223.2 C-211.05 223.19 -212.1 223.19 -213.2 223.19 C-216.57 223.18 -219.94 223.15 -223.31 223.12 C-225.6 223.11 -227.89 223.11 -230.18 223.1 C-235.79 223.08 -241.39 223.04 -247 223 C-238.45 196.75 -223.11 171.79 -204 152 C-203.25 151.2 -202.5 150.4 -201.73 149.57 C-185.31 132.44 -162.07 119.05 -139.45 112.07 C-119.39 105.83 -98.68 99.21 -80.34 88.85 C-77.29 87.16 -74.22 85.7 -71.06 84.25 C-54.5 76.03 -39.77 62.03 -28 48 C-27.22 47.08 -26.45 46.17 -25.64 45.22 C-14.73 31.73 -6.2 16.19 0 0 Z " fill="#052C55" transform="translate(389,198)"/>
<path d="M0 0 C6.05 -0.1 12.09 -0.17 18.14 -0.22 C20.19 -0.24 22.24 -0.27 24.3 -0.3 C39.17 -0.55 51.62 -0.23 64 9 C64.33 9.23 64.33 9.23 65.98 10.42 C78.75 20.44 84.65 38.31 91.37 52.55 C93.36 56.76 95.37 60.95 97.38 65.14 C99.16 68.85 100.93 72.57 102.71 76.3 C104.02 79.04 105.33 81.77 106.65 84.51 C107.47 86.24 108.3 87.96 109.12 89.69 C109.31 90.08 109.31 90.08 110.27 92.06 C110.45 92.43 110.45 92.43 111.32 94.26 C111.62 94.89 111.92 95.52 112.23 96.17 C113.05 98.13 113.67 99.9 114 102 C111.51 106.05 108.19 109.49 105 113 C104.18 113.9 103.36 114.81 102.51 115.74 C95.09 123.51 86.76 129.82 78 136 C77.43 136.4 76.86 136.81 76.28 137.22 C67.96 143.06 67.96 143.06 65.03 142.88 C62.06 141.59 61.58 139.83 60.27 136.91 C59.8 135.88 59.32 134.85 58.84 133.79 C58.35 132.7 57.87 131.62 57.38 130.5 C56.41 128.36 55.44 126.23 54.46 124.09 C54.04 123.14 53.61 122.19 53.17 121.21 C52 119 52 119 50 118 C49.52 119.04 49.03 120.08 48.53 121.16 C44.16 130.52 39.74 139.85 34.97 149.02 C34 151 34 151 33.21 153 C31.51 157.06 30.57 158.69 26.57 160.85 C25.22 161.28 23.85 161.68 22.47 162.05 C22.1 162.17 22.1 162.17 20.24 162.75 C18.67 163.23 17.09 163.7 15.51 164.16 C11.39 165.36 7.31 166.67 3.22 167.98 C2.82 168.1 2.82 168.1 0.78 168.75 C-12.88 173.14 -25.55 179.61 -37.5 187.5 C-39.75 188.85 -41.44 189.56 -44 190 C-44 190.66 -44 191.32 -44 192 C-45.82 193.5 -47.71 194.93 -49.62 196.31 C-53.87 199.42 -58.01 202.57 -62 206 C-62 197.69 -56.13 189.05 -52.44 181.81 C-48.28 173.59 -44.2 165.33 -40.25 157 C-35.94 147.94 -31.52 138.95 -27 130 C-22.9 121.88 -18.85 113.74 -15 105.5 C-12.46 100.07 -9.88 94.67 -7.19 89.31 C-6.87 88.67 -6.55 88.03 -6.22 87.37 C-4.25 83.44 -2.23 79.53 -0.19 75.63 C9.32 57.34 16.55 38.23 10.5 17.44 C8.39 12.06 5.16 7.61 1.61 3.08 C0 1 0 1 0 0 Z " fill="#FAFCFC" transform="translate(676,136)"/>
<path d="M0 0 C5.55 -0.05 11.1 -0.09 16.65 -0.11 C18.54 -0.12 20.42 -0.13 22.31 -0.15 C25.03 -0.18 27.75 -0.19 30.47 -0.2 C31.3 -0.21 32.14 -0.22 32.99 -0.23 C45.76 -0.23 57.69 4.72 66.85 13.68 C75.68 23.21 80.69 36.19 86.25 47.75 C87.19 49.68 88.13 51.62 89.06 53.55 C91.72 59.03 94.36 64.51 97 70 C97.34 70.72 97.69 71.43 98.04 72.17 C104.34 85.27 104.34 85.27 107.05 91.06 C107.93 92.85 108.91 94.59 109.9 96.32 C111 99 111 99 110.46 101.07 C105.88 107.14 100.51 112.76 95 118 C94.32 118.65 93.64 119.31 92.93 119.98 C71.47 140 71.47 140 63 140 C61.02 136.06 59.04 132.13 57.06 128.19 C56.5 127.07 55.93 125.95 55.35 124.79 C54.82 123.72 54.28 122.65 53.72 121.54 C53.23 120.55 52.73 119.56 52.22 118.54 C51 116 51 116 50 113 C49.34 112.67 48.68 112.34 48 112 C47.72 112.87 47.45 113.75 47.16 114.65 C46.08 117.76 44.85 120.63 43.43 123.6 C42.93 124.64 42.43 125.68 41.91 126.76 C39.76 131.2 37.59 135.62 35.42 140.05 C34.26 142.47 33.16 144.89 32.11 147.36 C29.44 153.22 27.4 156.42 21.31 158.88 C19.56 159.41 17.81 159.94 16.04 160.42 C12.03 161.56 8.12 162.99 4.19 164.38 C3.33 164.67 2.47 164.97 1.59 165.28 C-21.49 173.37 -42.34 185.14 -61 201 C-61.33 200.34 -61.66 199.68 -62 199 C-60.93 196.39 -59.8 193.9 -58.56 191.38 C-58.24 190.71 -57.92 190.04 -57.6 189.35 C-55.24 184.46 -52.81 179.61 -50.38 174.76 C-50.03 174.06 -49.69 173.36 -49.33 172.65 C-46.08 166.16 -42.83 159.67 -39.58 153.19 C-36.74 147.51 -33.89 141.83 -31.05 136.15 C-28.91 131.88 -26.77 127.6 -24.63 123.33 C-1.1 76.39 -1.1 76.39 6.16 59.89 C6.84 58.36 7.55 56.85 8.27 55.34 C11.16 48.28 11.42 41.4 11.5 33.88 C11.52 32.86 11.54 31.85 11.56 30.8 C11.48 21.85 8.83 14.77 4.38 7.06 C3.97 6.35 3.57 5.64 3.15 4.91 C2.15 3.24 1.08 1.62 0 0 Z " fill="#052D55" transform="translate(246,136)"/>
<path d="M0 0 C0.15 0.31 0.15 0.31 0.88 1.87 C10.55 22.35 10.55 22.35 15.96 32.27 C18.76 37.45 21.3 42.74 23.81 48.06 C28.99 59.02 34.38 69.86 39.81 80.69 C40.22 81.51 40.63 82.32 41.06 83.17 C42.25 85.55 43.45 87.94 44.64 90.32 C45.02 91.08 45.4 91.84 45.79 92.61 C47.48 95.97 49.16 99.33 50.87 102.67 C51.41 103.73 51.95 104.8 52.51 105.89 C52.74 106.35 52.74 106.35 53.91 108.63 C54.9 110.77 55.47 112.71 56 115 C49.53 115.1 43.05 115.17 36.58 115.22 C34.38 115.24 32.18 115.27 29.99 115.3 C11.33 115.59 -3.48 114.25 -17.69 100.81 C-28.94 88.93 -35.24 72.92 -42.05 58.25 C-43.67 54.77 -45.33 51.33 -47.09 47.92 C-47.42 47.28 -47.76 46.64 -48.1 45.98 C-49.01 44.23 -49.93 42.5 -50.85 40.76 C-52 38 -52 38 -51 35 C-48.63 33.54 -46.28 32.22 -43.81 30.94 C-29.16 23 -16.01 12.8 -3.81 1.47 C-2 0 -2 0 0 0 Z " fill="#F9FBFB" transform="translate(825,307)"/>
<path d="M0 0 C3 1 3 1 4.04 2.61 C4.36 3.32 4.69 4.03 5.02 4.76 C5.4 5.6 5.79 6.43 6.19 7.29 C6.61 8.23 7.04 9.16 7.48 10.13 C8.46 12.25 9.45 14.36 10.44 16.48 C11 17.67 11.56 18.86 12.13 20.08 C15.71 27.63 19.48 35.08 23.21 42.55 C24.04 44.22 24.87 45.88 25.7 47.54 C27.4 50.93 29.09 54.32 30.79 57.71 C32.96 62.05 35.13 66.39 37.3 70.72 C38.99 74.11 40.68 77.49 42.37 80.88 C43.17 82.48 43.97 84.08 44.77 85.68 C45.88 87.91 47 90.14 48.12 92.37 C48.46 93.05 48.8 93.74 49.16 94.44 C51.35 98.8 53.67 103.06 56.2 107.23 C57 109 57 109 57 113 C50.53 113.13 44.05 113.21 37.58 113.27 C35.38 113.3 33.18 113.33 30.99 113.38 C7.57 113.83 7.57 113.83 -2 108 C-3.08 107.39 -4.15 106.78 -5.26 106.15 C-25.17 91.59 -33.73 66.93 -43.91 45.27 C-44.85 43.32 -45.82 41.4 -46.81 39.47 C-48 37 -48 37 -48 35 C-45.55 33.46 -43.09 32.03 -40.56 30.62 C-25.6 22.05 -12.14 12.26 0 0 Z " fill="#052C54" transform="translate(391,308)"/>
<path d="M0 0 C0.66 0 1.32 0 2 0 C2.43 0.85 2.85 1.71 3.29 2.59 C3.59 3.17 3.88 3.76 4.19 4.37 C4.87 5.73 5.55 7.1 6.23 8.46 C8.6 13.22 10.99 17.97 13.39 22.71 C14.57 25.06 15.76 27.4 16.94 29.75 C17.52 30.89 18.1 32.04 18.69 33.21 C19.24 34.29 19.78 35.37 20.34 36.48 C20.83 37.45 21.32 38.42 21.82 39.41 C24.09 44.39 24.15 48.9 24.12 54.31 C24.13 55.05 24.13 55.78 24.14 56.54 C24.11 71.63 17.83 82.91 8 94 C7.31 94.8 6.62 95.59 5.91 96.41 C3.65 98.99 1.34 101.5 -1 104 C-1.44 104.47 -1.44 104.47 -3.64 106.84 C-31.01 135.61 -69.67 151.72 -106.88 163.56 C-133.99 172.25 -155.29 184.88 -172.06 208.25 C-179.11 217.61 -188.9 223.72 -200.59 225.57 C-205.45 226.13 -210.29 226.13 -215.19 226.1 C-216.13 226.1 -217.07 226.09 -218.05 226.09 C-221.03 226.09 -224.02 226.08 -227 226.06 C-229.04 226.06 -231.07 226.05 -233.11 226.05 C-238.07 226.04 -243.04 226.02 -248 226 C-246.64 221.67 -244.99 217.65 -243.02 213.56 C-242.74 212.96 -242.45 212.37 -242.16 211.75 C-241.23 209.83 -240.31 207.92 -239.38 206 C-239.06 205.35 -238.74 204.69 -238.41 204.02 C-219.11 164.33 -192.02 135.52 -151 118 C-149.94 117.54 -148.88 117.07 -147.79 116.59 C-137.75 112.38 -127.39 109.06 -117.05 105.69 C-106.1 102.11 -95.2 98.41 -84.94 93.12 C-84.27 92.78 -83.6 92.44 -82.91 92.09 C-43.33 71.75 -17.01 40.79 0 0 Z M1 17 C0.87 17.24 0.87 17.24 0.19 18.48 C-7.48 32.5 -15.17 45.52 -25.74 57.55 C-26.83 58.81 -27.91 60.08 -28.98 61.36 C-32.96 66.06 -37.28 70.05 -42 74 C-42.86 74.76 -43.72 75.52 -44.61 76.31 C-68.07 96.65 -97.41 107.67 -126.56 117.19 C-137.01 120.6 -147.13 124.14 -157 129 C-157.62 129.3 -158.24 129.6 -158.87 129.91 C-193.01 146.69 -218.4 175.01 -233 210 C-233.37 210.86 -233.75 211.72 -234.13 212.61 C-235 215 -235 215 -235 218 C-230.2 218.1 -225.4 218.17 -220.6 218.22 C-218.97 218.24 -217.34 218.27 -215.71 218.3 C-202.39 218.58 -192.28 217.29 -182 208 C-177.9 203.89 -174.55 199.39 -171.25 194.62 C-157.4 175.42 -135.59 165.74 -113.86 158.34 C-110.82 157.3 -107.84 156.17 -104.88 154.94 C-100.83 153.27 -96.72 151.91 -92.56 150.56 C-87.23 148.82 -82.12 146.84 -77.05 144.43 C-74.69 143.33 -72.34 142.28 -69.95 141.26 C-41.8 129.19 -15.12 112.38 3.62 87.69 C4.19 86.94 4.76 86.19 5.34 85.42 C13.38 74.66 18.53 63.72 17 50 C14.64 38.18 7.7 27.46 2 17 C1.67 17 1.34 17 1 17 Z " fill="#102947" transform="translate(821,196)"/>
<path d="M0 0 C6.05 -0.1 12.09 -0.17 18.14 -0.22 C20.19 -0.24 22.24 -0.27 24.3 -0.3 C39.17 -0.55 51.62 -0.23 64 9 C64.33 9.23 64.33 9.23 65.98 10.42 C78.75 20.44 84.65 38.31 91.37 52.55 C93.36 56.76 95.37 60.95 97.38 65.14 C99.16 68.85 100.93 72.57 102.71 76.3 C104.02 79.04 105.33 81.77 106.65 84.51 C107.47 86.24 108.3 87.96 109.12 89.69 C109.31 90.08 109.31 90.08 110.27 92.06 C110.45 92.43 110.45 92.43 111.32 94.26 C111.62 94.89 111.92 95.52 112.23 96.17 C113.05 98.13 113.67 99.9 114 102 C111.51 106.05 108.19 109.49 105 113 C104.18 113.9 103.36 114.81 102.51 115.74 C95.09 123.51 86.76 129.82 78 136 C77.43 136.4 76.86 136.81 76.28 137.22 C67.96 143.06 67.96 143.06 65.03 142.88 C62.06 141.59 61.58 139.83 60.27 136.91 C59.8 135.88 59.32 134.85 58.84 133.79 C58.35 132.7 57.87 131.62 57.38 130.5 C56.41 128.36 55.44 126.23 54.46 124.09 C54.04 123.14 53.61 122.19 53.17 121.21 C52 119 52 119 50 118 C49.52 119.04 49.03 120.08 48.53 121.16 C44.16 130.52 39.74 139.85 34.97 149.02 C34 151 34 151 33.21 153 C31.51 157.06 30.57 158.69 26.57 160.85 C25.22 161.28 23.85 161.68 22.47 162.05 C22.1 162.17 22.1 162.17 20.24 162.75 C18.67 163.23 17.09 163.7 15.51 164.16 C11.39 165.36 7.31 166.67 3.22 167.98 C2.82 168.1 2.82 168.1 0.78 168.75 C-12.88 173.14 -25.55 179.61 -37.5 187.5 C-39.75 188.85 -41.44 189.56 -44 190 C-44 190.66 -44 191.32 -44 192 C-45.82 193.5 -47.71 194.93 -49.62 196.31 C-53.87 199.42 -58.01 202.57 -62 206 C-62 197.69 -56.13 189.05 -52.44 181.81 C-48.28 173.59 -44.2 165.33 -40.25 157 C-35.94 147.94 -31.52 138.95 -27 130 C-22.9 121.88 -18.85 113.74 -15 105.5 C-12.46 100.07 -9.88 94.67 -7.19 89.31 C-6.87 88.67 -6.55 88.03 -6.22 87.37 C-4.25 83.44 -2.23 79.53 -0.19 75.63 C9.32 57.34 16.55 38.23 10.5 17.44 C8.39 12.06 5.16 7.61 1.61 3.08 C0 1 0 1 0 0 Z M15 8 C15.48 9.79 15.96 11.58 16.44 13.38 C16.7 14.37 16.97 15.37 17.25 16.4 C18 19 18 19 19 21 C20.02 34.3 20 47.51 15 60 C14.64 60.97 14.28 61.94 13.9 62.94 C11.39 69.34 8.33 75.46 5.22 81.59 C2.56 86.85 0.01 92.16 -2.5 97.5 C-5.22 103.29 -7.99 109.04 -10.88 114.75 C-14.18 121.29 -17.35 127.89 -20.5 134.5 C-24.89 143.72 -29.39 152.88 -34 162 C-35.48 164.94 -36.96 167.87 -38.44 170.81 C-38.78 171.49 -39.12 172.17 -39.48 172.86 C-40.83 175.55 -42.05 178.14 -43 181 C-40.15 179.59 -37.34 178.12 -34.54 176.61 C-22.08 169.93 -9.79 164.3 3.6 159.75 C4.77 159.34 5.95 158.94 7.16 158.53 C9.52 157.73 11.89 156.94 14.25 156.16 C14.8 155.98 14.8 155.98 17.55 155.05 C18.04 154.89 18.04 154.89 20.51 154.07 C25.42 151.96 26.82 148.68 29.07 143.96 C29.36 143.37 29.64 142.77 29.94 142.16 C30.86 140.23 31.77 138.31 32.69 136.38 C33.32 135.05 33.95 133.73 34.58 132.41 C37.28 126.77 39.95 121.11 42.59 115.44 C42.96 114.66 43.32 113.88 43.69 113.08 C44.33 111.7 44.97 110.31 45.6 108.93 C47.12 105.64 48.79 102.85 51 100 C52.8 103.57 54.6 107.15 56.39 110.72 C57 111.94 57.61 113.15 58.22 114.36 C64.47 126.77 64.47 126.77 67 133 C77.39 129.26 85.66 120.92 93.52 113.4 C95 112 96.5 110.64 98.02 109.29 C98.94 108.43 99.86 107.57 100.81 106.69 C101.23 106.31 101.23 106.31 103.33 104.39 C105 102 105 102 104.96 99.12 C103.89 95.64 102.5 92.66 100.81 89.44 C100.09 88.03 99.37 86.62 98.64 85.21 C98.23 84.41 97.82 83.6 97.4 82.77 C94.52 77.07 91.77 71.31 89 65.56 C88.38 64.29 87.77 63.01 87.15 61.73 C84.23 55.68 81.34 49.62 78.53 43.52 C72.28 30.01 66.08 16.71 52 10 C47.1 8.38 42.91 7.76 37.75 7.8 C37.1 7.81 36.44 7.81 35.77 7.81 C33.7 7.82 31.63 7.85 29.56 7.88 C28.15 7.89 26.74 7.89 25.32 7.9 C21.88 7.92 18.44 7.96 15 8 Z " fill="#102947" transform="translate(676,136)"/>
<path d="M0 0 C0.15 0.31 0.15 0.31 0.88 1.87 C10.55 22.35 10.55 22.35 15.96 32.27 C18.76 37.45 21.3 42.74 23.81 48.06 C28.99 59.02 34.38 69.86 39.81 80.69 C40.22 81.51 40.63 82.32 41.06 83.17 C42.25 85.55 43.45 87.94 44.64 90.32 C45.02 91.08 45.4 91.84 45.79 92.61 C47.48 95.97 49.16 99.33 50.87 102.67 C51.41 103.73 51.95 104.8 52.51 105.89 C52.74 106.35 52.74 106.35 53.91 108.63 C54.9 110.77 55.47 112.71 56 115 C49.53 115.1 43.05 115.17 36.58 115.22 C34.38 115.24 32.18 115.27 29.99 115.3 C11.33 115.59 -3.48 114.25 -17.69 100.81 C-28.94 88.93 -35.24 72.92 -42.05 58.25 C-43.67 54.77 -45.33 51.33 -47.09 47.92 C-47.42 47.28 -47.76 46.64 -48.1 45.98 C-49.01 44.23 -49.93 42.5 -50.85 40.76 C-52 38 -52 38 -51 35 C-48.63 33.54 -46.28 32.22 -43.81 30.94 C-29.16 23 -16.01 12.8 -3.81 1.47 C-2 0 -2 0 0 0 Z M-10.69 17.38 C-20.57 25.45 -31.13 32.34 -42 39 C-41.38 43.33 -39.75 46.85 -37.75 50.69 C-37.03 52.1 -36.3 53.51 -35.58 54.93 C-35.17 55.72 -34.77 56.51 -34.35 57.32 C-32.82 60.36 -31.34 63.42 -29.86 66.48 C-29.31 67.62 -28.75 68.75 -28.18 69.93 C-27.08 72.17 -26 74.43 -24.92 76.69 C-18.58 89.6 -10.04 100.87 3.74 106.2 C11.03 107.99 18.67 107.4 26.12 107.25 C27.86 107.23 29.6 107.21 31.34 107.2 C35.56 107.15 39.78 107.08 44 107 C40.33 98.45 36.67 89.97 32.19 81.81 C28.09 74.19 24.3 66.46 20.61 58.64 C18.1 53.3 15.53 48.01 12.88 42.75 C9.7 36.47 6.67 30.13 3.7 23.76 C1.86 19.81 -0.03 15.89 -2 12 C-5.55 12 -8.05 15.18 -10.69 17.38 Z " fill="#112C4A" transform="translate(825,307)"/>
<path d="M0 0 C1.88 1 1.88 1 3 3 C3.42 5.85 3.28 8.07 3 11 C-0.7 13.47 -2.62 13.47 -7 13 C-9.65 10.78 -9.95 9.35 -10.44 5.94 C-10 3 -10 3 -8.38 1.12 C-5.34 -0.31 -3.33 -0.42 0 0 Z " fill="#9CA1A5" transform="translate(229,482)"/>
<path d="M0 0 C2.44 1.56 2.44 1.56 4 4 C3.94 7.62 3.94 7.62 3 11 C-0.49 13.33 -1.89 13.5 -6 13 C-8.79 11.02 -9.83 9.87 -10.5 6.5 C-9.34 0.69 -5.55 -0.93 0 0 Z " fill="#9BA0A2" transform="translate(644,482)"/>
<path d="M0 0 C6 0 6 0 9 2 C9.12 4.81 9.12 4.81 9 8 C9.21 8.91 9.41 9.81 9.62 10.75 C9.75 11.49 9.87 12.24 10 13 C8 15 8 15 6.05 15.2 C4.04 15.13 2.02 15.07 0 15 C0 10.05 0 5.1 0 0 Z " fill="#7E8588" transform="translate(267,481)"/>
<path d="M0 0 C7.32 -0.36 7.32 -0.36 10 1.06 C11.58 4.13 11.36 6.62 11 10 C10 11.94 10 11.94 8 13 C5.28 13.24 2.74 13.13 0 13 C0 8.71 0 4.42 0 0 Z " fill="#8E9297" transform="translate(318,482)"/>
<path d="M0 0 C3.49 -0.2 6.2 -0.35 9.44 1.06 C11 3 11 3 11.5 6.5 C11 10 11 10 9.44 11.94 C6.2 13.35 3.49 13.2 0 13 C0 8.71 0 4.42 0 0 Z " fill="#90989A" transform="translate(249,482)"/>
<path d="M0 0 C6.23 -0.48 6.23 -0.48 9.5 1.56 C11 4 11 4 10.94 7.62 C10 11 10 11 7 13 C4.67 13.08 2.33 13.09 0 13 C0 8.71 0 4.42 0 0 Z " fill="#8E9498" transform="translate(768,482)"/>
<path d="M0 0 C6.75 -0.12 6.75 -0.12 9 1 C9.03 2.81 9.05 4.62 9.06 6.44 C9.07 7.45 9.09 8.46 9.1 9.5 C9 12 9 12 8 13 C5.33 13.14 2.68 13.04 0 13 C0 8.71 0 4.42 0 0 Z " fill="#757C7F" transform="translate(717,482)"/>
<path d="M0 0 C0.99 0 1.98 0 3 0 C3.99 2.97 4.98 5.94 6 9 C8.93 6.07 10.27 3.7 12 0 C12.66 0 13.32 0 14 0 C14 4.29 14 8.58 14 13 C13.34 13 12.68 13 12 13 C11.67 11.02 11.34 9.04 11 7 C10.01 8.98 9.02 10.96 8 13 C7.34 13 6.68 13 6 13 C5.01 11.02 4.02 9.04 3 7 C2.67 8.98 2.34 10.96 2 13 C1.34 13 0.68 13 0 13 C0 8.71 0 4.42 0 0 Z " fill="#394147" transform="translate(781,482)"/>
<path d="M0 0 C0.66 0 1.32 0 2 0 C3.32 2.97 4.64 5.94 6 9 C7.71 6.81 9.19 4.67 10.56 2.25 C11.04 1.51 11.51 0.76 12 0 C12.66 0 13.32 0 14 0 C14 4.29 14 8.58 14 13 C13.34 13 12.68 13 12 13 C11.67 11.02 11.34 9.04 11 7 C10.01 8.98 9.02 10.96 8 13 C7.01 12.67 6.02 12.34 5 12 C3.81 9.44 3.81 9.44 3 7 C2.67 8.98 2.34 10.96 2 13 C1.34 13 0.68 13 0 13 C0 8.71 0 4.42 0 0 Z " fill="#343B43" transform="translate(332,482)"/>
<path d="M0 0 C6.15 -0.1 6.15 -0.1 8 0 C9 1 9 1 9.12 3.31 C9 6 9 6 8.44 8.12 C8 10 8 10 9 13 C8.34 13 7.68 13 7 13 C6.34 11.35 5.68 9.7 5 8 C4.01 8 3.02 8 2 8 C2 9.65 2 11.3 2 13 C1.34 13 0.68 13 0 13 C0 8.71 0 4.42 0 0 Z " fill="#666E72" transform="translate(811,482)"/>
<path d="M0 0 C7 0 7 0 9 1 C9 2.65 9 4.3 9 6 C8.01 6.33 7.02 6.66 6 7 C6.66 8.98 7.32 10.96 8 13 C7.01 12.34 6.02 11.68 5 11 C5 10.01 5 9.02 5 8 C4.01 8 3.02 8 2 8 C2 9.98 2 11.96 2 14 C1.34 14 0.68 14 0 14 C0 9.38 0 4.76 0 0 Z " fill="#636B6F" transform="translate(362,482)"/>
<path d="M0 0 C3.38 -0.12 3.38 -0.12 7 0 C7.66 0.66 8.32 1.32 9 2 C8.62 4.62 8.62 4.62 8 7 C7.34 7 6.68 7 6 7 C6.66 8.98 7.32 10.96 8 13 C7.01 12.34 6.02 11.68 5 11 C5 10.01 5 9.02 5 8 C3.68 8 2.36 8 1 8 C1 9.65 1 11.3 1 13 C0.67 13 0.34 13 0 13 C0 8.71 0 4.42 0 0 Z " fill="#636A6E" transform="translate(729,482)"/>
<path d="M0 0 C2.33 -0.04 4.67 -0.04 7 0 C8 1 8 1 8.12 3.38 C8 6 8 6 7 9 C7.44 11.19 7.44 11.19 8 13 C7.34 13 6.68 13 6 13 C5.34 11.35 4.68 9.7 4 8 C3.01 8 2.02 8 1 8 C1 9.65 1 11.3 1 13 C0.67 13 0.34 13 0 13 C0 8.71 0 4.42 0 0 Z " fill="#5E666B" transform="translate(280,482)"/>
<path d="M0 0 C0.99 0 1.98 0 3 0 C3.67 1.6 4.34 3.21 5 4.81 C5.37 5.71 5.74 6.6 6.12 7.52 C7 10 7 10 7 13 C6.34 13 5.68 13 5 13 C5 12.01 5 11.02 5 10 C2.69 10 0.38 10 -2 10 C-2 10.99 -2 11.98 -2 13 C-2.66 13 -3.32 13 -4 13 C-3.28 8.39 -1.69 4.33 0 0 Z " fill="#535C61" transform="translate(295,482)"/>
<path d="M0 0 C0.99 0 1.98 0 3 0 C3.67 1.6 4.34 3.21 5 4.81 C5.37 5.71 5.74 6.6 6.12 7.52 C7 10 7 10 7 13 C6.34 13 5.68 13 5 13 C5 12.01 5 11.02 5 10 C2.06 10.38 2.06 10.38 -1 11 C-1.33 11.66 -1.66 12.32 -2 13 C-2.66 13 -3.32 13 -4 13 C-3.8 12.4 -3.59 11.79 -3.38 11.17 C-3.24 10.77 -3.24 10.77 -2.56 8.75 C-2.3 7.96 -2.03 7.17 -1.75 6.36 C-1.08 4.25 -0.51 2.15 0 0 Z " fill="#545A5F" transform="translate(352,482)"/>
<path d="M0 0 C0.99 0 1.98 0 3 0 C4.32 4.29 5.64 8.58 7 13 C6.34 13 5.68 13 5 13 C5 12.01 5 11.02 5 10 C2.69 10 0.38 10 -2 10 C-2 10.99 -2 11.98 -2 13 C-2.66 13 -3.32 13 -4 13 C-3.53 11.02 -3.04 9.04 -2.56 7.06 C-2.3 5.96 -2.03 4.86 -1.75 3.72 C-1 1 -1 1 0 0 Z " fill="#565D62" transform="translate(802,482)"/>
<path d="M0 0 C0.99 0 1.98 0 3 0 C3.7 1.79 4.38 3.58 5.06 5.38 C5.45 6.37 5.83 7.37 6.22 8.4 C7 11 7 11 6 13 C5.67 12.01 5.34 11.02 5 10 C2.06 10.38 2.06 10.38 -1 11 C-1.33 11.66 -1.66 12.32 -2 13 C-2.66 12.67 -3.32 12.34 -4 12 C-2.68 8.04 -1.36 4.08 0 0 Z " fill="#52585C" transform="translate(744,482)"/>
</svg>
