<?xml version="1.0" encoding="UTF-8"?>
<!-- Generator: visioncortex VTracer 0.6.5 -->
<svg version="1.1" xmlns="http://www.w3.org/2000/svg" width="1024" height="565">
<path d="M0 0 C337.92 0 675.84 0 1024 0 C1024 186.45 1024 372.9 1024 565 C686.08 565 348.16 565 0 565 C0 378.55 0 192.1 0 0 Z " fill="#E1E2E1" transform="translate(0,0)"/>
<path d="M0 0 C1.04 -0.01 2.08 -0.02 3.16 -0.03 C4.29 -0.03 5.42 -0.04 6.58 -0.04 C7.16 -0.04 7.16 -0.04 10.09 -0.06 C12.55 -0.07 15.01 -0.08 17.47 -0.08 C21.22 -0.09 24.98 -0.12 28.73 -0.15 C31.12 -0.16 33.51 -0.16 35.89 -0.17 C37.02 -0.18 38.14 -0.19 39.29 -0.2 C44.93 -0.19 49.19 -0.12 54 3.16 C59.38 8.69 59.15 14.08 59.07 21.47 C59.06 22.21 59.06 22.95 59.05 23.72 C59.04 25.53 59.02 27.35 59 29.16 C60.32 29.16 61.64 29.16 63 29.16 C63 29.82 63 30.48 63 31.16 C37.92 31.16 12.84 31.16 -13 31.16 C-13 8.16 -13 8.16 -7 1.16 C-4.5 -0.09 -2.79 0.02 0 0 Z " fill="#2AB9B8" transform="translate(488.9970703125,482.8388671875)"/>
<path d="M0 0 C8.91 0 17.82 0 27 0 C27 19.8 27 39.6 27 60 C21.5 58.9 21.5 58.9 18.5 56.88 C15 55 15 55 12.56 55 C9.52 56.19 6.65 57.61 3.77 59.16 C2 60 2 60 0 60 C0 51.75 0 43.5 0 35 C0.5 34.84 0.5 34.84 3 34 C4.12 27.25 4.12 27.25 3 25 C2.01 24.67 1.02 24.34 0 24 C0 16.08 0 8.16 0 0 Z " fill="#39C5C4" transform="translate(538,54)"/>
<path d="M0 0 C26.4 0 52.8 0 80 0 C80 5.61 80 11.22 80 17 C53.6 17 27.2 17 0 17 C0 11.39 0 5.78 0 0 Z " fill="#46B7B5" transform="translate(472,460)"/>
<path d="M0 0 C10.56 0 21.12 0 32 0 C32 3.96 32 7.92 32 12 C21.44 12 10.88 12 0 12 C0 8.04 0 4.08 0 0 Z " fill="#4F4F4C" transform="translate(496,352)"/>
<path d="M0 0 C2.93 1.82 5.44 3.87 7 7 C7.41 11.64 6.87 14.3 4 18 C0.58 20.57 -2.85 20.36 -7 20 C-10.54 18.35 -11.81 17.28 -14 14 C-14.54 10.94 -14.55 8.06 -14 5 C-10 0.68 -5.81 -0.68 0 0 Z " fill="#224258" transform="translate(558,151)"/>
<path d="M0 0 C1.98 0 3.96 0 6 0 C8.75 4.43 10.48 7.72 11 13 C10.26 13.27 9.51 13.54 8.75 13.81 C6.13 14.94 4.2 16.21 2 18 C4.31 18.33 6.62 18.66 9 19 C9.33 20.32 9.66 21.64 10 23 C9.42 23.23 8.84 23.46 8.24 23.7 C4.31 25.34 0.94 26.82 -2.19 29.75 C-5 32 -5 32 -8.38 32.31 C-9.24 32.21 -10.11 32.11 -11 32 C-9.75 28.54 -8.32 25.85 -6 23 C-6.33 22.34 -6.66 21.68 -7 21 C-5.62 18.09 -4.12 15.3 -2.54 12.49 C-0.21 8.14 0.36 4.91 0 0 Z " fill="#308BAE" transform="translate(506,112)"/>
<path d="M0 0 C0.99 0 1.98 0 3 0 C3.33 0.66 3.66 1.32 4 2 C4.66 1.34 5.32 0.68 6 0 C8.62 0.38 8.62 0.38 11 1 C10.67 1.66 10.34 2.32 10 3 C8.68 2.67 7.36 2.34 6 2 C6.33 3.98 6.66 5.96 7 8 C7.99 8.33 8.98 8.66 10 9 C10 8.01 10 7.02 10 6 C9.34 5.67 8.68 5.34 8 5 C8.62 5.17 9.24 5.33 9.88 5.5 C12 6 12 6 14 6 C14.66 5.34 15.32 4.68 16 4 C16 4.99 16 5.98 16 7 C16.66 7 17.32 7 18 7 C18 5.68 18 4.36 18 3 C17.34 3 16.68 3 16 3 C16 2.34 16 1.68 16 1 C16.99 1.33 17.98 1.66 19 2 C19.73 3.85 19.73 3.85 20.19 6.06 C20.35 6.8 20.5 7.53 20.67 8.29 C20.78 8.85 20.89 9.42 21 10 C19.35 9.34 17.7 8.68 16 8 C16.08 8.46 16.08 8.46 16.5 10.81 C17 14 17 14 17 17 C17.99 17 18.98 17 20 17 C20.33 16.34 20.66 15.68 21 15 C21.66 15 22.32 15 23 15 C22.01 17.97 21.02 20.94 20 24 C17.69 24.33 15.38 24.66 13 25 C13 24.01 13 23.02 13 22 C11.68 22 10.36 22 9 22 C9 22.66 9 23.32 9 24 C8.34 24 7.68 24 7 24 C7.33 21.36 7.66 18.72 8 16 C6.68 16 5.36 16 4 16 C4 18.64 4 21.28 4 24 C3.67 24 3.34 24 3 24 C3 21.36 3 18.72 3 16 C1.68 15.67 0.36 15.34 -1 15 C0.32 14.67 1.64 14.34 3 14 C3 13.01 3 12.02 3 11 C2.34 11 1.68 11 1 11 C-0.39 9.04 -1.73 7.04 -3 5 C-2.67 4.34 -2.34 3.68 -2 3 C-1.34 3.33 -0.68 3.66 0 4 C0 2.68 0 1.36 0 0 Z " fill="#6D737C" transform="translate(518,395)"/>
<path d="M0 0 C1.65 0 3.3 0 5 0 C6.34 2.77 7.67 5.54 9 8.31 C9.38 9.1 9.76 9.88 10.16 10.69 C10.52 11.45 10.88 12.21 11.25 12.99 C11.59 13.68 11.92 14.38 12.27 15.1 C13 17 13 17 13 20 C10.56 19.62 10.56 19.62 8 19 C7.67 18.34 7.34 17.68 7 17 C4.71 16.59 4.71 16.59 1.94 16.38 C1.02 16.3 0.1 16.23 -0.85 16.15 C-1.56 16.1 -2.27 16.05 -3 16 C-3.33 17.32 -3.66 18.64 -4 20 C-5.32 20 -6.64 20 -8 20 C-7.35 15.29 -5.48 11.42 -3.44 7.19 C-3.27 6.84 -3.27 6.84 -2.44 5.09 C-1.63 3.39 -0.82 1.69 0 0 Z " fill="#15354F" transform="translate(472,151)"/>
<path d="M0 0 C4.95 0 9.9 0 15 0 C15 1.32 15 2.64 15 4 C11.37 4 7.74 4 4 4 C4 5.32 4 6.64 4 8 C7.3 8 10.6 8 14 8 C14 9.32 14 10.64 14 12 C10.7 12 7.4 12 4 12 C4 13.32 4 14.64 4 16 C7.63 16 11.26 16 15 16 C15 17.32 15 18.64 15 20 C10.05 20 5.1 20 0 20 C0 13.4 0 6.8 0 0 Z " fill="#28485B" transform="translate(508,151)"/>
<path d="M0 0 C1.65 0 3.3 0 5 0 C5.33 2.31 5.66 4.62 6 7 C6.46 6.49 6.92 5.99 7.39 5.47 C8 4.82 8.62 4.17 9.25 3.5 C9.85 2.85 10.46 2.2 11.08 1.53 C13 0 13 0 17 0 C15.71 2.88 14.34 4.87 12 7 C13.56 11.67 16.08 15.09 19 19 C16.31 19.38 16.31 19.38 13 19 C10.99 17.18 9.62 15.2 8 13 C7.34 12.67 6.68 12.34 6 12 C5.67 14.31 5.34 16.62 5 19 C3.35 19 1.7 19 0 19 C0 12.73 0 6.46 0 0 Z " fill="#223F56" transform="translate(487,152)"/>
<path d="M0 0 C0 1.32 0 2.64 0 4 C-3.3 4 -6.6 4 -10 4 C-9 6 -9 6 -6.97 6.82 C-6.15 7.06 -5.34 7.31 -4.5 7.56 C-0.09 8.91 -0.09 8.91 1 10 C1.04 12.33 1.04 14.67 1 17 C-2.92 19.61 -6.44 19.22 -11 19 C-11.99 18.67 -12.98 18.34 -14 18 C-13.67 16.68 -13.34 15.36 -13 14 C-10.03 14.33 -7.06 14.66 -4 15 C-4 14.34 -4 13.68 -4 13 C-4.64 12.72 -5.28 12.45 -5.93 12.16 C-6.76 11.8 -7.59 11.44 -8.44 11.06 C-9.26 10.7 -10.08 10.34 -10.93 9.97 C-13 9 -13 9 -14 8 C-13.81 4.56 -13.81 4.56 -13 1 C-9.62 -1.99 -3.93 -1.96 0 0 Z " fill="#192E44" transform="translate(540,152)"/>
<path d="M0 0 C0.33 0 0.66 0 1 0 C1 5.28 1 10.56 1 16 C2.32 16 3.64 16 5 16 C5 16.66 5 17.32 5 18 C-20.08 18 -45.16 18 -71 18 C-70.67 16.68 -70.34 15.36 -70 14 C-69.4 14.14 -68.81 14.28 -68.19 14.43 C-61.79 15.85 -55.79 16.28 -49.25 16.19 C-48.8 16.19 -48.8 16.19 -46.5 16.19 C-41.87 16.16 -37.57 15.79 -33 15 C-30.28 14.91 -27.59 14.86 -24.88 14.88 C-24.13 14.88 -23.39 14.88 -22.62 14.88 C-17.18 14.92 -11.82 15.26 -6.42 15.88 C-4 16 -4 16 0 15 C0 10.05 0 5.1 0 0 Z " fill="#65A4A1" transform="translate(547,496)"/>
<path d="M0 0 C9 0 9 0 12.62 0.56 C13.74 0.71 14.85 0.85 16 1 C16.33 0.67 16.66 0.34 17 0 C18.67 -0.04 20.33 -0.04 22 0 C22 0.99 22 1.98 22 3 C20.68 2.67 19.36 2.34 18 2 C18 3.65 18 5.3 18 7 C19.65 6.67 21.3 6.34 23 6 C22.67 6.99 22.34 7.98 22 9 C14 9 14 9 10.88 8.94 C8 9 8 9 7 10 C4.67 10.04 2.33 10.04 0 10 C0 6.7 0 3.4 0 0 Z " fill="#96A1AB" transform="translate(476,410)"/>
<path d="M0 0 C0.66 0 1.32 0 2 0 C2 12.87 2 25.74 2 39 C1.01 39 0.02 39 -1 39 C-2.02 36.15 -1.94 34.63 -1.44 31.56 C-1 28 -1 28 -3 23 C-6.63 22.67 -10.26 22.34 -14 22 C-14 21.67 -14 21.34 -14 21 C-13.23 20.96 -12.46 20.93 -11.66 20.89 C-11.16 20.85 -11.16 20.85 -8.62 20.69 C-7.63 20.63 -6.63 20.57 -5.6 20.51 C-4.74 20.34 -3.88 20.17 -3 20 C-1 17 -1 17 -1.44 14.5 C-1.62 13.68 -1.81 12.85 -2 12 C-1.67 11.01 -1.34 10.02 -1 9 C-1.66 9 -2.32 9 -3 9 C-2.67 7.68 -2.34 6.36 -2 5 C-1.34 5 -0.68 5 0 5 C-0.33 4.01 -0.66 3.02 -1 2 C-0.67 1.34 -0.34 0.68 0 0 Z " fill="#A1A19F" transform="translate(526,288)"/>
<path d="M0 0 C1.98 0 3.96 0 6 0 C5.68 0.14 5.68 0.14 4.06 0.88 C2 2 2 2 1 4 C1.66 4.17 1.66 4.17 5 5 C4.01 5 3.02 5 2 5 C2 5.99 2 6.98 2 8 C3.65 8 5.3 8 7 8 C6.99 7.43 6.99 7.43 6.94 4.56 C7 1 7 1 8 0 C11.72 -0.29 12.78 -0.15 16 2 C16 1.34 16 0.68 16 0 C16.66 0 17.32 0 18 0 C18 3.3 18 6.6 18 10 C16.35 10 14.7 10 13 10 C13 9.34 13 8.68 13 8 C12.01 8.66 11.02 9.32 10 10 C6.65 10.26 3.37 10.09 0 10 C0 6.7 0 3.4 0 0 Z " fill="#777F87" transform="translate(511,444)"/>
<path d="M0 0 C2.05 0.03 4.1 0.07 6.15 0.1 C6.48 1.09 6.81 2.08 7.15 3.1 C8.47 2.44 9.79 1.78 11.15 1.1 C11.13 2.01 11.11 2.91 11.09 3.85 C11.14 6.52 11.37 8.57 12.15 11.1 C10.15 11.1 10.15 11.1 8.53 9.6 C8.07 9.1 7.62 8.61 7.15 8.1 C7.15 8.76 7.15 9.42 7.15 10.1 C5.67 10.29 4.19 10.48 2.71 10.66 C1.89 10.76 1.07 10.87 0.22 10.98 C-0.46 11.02 -1.15 11.06 -1.85 11.1 C-2.85 10.1 -2.85 10.1 -2.98 8.07 C-2.98 7.25 -2.98 6.44 -2.97 5.6 C-2.98 4.78 -2.98 3.97 -2.98 3.13 C-2.81 0.5 -2.64 0.14 0 0 Z " fill="#65D1D3" transform="translate(534.84765625,462.90234375)"/>
<path d="M0 0 C0.99 0.33 1.98 0.66 3 1 C3.73 2.85 3.73 2.85 4.19 5.06 C4.35 5.8 4.5 6.53 4.67 7.29 C4.78 7.85 4.89 8.42 5 9 C4.17 8.67 4.17 8.67 0 7 C0.16 7.93 0.33 8.86 0.5 9.81 C1 13 1 13 1 16 C1.99 16 2.98 16 4 16 C4.33 15.34 4.66 14.68 5 14 C5.66 14 6.32 14 7 14 C6.01 16.97 5.02 19.94 4 23 C1.69 23.33 -0.62 23.66 -3 24 C-2.67 23.34 -2.34 22.68 -2 22 C-2.38 19.91 -2.38 19.91 -3 17.5 C-4.11 13.22 -4.11 13.22 -3 11 C-3.99 11.33 -4.98 11.66 -6 12 C-4.47 8.56 -2.4 5.88 0 3 C0 3.99 0 4.98 0 6 C0.66 6 1.32 6 2 6 C2 4.68 2 3.36 2 2 C1.34 2 0.68 2 0 2 C0 1.34 0 0.68 0 0 Z " fill="#848B93" transform="translate(534,396)"/>
<path d="M0 0 C1.88 1.12 1.88 1.12 3 3 C3.42 7.08 3.31 8.53 1 12 C-2.42 12.37 -4.9 12.64 -7.94 10.88 C-9.5 8.11 -9.39 6.12 -9 3 C-6.79 -0.68 -4.02 -0.5 0 0 Z " fill="#D7E0E7" transform="translate(557,155)"/>
<path d="M0 0 C6.6 0 13.2 0 20 0 C20 0.66 20 1.32 20 2 C45.74 2 71.48 2 98 2 C98 2.33 98 2.66 98 3 C87.57 3.02 77.14 3.04 66.7 3.05 C61.86 3.06 57.01 3.06 52.17 3.08 C47.48 3.09 42.79 3.09 38.1 3.09 C36.33 3.1 34.55 3.1 32.77 3.11 C8.73 3.18 8.73 3.18 1 2 C0.67 1.34 0.34 0.68 0 0 Z " fill="#B5C5C3" transform="translate(456,512)"/>
<path d="M0 0 C9.38 0 9.38 0 14 1 C13.67 1.66 13.34 2.32 13 3 C12.01 2.67 11.02 2.34 10 2 C10 2.66 10 3.32 10 4 C11.32 4.66 12.64 5.32 14 6 C13.67 7.32 13.34 8.64 13 10 C8.71 10 4.42 10 0 10 C0 6.7 0 3.4 0 0 Z " fill="#83888D" transform="translate(487,444)"/>
<path d="M0 0 C2.97 0 5.94 0 9 0 C9 3.96 9 7.92 9 12 C5.7 12 2.4 12 -1 12 C-1.12 2.25 -1.12 2.25 0 0 Z " fill="#787871" transform="translate(519,352)"/>
<path d="M0 0 C0.66 0.33 1.32 0.66 2 1 C2 6.94 2 12.88 2 19 C-1.87 17.07 -2.88 16.22 -5.25 12.88 C-5.51 12.51 -5.51 12.51 -6.83 10.68 C-7.21 10.13 -7.6 9.57 -8 9 C-6.11 4.72 -3.64 2.85 0 0 Z " fill="#DAE8ED" transform="translate(506,152)"/>
<path d="M0 0 C1.88 1.5 1.88 1.5 3 3 C-0.44 5.12 -3.03 5 -7 5 C-9 7 -9 7 -9.19 9.81 C-9.02 12.65 -8.65 15.24 -8 18 C-11 18 -11 18 -12.69 16.56 C-14.64 12.75 -14.84 9.19 -14 5 C-9.94 0.61 -5.88 -0.49 0 0 Z " fill="#112338" transform="translate(558,151)"/>
<path d="M0 0 C3.67 0 7.33 0 11 0 C11 3.3 11 6.6 11 10 C9.35 10.33 7.7 10.66 6 11 C5.71 10.36 5.42 9.72 5.12 9.06 C4 7 4 7 2 6 C2 7.32 2 8.64 2 10 C1.34 10 0.68 10 0 10 C0 6.7 0 3.4 0 0 Z " fill="#757C86" transform="translate(500,395)"/>
<path d="M0 0 C0.99 0 1.98 0 3 0 C3 2.97 3 5.94 3 9 C4.32 9.33 5.64 9.66 7 10 C4.69 10 2.38 10 0 10 C-0.33 9.34 -0.66 8.68 -1 8 C-1 8.66 -1 9.32 -1 10 C-2.98 10 -4.96 10 -7 10 C-7 7.03 -7 4.06 -7 1 C-6.52 1.01 -6.52 1.01 -4.06 1.06 C-1 1 -1 1 0 0 Z " fill="#727882" transform="translate(550,409)"/>
<path d="M0 0 C0 0.66 0 1.32 0 2 C0.66 2.66 1.32 3.32 2 4 C1.43 4.42 0.87 4.84 0.29 5.28 C-0.45 5.83 -1.18 6.37 -1.94 6.94 C-2.67 7.48 -3.4 8.03 -4.15 8.59 C-6 10 -6 10 -7 11 C-9 11.04 -11 11.04 -13 11 C-11.37 6.24 -9.19 2.46 -4.94 -0.38 C-3 -1 -3 -1 0 0 Z " fill="#20547D" transform="translate(508,133)"/>
<path d="M0 0 C1.65 0 3.3 0 5 0 C8 5.62 8 5.62 8 9 C7.34 9 6.68 9 6 9 C5.67 9.66 5.34 10.32 5 11 C4.34 9.35 3.68 7.7 3 6 C2.34 6 1.68 6 1 6 C0.88 6.8 0.75 7.61 0.62 8.44 C0.42 9.28 0.21 10.13 0 11 C-0.33 11.16 -0.33 11.16 -2 12 C-2 11.34 -2 10.68 -2 10 C-2.66 9.67 -3.32 9.34 -4 9 C-2.68 6.03 -1.36 3.06 0 0 Z " fill="#1C3347" transform="translate(472,151)"/>
<path d="M0 0 C2.66 1.02 3.81 1.67 5.27 4.16 C5.59 4.98 5.92 5.79 6.25 6.62 C6.59 7.44 6.92 8.26 7.27 9.1 C7.39 9.41 7.39 9.41 8 11 C5.36 11 2.72 11 0 11 C-1.32 8.36 -2.64 5.72 -4 3 C-2.68 2.01 -1.36 1.02 0 0 Z " fill="#4DBABB" transform="translate(520,133)"/>
<path d="M0 0 C5.88 0.88 5.88 0.88 7 2 C7.04 4.33 7.04 6.67 7 9 C3.08 11.61 -0.44 11.22 -5 11 C-5.99 10.67 -6.98 10.34 -8 10 C-7.67 8.68 -7.34 7.36 -7 6 C-4.03 6.33 -1.06 6.66 2 7 C2.33 5.02 2.66 3.04 3 1 C2.01 0.67 1.02 0.34 0 0 Z " fill="#122234" transform="translate(534,160)"/>
<path d="M0 0 C0.66 0 1.32 0 2 0 C2 5.28 2 10.56 2 16 C0.35 16 -1.3 16 -3 16 C-3.22 14.42 -3.43 12.83 -3.62 11.25 C-3.74 10.37 -3.86 9.49 -3.98 8.58 C-4 5.77 -3.45 4.37 -2 2 C-1.34 2 -0.68 2 0 2 C0 1.34 0 0.68 0 0 Z " fill="#32ABAB" transform="translate(549,460)"/>
<path d="M0 0 C0.57 0.09 0.57 0.09 3.44 0.56 C4.61 0.71 5.79 0.85 7 1 C7.33 0.67 7.66 0.34 8 0 C9.67 -0.04 11.33 -0.04 13 0 C13 0.99 13 1.98 13 3 C11.68 2.67 10.36 2.34 9 2 C9 3.65 9 5.3 9 7 C10.65 6.67 12.3 6.34 14 6 C13.67 6.99 13.34 7.98 13 9 C8.33 9 3.67 9 -1 9 C-0.67 8.34 -0.34 7.68 0 7 C0.66 7.17 0.66 7.17 4 8 C4 7.34 4 6.68 4 6 C3.18 5.67 3.18 5.67 -1 4 C-0.67 2.68 -0.34 1.36 0 0 Z " fill="#58616B" transform="translate(485,410)"/>
<path d="M0 0 C4.95 0 9.9 0 15 0 C15 1.32 15 2.64 15 4 C11.37 4 7.74 4 4 4 C3.67 5.32 3.34 6.64 3 8 C2.34 8.99 1.68 9.98 1 11 C0.67 7.37 0.34 3.74 0 0 Z " fill="#233C51" transform="translate(508,151)"/>
<path d="M0 0 C0.66 0 1.32 0 2 0 C3.46 2.65 4 3.89 4 7 C1.69 7.33 -0.62 7.66 -3 8 C-3.66 9.98 -4.32 11.96 -5 14 C-6.32 14 -7.64 14 -9 14 C-8.39 10.44 -7.42 7.32 -6 4 C-4.68 4.33 -3.36 4.66 -2 5 C-1.34 3.35 -0.68 1.7 0 0 Z " fill="#688499" transform="translate(473,157)"/>
<path d="M0 0 C1.99 2.99 2.94 5.6 4 9 C3.17 9.5 3.17 9.5 -1 12 C-1.37 11.5 -1.74 11.01 -2.12 10.5 C-4.75 8.4 -6.74 8.78 -10 9 C-6.83 5.46 -4.83 3.41 0 3 C0 2.01 0 1.02 0 0 Z " fill="#67CFD5" transform="translate(517,122)"/>
</svg>
