<?xml version="1.0" encoding="UTF-8"?>
<!-- Generator: visioncortex VTracer 0.6.5 -->
<svg version="1.1" xmlns="http://www.w3.org/2000/svg" width="1024" height="565">
<path d="M0 0 C337.92 0 675.84 0 1024 0 C1024 186.45 1024 372.9 1024 565 C686.08 565 348.16 565 0 565 C0 378.55 0 192.1 0 0 Z " fill="#FAFAFA" transform="translate(0,0)"/>
<path d="M0 0 C44.55 0 89.1 0 135 0 C135 44.22 135 88.44 135 134 C90.45 134 45.9 134 0 134 C0 89.78 0 45.56 0 0 Z " fill="#03A4B0" transform="translate(205,45)"/>
<path d="M0 0 C44.22 0 88.44 0 134 0 C134 44.22 134 88.44 134 134 C89.78 134 45.56 134 0 134 C0 89.78 0 45.56 0 0 Z " fill="#313131" transform="translate(844,45)"/>
<path d="M0 0 C44.22 0 88.44 0 134 0 C134 44.22 134 88.44 134 134 C89.78 134 45.56 134 0 134 C0 89.78 0 45.56 0 0 Z " fill="#51B2D1" transform="translate(365,45)"/>
<path d="M0 0 C44.22 0 88.44 0 134 0 C134 44.22 134 88.44 134 134 C89.78 134 45.56 134 0 134 C0 89.78 0 45.56 0 0 Z " fill="#012952" transform="translate(46,45)"/>
<path d="M0 0 C5.14 3 8.92 6.4 10.93 12.13 C11.89 19.44 10.94 26.12 6.81 32.32 C1.9 37.56 -2.78 39.29 -9.99 39.6 C-17.85 39.7 -22.92 39.14 -28.73 33.52 C-32.96 28.98 -34.8 24.99 -35.38 18.75 C-34.66 10.38 -31.77 6.27 -25.42 0.79 C-17.59 -4.75 -8.33 -4.26 0 0 Z " fill="#0C2848" transform="translate(664.06640625,316.87109375)"/>
<path d="M0 0 C3.97 3.03 7.61 6.93 9.86 11.41 C10.01 13.66 10.08 15.91 10.11 18.16 C10.13 19.38 10.16 20.59 10.18 21.84 C9.65 27.63 7.41 31.41 3.04 35.16 C-2.8 39.96 -7.94 40.88 -15.39 40.73 C-22.09 39.96 -26.83 36.47 -31.14 31.41 C-35.08 25.66 -35.8 20.28 -35.14 13.41 C-32.57 6.38 -27.46 2.17 -21.14 -1.59 C-14.21 -3.79 -6.36 -3.64 0 0 Z " fill="#0D2849" transform="translate(853.14453125,316.5859375)"/>
<path d="M0 0 C2.04 -0.05 2.04 -0.05 12.38 -0.31 C13.64 -0.36 14.91 -0.4 16.21 -0.45 C23.84 -0.54 29.71 0.5 36 5 C40.76 10.01 42.31 14.84 42.21 21.59 C41.62 28.28 39.06 32.59 34 37 C33.34 37.66 32.68 38.32 32 39 C25.48 41.59 18.99 41.23 12.06 41.12 C8.08 41.08 4.1 41.04 0 41 C0 27.47 0 13.94 0 0 Z " fill="#0C2848" transform="translate(383,315)"/>
<path d="M0 0 C5.49 3.08 9.22 6.98 11.62 12.88 C12.53 20.08 12.49 26.34 8.05 32.29 C3.89 36.91 -0 39.64 -6.2 40.25 C-20.47 40.64 -20.47 40.64 -25.93 36.3 C-31.2 31.09 -33.65 26.47 -33.75 19 C-33.61 11.72 -31.82 8.27 -26.56 3.12 C-18.14 -2.82 -9.52 -4.4 0 0 Z " fill="#0C2748" transform="translate(250.375,316.125)"/>
<path d="M0 0 C9 0 9 0 10.91 1.51 C11.1 1.87 11.1 1.87 12.06 3.69 C12.52 4.5 12.98 5.31 13.45 6.14 C13.96 7.08 14.47 8.03 15 9 C15.71 10.15 16.42 11.29 17.14 12.42 C23 21.65 23 21.65 23 24 C25.92 21.29 27.87 18.76 29.7 15.23 C30.19 14.34 30.68 13.46 31.18 12.54 C32.19 10.68 33.17 8.8 34.14 6.91 C34.63 6.03 35.13 5.15 35.64 4.23 C36.07 3.42 36.5 2.61 36.94 1.77 C39 0 39 0 48 0 C48 13.53 48 27.06 48 41 C45.03 41 42.06 41 39 41 C38.67 33.41 38.34 25.82 38 18 C30.57 30.71 30.57 30.71 27 37 C24.69 37.25 24.69 37.25 22 37 C20.38 35.31 20.38 35.31 19 33 C18.77 32.63 18.77 32.63 17.62 30.75 C17.36 30.3 17.36 30.3 16 28 C15.18 26.68 15.18 26.68 11 20 C10.67 26.93 10.34 33.86 10 41 C6.7 41 3.4 41 0 41 C0 27.47 0 13.94 0 0 Z " fill="#0C2747" transform="translate(286,315)"/>
<path d="M0 0 C8 0 8 0 10.43 1.8 C11.09 2.63 11.76 3.46 12.44 4.31 C13.18 5.21 13.92 6.12 14.68 7.05 C15.45 8.02 16.21 9 17 10 C18.67 12.02 20.33 14.04 22 16.06 C22.74 16.98 23.49 17.9 24.25 18.85 C26 21 26 21 27 22 C27.33 14.74 27.66 7.48 28 0 C31.3 0 34.6 0 38 0 C38 13.53 38 27.06 38 41 C30 41 30 41 27.35 38.98 C26.59 38.06 25.84 37.14 25.06 36.19 C24.23 35.19 23.4 34.2 22.54 33.17 C22.13 32.65 21.71 32.13 21.28 31.59 C20 30 18.69 28.44 17.36 26.89 C11 19.34 11 19.34 11 17 C10.34 17 9.68 17 9 17 C9 24.92 9 32.84 9 41 C6.03 41 3.06 41 0 41 C0 27.47 0 13.94 0 0 Z " fill="#082545" transform="translate(871,315)"/>
<path d="M0 0 C3.63 0 7.26 0 11 0 C13.25 4.87 15.49 9.75 17.73 14.62 C18.49 16.28 19.25 17.94 20.01 19.59 C21.11 21.98 22.21 24.37 23.3 26.76 C23.64 27.49 23.98 28.23 24.33 28.98 C26.14 32.93 27.71 36.84 29 41 C25.37 41 21.74 41 18 41 C17.01 38.69 16.02 36.38 15 34 C8.4 34 1.8 34 -5 34 C-5.99 36.31 -6.98 38.62 -8 41 C-11.3 41 -14.6 41 -18 41 C-15.69 33.25 -12.34 26.1 -8.86 18.82 C-7.63 16.21 -6.44 13.57 -5.25 10.94 C-3.58 7.25 -1.85 3.6 0 0 Z " fill="#0C2747" transform="translate(507,315)"/>
<path d="M0 0 C3.63 0 7.26 0 11 0 C12.44 3.02 13.88 6.04 15.31 9.06 C15.51 9.49 15.51 9.49 16.54 11.63 C18.28 15.3 20.01 18.96 21.59 22.7 C23.54 27.26 25.67 31.72 27.79 36.21 C29 39 29 39 29 41 C25.37 41 21.74 41 18 41 C17.34 38.36 16.68 35.72 16 33 C9.07 33 2.14 33 -5 33 C-5.66 35.64 -6.32 38.28 -7 41 C-10.63 41 -14.26 41 -18 41 C-16.36 35.65 -14.13 30.65 -11.81 25.56 C-11.42 24.69 -11.02 23.82 -10.61 22.92 C-7.13 15.25 -3.59 7.62 0 0 Z " fill="#0C2647" transform="translate(63,315)"/>
<path d="M0 0 C10.56 0 21.12 0 32 0 C32 2.64 32 5.28 32 8 C24.74 8 17.48 8 10 8 C10 10.64 10 13.28 10 16 C16.6 16 23.2 16 30 16 C30 18.64 30 21.28 30 24 C23.4 24 16.8 24 10 24 C10 26.97 10 29.94 10 33 C17.59 33 25.18 33 33 33 C33 35.64 33 38.28 33 41 C22.11 41 11.22 41 0 41 C0 27.47 0 13.94 0 0 Z " fill="#0C2543" transform="translate(343,315)"/>
<path d="M0 0 C10.56 0 21.12 0 32 0 C32 2.64 32 5.28 32 8 C24.74 8 17.48 8 10 8 C10 10.64 10 13.28 10 16 C16.27 16 22.54 16 29 16 C29 18.64 29 21.28 29 24 C22.73 24 16.46 24 10 24 C10 26.97 10 29.94 10 33 C17.26 33 24.52 33 32 33 C32 35.64 32 38.28 32 41 C21.44 41 10.88 41 0 41 C0 27.47 0 13.94 0 0 Z " fill="#0A2543" transform="translate(141,315)"/>
<path d="M0 0 C3.3 0 6.6 0 10 0 C10.01 0.83 10.03 1.65 10.04 2.51 C10.12 6.26 10.22 10 10.31 13.75 C10.34 15.05 10.36 16.35 10.38 17.7 C10.42 18.95 10.45 20.2 10.49 21.48 C10.51 22.64 10.54 23.79 10.57 24.98 C11.04 28.25 11.7 29.67 14 32 C16.12 32.5 16.12 32.5 18.44 32.44 C19.2 32.44 19.96 32.43 20.75 32.43 C23.65 31.87 24.89 31.1 27 29 C27.55 26 27.55 26 27.61 22.36 C27.64 21.06 27.67 19.77 27.71 18.43 C27.72 17.06 27.74 15.68 27.75 14.31 C27.78 12.93 27.81 11.55 27.84 10.16 C27.91 6.77 27.96 3.39 28 0 C31.3 0 34.6 0 38 0 C38.12 4.13 38.21 8.25 38.27 12.38 C38.3 13.78 38.33 15.18 38.38 16.58 C38.81 30.83 38.81 30.83 34.36 36.6 C30.16 40.91 24.82 42.21 18.94 42.5 C12.61 42.21 7.97 40.08 3.62 35.5 C0.57 30.8 -0.25 27.98 -0.2 22.27 C-0.19 20.97 -0.18 19.67 -0.18 18.34 C-0.16 16.98 -0.14 15.61 -0.12 14.25 C-0.11 12.87 -0.11 11.49 -0.1 10.11 C-0.07 6.74 -0.04 3.37 0 0 Z " fill="#0D2949" transform="translate(717,315)"/>
<path d="M0 0 C2.97 0 5.94 0 9 0 C9 5.94 9 11.88 9 18 C14.47 12.53 14.47 12.53 16.95 9.67 C25.25 0.45 25.25 0.45 30.29 -0.84 C32.98 -0.82 35.38 -0.61 38 0 C33.61 6.33 28.55 11.67 23 17 C24.57 22.31 28.06 25.98 31.56 30.12 C32.76 31.54 33.94 32.96 35.13 34.38 C35.66 35.01 36.18 35.63 36.72 36.27 C38 38 38 38 39 41 C34.75 41.85 31.22 42.08 27 41 C22.12 37.09 17.96 30.87 16 25 C15.61 25.41 15.61 25.41 13.62 27.5 C11 30 11 30 9 30 C9 33.63 9 37.26 9 41 C6.03 41 3.06 41 0 41 C0 27.47 0 13.94 0 0 Z " fill="#092242" transform="translate(97,315)"/>
<path d="M0 0 C1.91 0.82 1.91 0.82 4.59 2.32 C3.72 8.07 3.72 8.07 2.59 10.32 C1.44 9.99 0.28 9.66 -0.91 9.32 C-5.54 8.16 -10.98 7.11 -15.41 9.32 C-15.41 10.97 -15.41 12.62 -15.41 14.32 C-14.47 14.58 -13.52 14.83 -12.55 15.09 C-11.31 15.44 -10.06 15.78 -8.78 16.14 C-7.55 16.47 -6.32 16.81 -5.05 17.16 C3.68 19.95 3.68 19.95 6.59 24.32 C7.27 28.98 7.25 33.04 5.09 37.26 C-0.57 41.94 -6.42 42.88 -13.58 42.69 C-18.17 42.1 -22.38 40.6 -26.41 38.32 C-26.74 37.66 -27.07 37 -27.41 36.32 C-26.47 34.29 -25.47 32.29 -24.41 30.32 C-23.78 30.54 -23.15 30.76 -22.5 30.98 C-16.91 32.8 -12.29 33.84 -6.41 33.32 C-5.42 32.66 -4.43 32 -3.41 31.32 C-3.68 29.4 -3.68 29.4 -4.41 27.32 C-7.91 26.1 -11.35 25.24 -14.97 24.43 C-20.68 23 -23.2 21.32 -26.41 16.32 C-27.4 13.16 -27.32 10.52 -26.41 7.32 C-24.41 4.77 -22.15 3.03 -19.41 1.32 C-18.8 0.95 -18.19 0.57 -17.57 0.18 C-12.36 -1.89 -5.34 -1.5 0 0 Z " fill="#0E2747" transform="translate(943.40625,314.67578125)"/>
<path d="M0 0 C-0.33 2.31 -0.66 4.62 -1 7 C-4 8 -4 8 -6.69 7.06 C-10.99 5.68 -15.8 4.9 -20 7 C-20 8.65 -20 10.3 -20 12 C-18.83 12.3 -17.66 12.61 -16.46 12.92 C-14.91 13.34 -13.36 13.76 -11.81 14.19 C-11.04 14.38 -10.27 14.58 -9.48 14.78 C-4.39 16.2 -1.5 17.85 2 22 C2.33 22.33 2.66 22.66 3 23 C3.4 27.12 3.24 29.52 1.38 33.25 C-1.61 36.71 -4.45 38.65 -9.08 39.29 C-11.39 39.4 -13.68 39.41 -16 39.38 C-16.39 39.38 -16.39 39.38 -18.37 39.41 C-23.27 39.39 -26.8 38.8 -31 36 C-31.16 35.5 -31.16 35.5 -32 33 C-30.56 30.31 -30.56 30.31 -29 28 C-28.31 28.23 -27.62 28.46 -26.91 28.69 C-20.41 30.68 -15.69 31.21 -9 30 C-8.38 28.12 -8.38 28.12 -8 26 C-11.19 22.81 -15.74 22.56 -20.06 21.68 C-24.48 20.67 -27.1 19.72 -30 16 C-31.86 12.28 -31.47 7.69 -30.38 3.75 C-22.8 -5.89 -10.03 -4.16 0 0 Z " fill="#0D2645" transform="translate(210,317)"/>
<path d="M0 0 C-0.52 2.76 -1.11 5.33 -2 8 C-3.15 7.67 -4.31 7.34 -5.5 7 C-10.97 5.63 -16.56 5.19 -22 7 C-21.45 9.38 -21.45 9.38 -20 12 C-17.51 12.89 -15.38 13.46 -12.81 13.94 C-7.54 15.15 -2.93 16.27 0.95 20.23 C2.65 23.09 2.83 25.54 2.56 28.82 C1.47 33.07 -1.04 35.61 -4.62 38.14 C-8.33 39.48 -11.96 39.33 -15.88 39.31 C-16.67 39.33 -17.46 39.34 -18.27 39.36 C-23.25 39.37 -26.69 38.77 -31 36 C-32 34.06 -32 34.06 -32 32 C-31.37 30.65 -30.7 29.31 -30 28 C-29.3 28.22 -28.6 28.43 -27.88 28.66 C-14.29 32.64 -14.29 32.64 -9 30 C-8.38 27.44 -8.38 27.44 -8 25 C-9.07 24.77 -10.15 24.54 -11.25 24.3 C-26.93 20.78 -26.93 20.78 -31 16 C-32.07 10.9 -31.85 6.63 -29.44 2 C-20.71 -5.16 -9.9 -4.57 0 0 Z " fill="#0B2544" transform="translate(623,317)"/>
<path d="M0 0 C2.06 2.25 2.06 2.25 3 4 C1.35 5.65 -0.3 7.3 -2 9 C-6.75 7.12 -6.75 7.12 -9 6 C-13.92 5.47 -17.77 5.25 -22.06 7.88 C-25.49 11.64 -25.28 14.6 -25.21 19.52 C-24.93 22.77 -24.19 24.58 -22 27 C-18 29.4 -13.55 29.66 -9 29 C-8.11 28.46 -7.23 27.93 -6.31 27.38 C-4 26 -4 26 -1.31 26.56 C1.24 28.15 1.98 29.22 3 32 C-4.49 38.49 -11.31 38.87 -21.02 38.28 C-25.43 37.66 -28.16 35.25 -31 32 C-31.8 31.11 -32.61 30.23 -33.44 29.31 C-37.01 24.03 -36.41 18.14 -36 12 C-34.28 5.45 -30.38 1.82 -25 -2 C-16.84 -6.08 -7.56 -4.72 0 0 Z " fill="#0C2645" transform="translate(485,318)"/>
<path d="M0 0 C11.88 0 23.76 0 36 0 C36 2.64 36 5.28 36 8 C31.71 8 27.42 8 23 8 C23 18.89 23 29.78 23 41 C19.7 41 16.4 41 13 41 C13 30.11 13 19.22 13 8 C8.71 8 4.42 8 0 8 C0 5.36 0 2.72 0 0 Z " fill="#092544" transform="translate(760,315)"/>
<path d="M0 0 C3.3 0 6.6 0 10 0 C10 10.89 10 21.78 10 33 C16.93 33 23.86 33 31 33 C31 35.64 31 38.28 31 41 C20.77 41 10.54 41 0 41 C0 27.47 0 13.94 0 0 Z " fill="#0C2746" transform="translate(540,315)"/>
<path d="M0 0 C3.3 0 6.6 0 10 0 C10 10.89 10 21.78 10 33 C16.6 33 23.2 33 30 33 C30 35.64 30 38.28 30 41 C20.1 41 10.2 41 0 41 C0 27.47 0 13.94 0 0 Z " fill="#0A2441" transform="translate(682,315)"/>
<path d="M0 0 C3.67 2.22 5.63 4.9 7 9 C7.4 14.24 6.84 17.54 4 22 C0.1 25.61 -3.17 25.56 -8.3 25.42 C-12.61 24.75 -14.16 23.28 -17 20 C-19.22 16.43 -19.36 13.21 -18.64 9.07 C-15.79 -0.11 -8.94 -1.98 0 0 Z " fill="#F2F6F7" transform="translate(658,323)"/>
<path d="M0 0 C4.14 2.07 6.27 3.75 8 8 C8.74 12.71 8.42 16.17 6.25 20.44 C2.85 24.3 1.33 24.87 -3.81 25.38 C-8.49 25.25 -11.22 23.72 -15 21 C-17.61 16.85 -17.69 12.76 -17 8 C-12.89 0.21 -8.32 -1.06 0 0 Z " fill="#F3F7F7" transform="translate(244,323)"/>
<path d="M0 0 C3.8 1.62 5.82 3.54 8 7 C8.79 11.36 9.04 16.01 6.95 20.02 C4.48 23.02 2.46 24.79 -1.39 25.34 C-8.97 25.76 -8.97 25.76 -12.02 23.51 C-16.12 18.7 -17.44 15.43 -17 9 C-15.75 6.31 -15.75 6.31 -14 4 C-13.48 3.24 -12.97 2.47 -12.44 1.69 C-8.54 -1.01 -4.58 -0.62 0 0 Z " fill="#F4F7F8" transform="translate(845,323)"/>
<path d="M0 0 C14.26 -0.59 14.26 -0.59 20 4 C22.56 8.17 22.82 12.23 22 17 C19.97 20.83 17.05 23.47 13 25 C9.77 25.2 9.77 25.2 6.25 25.12 C5.22 25.1 5.22 25.1 0 25 C0 16.75 0 8.5 0 0 Z " fill="#F2F6F7" transform="translate(393,323)"/>
<path d="M0 0 C3.3 0 6.6 0 10 0 C10 13.53 10 27.06 10 41 C6.7 41 3.4 41 0 41 C0 27.47 0 13.94 0 0 Z " fill="#092746" transform="translate(801,315)"/>
<path d="M0 0 C3.3 0 6.6 0 10 0 C10 13.53 10 27.06 10 41 C6.7 41 3.4 41 0 41 C0 27.47 0 13.94 0 0 Z " fill="#0E2747" transform="translate(432,315)"/>
<path d="M0 0 C2.57 2.16 3.78 3.78 4.38 7.12 C4.59 11.18 4.11 13.74 2.44 17.5 C-0.66 20.68 -2.63 20.92 -7 21 C-7.66 20.67 -8.32 20.34 -9 20 C-9.33 23.3 -9.66 26.6 -10 30 C-11.65 30 -13.3 30 -15 30 C-15 20.1 -15 10.2 -15 0 C-14.18 0.17 -14.18 0.17 -10 1 C-9.36 0.67 -8.72 0.34 -8.06 0 C-5 -1.49 -3.2 -1 0 0 Z " fill="#373736" transform="translate(502,399)"/>
<path d="M0 0 C1.32 0 2.64 0 4 0 C4 9.9 4 19.8 4 30 C-0.62 30 -5.24 30 -10 30 C-14.55 24.31 -14.55 24.31 -14.5 18.94 C-14.51 18.43 -14.51 18.43 -14.53 15.84 C-13.87 12.31 -12.86 11.12 -10 9 C-6.61 8.3 -3.13 8.44 0 10 C0 6.7 0 3.4 0 0 Z " fill="#404140" transform="translate(450,436)"/>
<path d="M0 0 C0.99 0 1.98 0 3 0 C3.33 3.3 3.66 6.6 4 10 C4.66 9.67 5.32 9.34 6 9 C13.06 8.32 13.06 8.32 16.5 10.81 C18.73 15.55 18.88 19.86 18 25 C15.94 28.19 15.94 28.19 13 30 C9.38 30.31 9.38 30.31 6 30 C5.01 30 4.02 30 3 30 C2.01 30 1.02 30 0 30 C0 20.1 0 10.2 0 0 Z " fill="#323232" transform="translate(280,482)"/>
<path d="M0 0 C1.32 0.33 2.64 0.66 4 1 C4.66 0.67 5.32 0.34 6 0 C10.18 -0.47 12.33 -0.42 15.94 1.81 C18.96 6.48 18.85 10.59 18 16 C16.5 19.19 16.5 19.19 14 21 C9.72 21.79 6.69 21.46 3 19 C3 22.63 3 26.26 3 30 C2.01 30 1.02 30 0 30 C0 20.1 0 10.2 0 0 Z " fill="#2D2D2D" transform="translate(689,491)"/>
<path d="M0 0 C0.99 0 1.98 0 3 0 C3 9.9 3 19.8 3 30 C2.01 30 1.02 30 0 30 C0 29.34 0 28.68 0 28 C-0.99 28.66 -1.98 29.32 -3 30 C-6.57 30.55 -9.9 30.75 -12.94 28.69 C-15.76 24.2 -15.56 19.1 -15 14 C-13.5 10.88 -13.5 10.88 -11 9 C-6.72 8.2 -3.68 8.55 0 11 C0 7.37 0 3.74 0 0 Z " fill="#2B2B2B" transform="translate(745,436)"/>
<path d="M0 0 C0.99 0 1.98 0 3 0 C3 9.57 3 19.14 3 29 C2.34 29 1.68 29 1 29 C1 28.34 1 27.68 1 27 C0.46 27.5 -0.07 27.99 -0.62 28.5 C-3.72 30.45 -5.39 30.52 -9 30 C-12.34 27.85 -13.73 26.8 -15 23 C-15.38 18.32 -15.36 15.84 -13.5 11.5 C-10.83 8.83 -10.47 8.6 -6.94 8.5 C-3 9 -3 9 0 11 C0 7.37 0 3.74 0 0 Z " fill="#1C1C1C" transform="translate(579,436)"/>
<path d="M0 0 C2.9 0.72 4.66 2.16 6.35 4.62 C7.89 8.26 7.95 11.7 7.16 15.54 C5.37 18.41 4.18 20.03 1.16 21.54 C-5.98 22 -5.98 22 -9.28 20.23 C-12.49 16.76 -12.24 12.47 -12.17 7.99 C-11.84 5.54 -11.84 5.54 -9.9 2.41 C-6.36 0.24 -4.11 -0.26 0 0 Z " fill="#F0F0F0" transform="translate(374.83984375,490.4609375)"/>
<path d="M0 0 C2.5 1.88 3.62 3.24 5 6 C5.35 11.34 5.46 14.65 2 19 C-1.18 21.12 -3.19 21.56 -6.99 21.43 C-9.84 20.82 -11.5 19.34 -13.15 16.98 C-14.85 13.02 -14.84 9.19 -14 5 C-10.56 -0.54 -6.09 -1.26 0 0 Z " fill="#EEEEEE" transform="translate(395,445)"/>
<path d="M0 0 C2.73 0.52 4.24 1.32 6.09 3.4 C7.62 7.98 8.19 12.76 6.29 17.32 C4.58 19.79 2.82 21.22 -0.11 21.94 C-2.56 22.09 -4.52 22.01 -6.91 21.4 C-10.44 18.05 -11.8 15.46 -12.29 10.65 C-12.22 7.52 -11.76 5.48 -9.97 2.9 C-6.35 -0.06 -4.54 -0.32 0 0 Z " fill="#F1F1F1" transform="translate(831.91015625,444.6015625)"/>
<path d="M0 0 C3.18 2.64 4.7 4.18 5.38 8.26 C5.48 12.38 5.23 15.44 3 19 C-0.98 21.66 -4.31 21.86 -9 21 C-12.56 17.61 -13.91 15.06 -14.31 10.19 C-14.28 6.91 -14 5.99 -12.19 3.06 C-8.5 -0.42 -4.91 -0.59 0 0 Z " fill="#F0F0F0" transform="translate(457,491)"/>
<path d="M0 0 C2.73 0.52 4.24 1.32 6.09 3.4 C7.61 7.96 8.26 12.82 6.22 17.32 C3.96 20.43 2.37 21.35 -1.41 21.96 C-5.74 21.27 -8.49 20.22 -11.22 16.71 C-12.47 12.51 -12.86 8.59 -11.11 4.55 C-8.06 0.12 -4.98 -0.35 0 0 Z " fill="#F0F0EE" transform="translate(156.91015625,444.6015625)"/>
<path d="M0 0 C2.72 2.02 3.55 4.35 4.06 7.65 C4.18 12.1 4.14 14.55 1.69 18.38 C-1.63 20.45 -3.53 21.01 -7.38 20.72 C-10.95 19.85 -12.29 18.25 -14.31 15.25 C-15.83 10.4 -15.85 7.3 -13.5 2.75 C-9.73 -1.56 -5.43 -1.76 0 0 Z " fill="#F2F2F2" transform="translate(546.3125,491.75)"/>
<path d="M0 0 C3.84 0.11 4.57 0.41 7.75 2.94 C10.03 6.28 10.36 9.39 10.1 13.38 C9.44 16.79 8.4 18.33 5.69 20.5 C1.66 21.84 -1.28 21.95 -5.19 20.25 C-7.31 18.5 -7.31 18.5 -9.31 15.5 C-9.75 10.09 -9.71 6.94 -6.31 2.5 C-3.95 0.14 -3.24 0.13 0 0 Z " fill="#ECECEA" transform="translate(917.3125,444.5)"/>
<path d="M0 0 C0.99 0.33 1.98 0.66 3 1 C3.99 0.34 4.98 -0.32 6 -1 C12.12 -0.78 12.12 -0.78 14.71 1.51 C16.63 5.22 16.32 8.64 16.19 12.75 C16.18 13.15 16.18 13.15 16.15 15.15 C16.11 17.1 16.06 19.05 16 21 C14.35 21 12.7 21 11 21 C10.67 15.39 10.34 9.78 10 4 C8.35 4 6.7 4 5 4 C2.94 6.06 3.59 10.22 3.44 13.06 C3.39 13.82 3.35 14.58 3.31 15.36 C3.2 17.24 3.1 19.12 3 21 C1.68 21 0.36 21 -1 21 C-1.06 19.86 -1.12 18.71 -1.18 17.54 C-1.27 16.04 -1.35 14.55 -1.44 13.06 C-1.48 12.31 -1.52 11.55 -1.56 10.78 C-1.89 5.11 -1.89 5.11 -3 4 C-4.67 3.96 -6.33 3.96 -8 4 C-9.48 6.96 -9.35 9.84 -9.56 13.12 C-9.65 14.41 -9.73 15.69 -9.82 17.01 C-9.88 18 -9.94 18.98 -10 20 C-11.32 20 -12.64 20 -14 20 C-14 13.4 -14 6.8 -14 0 C-13.01 0 -12.02 0 -11 0 C-11 0.66 -11 1.32 -11 2 C-10.3 1.48 -9.6 0.97 -8.88 0.44 C-5.34 -1.33 -3.76 -0.98 0 0 Z " fill="#393937" transform="translate(159,399)"/>
<path d="M0 0 C0.99 0 1.98 0 3 0 C3.33 0.66 3.66 1.32 4 2 C4.66 1.34 5.32 0.68 6 0 C10.14 -0.2 13.08 -0.31 17 1 C17.66 0.67 18.32 0.34 19 0 C26.4 -0.47 26.4 -0.47 28.6 1.26 C30.34 3.42 30.35 4.48 30.29 7.23 C30.28 8.03 30.27 8.84 30.26 9.66 C30.24 10.5 30.21 11.33 30.19 12.19 C30.18 12.61 30.18 12.61 30.15 14.75 C30.11 16.83 30.06 18.92 30 21 C28.68 21 27.36 21 26 21 C26 15.06 26 9.12 26 3 C23.36 3 20.72 3 18 3 C17.67 8.94 17.34 14.88 17 21 C15.68 21 14.36 21 13 21 C13 15.06 13 9.12 13 3 C7 3 7 3 5 4 C4.67 9.61 4.34 15.22 4 21 C2.68 21 1.36 21 0 21 C0 14.07 0 7.14 0 0 Z " fill="#494949" transform="translate(169,445)"/>
<path d="M0 0 C2.65 1.99 4.7 3.55 5.4 6.91 C5.49 9.07 5.44 11.16 5.31 13.31 C5.29 14.05 5.27 14.79 5.24 15.56 C5.19 17.37 5.1 19.19 5 21 C4.22 20.82 3.43 20.63 2.62 20.44 C-0.49 19.92 -1.29 20.56 -4 22 C-6.5 22.44 -6.5 22.44 -9 22 C-11.38 19.81 -11.38 19.81 -13 17 C-13.06 14.38 -13.06 14.38 -12 12 C-8.3 8.95 -4.69 8.46 0 8 C-0.33 7.01 -0.66 6.02 -1 5 C-3.97 5 -6.94 5 -10 5 C-9.67 3.68 -9.34 2.36 -9 1 C-5.64 -0.12 -3.52 -0.42 0 0 Z " fill="#7D7D7B" transform="translate(522,398)"/>
<path d="M0 0 C2.24 0.95 2.24 0.95 4 3 C4.5 6.07 4.37 9.08 4.25 12.19 C4.23 13.03 4.21 13.88 4.2 14.75 C4.15 16.83 4.08 18.92 4 21 C3.01 21 2.02 21 1 21 C1 20.34 1 19.68 1 19 C0.32 19.52 -0.36 20.03 -1.06 20.56 C-4.85 22.41 -6.97 21.99 -11 21 C-13 19 -13 19 -13.38 15.56 C-13 12 -13 12 -11.56 10.06 C-7.74 8.48 -4.08 8.76 0 9 C-0.17 8.18 -0.17 8.18 -1 4 C-2.49 4.17 -2.49 4.17 -10 5 C-10.33 4.01 -10.66 3.02 -11 2 C-7.39 -0.4 -4.21 -0.75 0 0 Z " fill="#2C2C2C" transform="translate(438,398)"/>
<path d="M0 0 C2.97 3.33 2.25 6.95 2.08 11.24 C2.06 12.09 2.05 12.93 2.03 13.8 C1.98 15.89 1.91 17.97 1.83 20.05 C-0.25 20.33 -2.33 20.57 -4.42 20.8 C-5.58 20.94 -6.74 21.08 -7.93 21.23 C-11.17 21.05 -11.17 21.05 -13.56 19.26 C-15.17 17.05 -15.17 17.05 -15.67 13.99 C-15.17 11.05 -15.17 11.05 -13.73 9.18 C-9.92 7.51 -6.27 7.82 -2.17 8.05 C-2.5 6.73 -2.83 5.41 -3.17 4.05 C-6.14 4.05 -9.11 4.05 -12.17 4.05 C-12.5 3.06 -12.83 2.07 -13.17 1.05 C-8.67 -1.06 -4.71 -2.05 0 0 Z " fill="#7E7E7E" transform="translate(562.16796875,398.9453125)"/>
<path d="M0 0 C2.71 0.95 2.71 0.95 5 3 C5.63 6.08 5.47 9.06 5.31 12.19 C5.29 13.03 5.27 13.88 5.24 14.75 C5.19 16.83 5.1 18.92 5 21 C4.54 20.99 4.54 20.99 2.2 20.96 C-1 21 -1 21 -4.12 21.62 C-7 22 -7 22 -9.31 21.5 C-11 20 -11 20 -12 16.62 C-12 13 -12 13 -10.62 10.56 C-6.81 8.29 -3.34 8.67 1 9 C0.67 7.68 0.34 6.36 0 5 C-2.97 5 -5.94 5 -9 5 C-9.33 4.01 -9.66 3.02 -10 2 C-6.27 -0.48 -4.41 -0.38 0 0 Z " fill="#565653" transform="translate(252,398)"/>
<path d="M0 0 C3.77 2.71 4.84 4.25 5.81 8.81 C5.87 9.86 5.94 10.92 6 12 C1.38 12 -3.24 12 -8 12 C-7.67 13.65 -7.34 15.3 -7 17 C-3.04 17 0.92 17 5 17 C4.67 18.32 4.34 19.64 4 21 C-4 22.45 -4 22.45 -7.94 20.69 C-11.94 17.41 -11.94 17.41 -12.37 14.36 C-12.55 5.87 -12.55 5.87 -9.94 1.75 C-6.21 -0.47 -4.27 -0.76 0 0 Z " fill="#2E2E2D" transform="translate(192,398)"/>
<path d="M0 0 C2.44 2.19 2.44 2.19 4 5 C4 6.98 4 8.96 4 11 C-0.62 11 -5.24 11 -10 11 C-9.01 12.65 -8.02 14.3 -7 16 C-4.52 16.49 -4.52 16.49 -1.81 16.31 C-0.91 16.27 -0.01 16.22 0.92 16.18 C1.61 16.12 2.29 16.06 3 16 C3 17.32 3 18.64 3 20 C-6.93 21.6 -6.93 21.6 -11.12 19.25 C-14.26 15.48 -14.34 11.93 -14.29 7.23 C-13.86 3.9 -12.43 2.22 -10 0 C-6.17 -1.28 -3.91 -0.96 0 0 Z " fill="#61615F" transform="translate(82,399)"/>
<path d="M0 0 C2.67 1.98 4.69 3.53 5.4 6.91 C5.49 9.07 5.44 11.16 5.31 13.31 C5.29 14.05 5.27 14.79 5.24 15.56 C5.19 17.37 5.1 19.19 5 21 C4.01 21 3.02 21 2 21 C2 20.34 2 19.68 2 19 C1.32 19.52 0.64 20.03 -0.06 20.56 C-3.85 22.41 -5.97 21.99 -10 21 C-12 19 -12 19 -12.44 15.56 C-12 12 -12 12 -9.94 10.12 C-6.62 8.85 -3.53 8.35 0 8 C0 7.01 0 6.02 0 5 C-2.97 5 -5.94 5 -9 5 C-9.33 4.01 -9.66 3.02 -10 2 C-6.25 -0.5 -4.44 -0.54 0 0 Z " fill="#272727" transform="translate(687,398)"/>
<path d="M0 0 C2.96 3.33 2.25 6.96 2.08 11.25 C2.06 12.09 2.04 12.94 2.02 13.81 C1.98 15.89 1.9 17.97 1.83 20.06 C1.21 19.87 0.58 19.69 -0.06 19.5 C-2.17 19.06 -2.17 19.06 -3.98 20.06 C-7.32 21.58 -9.7 20.96 -13.17 20.06 C-15.35 17.61 -15.18 16.21 -15.05 12.93 C-14.17 10.06 -14.17 10.06 -12.61 8.68 C-9.07 7.78 -5.82 7.94 -2.17 8.06 C-2.5 6.74 -2.83 5.42 -3.17 4.06 C-6.14 4.06 -9.11 4.06 -12.17 4.06 C-12.17 2.74 -12.17 1.42 -12.17 0.06 C-8.03 -1.22 -4.06 -1.76 0 0 Z " fill="#797977" transform="translate(594.171875,398.94140625)"/>
<path d="M0 0 C5.28 0 10.56 0 16 0 C16 1.32 16 2.64 16 4 C12.37 4 8.74 4 5 4 C5 6.31 5 8.62 5 11 C8.3 11 11.6 11 15 11 C15 12.32 15 13.64 15 15 C11.7 15 8.4 15 5 15 C5 17.97 5 20.94 5 24 C8.63 24 12.26 24 16 24 C16 24.99 16 25.98 16 27 C10.72 27 5.44 27 0 27 C0 18.09 0 9.18 0 0 Z " fill="#353534" transform="translate(292,392)"/>
<path d="M0 0 C3.16 1.74 4.44 3.1 6.31 6.12 C7.7 11.91 7.96 17.04 5.31 22.44 C2.49 25.57 0.36 27.65 -3.92 28.28 C-8.4 28.48 -11.49 28.01 -15 25 C-18.48 20.32 -18.56 15.5 -18.43 9.86 C-17.78 5.52 -16.25 3.86 -13 1 C-9.06 -0.97 -4.3 -0.45 0 0 Z M-13.62 4.88 C-15.58 9.31 -15.67 13.23 -15 18 C-13.61 21.02 -12.33 22.67 -10 25 C-5.35 25.53 -3.09 25.61 1 23.31 C4.07 18.23 4.07 12.79 3 7 C1.02 4.28 -0.15 3.2 -3.44 2.43 C-10.22 2.44 -10.22 2.44 -13.62 4.88 Z " fill="#3A3A3A" transform="translate(66,438)"/>
<path d="M0 0 C1.6 -0.08 3.21 -0.14 4.81 -0.19 C5.26 -0.2 5.26 -0.2 7.52 -0.29 C10 0 10 0 11.64 1.27 C13.3 3.38 13.35 4.36 13.29 7.01 C13.28 7.77 13.27 8.53 13.26 9.31 C13.24 10.09 13.21 10.88 13.19 11.69 C13.18 12.09 13.18 12.09 13.15 14.1 C13.11 16.07 13.06 18.03 13 20 C12.38 19.79 11.76 19.59 11.12 19.38 C10.42 19.25 9.72 19.13 9 19 C8.34 19.66 7.68 20.32 7 21 C-0.01 21.56 -0.01 21.56 -3 19.88 C-4.42 17.21 -4.2 14.97 -4 12 C0.98 8.75 3.88 7.5 10 8 C9.34 6.35 8.68 4.7 8 3 C4.66 2.93 2.2 2.93 -1 4 C-0.67 2.68 -0.34 1.36 0 0 Z " fill="#8C8C8C" transform="translate(482,445)"/>
<path d="M0 0 C0.78 -0.03 1.56 -0.05 2.37 -0.08 C5.14 0.34 5.84 1.08 7.56 3.25 C7.9 5.24 7.9 5.24 7.86 7.48 C7.85 8.28 7.84 9.09 7.83 9.91 C7.8 10.75 7.78 11.58 7.75 12.44 C7.74 12.86 7.74 12.86 7.71 15 C7.67 17.08 7.62 19.17 7.56 21.25 C6.57 21.25 5.58 21.25 4.56 21.25 C4.23 20.59 3.9 19.93 3.56 19.25 C2.9 19.91 2.24 20.57 1.56 21.25 C-5.57 21.93 -5.57 21.93 -8.5 19.62 C-9.77 16.42 -9.43 14.52 -8.44 11.25 C-5.12 9.04 -4.09 9.03 -0.25 9.12 C0.65 9.14 1.55 9.16 2.48 9.18 C3.17 9.2 3.85 9.23 4.56 9.25 C3.88 6.81 3.88 6.81 2.56 4.25 C-0.74 3.03 -3.13 3.15 -6.44 4.25 C-6.44 3.26 -6.44 2.27 -6.44 1.25 C-4.11 0.09 -2.59 0.05 0 0 Z " fill="#2D2D2D" transform="translate(266.4375,490.75)"/>
<path d="M0 0 C3.27 0.27 4.17 0.81 7 2.81 C9 5.69 9 5.69 9 11.69 C4.38 11.69 -0.24 11.69 -5 11.69 C-3 16.69 -3 16.69 -2 17.69 C-0.31 17.76 1.38 17.77 3.06 17.75 C3.98 17.74 4.9 17.73 5.85 17.72 C6.56 17.71 7.27 17.7 8 17.69 C8 18.68 8 19.67 8 20.69 C4.52 22.43 0.79 22.28 -3 21.69 C-6.28 19.16 -7.69 17.61 -9 13.69 C-9.5 9.23 -9.28 7.17 -7 3.25 C-3.47 0.24 -3.47 0.24 0 0 Z " fill="#5F5F5E" transform="translate(551,444.3125)"/>
<path d="M0 0 C1.32 0.33 2.64 0.66 4 1 C4.33 0.67 4.66 0.34 5 0 C6.44 -0.07 7.88 -0.08 9.31 -0.06 C10.09 -0.05 10.87 -0.04 11.68 -0.04 C12.06 -0.03 12.06 -0.03 14 0 C16.1 0 18.19 -0.01 20.29 -0.11 C21.06 -0.13 21.83 -0.16 22.62 -0.19 C23.01 -0.2 23.01 -0.2 24.98 -0.29 C25.31 -0.24 25.31 -0.24 27 0 C29.03 3.05 29.25 3.6 29.2 7.01 C29.19 7.77 29.18 8.53 29.18 9.31 C29.16 10.09 29.14 10.88 29.12 11.69 C29.12 12.48 29.11 13.28 29.1 14.1 C29.07 16.07 29.04 18.03 29 20 C28.01 20 27.02 20 26 20 C25.67 14.72 25.34 9.44 25 4 C20 3 20 3 18.23 3.96 C16.38 7.03 16.43 10.19 16.31 13.69 C16.28 14.39 16.24 15.09 16.21 15.81 C16.13 17.54 16.06 19.27 16 21 C15.01 21 14.02 21 13 21 C12.67 15.39 12.34 9.78 12 4 C7 3 7 3 4 5 C3.62 7.61 3.4 10.01 3.31 12.62 C3.28 13.33 3.24 14.04 3.21 14.77 C3.13 16.51 3.06 18.25 3 20 C2.01 20 1.02 20 0 20 C0 13.4 0 6.8 0 0 Z " fill="#353535" transform="translate(264,445)"/>
<path d="M0 0 C1.32 0.33 2.64 0.66 4 1 C4.66 0.67 5.32 0.34 6 0 C8.67 -0.13 11.32 -0.04 14 0 C14.33 0.99 14.66 1.98 15 3 C15.66 3 16.32 3 17 3 C17.33 2.01 17.66 1.02 18 0 C25.53 -0.37 25.53 -0.37 27.61 1.27 C29.3 3.38 29.35 4.34 29.29 7.01 C29.28 7.77 29.27 8.53 29.26 9.31 C29.24 10.09 29.21 10.88 29.19 11.69 C29.18 12.09 29.18 12.09 29.15 14.1 C29.11 16.07 29.06 18.03 29 20 C28.01 20 27.02 20 26 20 C25.67 14.72 25.34 9.44 25 4 C20 3 20 3 18.23 3.96 C16.38 7.03 16.43 10.19 16.31 13.69 C16.28 14.39 16.24 15.09 16.21 15.81 C16.13 17.54 16.06 19.27 16 21 C15.01 21 14.02 21 13 21 C12.67 15.39 12.34 9.78 12 4 C7 3 7 3 5.23 3.96 C3.38 7.03 3.43 10.19 3.31 13.69 C3.28 14.39 3.24 15.09 3.21 15.81 C3.13 17.54 3.06 19.27 3 21 C2.01 21 1.02 21 0 21 C0 14.07 0 7.14 0 0 Z " fill="#242422" transform="translate(205,445)"/>
<path d="M0 0 C1.79 -0.08 3.58 -0.14 5.38 -0.19 C5.87 -0.2 5.87 -0.2 8.4 -0.29 C9.26 -0.2 10.12 -0.1 11 0 C13.03 3.05 13.25 3.6 13.2 7.01 C13.19 7.77 13.18 8.53 13.18 9.31 C13.16 10.09 13.14 10.88 13.12 11.69 C13.12 12.48 13.11 13.28 13.1 14.1 C13.07 16.07 13.04 18.03 13 20 C12.2 19.98 11.39 19.96 10.56 19.94 C8 20 8 20 7 21 C0.79 21.46 0.79 21.46 -1.94 19.88 C-3.52 17.08 -3.46 15.15 -3 12 C-0.59 8.96 2.08 8.74 5.75 8.31 C7.17 8.2 8.58 8.09 10 8 C9.34 6.35 8.68 4.7 8 3 C6.51 3.17 6.51 3.17 -1 4 C-0.67 2.68 -0.34 1.36 0 0 Z " fill="#979797" transform="translate(417,445)"/>
<path d="M0 0 C1.6 -0.08 3.21 -0.14 4.81 -0.19 C5.26 -0.2 5.26 -0.2 7.52 -0.29 C10 0 10 0 11.64 1.25 C13.33 3.42 13.35 4.51 13.29 7.23 C13.28 8.03 13.27 8.84 13.26 9.66 C13.24 10.5 13.21 11.33 13.19 12.19 C13.18 12.61 13.18 12.61 13.15 14.75 C13.11 16.83 13.06 18.92 13 21 C12.01 21 11.02 21 10 21 C9.67 20.34 9.34 19.68 9 19 C8.34 19.66 7.68 20.32 7 21 C3.08 21.44 0.85 21.55 -2.5 19.38 C-4 17 -4 17 -3.94 13.88 C-3 11 -3 11 0 9 C2.48 8.8 2.48 8.8 5.19 8.88 C6.09 8.89 6.99 8.91 7.92 8.93 C8.61 8.95 9.29 8.98 10 9 C9.34 7.02 8.68 5.04 8 3 C5.03 3 2.06 3 -1 3 C-0.67 2.01 -0.34 1.02 0 0 Z " fill="#292929" transform="translate(688,445)"/>
<path d="M0 0 C5.06 0.35 5.06 0.35 7.62 2.25 C9.9 5.55 9.62 6.94 9.62 11.25 C4.67 11.25 -0.27 11.25 -5.38 11.25 C-4.38 13.23 -3.39 15.21 -2.38 17.25 C1.25 17.25 4.88 17.25 8.62 17.25 C8.62 18.24 8.62 19.23 8.62 20.25 C5.17 21.98 1.41 21.74 -2.38 21.25 C-5.25 19.46 -6.87 18.27 -8.38 15.25 C-8.73 9.85 -8.77 6.69 -5.38 2.25 C-3.38 0.25 -3.38 0.25 0 0 Z " fill="#7F7F7F" transform="translate(588.375,490.75)"/>
<path d="M0 0 C0.68 -0.03 1.36 -0.05 2.06 -0.08 C4.63 0.36 5.38 1.23 7 3.25 C7.34 5.24 7.34 5.24 7.29 7.48 C7.28 8.28 7.27 9.09 7.26 9.91 C7.24 10.75 7.21 11.58 7.19 12.44 C7.18 12.86 7.18 12.86 7.15 15 C7.11 17.08 7.06 19.17 7 21.25 C6.38 21.06 5.76 20.88 5.12 20.69 C3 20.25 3 20.25 1 21.25 C-0.88 21.42 -0.88 21.42 -3 21.44 C-3.35 21.44 -3.35 21.44 -5.12 21.48 C-7 21.25 -7 21.25 -9 19.25 C-9.56 13.06 -9.56 13.06 -7.8 10.54 C-5.37 8.8 -3.77 8.95 -0.81 9.06 C0.09 9.09 0.99 9.12 1.92 9.14 C2.26 9.16 2.26 9.16 4 9.25 C3.34 7.27 2.68 5.29 2 3.25 C0.51 3.42 0.51 3.42 -7 4.25 C-7 3.26 -7 2.27 -7 1.25 C-4.39 0.38 -2.69 0.06 0 0 Z " fill="#2D2D2D" transform="translate(721,490.75)"/>
<path d="M0 0 C0.89 -0.01 1.77 -0.03 2.69 -0.04 C5 0.19 5 0.19 7 2.19 C7.23 4.07 7.23 4.07 7.2 6.32 C7.19 7.13 7.18 7.93 7.18 8.76 C7.16 9.6 7.14 10.45 7.12 11.31 C7.12 12.16 7.11 13.01 7.1 13.89 C7.07 15.99 7.04 18.09 7 20.19 C5.09 20.46 3.17 20.71 1.25 20.94 C0.18 21.08 -0.88 21.22 -1.98 21.36 C-5 21.19 -5 21.19 -7.36 19.36 C-9 17.19 -9 17.19 -9.56 14.69 C-9 12.19 -9 12.19 -7 9.88 C-3 7.62 -0.54 7.88 4 8.19 C3.34 6.54 2.68 4.89 2 3.19 C-0.97 3.19 -3.94 3.19 -7 3.19 C-7 2.53 -7 1.87 -7 1.19 C-4.52 -0.05 -2.76 0.02 0 0 Z " fill="#646463" transform="translate(872,444.8125)"/>
<path d="M0 0 C1.79 -0.05 3.58 -0.09 5.38 -0.12 C6.37 -0.15 7.37 -0.17 8.4 -0.2 C11 0 11 0 13 2 C13.23 3.88 13.23 3.88 13.2 6.13 C13.19 6.94 13.18 7.74 13.18 8.57 C13.16 9.42 13.14 10.26 13.12 11.12 C13.12 11.97 13.11 12.82 13.1 13.7 C13.07 15.8 13.04 17.9 13 20 C11.68 20 10.36 20 9 20 C8.34 20.33 7.68 20.66 7 21 C3.38 21.39 1.64 21.45 -1.38 19.31 C-3 17 -3 17 -3.62 14.5 C-3 12 -3 12 -0.44 9.69 C3.38 7.81 5.8 7.66 10 8 C9.34 6.35 8.68 4.7 8 3 C5.36 3.33 2.72 3.66 0 4 C0 2.68 0 1.36 0 0 Z " fill="#8A8A89" transform="translate(619,445)"/>
<path d="M0 0 C2.34 0.57 2.34 0.57 4.15 2.16 C5.34 4.57 5.34 4.57 5.34 11.57 C0.72 11.57 -3.9 11.57 -8.66 11.57 C-6.66 16.57 -6.66 16.57 -4.66 17.57 C-3.12 17.64 -1.58 17.65 -0.04 17.63 C0.78 17.62 1.6 17.61 2.44 17.6 C3.07 17.59 3.69 17.58 4.34 17.57 C4.34 18.56 4.34 19.55 4.34 20.57 C0.6 21.81 -2.79 22.33 -6.66 21.57 C-10.07 18.87 -11.34 17.36 -12.1 13.12 C-12.29 9.06 -11.93 6.18 -10.29 2.44 C-6.8 -0.05 -4.2 0.01 0 0 Z " fill="#7D7D7C" transform="translate(664.66015625,444.43359375)"/>
<path d="M0 0 C2.63 0.58 3.54 1.3 5.12 3.47 C5.79 6.14 5.89 8.71 6.12 11.47 C1.5 11.47 -3.12 11.47 -7.88 11.47 C-5.88 16.47 -5.88 16.47 -4.88 17.47 C-3.19 17.54 -1.5 17.55 0.18 17.53 C1.1 17.52 2.02 17.51 2.97 17.5 C3.68 17.49 4.39 17.48 5.12 17.47 C5.12 18.46 5.12 19.45 5.12 20.47 C1.42 21.7 -2.03 22.05 -5.88 21.47 C-8.31 19.6 -9.52 18.19 -10.88 15.47 C-11.39 10.72 -11.45 6.72 -9.44 2.34 C-6.17 -0.05 -3.97 -0.05 0 0 Z " fill="#717171" transform="translate(309.87890625,444.53125)"/>
<path d="M0 0 C2.06 1.69 2.06 1.69 3 4 C3 5.98 3 7.96 3 10 C-1.62 10 -6.24 10 -11 10 C-10.34 11.98 -9.68 13.96 -9 16 C-5.37 16.33 -1.74 16.66 2 17 C1.67 17.99 1.34 18.98 1 20 C-3.72 20.33 -7.72 20.54 -12.12 18.69 C-15.12 14.4 -14.7 10.06 -14 5 C-10.95 -1.92 -6.75 -1.58 0 0 Z " fill="#5A5A5A" transform="translate(327,492)"/>
<path d="M0 0 C2.03 0.64 2.03 0.64 4.09 2.33 C5.03 4.64 5.03 4.64 5.03 10.64 C0.41 10.64 -4.21 10.64 -8.97 10.64 C-8.31 12.62 -7.65 14.6 -6.97 16.64 C-3.34 16.97 0.29 17.3 4.03 17.64 C3.7 18.63 3.37 19.62 3.03 20.64 C-1.93 21.07 -5.71 21.38 -10.1 18.83 C-12.86 14.13 -12.94 9.96 -11.97 4.64 C-8.82 -0.64 -5.68 -1.02 0 0 Z " fill="#858585" transform="translate(162.97265625,491.359375)"/>
<path d="M0 0 C4.1 0.73 5.77 1.49 8.5 4.62 C9.31 8.38 9.31 8.38 9.5 11.62 C4.88 11.62 0.26 11.62 -4.5 11.62 C-3.84 13.61 -3.18 15.58 -2.5 17.62 C0.94 18.25 3.99 18.62 7.5 18.62 C7.17 19.62 6.84 20.61 6.5 21.62 C-1.47 22.25 -1.47 22.25 -5.5 19.81 C-8.58 16.45 -8.91 13.2 -8.84 8.7 C-8.01 3.62 -5.07 0.91 0 0 Z " fill="#5E5E5E" transform="translate(224.5,490.375)"/>
<path d="M0 0 C2.94 2.12 2.94 2.12 5 5 C5 6.98 5 8.96 5 11 C0.38 11 -4.24 11 -9 11 C-7 16 -7 16 -6 17 C-4.32 17.23 -2.63 17.41 -0.94 17.56 C-0.02 17.65 0.9 17.73 1.85 17.82 C2.2 17.85 2.2 17.85 4 18 C3.67 18.99 3.34 19.98 3 21 C-1.99 21.44 -5.74 21.76 -10.12 19.12 C-12.77 14.72 -12.77 11.02 -12 6 C-9.29 -0.03 -6.47 -0.66 0 0 Z " fill="#5A5A5A" transform="translate(769,491)"/>
<path d="M0 0 C2.94 2.12 2.94 2.12 5 5 C5 6.98 5 8.96 5 11 C0.38 11 -4.24 11 -9 11 C-8.67 12.98 -8.34 14.96 -8 17 C-6.38 17.17 -4.75 17.33 -3.12 17.5 C-2.67 17.55 -2.67 17.55 -0.38 17.78 C2 18 2 18 4 18 C3.67 18.99 3.34 19.98 3 21 C1.42 21.08 -0.17 21.14 -1.75 21.19 C-2.19 21.2 -2.19 21.2 -4.42 21.29 C-7.5 20.94 -8.79 20.14 -11 18 C-12.45 13.64 -12.63 9.55 -12 5 C-8.73 0.05 -5.82 -1.04 0 0 Z " fill="#2A2A2A" transform="translate(60,491)"/>
<path d="M0 0 C2.94 1.56 2.94 1.56 5 4 C5 6.31 5 8.62 5 11 C0.38 11 -4.24 11 -9 11 C-7 16 -7 16 -4 18 C-1.96 18.2 -1.96 18.2 0.19 18.12 C1.45 18.08 2.7 18.04 4 18 C3.67 18.99 3.34 19.98 3 21 C1.58 21.05 0.17 21.09 -1.25 21.12 C-1.64 21.14 -1.64 21.14 -3.64 21.2 C-6.31 20.97 -7.79 20.5 -10 19 C-11.9 16.17 -12.27 13.87 -12.25 10.5 C-12.26 9.75 -12.26 8.99 -12.27 8.22 C-11.96 5.7 -11.36 4.14 -10 2 C-6.26 -0.49 -4.43 -0.46 0 0 Z " fill="#828282" transform="translate(633,491)"/>
<path d="M0 0 C1.65 0 3.3 0 5 0 C5.33 5.61 5.66 11.22 6 17 C7.98 17 9.96 17 12 17 C14.06 14.94 13.41 10.78 13.56 7.94 C13.61 7.18 13.65 6.42 13.69 5.64 C13.8 3.76 13.9 1.88 14 0 C15.32 0 16.64 0 18 0 C18 6.93 18 13.86 18 21 C17.01 21 16.02 21 15 21 C15 20.34 15 19.68 15 19 C14.5 19.52 14.01 20.03 13.5 20.56 C10.31 22.4 8.46 22.07 4.9 21.62 C2.52 20.84 1.57 19.94 0 18 C-0.34 16.01 -0.34 16.01 -0.29 13.77 C-0.28 12.97 -0.27 12.16 -0.26 11.34 C-0.24 10.5 -0.21 9.67 -0.19 8.81 C-0.17 7.97 -0.16 7.12 -0.15 6.25 C-0.11 4.17 -0.06 2.08 0 0 Z " fill="#494948" transform="translate(636,398)"/>
<path d="M0 0 C2 2 2 2 2.23 3.88 C2.22 4.62 2.21 5.37 2.2 6.13 C2.19 6.94 2.18 7.74 2.18 8.57 C2.16 9.42 2.14 10.26 2.12 11.12 C2.12 11.97 2.11 12.82 2.1 13.7 C2.07 15.8 2.04 17.9 2 20 C0.68 20 -0.64 20 -2 20 C-2.33 14.72 -2.66 9.44 -3 4 C-4.98 4 -6.96 4 -9 4 C-11.06 6.06 -10.41 10.22 -10.56 13.06 C-10.61 13.82 -10.65 14.58 -10.69 15.36 C-10.8 17.24 -10.9 19.12 -11 21 C-12.65 20.67 -14.3 20.34 -16 20 C-16 13.4 -16 6.8 -16 0 C-14.68 0 -13.36 0 -12 0 C-12 0.66 -12 1.32 -12 2 C-11.32 1.48 -10.64 0.97 -9.94 0.44 C-6.15 -1.41 -4.03 -0.99 0 0 Z " fill="#3D3D3D" transform="translate(388,399)"/>
<path d="M0 0 C2.71 2.01 4.72 3.58 5.4 7 C5.49 9.29 5.44 11.53 5.31 13.81 C5.29 14.6 5.27 15.39 5.24 16.2 C5.19 18.13 5.1 20.07 5 22 C3.35 22 1.7 22 0 22 C0 16.39 0 10.78 0 5 C-2.31 5 -4.62 5 -7 5 C-9 7 -8.41 10.82 -8.56 13.56 C-8.61 14.27 -8.65 14.98 -8.69 15.72 C-8.8 17.48 -8.9 19.24 -9 21 C-10.32 21 -11.64 21 -13 21 C-13 14.4 -13 7.8 -13 1 C-12.01 1 -11.02 1 -10 1 C-10 1.66 -10 2.32 -10 3 C-9.46 2.5 -8.93 2.01 -8.38 1.5 C-5.26 -0.47 -3.63 -0.59 0 0 Z " fill="#484846" transform="translate(216,398)"/>
<path d="M0 0 C1.09 0.02 2.17 0.04 3.29 0.05 C3.71 0.07 3.71 0.07 5.81 0.12 C6.14 1.12 6.47 2.11 6.81 3.12 C6.48 3.79 6.15 4.44 5.81 5.12 C5.05 5.07 4.29 5.01 3.51 4.95 C0.55 4.81 -2.24 4.79 -5.19 5.12 C-7.67 7.4 -8.06 8.8 -8.38 12.1 C-8.47 15.47 -8.56 19 -7.19 22.12 C-4.17 23.13 -2.15 23.23 1 23.19 C1.9 23.18 2.8 23.17 3.73 23.16 C4.07 23.15 4.07 23.15 5.81 23.12 C5.81 24.44 5.81 25.76 5.81 27.12 C1.01 27.91 -2.93 28.54 -7.62 27 C-10.51 24.89 -11.6 23.31 -13.19 20.12 C-13.97 14.89 -14.33 9.11 -11.38 4.5 C-7.61 0.41 -5.4 -0.12 0 0 Z " fill="#333333" transform="translate(625.1875,391.875)"/>
<path d="M0 0 C5.28 0 10.56 0 16 0 C16 1.32 16 2.64 16 4 C12.04 4 8.08 4 4 4 C4 6.64 4 9.28 4 12 C7.63 12 11.26 12 15 12 C15 13.32 15 14.64 15 16 C11.37 16 7.74 16 4 16 C4 19.63 4 23.26 4 27 C2.68 27 1.36 27 0 27 C0 18.09 0 9.18 0 0 Z " fill="#363635" transform="translate(49,392)"/>
<path d="M0 0 C2 1.5 2 1.5 3 3 C2.34 3.66 1.68 4.32 1 5 C-1.73 4.97 -4.3 4.44 -7 4 C-7 5.32 -7 6.64 -7 8 C-6.28 8.1 -5.56 8.21 -4.81 8.31 C-1.57 9.11 0.45 9.82 3 12 C3.62 15.5 3.62 15.5 3 19 C1.12 21 1.12 21 -2 22 C-5.38 21.93 -8.66 21.54 -12 21 C-12 19.68 -12 18.36 -12 17 C-8.7 17 -5.4 17 -2 17 C-1.67 16.01 -1.34 15.02 -1 14 C-1.54 13.88 -1.54 13.88 -4.25 13.25 C-8.02 11.99 -9.77 11.26 -12 8 C-11.93 5.2 -11.34 3.59 -9.94 1.19 C-6.81 -0.73 -3.56 -0.58 0 0 Z " fill="#333332" transform="translate(274,398)"/>
<path d="M0 0 C0.66 0.33 1.32 0.66 2 1 C2 2.32 2 3.64 2 5 C-0.97 4.67 -3.94 4.34 -7 4 C-6 7 -6 7 -4.19 8.1 C-3.47 8.42 -2.74 8.73 -2 9.06 C1.9 10.8 1.9 10.8 3 13 C3.31 15.94 3.31 15.94 3 19 C1.44 20.88 1.44 20.88 -1 22 C-4.86 22.28 -8.3 22.18 -12 21 C-12 19.68 -12 18.36 -12 17 C-8.37 17.33 -4.74 17.66 -1 18 C-1 16.68 -1 15.36 -1 14 C-1.54 13.88 -1.54 13.88 -4.25 13.25 C-8.02 11.99 -9.77 11.26 -12 8 C-11.93 5.2 -11.34 3.59 -9.94 1.19 C-6.71 -0.79 -3.74 -0.24 0 0 Z " fill="#323231" transform="translate(324,398)"/>
<path d="M0 0 C0 1.32 0 2.64 0 4 C-2.64 4 -5.28 4 -8 4 C-8 4.66 -8 5.32 -8 6 C-7.36 6.21 -6.72 6.42 -6.07 6.63 C-3.52 7.58 -1.29 8.52 1 10 C2.25 13.56 2.25 13.56 2 17 C0.5 19.15 -0.67 19.84 -3 21 C-4.88 21.13 -4.88 21.13 -7 21.12 C-7.35 21.13 -7.35 21.13 -9.12 21.13 C-11 21 -11 21 -13 20 C-12.67 18.68 -12.34 17.36 -12 16 C-9.03 16 -6.06 16 -3 16 C-3.33 15.01 -3.66 14.02 -4 13 C-6.31 11.95 -8.65 10.95 -11 10 C-13 8 -13 8 -13.44 5.06 C-13 2 -13 2 -11 0.06 C-6.9 -1.39 -4.25 -0.79 0 0 Z " fill="#323232" transform="translate(344,399)"/>
<path d="M0 0 C0.68 0.07 1.36 0.13 2.06 0.2 C4.51 0.89 5.4 1.79 7 3.75 C7.34 5.65 7.34 5.65 7.29 7.76 C7.28 8.52 7.27 9.28 7.26 10.06 C7.24 10.84 7.21 11.63 7.19 12.44 C7.18 12.84 7.18 12.84 7.15 14.85 C7.11 16.82 7.06 18.78 7 20.75 C6.24 20.54 5.47 20.34 4.69 20.12 C2 19.75 2 19.75 -1 21.75 C-3.74 21.72 -6.28 21.2 -9 20.75 C-9.17 19.93 -9.17 19.93 -10 15.75 C-9.48 15.92 -8.97 16.08 -8.44 16.25 C-5.27 16.9 -2.23 16.81 1 16.75 C1.66 14.77 2.32 12.79 3 10.75 C0.69 10.42 -1.62 10.09 -4 9.75 C-4 9.42 -4 9.09 -4 8.75 C-2.02 8.75 -0.04 8.75 2 8.75 C1.67 7.43 1.34 6.11 1 4.75 C-1.97 4.75 -4.94 4.75 -8 4.75 C-7.67 3.43 -7.34 2.11 -7 0.75 C-4.13 -0.21 -2.9 -0.33 0 0 Z " fill="#373736" transform="translate(132,398.25)"/>
<path d="M0 0 C3.37 0.32 6.32 0.7 9.44 2.06 C11.96 5.19 11.26 8.08 11 12 C6.71 12 2.42 12 -2 12 C-1.34 13.65 -0.68 15.3 0 17 C3.63 17 7.26 17 11 17 C11 18.32 11 19.64 11 21 C6.65 22.45 2.4 23.08 -1.86 21.16 C-4.28 19.45 -5.85 17.86 -6.37 14.89 C-6.38 12.69 -6.38 12.69 -6 9 C-2.8 7.93 -1.11 8.05 2.19 8.44 C3.09 8.54 3.99 8.64 4.92 8.75 C5.61 8.83 6.29 8.91 7 9 C6.38 6.62 6.38 6.62 5 4 C1.88 2.69 1.88 2.69 -1 2 C-0.67 1.34 -0.34 0.68 0 0 Z " fill="#2E2E2E" transform="translate(356,398)"/>
<path d="M0 0 C0.33 0.66 0.66 1.32 1 2 C0.34 2.66 -0.32 3.32 -1 4 C-3.73 3.97 -6.3 3.44 -9 3 C-9 4.32 -9 5.64 -9 7 C-8.37 7.18 -7.75 7.36 -7.1 7.55 C-6.28 7.8 -5.47 8.05 -4.62 8.31 C-3.81 8.56 -3 8.8 -2.16 9.05 C0 10 0 10 2 13 C1.85 16.05 1.42 17.53 -0.62 19.81 C-3.88 21.44 -6.41 21.26 -10 21 C-10.99 20.67 -11.98 20.34 -13 20 C-12.67 18.68 -12.34 17.36 -12 16 C-9.03 16.33 -6.06 16.66 -3 17 C-3 15.68 -3 14.36 -3 13 C-4.09 12.73 -5.19 12.46 -6.31 12.19 C-11.47 10.53 -11.47 10.53 -13 8 C-13.49 4.63 -13.62 2.84 -11.56 0.06 C-7.72 -1.53 -3.98 -1.07 0 0 Z " fill="#373736" transform="translate(471,399)"/>
<path d="M0 0 C0.99 0 1.98 0 3 0 C3 0.66 3 1.32 3 2 C3.99 1.34 4.98 0.68 6 0 C7.94 -0.3 7.94 -0.3 10 -0.31 C10.68 -0.33 11.36 -0.35 12.06 -0.36 C14.62 0.12 15.39 0.99 17 3 C17.34 4.99 17.34 4.99 17.29 7.23 C17.28 8.03 17.27 8.84 17.26 9.66 C17.24 10.5 17.21 11.33 17.19 12.19 C17.18 12.61 17.18 12.61 17.15 14.75 C17.11 16.83 17.06 18.92 17 21 C16.01 21 15.02 21 14 21 C13.67 15.39 13.34 9.78 13 4 C10.69 4 8.38 4 6 4 C3.94 6.06 4.59 10.22 4.44 13.06 C4.39 13.82 4.35 14.58 4.31 15.36 C4.2 17.24 4.1 19.12 4 21 C2.68 21 1.36 21 0 21 C0 14.07 0 7.14 0 0 Z " fill="#373736" transform="translate(779,491)"/>
<path d="M0 0 C5.75 0.75 5.75 0.75 8 3 C8.3 5.24 8.3 5.24 8.31 7.88 C8.33 8.74 8.35 9.6 8.36 10.49 C7.94 13.43 6.94 14.8 5 17 C-1.54 16.52 -1.54 16.52 -3.44 14.38 C-4.22 11.06 -4.36 8.4 -4 5 C-2 2.06 -2 2.06 0 0 Z " fill="#EEEEEE" transform="translate(696,493)"/>
<path d="M0 0 C0.99 0 1.98 0 3 0 C3.84 2.12 4.67 4.25 5.5 6.38 C5.96 7.56 6.43 8.74 6.91 9.96 C8 13 8 13 8 15 C8.66 15 9.32 15 10 15 C10.1 14.67 10.1 14.67 10.59 12.99 C13.17 4.22 13.17 4.22 15 0 C16.32 0 17.64 0 19 0 C16.95 6.45 14.57 12.7 11.94 18.94 C11.76 19.36 11.76 19.36 10.87 21.51 C10.53 22.32 10.19 23.13 9.84 23.96 C9.53 24.69 9.23 25.42 8.91 26.17 C8 28 8 28 6 30 C2.88 30.12 2.88 30.12 0 30 C0 29.01 0 28.02 0 27 C0.8 26.88 1.61 26.75 2.44 26.62 C3.28 26.42 4.13 26.21 5 26 C6.76 22.47 5.81 18.72 5 15 C3.8 11.8 2.47 8.71 1.06 5.6 C0 3 0 3 0 0 Z " fill="#313131" transform="translate(657,491)"/>
<path d="M0 0 C2.64 0 5.28 0 8 0 C9.69 2.96 10.3 5.16 10.31 8.56 C10.33 9.33 10.35 10.09 10.36 10.88 C9.91 13.55 9.19 14.44 7 16 C3.44 15.94 3.44 15.94 0 15 C-2.15 12.57 -2.02 10.76 -2.25 7.5 C-2.02 4.32 -1.69 2.64 0 0 Z " fill="#F0F0F0" transform="translate(285,494)"/>
<path d="M0 0 C2.84 2.97 3.39 5.06 3.31 9.12 C3.31 9.99 3.3 10.86 3.3 11.76 C3 14 3 14 1 16 C-5.14 16.67 -5.14 16.67 -7.94 14.5 C-9.45 10.94 -9.7 7.81 -9 4 C-6.53 0.34 -4.4 -0.9 0 0 Z " fill="#EFEFEF" transform="translate(576,447)"/>
<path d="M0 0 C0.99 0 1.98 0 3 0 C3 0.66 3 1.32 3 2 C3.66 1.65 4.32 1.3 5 0.94 C9.16 -0.36 11.74 0.09 16 1 C18.03 4.05 18.25 4.6 18.2 8.01 C18.19 8.77 18.18 9.53 18.18 10.31 C18.16 11.09 18.14 11.88 18.12 12.69 C18.12 13.48 18.11 14.28 18.1 15.1 C18.07 17.07 18.04 19.03 18 21 C17.01 21 16.02 21 15 21 C14.98 20.43 14.98 20.43 14.85 17.57 C14.78 16.09 14.7 14.61 14.62 13.12 C14.59 12.38 14.56 11.63 14.53 10.86 C14.23 5.23 14.23 5.23 12 3 C9.5 2.75 9.5 2.75 7 3 C4.07 5.93 4.54 9.18 4.38 13.12 C4.34 13.88 4.3 14.63 4.26 15.41 C4.16 17.27 4.08 19.14 4 21 C2.68 21 1.36 21 0 21 C0 14.07 0 7.14 0 0 Z " fill="#353535" transform="translate(467,491)"/>
<path d="M0 0 C6.54 0.48 6.54 0.48 8.44 2.62 C9.43 6.82 9.68 10.43 7.94 14.44 C6 16 6 16 2.44 16.38 C-1 16 -1 16 -3 14 C-3.3 11.76 -3.3 11.76 -3.31 9.12 C-3.33 8.26 -3.35 7.4 -3.36 6.51 C-2.94 3.57 -1.94 2.2 0 0 Z " fill="#F0F0F0" transform="translate(736,447)"/>
<path d="M0 0 C2.73 0.52 4.24 1.32 6.09 3.4 C7.62 7.98 8.19 12.76 6.29 17.32 C4.58 19.79 2.82 21.22 -0.11 21.94 C-2.56 22.09 -4.52 22.01 -6.91 21.4 C-10.44 18.05 -11.8 15.46 -12.29 10.65 C-12.22 7.52 -11.76 5.48 -9.97 2.9 C-6.35 -0.06 -4.54 -0.32 0 0 Z M-6.13 3.55 C-8.52 6.03 -8.45 7.5 -8.41 10.9 C-8.42 11.86 -8.43 12.82 -8.44 13.8 C-7.91 16.4 -7.91 16.4 -6.04 18.25 C-3.91 19.4 -3.91 19.4 -1.35 19.27 C1.31 18.32 2.34 17.59 4.09 15.4 C4.71 12.35 4.59 9.46 4.09 6.4 C2.34 3.84 2.34 3.84 0.09 2.4 C-3.91 2.4 -3.91 2.4 -6.13 3.55 Z " fill="#2F2F2F" transform="translate(831.91015625,444.6015625)"/>
<path d="M0 0 C2.72 2.02 3.55 4.35 4.06 7.65 C4.18 12.1 4.14 14.55 1.69 18.38 C-1.63 20.45 -3.53 21.01 -7.38 20.72 C-10.95 19.85 -12.29 18.25 -14.31 15.25 C-15.83 10.4 -15.85 7.3 -13.5 2.75 C-9.73 -1.56 -5.43 -1.76 0 0 Z M-11.31 4.25 C-11.65 6.75 -11.65 6.75 -11.69 9.69 C-11.72 10.66 -11.74 11.62 -11.77 12.62 C-11.31 15.25 -11.31 15.25 -9.48 17.11 C-6.4 18.73 -4.58 18.25 -1.31 17.25 C0.75 14.15 0.98 13.3 1 9.75 C1.02 8.98 1.03 8.2 1.05 7.41 C0.6 4.71 -0.12 3.84 -2.31 2.25 C-8.75 1.69 -8.75 1.69 -11.31 4.25 Z " fill="#2E2E2E" transform="translate(546.3125,491.75)"/>
<path d="M0 0 C2.9 0.72 4.66 2.16 6.35 4.62 C7.89 8.26 7.95 11.7 7.16 15.54 C5.37 18.41 4.18 20.03 1.16 21.54 C-5.98 22 -5.98 22 -9.28 20.23 C-12.49 16.76 -12.24 12.47 -12.17 7.99 C-11.84 5.54 -11.84 5.54 -9.9 2.41 C-6.36 0.24 -4.11 -0.26 0 0 Z M-6.84 3.54 C-9.52 7.55 -9.43 10.82 -8.84 15.54 C-7.34 18.1 -7.34 18.1 -5.84 19.54 C-2.53 19.35 -2.53 19.35 1.16 18.54 C3.56 15.83 4.1 14.05 4.54 10.48 C4.1 7.07 3.84 5.72 1.16 3.54 C-1.74 3.01 -3.83 3.2 -6.84 3.54 Z " fill="#363636" transform="translate(374.83984375,490.4609375)"/>
<path d="M0 0 C2.5 1.88 3.62 3.24 5 6 C5.35 11.34 5.46 14.65 2 19 C-1.18 21.12 -3.19 21.56 -6.99 21.43 C-9.84 20.82 -11.5 19.34 -13.15 16.98 C-14.85 13.02 -14.84 9.19 -14 5 C-10.56 -0.54 -6.09 -1.26 0 0 Z M-11 6 C-11.5 9.07 -11.62 11.95 -11 15 C-9.69 16.75 -9.69 16.75 -8 18 C-4.5 18.44 -4.5 18.44 -1 18 C1.83 15.72 1.98 14.17 2.44 10.56 C1.93 6.41 1.11 4.78 -2 2 C-6.39 1.01 -8.57 2.32 -11 6 Z " fill="#343434" transform="translate(395,445)"/>
<path d="M0 0 C-0.33 1.32 -0.66 2.64 -1 4 C-3.97 4 -6.94 4 -10 4 C-10.03 5.62 -10.05 7.25 -10.06 8.88 C-10.07 9.78 -10.09 10.68 -10.1 11.62 C-10 14 -10 14 -9 16 C-6.03 16 -3.06 16 0 16 C0 17.32 0 18.64 0 20 C-3.36 20.66 -6.57 21.14 -10 21 C-12.88 18.83 -14.4 17.19 -16 14 C-16.34 8.75 -16.57 5.18 -13 1 C-8.62 -1.75 -4.87 -0.83 0 0 Z " fill="#353535" transform="translate(411,399)"/>
<path d="M0 0 C0.99 0 1.98 0 3 0 C3 0.66 3 1.32 3 2 C3.99 1.34 4.98 0.68 6 0 C12.99 -0.67 12.99 -0.67 16.24 1.48 C18.82 5.17 18.44 8.36 18.25 12.75 C18.23 13.54 18.21 14.34 18.2 15.15 C18.15 17.1 18.08 19.05 18 21 C17.01 21 16.02 21 15 21 C14.94 19.86 14.88 18.71 14.82 17.54 C14.73 16.04 14.65 14.55 14.56 13.06 C14.52 12.31 14.48 11.55 14.44 10.78 C14.11 5.11 14.11 5.11 13 4 C9.56 3.75 9.56 3.75 6 4 C3.58 7.64 3.61 9.86 3.38 14.19 C3.3 15.46 3.23 16.73 3.15 18.04 C3.1 19.02 3.05 19.99 3 21 C2.01 21 1.02 21 0 21 C0 14.07 0 7.14 0 0 Z " fill="#393939" transform="translate(70,491)"/>
<path d="M0 0 C2.73 0.52 4.24 1.32 6.09 3.4 C7.61 7.96 8.26 12.82 6.22 17.32 C3.96 20.43 2.37 21.35 -1.41 21.96 C-5.74 21.27 -8.49 20.22 -11.22 16.71 C-12.47 12.51 -12.86 8.59 -11.11 4.55 C-8.06 0.12 -4.98 -0.35 0 0 Z M-6.66 4.52 C-8.91 7.4 -8.91 7.4 -9.41 10.4 C-8.83 13.88 -8.3 15.78 -5.91 18.4 C-0.04 19.24 -0.04 19.24 2.78 17.14 C4.86 14.37 4.56 11.92 4.45 8.56 C4.09 6.4 4.09 6.4 2.34 3.84 C-1.35 1.48 -3.28 1.91 -6.66 4.52 Z " fill="#333332" transform="translate(156.91015625,444.6015625)"/>
<path d="M0 0 C3.18 2.64 4.7 4.18 5.38 8.26 C5.48 12.38 5.23 15.44 3 19 C-0.98 21.66 -4.31 21.86 -9 21 C-12.56 17.61 -13.91 15.06 -14.31 10.19 C-14.28 6.91 -14 5.99 -12.19 3.06 C-8.5 -0.42 -4.91 -0.59 0 0 Z M-9.94 4.5 C-11.45 8.07 -11.69 11.19 -11 15 C-9.44 17.56 -9.44 17.56 -7 19 C-3.38 18.94 -3.38 18.94 0 18 C2.47 14.29 2.54 11.3 2 7 C0.94 4.5 0.94 4.5 -1 3 C-4.68 2.47 -6.92 2.17 -9.94 4.5 Z " fill="#252525" transform="translate(457,491)"/>
<path d="M0 0 C2.38 0.88 2.38 0.88 4.38 2.88 C4.64 5.41 4.64 5.41 4.62 8.38 C4.63 9.35 4.64 10.33 4.64 11.34 C4.38 13.88 4.38 13.88 2.38 15.88 C-1.12 16.19 -1.12 16.19 -4.62 15.88 C-7.3 11.86 -7.31 8.59 -6.62 3.88 C-4.59 0.71 -3.79 -0.18 0 0 Z " fill="#F7F7F7" transform="translate(445.625,447.125)"/>
<path d="M0 0 C3.84 0.11 4.57 0.41 7.75 2.94 C10.03 6.28 10.36 9.39 10.1 13.38 C9.44 16.79 8.4 18.33 5.69 20.5 C1.66 21.84 -1.28 21.95 -5.19 20.25 C-7.31 18.5 -7.31 18.5 -9.31 15.5 C-9.75 10.09 -9.71 6.94 -6.31 2.5 C-3.95 0.14 -3.24 0.13 0 0 Z M-5.31 4.5 C-6.91 7.7 -6.68 11.02 -6.31 14.5 C-5.25 17 -5.25 17 -3.31 18.5 C2.67 19.25 2.67 19.25 5.38 17.25 C7.46 14.47 7.16 12.03 7.04 8.66 C6.69 6.5 6.69 6.5 4.94 3.94 C1.18 1.54 -1.74 2.28 -5.31 4.5 Z " fill="#2E2E2D" transform="translate(917.3125,444.5)"/>
<path d="M0 0 C1.32 0.33 2.64 0.66 4 1 C4.66 0.67 5.32 0.34 6 0 C13.4 -0.47 13.4 -0.47 15.6 1.26 C17.34 3.42 17.35 4.48 17.29 7.23 C17.28 8.03 17.27 8.84 17.26 9.66 C17.24 10.5 17.21 11.33 17.19 12.19 C17.18 12.61 17.18 12.61 17.15 14.75 C17.11 16.83 17.06 18.92 17 21 C16.01 21 15.02 21 14 21 C13.94 19.78 13.88 18.57 13.82 17.32 C13.73 15.73 13.65 14.15 13.56 12.56 C13.52 11.76 13.48 10.96 13.44 10.13 C13.11 4.11 13.11 4.11 12 3 C8.5 3.31 8.5 3.31 5 4 C3.48 7.04 3.63 10.28 3.44 13.62 C3.39 14.33 3.35 15.04 3.31 15.77 C3.2 17.51 3.1 19.26 3 21 C2.01 21 1.02 21 0 21 C0 14.07 0 7.14 0 0 Z " fill="#252525" transform="translate(774,445)"/>
<path d="M0 0 C1.32 0.33 2.64 0.66 4 1 C4.66 0.67 5.32 0.34 6 0 C13.47 -0.36 13.47 -0.36 17 2 C17.34 3.97 17.34 3.97 17.29 6.35 C17.28 7.2 17.27 8.05 17.26 8.93 C17.24 9.82 17.21 10.71 17.19 11.62 C17.18 12.07 17.18 12.07 17.15 14.34 C17.11 16.56 17.06 18.78 17 21 C16.01 21 15.02 21 14 21 C13.94 19.78 13.88 18.57 13.82 17.32 C13.73 15.73 13.65 14.15 13.56 12.56 C13.52 11.76 13.48 10.96 13.44 10.13 C13.11 4.11 13.11 4.11 12 3 C9.34 2.72 7.65 2.57 5.38 4.07 C3.3 6.98 3.47 9.65 3.31 13.19 C3.25 14.46 3.18 15.73 3.11 17.04 C3.08 18.02 3.04 18.99 3 20 C2.01 20 1.02 20 0 20 C0 13.4 0 6.8 0 0 Z " fill="#2D2D2B" transform="translate(501,445)"/>
<path d="M0 0 C0.99 0 1.98 0 3 0 C3.33 5.61 3.66 11.22 4 17 C10 18 10 18 11.83 17.04 C13.6 13.95 13.57 10.79 13.69 7.31 C13.72 6.61 13.76 5.91 13.79 5.19 C13.87 3.46 13.94 1.73 14 0 C14.99 0 15.98 0 17 0 C17 6.93 17 13.86 17 21 C16.01 21 15.02 21 14 21 C14 20.34 14 19.68 14 19 C13.01 19.66 12.02 20.32 11 21 C9.06 21.3 9.06 21.3 7 21.31 C6.32 21.33 5.64 21.35 4.94 21.36 C2.38 20.88 1.61 20.01 0 18 C-0.34 16.01 -0.34 16.01 -0.29 13.77 C-0.28 12.97 -0.27 12.16 -0.26 11.34 C-0.24 10.5 -0.21 9.67 -0.19 8.81 C-0.17 7.97 -0.16 7.12 -0.15 6.25 C-0.11 4.17 -0.06 2.08 0 0 Z " fill="#191919" transform="translate(397,491)"/>
<path d="M0 0 C0.99 0 1.98 0 3 0 C3.06 1.14 3.12 2.29 3.18 3.46 C3.27 4.96 3.35 6.45 3.44 7.94 C3.48 8.69 3.52 9.45 3.56 10.22 C3.89 15.89 3.89 15.89 5 17 C7.33 17.04 9.67 17.04 12 17 C13.52 13.96 13.37 10.72 13.56 7.38 C13.61 6.67 13.65 5.96 13.69 5.23 C13.8 3.49 13.9 1.74 14 0 C14.99 0 15.98 0 17 0 C17 6.6 17 13.2 17 20 C15.68 20 14.36 20 13 20 C11.64 20.17 10.29 20.36 8.94 20.56 C5 21 5 21 2 20 C-0.77 16.37 -0.22 12.09 -0.12 7.75 C-0.12 7 -0.11 6.26 -0.1 5.49 C-0.07 3.66 -0.04 1.83 0 0 Z " fill="#242424" transform="translate(78,445)"/>
<path d="M0 0 C1.32 0.33 2.64 0.66 4 1 C4.33 0.67 4.66 0.34 5 0 C6.96 -0.24 6.96 -0.24 9.38 -0.31 C9.77 -0.33 9.77 -0.33 11.77 -0.43 C14 0 14 0 15.78 1.47 C17.59 5.22 17.32 8.65 17.19 12.75 C17.18 13.15 17.18 13.15 17.15 15.15 C17.11 17.1 17.06 19.05 17 21 C16.01 21 15.02 21 14 21 C13.67 15.39 13.34 9.78 13 4 C10.69 3.67 8.38 3.34 6 3 C3.15 5.85 3.54 8.8 3.38 12.62 C3.34 13.33 3.3 14.04 3.26 14.77 C3.16 16.51 3.08 18.25 3 20 C2.01 20 1.02 20 0 20 C0 13.4 0 6.8 0 0 Z " fill="#212121" transform="translate(798,445)"/>
<path d="M0 0 C0.99 0 1.98 0 3 0 C3 0.66 3 1.32 3 2 C3.99 1.34 4.98 0.68 6 0 C7.94 -0.3 7.94 -0.3 10 -0.31 C10.68 -0.33 11.36 -0.35 12.06 -0.36 C14.61 0.11 15.38 1 17 3 C17.34 4.9 17.34 4.9 17.29 7.01 C17.28 7.77 17.27 8.53 17.26 9.31 C17.24 10.09 17.21 10.88 17.19 11.69 C17.18 12.09 17.18 12.09 17.15 14.1 C17.11 16.07 17.06 18.03 17 20 C16.01 20 15.02 20 14 20 C13.94 18.86 13.88 17.71 13.82 16.54 C13.73 15.04 13.65 13.55 13.56 12.06 C13.52 11.31 13.48 10.55 13.44 9.78 C13.11 4.11 13.11 4.11 12 3 C8.5 3.31 8.5 3.31 5 4 C3.52 6.96 3.65 9.84 3.44 13.12 C3.35 14.41 3.27 15.69 3.18 17.01 C3.12 18 3.06 18.98 3 20 C2.01 20 1.02 20 0 20 C0 13.4 0 6.8 0 0 Z " fill="#1F1F1E" transform="translate(707,445)"/>
<path d="M0 0 C0.99 0 1.98 0 3 0 C3 0.66 3 1.32 3 2 C3.99 1.34 4.98 0.68 6 0 C7.94 -0.3 7.94 -0.3 10 -0.31 C10.68 -0.33 11.36 -0.35 12.06 -0.36 C14.61 0.11 15.38 1 17 3 C17.34 4.9 17.34 4.9 17.29 7.01 C17.28 7.77 17.27 8.53 17.26 9.31 C17.24 10.09 17.21 10.88 17.19 11.69 C17.18 12.09 17.18 12.09 17.15 14.1 C17.11 16.07 17.06 18.03 17 20 C16.01 20 15.02 20 14 20 C13.94 18.86 13.88 17.71 13.82 16.54 C13.73 15.04 13.65 13.55 13.56 12.06 C13.52 11.31 13.48 10.55 13.44 9.78 C13.11 4.11 13.11 4.11 12 3 C8.5 3.31 8.5 3.31 5 4 C3.52 6.96 3.65 9.84 3.44 13.12 C3.35 14.41 3.27 15.69 3.18 17.01 C3.12 18 3.06 18.98 3 20 C2.01 20 1.02 20 0 20 C0 13.4 0 6.8 0 0 Z " fill="#1E1E1E" transform="translate(932,445)"/>
<path d="M0 0 C0.99 0 1.98 0 3 0 C3 1.65 3 3.3 3 5 C4.98 5 6.96 5 9 5 C9 5.99 9 6.98 9 8 C7.02 8 5.04 8 3 8 C3.33 12.29 3.66 16.58 4 21 C5.65 21.33 7.3 21.66 9 22 C8.67 23.32 8.34 24.64 8 26 C4.62 25.69 4.62 25.69 1 25 C-1.49 21.26 -1.21 19.26 -1.12 14.81 C-1.11 13.54 -1.09 12.27 -1.07 10.96 C-1.05 9.98 -1.02 9.01 -1 8 C-1.99 8 -2.98 8 -4 8 C-3.67 7.01 -3.34 6.02 -3 5 C-2.34 4.67 -1.68 4.34 -1 4 C-0.38 1.94 -0.38 1.94 0 0 Z " fill="#2D2D2B" transform="translate(228,394)"/>
<path d="M0 0 C1.44 0.12 2.89 0.25 4.38 0.38 C4.78 0.41 4.78 0.41 6.84 0.59 C9 1 9 1 11 3 C11.55 9.9 11.55 9.9 10 13 C6.72 14.64 3.63 14.18 0 14 C0 9.38 0 4.76 0 0 Z " fill="#F0F0F0" transform="translate(389,218)"/>
<path d="M0 0 C0.66 0 1.32 0 2 0 C2.05 1.13 2.1 2.26 2.15 3.43 C2.22 4.91 2.3 6.39 2.38 7.88 C2.39 8.25 2.39 8.25 2.47 10.14 C2.77 15.77 2.77 15.77 5 18 C8.62 18.12 8.62 18.12 12 18 C13.12 14.29 13.31 10.61 13.56 6.75 C13.65 5.49 13.73 4.22 13.82 2.92 C13.88 1.96 13.94 0.99 14 0 C14.99 0 15.98 0 17 0 C17 6.93 17 13.86 17 21 C16.01 21 15.02 21 14 21 C14 20.34 14 19.68 14 19 C13.01 19.66 12.02 20.32 11 21 C9.06 21.3 9.06 21.3 7 21.31 C6.32 21.33 5.64 21.35 4.94 21.36 C2.38 20.88 1.61 20.01 0 18 C-0.34 16.01 -0.34 16.01 -0.29 13.77 C-0.28 12.97 -0.27 12.16 -0.26 11.34 C-0.24 10.5 -0.21 9.67 -0.19 8.81 C-0.17 7.97 -0.16 7.12 -0.15 6.25 C-0.11 4.17 -0.06 2.08 0 0 Z " fill="#282828" transform="translate(113,491)"/>
<path d="M0 0 C0.39 0.01 0.39 0.01 2.38 0.05 C4.44 0.25 4.44 0.25 6.44 1.25 C6.44 1.91 6.44 2.57 6.44 3.25 C3.14 3.58 -0.16 3.91 -3.56 4.25 C-3.89 5.24 -4.22 6.23 -4.56 7.25 C-3.95 7.43 -3.33 7.61 -2.7 7.8 C-1.89 8.05 -1.08 8.3 -0.25 8.56 C0.15 8.68 0.15 8.68 2.18 9.3 C4.59 10.31 5.86 11.17 7.44 13.25 C7.31 16.31 7.31 16.31 6.44 19.25 C3.12 21.46 2.09 21.47 -1.75 21.38 C-2.65 21.36 -3.55 21.34 -4.48 21.32 C-5.17 21.3 -5.85 21.27 -6.56 21.25 C-6.89 19.93 -7.22 18.61 -7.56 17.25 C-6.94 17.33 -6.31 17.42 -5.66 17.5 C-4.85 17.61 -4.03 17.71 -3.19 17.81 C-2.38 17.92 -1.56 18.02 -0.73 18.13 C1.44 18.25 1.44 18.25 3.44 17.25 C3.44 16.26 3.44 15.27 3.44 14.25 C2.73 13.9 2.02 13.55 1.29 13.19 C0.37 12.74 -0.55 12.28 -1.5 11.81 C-2.42 11.36 -3.33 10.91 -4.28 10.44 C-6.56 9.25 -6.56 9.25 -7.56 8.25 C-8.02 3.87 -8.02 3.87 -6.33 1.6 C-4.07 -0.12 -2.81 -0.09 0 0 Z " fill="#2D2D2D" transform="translate(351.5625,490.75)"/>
<path d="M0 0 C1.32 0 2.64 0 4 0 C4.33 0.99 4.66 1.98 5 3 C5.58 2.5 6.15 2.01 6.75 1.5 C9 0 9 0 13 0 C13 1.32 13 2.64 13 4 C12.03 4.31 11.06 4.62 10.06 4.94 C7 6 7 6 6 7 C5.76 9.35 5.59 11.71 5.44 14.06 C5.35 15.35 5.27 16.64 5.18 17.97 C5.12 18.97 5.06 19.97 5 21 C3.35 21 1.7 21 0 21 C0 14.07 0 7.14 0 0 Z " fill="#3E3E3C" transform="translate(660,398)"/>
<path d="M0 0 C0.99 0 1.98 0 3 0 C4.98 5.28 6.96 10.56 9 16 C10.98 10.72 12.96 5.44 15 0 C15.99 0 16.98 0 18 0 C16.63 7.48 14.08 14.06 11 21 C9.68 21 8.36 21 7 21 C5.82 18.25 4.66 15.5 3.5 12.75 C3.17 11.97 2.83 11.2 2.49 10.39 C2.17 9.64 1.86 8.89 1.53 8.11 C1.38 7.76 1.38 7.76 0.64 6.01 C0 4 0 4 0 0 Z " fill="#2E2E2E" transform="translate(600,491)"/>
<path d="M0 0 C0.66 0.33 1.32 0.66 2 1 C2 1.66 2 2.32 2 3 C-0.97 3 -3.94 3 -7 3 C-7.66 4.32 -8.32 5.64 -9 7 C-8.39 7.18 -7.77 7.36 -7.14 7.55 C-6.33 7.8 -5.52 8.05 -4.69 8.31 C-4.29 8.43 -4.29 8.43 -2.26 9.05 C0.14 10.06 1.39 10.97 3 13 C3.42 15.81 3.5 17.3 1.83 19.64 C-0.73 21.54 -2.54 21.3 -5.69 21.19 C-6.18 21.17 -6.18 21.17 -8.7 21.11 C-9.46 21.07 -10.22 21.04 -11 21 C-11.33 19.68 -11.66 18.36 -12 17 C-8.7 17.33 -5.4 17.66 -2 18 C-1.67 16.68 -1.34 15.36 -1 14 C-1.71 13.65 -2.42 13.3 -3.15 12.94 C-4.07 12.49 -4.99 12.03 -5.94 11.56 C-6.85 11.11 -7.77 10.66 -8.71 10.19 C-11 9 -11 9 -12 8 C-12.38 5.62 -12.38 5.62 -12 3 C-8.23 -0.32 -4.88 -0.37 0 0 Z " fill="#2B2B2B" transform="translate(184,491)"/>
<path d="M0 0 C0.66 0 1.32 0 2 0 C2 1.65 2 3.3 2 5 C3.98 5 5.96 5 8 5 C8 5.99 8 6.98 8 8 C6.02 8 4.04 8 2 8 C2 12.95 2 17.9 2 23 C3.65 23.33 5.3 23.66 7 24 C7 24.66 7 25.32 7 26 C4.19 26.25 4.19 26.25 1 26 C-1.63 23.56 -1.99 22.15 -2.29 18.55 C-2.26 17.29 -2.22 16.04 -2.19 14.75 C-2.16 13.49 -2.13 12.22 -2.11 10.92 C-2.07 9.96 -2.04 8.99 -2 8 C-2.66 8 -3.32 8 -4 8 C-4 7.01 -4 6.02 -4 5 C-3.34 4.67 -2.68 4.34 -2 4 C-0.88 1.94 -0.88 1.94 0 0 Z " fill="#434343" transform="translate(736,486)"/>
<path d="M0 0 C2.97 3.33 2.25 6.95 2.08 11.24 C2.06 12.09 2.05 12.93 2.03 13.8 C1.98 15.89 1.91 17.97 1.83 20.05 C1.17 20.05 0.51 20.05 -0.17 20.05 C-0.17 19.39 -0.17 18.73 -0.17 18.05 C-1.16 18.05 -2.15 18.05 -3.17 18.05 C-2.84 15.41 -2.51 12.77 -2.17 10.05 C-4.15 10.05 -6.13 10.05 -8.17 10.05 C-8.17 9.39 -8.17 8.73 -8.17 8.05 C-6.19 8.05 -4.21 8.05 -2.17 8.05 C-2.5 6.73 -2.83 5.41 -3.17 4.05 C-6.14 4.05 -9.11 4.05 -12.17 4.05 C-12.5 3.06 -12.83 2.07 -13.17 1.05 C-8.67 -1.06 -4.71 -2.05 0 0 Z " fill="#2F2F2F" transform="translate(562.16796875,398.9453125)"/>
<path d="M0 0 C1.32 0 2.64 0 4 0 C4.35 1 4.7 2 5.06 3.03 C5.52 4.33 5.98 5.63 6.44 6.94 C6.67 7.6 6.9 8.26 7.13 8.94 C8.89 13.89 8.89 13.89 10 15 C10.31 14 10.63 13 10.95 11.97 C11.38 10.67 11.82 9.37 12.25 8.06 C12.45 7.4 12.66 6.74 12.87 6.06 C13.52 4.16 13.52 4.16 15 1 C17.17 0.06 17.17 0.06 19 0 C17.07 6.86 14.75 13.43 12 20 C9.74 20.06 9.74 20.06 7 19 C5.28 16.17 4.26 13.12 3.19 10 C2.88 9.15 2.56 8.31 2.24 7.44 C0 1.28 0 1.28 0 0 Z " fill="#2F2F2F" transform="translate(457,445)"/>
<path d="M0 0 C0.99 0 1.98 0 3 0 C3.84 1.89 4.68 3.79 5.5 5.69 C5.96 6.74 6.43 7.8 6.91 8.89 C7.95 11.86 8.23 13.89 8 17 C8.66 17 9.32 17 10 17 C10.11 16.44 10.22 15.89 10.33 15.31 C11.44 9.97 12.97 5.07 15 0 C15.99 0 16.98 0 18 0 C17.38 5.02 15.87 9.25 13.94 13.88 C13.66 14.56 13.37 15.25 13.08 15.96 C12.39 17.64 11.7 19.32 11 21 C9.68 21 8.36 21 7 21 C6.01 18.63 5.04 16.25 4.06 13.88 C3.78 13.21 3.51 12.54 3.22 11.86 C1.61 7.91 0.52 4.26 0 0 Z " fill="#2D2D2D" transform="translate(842,445)"/>
<path d="M0 0 C2.97 0.33 5.94 0.66 9 1 C8.98 1.89 8.96 2.77 8.94 3.69 C9 7 9 7 9.62 9.75 C9.75 10.49 9.87 11.24 10 12 C8 14 8 14 6.05 14.2 C4.04 14.13 2.02 14.07 0 14 C0 9.38 0 4.76 0 0 Z " fill="#868686" transform="translate(403,218)"/>
<path d="M0 0 C0.95 0.04 1.9 0.08 2.88 0.12 C2.88 1.12 2.88 2.11 2.88 3.12 C1.23 3.45 -0.42 3.79 -2.12 4.12 C-2.46 5.77 -2.78 7.43 -3.12 9.12 C-1.48 9.12 0.17 9.12 1.88 9.12 C1.88 10.12 1.88 11.11 1.88 12.12 C0.23 12.12 -1.42 12.12 -3.12 12.12 C-3.12 18.06 -3.12 24 -3.12 30.12 C-4.12 30.12 -5.11 30.12 -6.12 30.12 C-6.12 23.86 -6.12 17.58 -6.12 11.12 C-7.45 10.8 -8.76 10.46 -10.12 10.12 C-9.13 9.8 -8.14 9.46 -7.12 9.12 C-6.41 6.81 -5.74 4.47 -5.12 2.12 C-3.12 0.12 -3.12 0.12 0 0 Z " fill="#363636" transform="translate(527.125,481.875)"/>
<path d="M0 0 C2.31 0 4.62 0 7 0 C7.66 0.66 8.32 1.32 9 2 C8.62 5.12 8.62 5.12 8 8 C8.66 8 9.32 8 10 8 C9.12 12.88 9.12 12.88 8 14 C5.33 14.14 2.68 14.04 0 14 C0 9.38 0 4.76 0 0 Z " fill="#858585" transform="translate(845,195)"/>
<path d="M0 0 C0.25 2.25 0.25 2.25 0 5 C-2 7.19 -2 7.19 -4 9 C-4 9.66 -4 10.32 -4 11 C-10.75 10.25 -10.75 10.25 -13 8 C-13.44 4.56 -13.44 4.56 -13 1 C-8.82 -3.32 -5.15 -1.66 0 0 Z " fill="#838381" transform="translate(688,409)"/>
<path d="M0 0 C0.31 2.25 0.31 2.25 0 5 C-2.5 7.31 -2.5 7.31 -5 9 C-4.67 9.66 -4.34 10.32 -4 11 C-10.75 10.25 -10.75 10.25 -13 8 C-13.66 1.95 -13.66 1.95 -11.56 -1.06 C-7.52 -2.54 -4.02 -1.19 0 0 Z " fill="#858585" transform="translate(438,409)"/>
<path d="M0 0 C0.66 0.33 1.32 0.66 2 1 C2 1.66 2 2.32 2 3 C-1.3 3 -4.6 3 -8 3 C-8 4.32 -8 5.64 -8 7 C-6.93 7.27 -5.86 7.54 -4.75 7.81 C-1.4 8.87 0.55 9.55 3 12 C4.15 14.55 4.17 15.55 3.19 18.19 C2 20 2 20 0 21 C-1.71 21.07 -3.42 21.08 -5.12 21.06 C-6.04 21.05 -6.95 21.04 -7.88 21.04 C-8.23 21.03 -8.23 21.03 -10 21 C-10.33 19.68 -10.66 18.36 -11 17 C-10.37 17.08 -9.75 17.17 -9.1 17.25 C-8.28 17.36 -7.47 17.46 -6.62 17.56 C-5.81 17.67 -5 17.77 -4.16 17.88 C-2 18 -2 18 0 17 C-1.39 13.53 -2.66 12.32 -6.06 10.81 C-9.95 9.05 -9.95 9.05 -11 8 C-11.04 6 -11.04 4 -11 2 C-7.36 -0.33 -4.24 -0.24 0 0 Z " fill="#292929" transform="translate(104,491)"/>
<path d="M0 0 C0.9 0.03 1.8 0.05 2.73 0.08 C3.07 0.1 3.07 0.1 4.81 0.19 C5.14 1.18 5.47 2.17 5.81 3.19 C2.51 3.19 -0.79 3.19 -4.19 3.19 C-4.52 4.51 -4.85 5.83 -5.19 7.19 C-4.49 7.46 -3.79 7.72 -3.06 8 C-0.02 9.26 2.89 10.69 5.81 12.19 C6 15.56 6 15.56 5.81 19.19 C2.5 21.4 1.47 21.41 -2.38 21.31 C-3.28 21.29 -4.18 21.28 -5.11 21.26 C-5.79 21.23 -6.48 21.21 -7.19 21.19 C-7.52 20.2 -7.85 19.21 -8.19 18.19 C-4.89 18.19 -1.59 18.19 1.81 18.19 C2.14 16.54 2.47 14.89 2.81 13.19 C2.19 12.99 1.56 12.8 0.91 12.6 C0.1 12.34 -0.72 12.08 -1.56 11.81 C-1.97 11.68 -1.97 11.68 -4.02 11.04 C-6.19 10.19 -6.19 10.19 -8.19 8.19 C-8.54 5.4 -8.67 3.85 -6.99 1.54 C-4.56 -0.28 -3 -0.12 0 0 Z " fill="#262626" transform="translate(498.1875,490.8125)"/>
<path d="M0 0 C2.96 3.33 2.25 6.96 2.08 11.25 C2.06 12.09 2.04 12.94 2.02 13.81 C1.98 15.89 1.9 17.97 1.83 20.06 C0.84 20.06 -0.15 20.06 -1.17 20.06 C-2.3 18.43 -2.3 18.43 -3.17 16.06 C-2.3 12.81 -2.3 12.81 -1.17 10.06 C-3.48 9.73 -5.79 9.4 -8.17 9.06 C-8.17 8.73 -8.17 8.4 -8.17 8.06 C-6.19 8.06 -4.21 8.06 -2.17 8.06 C-2.5 6.74 -2.83 5.42 -3.17 4.06 C-6.14 4.06 -9.11 4.06 -12.17 4.06 C-12.17 2.74 -12.17 1.42 -12.17 0.06 C-8.03 -1.22 -4.06 -1.76 0 0 Z " fill="#292928" transform="translate(594.171875,398.94140625)"/>
<path d="M0 0 C6.05 -0.2 6.05 -0.2 8 0 C10 2 10 2 10.38 5.94 C10.29 8.84 10.25 9.69 8.38 12 C6 13 6 13 0 13 C0 8.71 0 4.42 0 0 Z " fill="#9E9E9E" transform="translate(427,219)"/>
<path d="M0 0 C0 0.66 0 1.32 0 2 C-2.31 2.66 -4.62 3.32 -7 4 C-6.67 5.65 -6.34 7.3 -6 9 C-3.62 8.81 -3.62 8.81 -1 8 C0.12 5.56 0.12 5.56 1 3 C1.99 2.34 2.98 1.68 4 1 C4 4.63 4 8.26 4 12 C2.68 11.67 1.36 11.34 0 11 C-1.34 11.65 -2.67 12.32 -4 13 C-6.5 13.44 -6.5 13.44 -9 13 C-11.38 10.81 -11.38 10.81 -13 8 C-13.06 5.38 -13.06 5.38 -12 3 C-8.16 -0.28 -4.92 -0.29 0 0 Z " fill="#262625" transform="translate(522,407)"/>
<path d="M0 0 C3.72 0.08 5.52 0.59 8.38 3 C10.6 7.12 10.78 10.42 10 15 C8.44 18.5 8.44 18.5 6 21 C2.25 21.88 2.25 21.88 -1 22 C-0.34 21.34 0.32 20.68 1 20 C0.34 19.34 -0.32 18.68 -1 18 C0.65 17.34 2.3 16.68 4 16 C4.35 12.6 4.54 9.39 4 6 C1 3.38 1 3.38 -2 2 C-1.34 1.34 -0.68 0.68 0 0 Z " fill="#31312F" transform="translate(496,398)"/>
<path d="M0 0 C4.27 -0.42 6.33 -0.48 9.88 2.06 C12.34 5.47 12.76 7.84 13 12 C11.02 12 9.04 12 7 12 C6.67 11.34 6.34 10.68 6 10 C3.68 9.59 1.34 9.26 -1 9 C-1.07 5.66 -1.07 3.2 0 0 Z " fill="#7A7A78" transform="translate(185,398)"/>
<path d="M0 0 C2.31 0 4.62 0 7 0 C7.66 0.66 8.32 1.32 9 2 C8.71 3.68 8.38 5.34 8 7 C8.33 7.33 8.66 7.66 9 8 C9.12 10.5 9.12 10.5 9 13 C8 14 8 14 6.15 14.1 C4.1 14.07 2.05 14.03 0 14 C0 9.38 0 4.76 0 0 Z " fill="#848484" transform="translate(264,218)"/>
<path d="M0 0 C2.5 0.25 2.5 0.25 4.5 2.25 C4.77 4.56 4.77 4.56 4.75 7.25 C4.76 8.14 4.76 9.02 4.77 9.94 C4.5 12.25 4.5 12.25 2.5 14.25 C0 14.5 0 14.5 -2.5 14.25 C-4.5 12.25 -4.5 12.25 -4.77 9.94 C-4.76 9.05 -4.76 8.16 -4.75 7.25 C-4.76 6.36 -4.76 5.48 -4.77 4.56 C-4.38 1.18 -3.36 0.34 0 0 Z " fill="#F4F4F3" transform="translate(496.5,401.75)"/>
<path d="M0 0 C0 0.99 0 1.98 0 3 C-0.55 2.97 -0.55 2.97 -3.31 2.81 C-7 3 -7 3 -8.94 4 C-10.62 7.17 -10.54 10.49 -10 14 C-8 17 -8 17 -6.05 17.51 C-5.34 17.57 -4.62 17.63 -3.88 17.69 C-2.6 17.79 -1.32 17.89 0 18 C0 18.99 0 19.98 0 21 C-4.67 21.46 -7.94 21.62 -12.06 19.19 C-14.92 14.49 -14.83 10.36 -14 5 C-11.21 -1.47 -6.18 -0.53 0 0 Z " fill="#282828" transform="translate(612,445)"/>
<path d="M0 0 C0 0.99 0 1.98 0 3 C-0.55 2.97 -0.55 2.97 -3.31 2.81 C-7 3 -7 3 -8.71 4.23 C-10.35 6.48 -10.37 7.8 -10.31 10.56 C-10.31 11.35 -10.3 12.13 -10.3 12.94 C-10 15 -10 15 -8 17 C-5.84 17.2 -5.84 17.2 -3.38 17.12 C-2.56 17.11 -1.74 17.09 -0.9 17.07 C-0.59 17.06 -0.59 17.06 1 17 C0.67 18.32 0.34 19.64 0 21 C-4.67 21.46 -7.94 21.62 -12.06 19.19 C-14.91 14.5 -14.97 10.34 -14 5 C-10.45 -0.84 -6.23 -0.61 0 0 Z " fill="#2F2F2E" transform="translate(538,445)"/>
<path d="M0 0 C5.88 0.88 5.88 0.88 7 2 C7.12 3.64 7.18 5.29 7.19 6.94 C7.2 7.83 7.22 8.73 7.23 9.65 C7 12 7 12 5 14 C2.5 14.31 2.5 14.31 0 14 C-2.14 10.8 -2.23 9.98 -2.12 6.31 C-2.11 5.5 -2.09 4.7 -2.07 3.86 C-2.05 3.25 -2.02 2.63 -2 2 C-1.34 2 -0.68 2 0 2 C0 1.34 0 0.68 0 0 Z " fill="#949494" transform="translate(220,218)"/>
<path d="M0 0 C1.28 0.02 2.55 0.05 3.87 0.07 C4.51 0.08 4.51 0.08 7.75 0.12 C8.24 0.14 8.24 0.14 10.74 0.2 C10.08 0.53 10.08 0.53 6.74 2.2 C6.74 4.18 6.74 6.16 6.74 8.2 C8.06 8.86 9.38 9.52 10.74 10.2 C5.79 10.2 0.84 10.2 -4.26 10.2 C-5.64 7.43 -5.45 5.25 -5.26 2.2 C-3.26 0.2 -3.26 0.2 0 0 Z " fill="#929292" transform="translate(383.2578125,198.8046875)"/>
<path d="M0 0 C0.66 0 1.32 0 2 0 C2 1.65 2 3.3 2 5 C3.98 5 5.96 5 8 5 C8 5.99 8 6.98 8 8 C6.02 8 4.04 8 2 8 C2.33 12.62 2.66 17.24 3 22 C3.82 22.33 3.82 22.33 8 24 C8 24.66 8 25.32 8 26 C4.62 26.19 4.62 26.19 1 26 C-1.45 22.32 -1.23 19.56 -1.12 15.31 C-1.12 14.61 -1.11 13.91 -1.1 13.19 C-1.07 11.46 -1.04 9.73 -1 8 C-1.99 8 -2.98 8 -4 8 C-4 7.34 -4 6.68 -4 6 C-3.01 5.34 -2.02 4.68 -1 4 C-0.31 1.88 -0.31 1.88 0 0 Z " fill="#2C2C2C" transform="translate(422,486)"/>
<path d="M0 0 C-0.33 0.99 -0.66 1.98 -1 3 C-1.55 2.97 -1.55 2.97 -4.31 2.81 C-8 3 -8 3 -9.72 4.16 C-11.51 6.73 -11.3 8.59 -11.19 11.69 C-11.16 12.68 -11.13 13.68 -11.11 14.7 C-11.07 15.46 -11.04 16.22 -11 17 C-7.7 17.33 -4.4 17.66 -1 18 C-1 18.99 -1 19.98 -1 21 C-9.79 21.45 -9.79 21.45 -14 18 C-15.45 13.64 -15.61 9.56 -15 5 C-11.31 -1.15 -6.47 -0.57 0 0 Z " fill="#2A2A2A" transform="translate(142,445)"/>
<path d="M0 0 C0.66 0 1.32 0 2 0 C2.33 0.66 2.66 1.32 3 2 C3.66 1.34 4.32 0.68 5 0 C12.27 -0.58 12.27 -0.58 14.6 1.27 C16.3 3.38 16.35 4.34 16.29 7.01 C16.28 7.77 16.27 8.53 16.26 9.31 C16.24 10.09 16.21 10.88 16.19 11.69 C16.18 12.09 16.18 12.09 16.15 14.1 C16.11 16.07 16.06 18.03 16 20 C15.34 20 14.68 20 14 20 C13.95 19.02 13.9 18.05 13.85 17.04 C13.81 16.41 13.81 16.41 13.62 13.19 C13.56 11.92 13.49 10.66 13.41 9.36 C13 6 13 6 11 3 C7.38 2.81 7.38 2.81 4 3 C2.95 6.56 2.7 10.06 2.44 13.75 C2.35 14.92 2.27 16.09 2.18 17.3 C2.12 18.19 2.06 19.08 2 20 C1.34 20 0.68 20 0 20 C0 13.4 0 6.8 0 0 Z " fill="#181817" transform="translate(322,445)"/>
<path d="M0 0 C0 1.32 0 2.64 0 4 C-0.97 4.29 -1.94 4.58 -2.94 4.88 C-6 6 -6 6 -7 8 C-7.23 10.2 -7.41 12.41 -7.56 14.62 C-7.65 15.81 -7.73 17 -7.82 18.23 C-7.88 19.14 -7.94 20.06 -8 21 C-9.32 21 -10.64 21 -12 21 C-12 14.4 -12 7.8 -12 1 C-10.68 1 -9.36 1 -8 1 C-8 1.66 -8 2.32 -8 3 C-7.24 2.5 -6.47 2.01 -5.69 1.5 C-3 0 -3 0 0 0 Z " fill="#2A2A29" transform="translate(103,398)"/>
<path d="M0 0 C0 1.32 0 2.64 0 4 C-2.31 4.66 -4.62 5.32 -7 6 C-7.33 10.95 -7.66 15.9 -8 21 C-9.32 21 -10.64 21 -12 21 C-12 14.4 -12 7.8 -12 1 C-11.01 1 -10.02 1 -9 1 C-9 1.99 -9 2.98 -9 4 C-8.34 4 -7.68 4 -7 4 C-7 3.34 -7 2.68 -7 2 C-4 0 -4 0 0 0 Z " fill="#2F2F2F" transform="translate(119,398)"/>
<path d="M0 0 C1.65 0 3.3 0 5 0 C5 1.32 5 2.64 5 4 C4.03 4.29 3.06 4.58 2.06 4.88 C-1 6 -1 6 -2 8 C-2.23 10.2 -2.41 12.41 -2.56 14.62 C-2.65 15.81 -2.73 17 -2.82 18.23 C-2.88 19.14 -2.94 20.06 -3 21 C-4.32 21 -5.64 21 -7 21 C-7 14.4 -7 7.8 -7 1 C-6.01 1 -5.02 1 -4 1 C-4 1.99 -4 2.98 -4 4 C-3.34 4 -2.68 4 -2 4 C-1.34 2.68 -0.68 1.36 0 0 Z " fill="#222221" transform="translate(540,398)"/>
<path d="M0 0 C0.66 0 1.32 0 2 0 C2 1.65 2 3.3 2 5 C3.98 5 5.96 5 8 5 C8 5.66 8 6.32 8 7 C6.02 7 4.04 7 2 7 C2.33 11.95 2.66 16.9 3 22 C4.65 22.33 6.3 22.66 8 23 C8 23.99 8 24.98 8 26 C4.62 26.19 4.62 26.19 1 26 C-1.53 22.21 -1.22 19.19 -1.12 14.81 C-1.12 14.06 -1.11 13.31 -1.1 12.54 C-1.07 10.69 -1.04 8.85 -1 7 C-1.99 6.67 -2.98 6.34 -4 6 C-3.01 5.67 -2.02 5.34 -1 5 C-0.67 3.35 -0.34 1.7 0 0 Z " fill="#2E2E2E" transform="translate(252,440)"/>
<path d="M0 0 C1.94 0.81 1.94 0.81 3.94 2.81 C4.2 4.91 4.2 4.91 4.19 7.31 C4.19 8.11 4.2 8.9 4.2 9.72 C3.94 11.81 3.94 11.81 1.94 13.81 C-0.56 14.06 -0.56 14.06 -3.06 13.81 C-5.48 11.4 -5.36 10.69 -5.38 7.38 C-5.39 6.59 -5.41 5.81 -5.43 5 C-4.88 1.73 -3.47 -0.32 0 0 Z " fill="#909090" transform="translate(761.0625,195.1875)"/>
<path d="M0 0 C4.88 0.88 4.88 0.88 6 2 C6.17 3.96 6.17 3.96 6.19 6.38 C6.2 7.17 6.22 7.96 6.23 8.77 C6 11 6 11 4 14 C1.38 14.19 1.38 14.19 -1 14 C-3.1 10.59 -3.41 7.97 -3 4 C-1.5 1.62 -1.5 1.62 0 0 Z " fill="#939393" transform="translate(232,218)"/>
<path d="M0 0 C4.56 0.56 4.56 0.56 6 2 C6.1 3.64 6.13 5.29 6.12 6.94 C6.13 7.83 6.13 8.73 6.13 9.65 C6 12 6 12 5 14 C3.02 14 1.04 14 -1 14 C-2.98 11.21 -3.1 9.17 -2.75 5.88 C-2 2 -2 2 0 0 Z " fill="#919191" transform="translate(273,195)"/>
<path d="M0 0 C1.94 0.81 1.94 0.81 3.94 3.81 C4.39 10.14 4.39 10.14 1.94 13.81 C-0.56 14.12 -0.56 14.12 -3.06 13.81 C-5.58 11.29 -5.36 10.3 -5.38 6.81 C-5.39 5.93 -5.41 5.04 -5.43 4.12 C-5.31 3.36 -5.19 2.6 -5.06 1.81 C-2.06 -0.19 -2.06 -0.19 0 0 Z " fill="#929292" transform="translate(435.0625,195.1875)"/>
<path d="M0 0 C0.66 0 1.32 0 2 0 C2 1.65 2 3.3 2 5 C3.98 5 5.96 5 8 5 C8 5.66 8 6.32 8 7 C6.02 7 4.04 7 2 7 C2.33 11.95 2.66 16.9 3 22 C4.65 22.33 6.3 22.66 8 23 C8 23.99 8 24.98 8 26 C4.62 26.19 4.62 26.19 1 26 C-1.53 22.21 -1.22 19.19 -1.12 14.81 C-1.12 14.06 -1.11 13.31 -1.1 12.54 C-1.07 10.69 -1.04 8.85 -1 7 C-1.99 6.67 -2.98 6.34 -4 6 C-3.01 5.34 -2.02 4.68 -1 4 C-0.31 1.88 -0.31 1.88 0 0 Z " fill="#30302F" transform="translate(370,440)"/>
<path d="M0 0 C0.99 0 1.98 0 3 0 C3.33 0.66 3.66 1.32 4 2 C4.58 1.67 5.16 1.34 5.75 1 C8 0 8 0 12 0 C12 0.99 12 1.98 12 3 C11.03 3.31 10.06 3.62 9.06 3.94 C6 5 6 5 5 6 C4.76 8.53 4.58 11.03 4.44 13.56 C4.39 14.27 4.35 14.98 4.31 15.72 C4.2 17.48 4.1 19.24 4 21 C2.68 21 1.36 21 0 21 C0 14.07 0 7.14 0 0 Z " fill="#404040" transform="translate(136,491)"/>
<path d="M0 0 C0.99 0.33 1.98 0.66 3 1 C4.39 3.94 4.39 3.94 5.69 7.56 C5.91 8.16 5.91 8.16 7.01 11.19 C7.34 12.12 7.66 13.05 8 14 C3.71 14 -0.58 14 -5 14 C-4.24 10.18 -3.52 7.62 -1.94 4.19 C-1.58 3.4 -1.21 2.61 -0.84 1.79 C-0.56 1.2 -0.29 0.61 0 0 Z " fill="#DFE7EE" transform="translate(511,326)"/>
<path d="M0 0 C0.66 0 1.32 0 2 0 C2 1.65 2 3.3 2 5 C3.98 5 5.96 5 8 5 C8 5.66 8 6.32 8 7 C6.02 7 4.04 7 2 7 C2.33 11.95 2.66 16.9 3 22 C4.65 22.33 6.3 22.66 8 23 C8 23.99 8 24.98 8 26 C5.69 26 3.38 26 1 26 C-1.45 22.26 -1.23 18.56 -1.12 14.25 C-1.12 13.55 -1.11 12.86 -1.1 12.14 C-1.07 10.42 -1.04 8.71 -1 7 C-1.99 6.67 -2.98 6.34 -4 6 C-3.53 5.57 -3.05 5.13 -2.56 4.69 C-1 3 -1 3 0 0 Z " fill="#2A2A29" transform="translate(887,440)"/>
<path d="M0 0 C3 1 3 1 4.17 2.93 C4.5 3.71 4.84 4.5 5.19 5.31 C5.53 6.09 5.88 6.87 6.23 7.68 C7 10 7 10 7 14 C3.04 14 -0.92 14 -5 14 C-1.86 4.43 -1.86 4.43 0 0 Z " fill="#E1EAEF" transform="translate(67,326)"/>
<path d="M0 0 C0.45 0.01 0.45 0.01 2.7 0.08 C3.38 0.12 4.05 0.15 4.75 0.19 C4.75 0.52 4.75 0.85 4.75 1.19 C1.45 1.85 -1.85 2.51 -5.25 3.19 C-4.92 4.84 -4.59 6.49 -4.25 8.19 C-1.61 8.19 1.03 8.19 3.75 8.19 C4.08 6.54 4.41 4.89 4.75 3.19 C5.74 3.19 6.73 3.19 7.75 3.19 C7.75 5.83 7.75 8.47 7.75 11.19 C7.13 10.98 6.51 10.77 5.88 10.56 C5.17 10.44 4.47 10.31 3.75 10.19 C3.09 10.85 2.43 11.51 1.75 12.19 C-5.26 12.74 -5.26 12.74 -8.25 11.06 C-9.75 8.26 -9.71 6.31 -9.25 3.19 C-6.26 0.24 -4.12 -0.16 0 0 Z " fill="#2C2C2C" transform="translate(487.25,453.8125)"/>
<path d="M0 0 C1.31 2.62 1.13 4.64 1.12 7.56 C1.13 8.55 1.13 9.55 1.13 10.57 C1 13 1 13 0 14 C-2.44 14.19 -2.44 14.19 -5 14 C-7.52 11.48 -7.3 10.49 -7.31 7 C-7.33 6.11 -7.35 5.23 -7.36 4.31 C-7.24 3.55 -7.12 2.79 -7 2 C-4 0 -4 0 0 0 Z " fill="#989898" transform="translate(66,218)"/>
<path d="M0 0 C4.88 0.88 4.88 0.88 6 2 C6.1 3.83 6.13 5.67 6.12 7.5 C6.13 8.5 6.13 9.5 6.13 10.53 C6 13 6 13 5 14 C3 14.04 1 14.04 -1 14 C-2.17 11.66 -2.17 10.17 -2.19 7.56 C-2.2 6.78 -2.22 6 -2.23 5.19 C-2 3 -2 3 0 0 Z " fill="#949494" transform="translate(123,195)"/>
<path d="M0 0 C4.56 0.56 4.56 0.56 6 2 C6.1 3.83 6.13 5.67 6.12 7.5 C6.13 8.5 6.13 9.5 6.13 10.53 C6 13 6 13 5 14 C2.56 14.19 2.56 14.19 0 14 C-2 12 -2 12 -2.27 9.69 C-2.26 8.8 -2.26 7.91 -2.25 7 C-2.26 6.11 -2.26 5.23 -2.27 4.31 C-2 2 -2 2 0 0 Z " fill="#959595" transform="translate(72,218)"/>
<path d="M0 0 C2.56 0.25 2.56 0.25 5 1 C6.18 3.37 6.13 4.87 6.12 7.5 C6.13 8.29 6.13 9.09 6.13 9.91 C6 12 6 12 5 14 C3 14.04 1 14.04 -1 14 C-2.74 12.26 -2.17 9.92 -2.19 7.56 C-2.2 6.57 -2.22 5.59 -2.23 4.57 C-2 2 -2 2 0 0 Z " fill="#979797" transform="translate(599,195)"/>
<path d="M0 0 C0.66 0 1.32 0 2 0 C2 1.65 2 3.3 2 5 C3.98 5 5.96 5 8 5 C8 5.66 8 6.32 8 7 C6.02 7 4.04 7 2 7 C2.33 11.95 2.66 16.9 3 22 C3.82 22.33 3.82 22.33 8 24 C8 24.66 8 25.32 8 26 C4.62 25.69 4.62 25.69 1 25 C-1.45 21.32 -1.23 18.56 -1.12 14.31 C-1.12 13.61 -1.11 12.91 -1.1 12.19 C-1.07 10.46 -1.04 8.73 -1 7 C-1.99 6.67 -2.98 6.34 -4 6 C-3.01 5.67 -2.02 5.34 -1 5 C-0.67 3.35 -0.34 1.7 0 0 Z " fill="#191918" transform="translate(346,440)"/>
<path d="M0 0 C0.33 0 0.66 0 1 0 C1 4.95 1 9.9 1 15 C-0.65 15 -2.3 15 -4 15 C-4.33 15.33 -4.66 15.66 -5 16 C-11.21 16.46 -11.21 16.46 -13.94 14.88 C-15.52 12.08 -15.46 10.15 -15 7 C-13.56 5.12 -13.56 5.12 -11 4 C-7.98 3.77 -5.02 3.83 -2 4 C-2 4.33 -2 4.66 -2 5 C-4.64 5.66 -7.28 6.32 -10 7 C-10.33 8.65 -10.66 10.3 -11 12 C-7.62 12.12 -7.62 12.12 -4 12 C-1.58 9.58 -1.47 8.2 -0.88 4.88 C-0.71 3.96 -0.54 3.05 -0.37 2.12 C-0.25 1.42 -0.12 0.72 0 0 Z " fill="#232323" transform="translate(429,450)"/>
<path d="M0 0 C1.11 4.04 1 7.83 1 12 C-2.38 12.62 -2.38 12.62 -6 13 C-6.66 12.34 -7.32 11.68 -8 11 C-7.62 9.06 -7.62 9.06 -7 7 C-7 6.01 -7 5.02 -7 4 C-7 2.68 -7 1.36 -7 0 C-4.33 -1.33 -2.83 -0.67 0 0 Z " fill="#7C7C7C" transform="translate(99,219)"/>
<path d="M0 0 C0.66 0 1.32 0 2 0 C2 1.32 2 2.64 2 4 C3.98 4 5.96 4 8 4 C8 4.66 8 5.32 8 6 C6.02 6 4.04 6 2 6 C2.33 10.95 2.66 15.9 3 21 C3.83 21.33 3.83 21.33 8 23 C8 23.66 8 24.32 8 25 C2.38 25.25 2.38 25.25 -1 23 C-1.22 20.05 -1.28 17.32 -1.19 14.38 C-1.17 13.57 -1.16 12.77 -1.15 11.95 C-1.11 9.96 -1.06 7.98 -1 6 C-1.66 5.67 -2.32 5.34 -3 5 C-1.62 2.5 -1.62 2.5 0 0 Z " fill="#292929" transform="translate(804,487)"/>
<path d="M0 0 C0.99 0 1.98 0 3 0 C3.33 0.66 3.66 1.32 4 2 C4.66 1.34 5.32 0.68 6 0 C9.12 -0.12 9.12 -0.12 12 0 C11.67 0.66 11.34 1.32 11 2 C9.02 2.66 7.04 3.32 5 4 C4.67 9.61 4.34 15.22 4 21 C2.68 21 1.36 21 0 21 C0 14.07 0 7.14 0 0 Z " fill="#3C3C3C" transform="translate(169,445)"/>
<path d="M0 0 C0.33 0 0.66 0 1 0 C1.33 3.3 1.66 6.6 2 10 C2.99 10 3.98 10 5 10 C5.1 10.64 5.21 11.28 5.31 11.94 C5.54 12.62 5.77 13.3 6 14 C9.01 15 11.04 15.1 14.19 15.06 C15.09 15.05 15.99 15.04 16.92 15.04 C17.26 15.03 17.26 15.03 19 15 C19 16.32 19 17.64 19 19 C14.19 19.79 10.25 20.41 5.56 18.88 C2.67 16.76 1.56 15.22 0 12 C-0.29 8.89 -0.29 8.89 -0.19 5.69 C-0.16 4.62 -0.13 3.55 -0.11 2.45 C-0.07 1.64 -0.04 0.83 0 0 Z " fill="#252525" transform="translate(612,400)"/>
<path d="M0 0 C-0.88 5.88 -0.88 5.88 -2 7 C-6.23 7.24 -9.37 7.32 -13 5 C-13.33 5.66 -13.66 6.32 -14 7 C-14.31 4.75 -14.31 4.75 -14 2 C-9.76 -3.33 -5.78 -1.86 0 0 Z " fill="#999998" transform="translate(135,409)"/>
<path d="M0 0 C0.99 0.33 1.98 0.66 3 1 C2.19 1.66 1.38 2.33 0.55 3.01 C-2.52 6.61 -2.77 9.28 -2.81 13.81 C-2.84 14.51 -2.86 15.2 -2.89 15.91 C-2.95 17.61 -2.98 19.3 -3 21 C-4.32 21 -5.64 21 -7 21 C-7 14.4 -7 7.8 -7 1 C-6.01 1 -5.02 1 -4 1 C-4 1.66 -4 2.32 -4 3 C-3.4 2.48 -2.8 1.97 -2.19 1.44 C-1.47 0.96 -0.74 0.49 0 0 Z " fill="#282827" transform="translate(210,398)"/>
<path d="M0 0 C2.03 0.64 2.03 0.64 4.09 2.33 C5.26 5.22 5.24 7.55 5.03 10.64 C3.26 10.69 1.49 10.73 -0.29 10.77 C-0.78 10.78 -0.78 10.78 -3.27 10.84 C-5.97 10.64 -5.97 10.64 -8.97 8.64 C-5.34 8.64 -1.71 8.64 2.03 8.64 C0.03 3.64 0.03 3.64 -2.29 2.52 C-4.97 2.64 -4.97 2.64 -7.72 4.7 C-10.14 7.85 -10.7 9.73 -10.97 13.64 C-11.3 13.64 -11.63 13.64 -11.97 13.64 C-12.44 8.88 -12.61 5.67 -10.04 1.52 C-6.28 -0.78 -4.24 -0.76 0 0 Z " fill="#202020" transform="translate(162.97265625,491.359375)"/>
<path d="M0 0 C0.99 0 1.98 0 3 0 C3.33 0.66 3.66 1.32 4 2 C4.66 1.34 5.32 0.68 6 0 C9.12 -0.12 9.12 -0.12 12 0 C12 0.99 12 1.98 12 3 C11.43 3.14 11.43 3.14 8.56 3.88 C7.39 4.25 6.21 4.62 5 5 C3.52 7.96 3.65 10.84 3.44 14.12 C3.35 15.41 3.27 16.69 3.18 18.01 C3.12 19 3.06 19.98 3 21 C2.01 21 1.02 21 0 21 C0 14.07 0 7.14 0 0 Z " fill="#2F2F2F" transform="translate(102,445)"/>
<path d="M0 0 C4.88 1.88 4.88 1.88 6 3 C6.09 4.34 6.11 5.69 6.1 7.04 C6.09 7.84 6.09 8.65 6.09 9.49 C6.08 10.34 6.07 11.19 6.06 12.06 C6.06 12.92 6.05 13.77 6.05 14.65 C6.04 16.77 6.02 18.88 6 21 C4.68 21 3.36 21 2 21 C1.99 20.43 1.99 20.43 1.92 17.57 C1.87 16.09 1.81 14.61 1.75 13.12 C1.74 12.38 1.72 11.63 1.71 10.86 C1.61 8.7 1.61 8.7 1 5 C-1.05 3.49 -1.05 3.49 -3 3 C-2.01 2.01 -1.02 1.02 0 0 Z " fill="#323232" transform="translate(384,398)"/>
<path d="M0 0 C0.99 0 1.98 0 3 0 C3.33 0.66 3.66 1.32 4 2 C4.99 1.34 5.98 0.68 7 0 C9.69 -0.12 9.69 -0.12 12 0 C12 0.99 12 1.98 12 3 C11.43 3.14 11.43 3.14 8.56 3.88 C7.39 4.25 6.21 4.62 5 5 C3.52 7.96 3.65 10.84 3.44 14.12 C3.35 15.41 3.27 16.69 3.18 18.01 C3.12 19 3.06 19.98 3 21 C2.01 21 1.02 21 0 21 C0 14.07 0 7.14 0 0 Z " fill="#353535" transform="translate(202,491)"/>
<path d="M0 0 C2.94 1.56 2.94 1.56 5 4 C5.31 7.75 5.31 7.75 5 11 C0.71 11 -3.58 11 -8 11 C-8.33 10.34 -8.66 9.68 -9 9 C-5.37 9 -1.74 9 2 9 C1.34 7.35 0.68 5.7 0 4 C-2.46 3.2 -4.43 3 -7 3 C-7 3.66 -7 4.32 -7 5 C-7.99 5 -8.98 5 -10 5 C-10.33 7.97 -10.66 10.94 -11 14 C-11.33 14 -11.66 14 -12 14 C-12.3 5.14 -12.3 5.14 -10 2 C-6.26 -0.49 -4.43 -0.46 0 0 Z " fill="#212121" transform="translate(633,491)"/>
<path d="M0 0 C0.99 0 1.98 0 3 0 C3 9.9 3 19.8 3 30 C2.01 30 1.02 30 0 30 C0 20.1 0 10.2 0 0 Z " fill="#2A2A2A" transform="translate(304,482)"/>
<path d="M0 0 C0.99 0 1.98 0 3 0 C3 9.9 3 19.8 3 30 C2.01 30 1.02 30 0 30 C0 20.1 0 10.2 0 0 Z " fill="#1C1C1C" transform="translate(387,482)"/>
<path d="M0 0 C0.99 0 1.98 0 3 0 C3 9.9 3 19.8 3 30 C2.01 30 1.02 30 0 30 C0 20.1 0 10.2 0 0 Z " fill="#1D1D1D" transform="translate(239,482)"/>
<path d="M0 0 C1.32 0 2.64 0 4 0 C4 6.93 4 13.86 4 21 C3.01 21 2.02 21 1 21 C1 20.34 1 19.68 1 19 C0.01 19.33 -0.98 19.66 -2 20 C-2 17 -2 17 -1 16 C-0.76 13.31 -0.58 10.64 -0.44 7.94 C-0.39 7.18 -0.35 6.42 -0.31 5.64 C-0.2 3.76 -0.1 1.88 0 0 Z " fill="#30302F" transform="translate(650,398)"/>
<path d="M0 0 C0.99 0 1.98 0 3 0 C3 0.66 3 1.32 3 2 C3.99 1.67 4.98 1.34 6 1 C8.19 1.94 8.19 1.94 10 3 C9.36 3.12 8.72 3.25 8.06 3.38 C7.38 3.58 6.7 3.79 6 4 C4.52 6.96 4.65 9.84 4.44 13.12 C4.35 14.41 4.27 15.69 4.18 17.01 C4.12 18 4.06 18.98 4 20 C2.68 20 1.36 20 0 20 C0 13.4 0 6.8 0 0 Z " fill="#272726" transform="translate(145,399)"/>
<path d="M0 0 C0.66 0 1.32 0 2 0 C2 4.62 2 9.24 2 14 C-0.31 14 -2.62 14 -5 14 C-7 11 -7 11 -6.69 7.88 C-6 5 -6 5 -5 4 C-3.33 3.96 -1.67 3.96 0 4 C0 2.68 0 1.36 0 0 Z " fill="#828282" transform="translate(875,195)"/>
<path d="M0 0 C0.66 0 1.32 0 2 0 C2 0.66 2 1.32 2 2 C5.3 2 8.6 2 12 2 C12 2.66 12 3.32 12 4 C11.01 4.33 10.02 4.66 9 5 C8.67 7.31 8.34 9.62 8 12 C5.67 12.04 3.33 12.04 1 12 C-0.56 10.44 -0.38 8.72 -0.62 6.56 C-0.72 5.76 -0.82 4.96 -0.91 4.13 C-1 2 -1 2 0 0 Z " fill="#8C8C8C" transform="translate(722,197)"/>
<path d="M0 0 C0.99 0 1.98 0 3 0 C3 9.9 3 19.8 3 30 C2.01 30 1.02 30 0 30 C0 29.34 0 28.68 0 28 C-2.31 28.33 -4.62 28.66 -7 29 C-6.2 28.38 -5.39 27.76 -4.56 27.12 C-2 25 -2 25 -1 23 C-0.93 21.29 -0.92 19.58 -0.94 17.88 C-0.95 16.96 -0.96 16.05 -0.96 15.12 C-0.98 14.42 -0.99 13.72 -1 13 C-0.34 12.67 0.32 12.34 1 12 C1.41 9.5 1.41 9.5 1.62 6.44 C1.7 5.43 1.77 4.41 1.85 3.37 C1.9 2.59 1.95 1.81 2 1 C1.34 0.67 0.68 0.34 0 0 Z " fill="#3C3C3C" transform="translate(745,436)"/>
<path d="M0 0 C5.08 0.26 5.08 0.26 7.69 2.19 C9.96 5.48 9.69 6.87 9.69 11.19 C5.07 11.19 0.45 11.19 -4.31 11.19 C-4.31 10.53 -4.31 9.87 -4.31 9.19 C-1.01 9.19 2.29 9.19 5.69 9.19 C5 6.75 5 6.75 3.69 4.19 C1.23 3.39 -0.74 3.19 -3.31 3.19 C-3.64 4.18 -3.97 5.17 -4.31 6.19 C-4.97 5.86 -5.63 5.53 -6.31 5.19 C-3.91 0.22 -3.91 0.22 0 0 Z " fill="#2A2A2A" transform="translate(588.3125,490.8125)"/>
<path d="M0 0 C0.66 0 1.32 0 2 0 C2 0.99 2 1.98 2 3 C2.56 2.5 3.11 2.01 3.69 1.5 C6.38 -0.25 7.85 -0.26 11 0 C11 0.99 11 1.98 11 3 C10.03 3.29 9.06 3.58 8.06 3.88 C5 5 5 5 4 7 C3.77 9.37 3.59 11.75 3.44 14.12 C3.35 15.41 3.27 16.69 3.18 18.01 C3.12 19 3.06 19.98 3 21 C2.01 21 1.02 21 0 21 C0 14.07 0 7.14 0 0 Z " fill="#282827" transform="translate(556,491)"/>
<path d="M0 0 C0.66 0 1.32 0 2 0 C2 0.99 2 1.98 2 3 C2.56 2.5 3.11 2.01 3.69 1.5 C6.38 -0.25 7.85 -0.26 11 0 C11 0.99 11 1.98 11 3 C10.03 3.29 9.06 3.58 8.06 3.88 C5 5 5 5 4 7 C3.77 9.37 3.59 11.75 3.44 14.12 C3.35 15.41 3.27 16.69 3.18 18.01 C3.12 19 3.06 19.98 3 21 C2.01 21 1.02 21 0 21 C0 14.07 0 7.14 0 0 Z " fill="#272727" transform="translate(644,491)"/>
<path d="M0 0 C0.99 0 1.98 0 3 0 C3.33 0.66 3.66 1.32 4 2 C4.66 1.34 5.32 0.68 6 0 C8.62 -0.12 8.62 -0.12 11 0 C11 0.66 11 1.32 11 2 C10.03 2.45 9.06 2.91 8.06 3.38 C5 5 5 5 4 7 C3.77 9.37 3.59 11.75 3.44 14.12 C3.35 15.41 3.27 16.69 3.18 18.01 C3.12 19 3.06 19.98 3 21 C2.01 21 1.02 21 0 21 C0 14.07 0 7.14 0 0 Z " fill="#2A2A29" transform="translate(639,445)"/>
<path d="M0 0 C2.44 0.62 2.44 0.62 5 2 C5.81 5.12 5.81 5.12 6 8 C3.04 10.87 1.56 11.95 -2.62 12.31 C-6 12 -6 12 -9 11 C-8.67 9.68 -8.34 8.36 -8 7 C-5.03 7.33 -2.06 7.66 1 8 C1 6.68 1 5.36 1 4 C0.01 3.67 -0.98 3.34 -2 3 C-1.34 2.67 -0.68 2.34 0 2 C0 1.34 0 0.68 0 0 Z " fill="#303030" transform="translate(467,408)"/>
<path d="M0 0 C1.32 0 2.64 0 4 0 C4 6.93 4 13.86 4 21 C2.68 21 1.36 21 0 21 C0 14.07 0 7.14 0 0 Z " fill="#494949" transform="translate(434,491)"/>
<path d="M0 0 C1.32 0 2.64 0 4 0 C4 6.93 4 13.86 4 21 C2.68 21 1.36 21 0 21 C0 14.07 0 7.14 0 0 Z " fill="#515151" transform="translate(764,445)"/>
<path d="M0 0 C1.32 0 2.64 0 4 0 C4 6.93 4 13.86 4 21 C2.68 21 1.36 21 0 21 C0 14.07 0 7.14 0 0 Z " fill="#4B4B4B" transform="translate(899,445)"/>
<path d="M0 0 C1.32 0.37 2.63 0.77 3.94 1.19 C4.67 1.41 5.4 1.63 6.15 1.86 C6.76 2.23 7.37 2.61 8 3 C8.33 4.65 8.66 6.3 9 8 C5.04 8 1.08 8 -3 8 C-3.33 9.65 -3.66 11.3 -4 13 C-4.33 13 -4.66 13 -5 13 C-5.62 5.74 -5.62 5.74 -2.5 2 C-1.68 1.34 -0.85 0.68 0 0 Z " fill="#999999" transform="translate(354,399)"/>
<path d="M0 0 C3.06 0.25 3.06 0.25 6 1 C7.24 3.47 6.98 4.77 6.69 7.5 C6.65 7.9 6.65 7.9 6.45 9.91 C6 12 6 12 4 14 C1.38 14.12 1.38 14.12 -1 14 C-1 13.34 -1 12.68 -1 12 C0.65 11.67 2.3 11.34 4 11 C4.33 10.01 4.66 9.02 5 8 C4.22 8.21 3.43 8.41 2.62 8.62 C1.76 8.75 0.89 8.87 0 9 C-2 7 -2 7 -2.25 4.5 C-2 2 -2 2 0 0 Z " fill="#7A7A7A" transform="translate(254,218)"/>
<path d="M0 0 C7.88 0.88 7.88 0.88 9 2 C9.19 4.44 9.19 4.44 9 7 C7 9 7 9 4.38 9.12 C3.59 9.08 2.81 9.04 2 9 C2 10.65 2 12.3 2 14 C1.34 14 0.68 14 0 14 C0 9.38 0 4.76 0 0 Z " fill="#757575" transform="translate(47,195)"/>
<path d="M0 0 C1.79 -0.05 3.58 -0.09 5.38 -0.12 C6.37 -0.15 7.37 -0.17 8.4 -0.2 C11 0 11 0 13 2 C13.23 3.88 13.23 3.88 13.2 6.13 C13.19 6.54 13.19 6.54 13.18 8.57 C13.16 9.42 13.14 10.26 13.12 11.12 C13.12 11.97 13.11 12.82 13.1 13.7 C13.07 15.8 13.04 17.9 13 20 C10 20 7 20 4 20 C4.78 19.44 5.57 18.89 6.38 18.31 C9.17 15.85 10.15 14.59 11 11 C10.57 5.57 10.57 5.57 8 3 C6.05 3.02 6.05 3.02 3.88 3.38 C2.6 3.58 1.32 3.79 0 4 C0 2.68 0 1.36 0 0 Z " fill="#1F1F1E" transform="translate(619,445)"/>
<path d="M0 0 C1.32 0.33 2.64 0.66 4 1 C4.33 0.67 4.66 0.34 5 0 C7.33 -0.04 9.67 -0.04 12 0 C10.38 3.25 7.25 3.7 4 5 C3.67 9.95 3.34 14.9 3 20 C2.01 20 1.02 20 0 20 C0 13.4 0 6.8 0 0 Z " fill="#272727" transform="translate(264,445)"/>
<path d="M0 0 C0.99 0 1.98 0 3 0 C3.79 2.78 4.12 5.23 4.1 8.11 C4.09 8.86 4.09 9.62 4.09 10.39 C4.08 11.17 4.07 11.95 4.06 12.75 C4.06 13.54 4.05 14.34 4.05 15.15 C4.04 17.1 4.02 19.05 4 21 C2.68 21 1.36 21 0 21 C0 14.07 0 7.14 0 0 Z " fill="#454545" transform="translate(779,491)"/>
<path d="M0 0 C1.32 0 2.64 0 4 0 C4 6.6 4 13.2 4 20 C2.68 20 1.36 20 0 20 C0 13.4 0 6.8 0 0 Z " fill="#181818" transform="translate(416,399)"/>
<path d="M0 0 C1.32 0 2.64 0 4 0 C4 6.6 4 13.2 4 20 C2.68 20 1.36 20 0 20 C0 13.4 0 6.8 0 0 Z " fill="#1C1C1B" transform="translate(448,399)"/>
<path d="M0 0 C2.5 0.25 2.5 0.25 4.5 2.25 C4.69 5.81 4.69 5.81 4.5 9.25 C3.5 10.25 3.5 10.25 0.56 10.44 C-2.5 10.25 -2.5 10.25 -4.5 8.25 C-4.75 5.25 -4.75 5.25 -4.5 2.25 C-2.5 0.25 -2.5 0.25 0 0 Z " fill="#8E8E8E" transform="translate(861.5,198.75)"/>
<path d="M0 0 C0.88 -0.03 1.75 -0.06 2.65 -0.09 C5.06 0.38 5.06 0.38 6.88 1.96 C8.06 4.38 8.06 4.38 8.06 11.38 C5.75 11.21 5.75 11.21 -5.94 10.38 C-5.94 10.05 -5.94 9.71 -5.94 9.38 C-2.31 9.38 1.32 9.38 5.06 9.38 C4.9 8.55 4.9 8.55 4.06 4.38 C1.25 3.69 1.25 3.69 -1.94 3.38 C-4.02 4.88 -4.79 6.09 -5.94 8.38 C-6.6 8.38 -7.26 8.38 -7.94 8.38 C-7.14 2.28 -6.4 0.09 0 0 Z " fill="#20201F" transform="translate(661.9375,444.625)"/>
<path d="M0 0 C0.66 0 1.32 0 2 0 C1.67 1.32 1.34 2.64 1 4 C1.99 4 2.98 4 4 4 C4.33 2.68 4.66 1.36 5 0 C5.33 1.32 5.66 2.64 6 4 C6.66 4 7.32 4 8 4 C8 4.66 8 5.32 8 6 C7.01 6 6.02 6 5 6 C5 6.99 5 7.98 5 9 C5.66 9.33 6.32 9.66 7 10 C6.01 10 5.02 10 4 10 C4 11.32 4 12.64 4 14 C3.34 14 2.68 14 2 14 C2 12.68 2 11.36 2 10 C1.34 10 0.68 10 0 10 C0 11.32 0 12.64 0 14 C-0.66 14 -1.32 14 -2 14 C-2.16 13.18 -2.16 13.18 -3 9 C-2.34 9 -1.68 9 -1 9 C-1 8.01 -1 7.02 -1 6 C-1.66 6 -2.32 6 -3 6 C-3 5.34 -3 4.68 -3 4 C-2.01 4 -1.02 4 0 4 C0 2.68 0 1.36 0 0 Z " fill="#5F5F5F" transform="translate(688,218)"/>
<path d="M0 0 C0.33 0 0.66 0 1 0 C1.28 1.93 1.52 3.87 1.75 5.81 C1.82 6.35 1.82 6.35 2.17 9.08 C2 12 2 12 0.24 13.88 C-2.91 15.46 -5.53 15.19 -9 15 C-9.99 15 -10.98 15 -12 15 C-12.66 15 -13.32 15 -14 15 C-14 10.38 -14 5.76 -14 1 C-13.34 1 -12.68 1 -12 1 C-11.34 4.3 -10.68 7.6 -10 11 C-6.62 11.62 -6.62 11.62 -3 12 C-0.5 9.5 -0.64 8.33 -0.38 4.88 C-0.3 3.96 -0.23 3.05 -0.15 2.12 C-0.1 1.42 -0.05 0.72 0 0 Z " fill="#1D1D1D" transform="translate(295,497)"/>
<path d="M0 0 C2.94 2.12 2.94 2.12 5 5 C5 6.98 5 8.96 5 11 C0.38 11 -4.24 11 -9 11 C-9 10.34 -9 9.68 -9 9 C-5.37 9 -1.74 9 2 9 C0 4 0 4 -1 3 C-4.72 2.71 -5.78 2.85 -9 5 C-9 3.68 -9 2.36 -9 1 C-5.86 -0.57 -3.46 -0.35 0 0 Z " fill="#1D1D1D" transform="translate(60,491)"/>
<path d="M0 0 C0.99 0.33 1.98 0.66 3 1 C3 1.66 3 2.32 3 3 C2.75 3.19 2.75 3.19 1.5 4.12 C-0.59 6.74 -0.32 8.8 -0.3 12.06 C0 14 0 14 2 17 C5.12 17.69 5.12 17.69 8 18 C8 18.99 8 19.98 8 21 C4.21 21.35 2.44 21.28 -0.81 19.19 C-3.79 16.21 -3.97 14.37 -4.31 10.19 C-4.29 5.7 -2.76 3.45 0 0 Z " fill="#353535" transform="translate(568,445)"/>
<path d="M0 0 C3.08 2.77 3.94 4.17 4.25 8.31 C4.17 9.2 4.09 10.09 4 11 C2 11.04 -0 11.04 -2 11 C-2.33 10.67 -2.66 10.34 -3 10 C-5.33 9.63 -7.66 9.3 -10 9 C-10 8.67 -10 8.34 -10 8 C-6.7 8 -3.4 8 0 8 C-1.19 5.5 -1.19 5.5 -3 3 C-5.69 2.69 -5.69 2.69 -8 3 C-8.33 2.01 -8.66 1.02 -9 0 C-5.78 -1.61 -3.42 -0.83 0 0 Z " fill="#232322" transform="translate(82,399)"/>
<path d="M0 0 C-0.33 0.64 -0.66 1.28 -1 1.94 C-2.31 5.95 -2.53 9.8 -2 14 C0 17 0 17 1.95 17.51 C2.66 17.57 3.38 17.63 4.12 17.69 C5.4 17.79 6.68 17.89 8 18 C7.67 18.66 7.34 19.32 7 20 C-0.32 20.37 -0.32 20.37 -3.44 18.69 C-6.68 15.19 -6.33 10.9 -6.29 6.39 C-6 4 -6 4 -4.12 1.38 C-2 0 -2 0 0 0 Z " fill="#202020" transform="translate(369,492)"/>
<path d="M0 0 C6.34 -0.37 6.34 -0.37 9.38 1.31 C12.53 4.58 12.34 8.47 12.28 12.77 C11.85 16.22 10.67 17.83 8 20 C4.75 20.31 4.75 20.31 2 20 C2.8 19.36 3.61 18.72 4.44 18.06 C7 16 7 16 8 15 C8.2 13.04 8.2 13.04 8.25 10.62 C8.28 9.83 8.3 9.04 8.33 8.23 C7.92 5.48 7.17 4.68 5 3 C2.31 1.81 2.31 1.81 0 1 C0 0.67 0 0.34 0 0 Z " fill="#202020" transform="translate(152,445)"/>
<path d="M0 0 C0 0.66 0 1.32 0 2 C-0.57 2.14 -0.57 2.14 -3.44 2.88 C-4.61 3.25 -5.79 3.62 -7 4 C-8.16 6.33 -8.2 7.85 -8.25 10.44 C-8.28 11.22 -8.3 12 -8.33 12.81 C-7.92 15.5 -6.98 16.22 -5 18 C-5 18.66 -5 19.32 -5 20 C-7.64 19.64 -8.77 19.25 -10.61 17.26 C-13.01 13.37 -12.75 9.42 -12 5 C-8.65 -0.07 -5.9 -0.58 0 0 Z " fill="#20201F" transform="translate(393,445)"/>
<path d="M0 0 C0.66 0 1.32 0 2 0 C2 4.62 2 9.24 2 14 C-2.39 11.81 -3.51 10.09 -6 6 C-6.33 8.64 -6.66 11.28 -7 14 C-7.66 14 -8.32 14 -9 14 C-9 9.71 -9 5.42 -9 1 C-8.01 1 -7.02 1 -6 1 C-4.61 2.75 -4.61 2.75 -3.31 5 C-2.88 5.74 -2.44 6.49 -1.99 7.25 C-1.66 7.83 -1.34 8.41 -1 9 C-0.67 6.03 -0.34 3.06 0 0 Z " fill="#363636" transform="translate(535,195)"/>
<path d="M0 0 C0.56 0.02 0.56 0.02 3.38 0.12 C3.38 0.79 3.38 1.44 3.38 2.12 C2.81 2.27 2.81 2.27 -0.06 3 C-1.24 3.37 -2.41 3.74 -3.62 4.12 C-5.21 7.3 -5.04 10.67 -4.62 14.12 C-3.12 16.5 -3.12 16.5 -1.62 18.12 C-1.62 18.79 -1.62 19.44 -1.62 20.12 C-4.16 19.77 -5.45 19.28 -7.38 17.56 C-9.14 14.11 -9.19 10.89 -8.62 7.12 C-6.49 2.66 -5.15 0.18 0 0 Z " fill="#1F1F1F" transform="translate(916.625,444.875)"/>
<path d="M0 0 C0.99 0.17 0.99 0.17 6 1 C6.33 1.66 6.66 2.32 7 3 C6.52 3.34 6.04 3.67 5.54 4.02 C3.24 6.97 3.43 10.09 3.31 13.69 C3.28 14.39 3.24 15.09 3.21 15.81 C3.13 17.54 3.06 19.27 3 21 C2.01 21 1.02 21 0 21 C0 14.07 0 7.14 0 0 Z " fill="#323232" transform="translate(205,445)"/>
<path d="M0 0 C3.38 -0.19 3.38 -0.19 7 0 C9.03 3.05 9.25 3.6 9.2 7.01 C9.19 7.39 9.19 7.39 9.18 9.31 C9.16 10.09 9.14 10.88 9.12 11.69 C9.12 12.48 9.11 13.28 9.1 14.1 C9.07 16.07 9.04 18.03 9 20 C8.01 20 7.02 20 6 20 C5.67 14.72 5.34 9.44 5 4 C3.02 3.34 1.04 2.68 -1 2 C-0.67 1.34 -0.34 0.68 0 0 Z " fill="#282827" transform="translate(284,445)"/>
<path d="M0 0 C-0.36 2.66 -0.71 4.58 -2.25 6.81 C-4.63 8.43 -6.18 8.36 -9 8 C-9.66 7.34 -10.32 6.68 -11 6 C-10.75 3.44 -10.75 3.44 -10 1 C-6.79 -0.61 -3.56 -0.06 0 0 Z " fill="#E9E9E9" transform="translate(271,502)"/>
<path d="M0 0 C0.66 0 1.32 0 2 0 C1.67 1.32 1.34 2.64 1 4 C1.99 4 2.98 4 4 4 C4 2.68 4 1.36 4 0 C4.66 0 5.32 0 6 0 C5.67 1.32 5.34 2.64 5 4 C5.66 4.33 6.32 4.66 7 5 C6.34 5 5.68 5 5 5 C5 6.32 5 7.64 5 9 C5.66 9.33 6.32 9.66 7 10 C6.01 10 5.02 10 4 10 C3.67 11.32 3.34 12.64 3 14 C2.67 12.68 2.34 11.36 2 10 C0 11 0 11 -2 14 C-2 12.68 -2 11.36 -2 10 C-2.66 9.67 -3.32 9.34 -4 9 C-3.01 9 -2.02 9 -1 9 C-1 8.01 -1 7.02 -1 6 C-1.66 6 -2.32 6 -3 6 C-3 5.34 -3 4.68 -3 4 C-2.01 4 -1.02 4 0 4 C0 2.68 0 1.36 0 0 Z " fill="#505050" transform="translate(369,218)"/>
<path d="M0 0 C2.02 0.07 4.04 0.13 6.05 0.2 C6.3 2.51 6.3 2.51 6.05 5.2 C4.43 7.07 4.43 7.07 2.05 8.2 C-1.2 7.88 -1.2 7.88 -3.95 7.2 C-4.07 4.82 -4.07 4.82 -3.95 2.2 C-1.95 0.2 -1.95 0.2 0 0 Z " fill="#ECECEC" transform="translate(718.9453125,501.8046875)"/>
<path d="M0 0 C1.44 0.12 2.89 0.25 4.38 0.38 C4.78 0.41 4.78 0.41 6.84 0.59 C9 1 9 1 11 3 C11.55 9.9 11.55 9.9 10 13 C6.72 14.64 3.63 14.18 0 14 C0 9.38 0 4.76 0 0 Z M2 2 C2 5.3 2 8.6 2 12 C4.88 12.19 4.88 12.19 8 12 C10 9 10 9 9.69 5.88 C9 3 9 3 8 2 C6 1.96 4 1.96 2 2 Z " fill="#464646" transform="translate(389,218)"/>
<path d="M0 0 C2.59 0.57 3.56 1.35 5.12 3.47 C4.81 6.16 4.81 6.16 4.12 8.47 C3.56 7.64 3.01 6.82 2.43 5.97 C0.12 3.47 0.12 3.47 -2.63 3.16 C-3.37 3.26 -4.11 3.36 -4.88 3.47 C-5.19 4 -5.19 4 -6.75 6.72 C-7.1 7.32 -7.45 7.93 -7.81 8.55 C-8.89 10.49 -9.9 12.47 -10.88 14.47 C-11.23 10 -11.37 6.52 -9.44 2.41 C-6.17 -0.07 -4.01 -0.05 0 0 Z " fill="#20201F" transform="translate(309.87890625,444.53125)"/>
<path d="M0 0 C-0.33 1.32 -0.66 2.64 -1 4 C-3.97 4 -6.94 4 -10 4 C-10.66 5.32 -11.32 6.64 -12 8 C-12.66 7.67 -13.32 7.34 -14 7 C-14.33 7.66 -14.66 8.32 -15 9 C-14.88 5.69 -14.88 5.69 -14 2 C-9.26 -1.7 -5.57 -1.06 0 0 Z " fill="#2C2C2C" transform="translate(411,399)"/>
<path d="M0 0 C0.33 0.99 0.66 1.98 1 3 C1.66 3.33 2.32 3.66 3 4 C3.33 2.68 3.66 1.36 4 0 C4.33 1.32 4.66 2.64 5 4 C5.66 4 6.32 4 7 4 C7 4.66 7 5.32 7 6 C6.01 6 5.02 6 4 6 C4 6.99 4 7.98 4 9 C4.66 9.33 5.32 9.66 6 10 C5.01 10 4.02 10 3 10 C2.67 10.66 2.34 11.32 2 12 C2 11.34 2 10.68 2 10 C1.01 10 0.02 10 -1 10 C-1.33 10.99 -1.66 11.98 -2 13 C-2 12.01 -2 11.02 -2 10 C-2.66 9.67 -3.32 9.34 -4 9 C-3.34 9 -2.68 9 -2 9 C-2 8.01 -2 7.02 -2 6 C-2.66 6 -3.32 6 -4 6 C-4 5.34 -4 4.68 -4 4 C-3.01 4 -2.02 4 -1 4 C-0.67 2.68 -0.34 1.36 0 0 Z " fill="#565656" transform="translate(210,218)"/>
<path d="M0 0 C0.22 2.74 0.35 4.44 -1.12 6.81 C-3.8 8.51 -5.9 8.27 -9 8 C-10 7 -10 7 -10.06 4.44 C-10.04 3.63 -10.02 2.83 -10 2 C-6.49 0.4 -3.86 -0.22 0 0 Z " fill="#EAEAEA" transform="translate(698,455)"/>
<path d="M0 0 C0.41 0 0.41 0 2.48 0.03 C2.79 0.03 2.79 0.03 4.38 0.06 C4.05 0.72 3.72 1.38 3.38 2.06 C1.39 2.51 -0.61 2.96 -2.62 3.3 C-5.34 4.33 -6.14 5.58 -7.62 8.06 C-8.57 10.64 -8.57 10.64 -9.31 13.31 C-9.56 14.2 -9.82 15.1 -10.07 16.02 C-10.26 16.69 -10.44 17.37 -10.62 18.06 C-10.95 18.06 -11.28 18.06 -11.62 18.06 C-12.49 7.31 -12.49 7.31 -9.25 3.44 C-5.85 0.36 -4.45 -0.06 0 0 Z " fill="#242424" transform="translate(59.625,437.9375)"/>
<path d="M0 0 C0.66 0 1.32 0 2 0 C2.84 1.96 3.67 3.92 4.5 5.88 C4.96 6.97 5.43 8.06 5.91 9.18 C7 12 7 12 7 14 C6.34 14 5.68 14 5 14 C4.67 13.01 4.34 12.02 4 11 C3.01 10.84 3.01 10.84 -2 10 C-2.33 11.32 -2.66 12.64 -3 14 C-3.66 14 -4.32 14 -5 14 C-3.46 9.28 -1.92 4.58 0 0 Z " fill="#5A5A5A" transform="translate(244,218)"/>
<path d="M0 0 C2.56 0.31 2.56 0.31 4.38 1.56 C5.56 3.31 5.56 3.31 5.56 7.31 C1.93 7.31 -1.7 7.31 -5.44 7.31 C-4.08 0.52 -4.08 0.52 0 0 Z " fill="#DEDEDE" transform="translate(56.4375,492.6875)"/>
<path d="M0 0 C0.99 0 1.98 0 3 0 C3 6.93 3 13.86 3 21 C2.01 21 1.02 21 0 21 C-0.99 16.27 -0.97 11.91 -0.56 7.12 C-0.51 6.44 -0.46 5.75 -0.4 5.04 C-0.28 3.36 -0.14 1.68 0 0 Z " fill="#262626" transform="translate(411,491)"/>
</svg>
